/* XPM */
static char *_582232866357[] = {
/* columns rows colors chars-per-pixel */
"24 21 25 1 ",
"  c black",
". c #010101",
"X c gray5",
"o c #0E0E0E",
"O c gray6",
"+ c #191919",
"@ c gray10",
"# c gray15",
"$ c gray20",
"% c #343434",
"& c #535353",
"* c gray33",
"= c gray46",
"- c gray53",
"; c gray60",
": c #9A9A9A",
"> c gray68",
", c #AEAEAE",
"< c #C0C0C0",
"1 c #C1C1C1",
"2 c #D5D5D5",
"3 c #E9E9E9",
"4 c #EAEAEA",
"5 c #FEFEFE",
"6 c white",
/* pixels */
"                        ",
"                        ",
"                        ",
"         6666666        ",
"        656666666       ",
"       66666666666      ",
"      6666    66666     ",
"     6666      6666     ",
"     666        666     ",
"     656        666     ",
"     666        666     ",
"     666        666     ",
"     666        666     ",
"     666       6666     ",
"     6666     66666     ",
"     6666666666666      ",
"      66666666666       ",
"       666666666        ",
"         6666           ",
"                        ",
"                        "
};
