/* XPM */
static char *_582232873062[] = {
/* columns rows colors chars-per-pixel */
"24 21 25 1 ",
"  c black",
". c #010101",
"X c gray5",
"o c #0E0E0E",
"O c #191919",
"+ c gray10",
"@ c #1B1B1B",
"# c gray15",
"$ c #343434",
"% c #353535",
"& c #535353",
"* c #646464",
"= c #656565",
"- c gray46",
"; c #767676",
": c #868686",
"> c gray53",
", c #9A9A9A",
"< c gray68",
"1 c #D5D5D5",
"2 c gray84",
"3 c #D7D7D7",
"4 c #EAEAEA",
"5 c #FEFEFE",
"6 c white",
/* pixels */
"                        ",
"                        ",
"             666        ",
"           666666       ",
"         66666666       ",
"       6666666666       ",
"       6666666666       ",
"       6666 6666        ",
"        6   6666        ",
"            6666        ",
"            6666        ",
"            6666        ",
"            6666        ",
"            666         ",
"           6666         ",
"           6666         ",
"           6666         ",
"           6666         ",
"            666         ",
"                        ",
"                        "
};
