/* XPM */
static char *_582232879779[] = {
/* columns rows colors chars-per-pixel */
"24 21 33 1 ",
"  c black",
". c #010101",
"X c #0E0E0E",
"o c #191919",
"O c gray10",
"+ c gray15",
"@ c #272727",
"# c #343434",
"$ c #353535",
"% c #434343",
"& c #444444",
"* c #535353",
"= c #646464",
"- c #656565",
"; c gray46",
": c #767676",
"> c #868686",
", c gray53",
"< c #888888",
"1 c gray60",
"2 c #9A9A9A",
"3 c #ACACAC",
"4 c gray68",
"5 c #AEAEAE",
"6 c #C1C1C1",
"7 c gray83",
"8 c #D5D5D5",
"9 c gray84",
"0 c #E9E9E9",
"q c #EAEAEA",
"w c gray92",
"e c #FEFEFE",
"r c white",
/* pixels */
"                        ",
"                        ",
"         rrrrrr         ",
"       rrrrrrrrrr       ",
"      rrrrrrrrrrrr      ",
"     rrrrrrrrrrrrr      ",
"     rrrr     rrrrr     ",
"     rrrr      rrrr     ",
"     rrr       rrrr     ",
"              rrrrr     ",
"             rrrrr      ",
"            rrrrrr      ",
"           rrrrrr       ",
"         rrrrrrr        ",
"      rrrrrrrr          ",
"     rrrrrrrr   rrr     ",
"     rrrrrrrrrrrrrr     ",
"     rrrrrrrrrrrrrr     ",
"      rrrrrrrrrrrr      ",
"                        ",
"                        "
};
