/* XPM */
static char *_582232886719[] = {
/* columns rows colors chars-per-pixel */
"24 21 31 1 ",
"  c black",
". c #010101",
"X c #020202",
"o c gray5",
"O c #0E0E0E",
"+ c gray6",
"@ c gray10",
"# c gray15",
"$ c gray20",
"% c #343434",
"& c #353535",
"* c #434343",
"= c #444444",
"- c #535353",
"; c gray39",
": c #646464",
"> c #747474",
", c gray46",
"< c #767676",
"1 c gray53",
"2 c #888888",
"3 c #9A9A9A",
"4 c gray68",
"5 c #C0C0C0",
"6 c #C1C1C1",
"7 c #D5D5D5",
"8 c gray84",
"9 c #EAEAEA",
"0 c gray92",
"q c #FEFEFE",
"w c white",
/* pixels */
"                        ",
"                        ",
"        wwwwwww         ",
"      wwwwwwwwww        ",
"     wwwwwwwwwwww       ",
"     wwwwwwwwwwww       ",
"     www     wwww       ",
"            wwwww       ",
"          wwwwwww       ",
"         wwwwwwww       ",
"         wwwwwwwww      ",
"         wwwwwwwwww     ",
"               wwww     ",
"               wwww     ",
"              wwwww     ",
"      wwwwwwwwwwwww     ",
"     wwwwwwwwwwwww      ",
"     wwwwwwwwwwww       ",
"      wwwwwwww          ",
"                        ",
"                        "
};
