/* XPM */
static char *_582232896777[] = {
/* columns rows colors chars-per-pixel */
"24 21 27 1 ",
"  c black",
". c #010101",
"X c gray5",
"o c #0E0E0E",
"O c #191919",
"+ c gray10",
"@ c gray15",
"# c #343434",
"$ c #353535",
"% c #434343",
"& c #535353",
"* c gray33",
"= c gray39",
"- c #646464",
"; c #747474",
": c gray46",
"> c #767676",
", c #9A9A9A",
"< c #ACACAC",
"1 c gray68",
"2 c #C0C0C0",
"3 c #C1C1C1",
"4 c #D5D5D5",
"5 c gray84",
"6 c #EAEAEA",
"7 c #FEFEFE",
"8 c white",
/* pixels */
"                        ",
"                        ",
"             888        ",
"            88888       ",
"           888888       ",
"         8888888        ",
"        8888888         ",
"       888888 888       ",
"      888888 8888       ",
"      88888  8888       ",
"     88888   8888       ",
"     8888    8888       ",
"    8888     888888     ",
"    8888888888888888    ",
"     888888888888888    ",
"     88888888888888     ",
"        888888888       ",
"             8888       ",
"             888        ",
"                        ",
"                        "
};
