/* XPM */
static char *_582232903628[] = {
/* columns rows colors chars-per-pixel */
"24 21 23 1 ",
"  c black",
". c #010101",
"X c gray5",
"o c #0E0E0E",
"O c gray10",
"+ c #252525",
"@ c gray15",
"# c gray20",
"$ c #343434",
"% c #434343",
"& c #646464",
"* c gray46",
"= c #767676",
"- c gray53",
"; c gray60",
": c #9A9A9A",
"> c gray68",
", c #AEAEAE",
"< c #C1C1C1",
"1 c #D5D5D5",
"2 c #EAEAEA",
"3 c #FEFEFE",
"4 c white",
/* pixels */
"                        ",
"                        ",
"        444444444       ",
"      444444444444      ",
"      444444444444      ",
"      444444444444      ",
"      444               ",
"     444444444          ",
"     44444444444        ",
"      444444444444      ",
"            444444      ",
"              44444     ",
"               4444     ",
"               4444     ",
"             444444     ",
"      444444444444      ",
"     444444444444       ",
"     44444444444        ",
"      44444444          ",
"                        ",
"                        "
};
