/* XPM */
static char *_582232913835[] = {
/* columns rows colors chars-per-pixel */
"24 21 33 1 ",
"  c black",
". c #010101",
"X c gray5",
"o c #0E0E0E",
"O c gray6",
"+ c gray10",
"@ c gray15",
"# c #272727",
"$ c #343434",
"% c #353535",
"& c gray26",
"* c #434343",
"= c #444444",
"- c gray32",
"; c #535353",
": c gray39",
"> c #646464",
", c #747474",
"< c gray46",
"1 c gray53",
"2 c #888888",
"3 c #9A9A9A",
"4 c #9B9B9B",
"5 c gray68",
"6 c #AEAEAE",
"7 c #C1C1C1",
"8 c gray83",
"9 c #D5D5D5",
"0 c #E9E9E9",
"q c #EAEAEA",
"w c gray92",
"e c #FEFEFE",
"r c white",
/* pixels */
"                        ",
"                        ",
"           rr           ",
"          rrrr          ",
"         rrrrr          ",
"        rrrrr           ",
"       rrrrr            ",
"      rrrrrrrrrr        ",
"      rrrrrrrrrrr       ",
"     rrrrrrrrrrrrr      ",
"     rrrrr    rrrrr     ",
"     rrrr      rrrr     ",
"     rrr       rrrr     ",
"     rrr       rrrr     ",
"     rrrr     rrrrr     ",
"     rrrrrrrrrrrrrr     ",
"      rrrrrrrrrrrr      ",
"      rrrrrrrrrrr       ",
"        rrrrrrr         ",
"                        ",
"                        "
};
