/* XPM */
static char *_582232921124[] = {
/* columns rows colors chars-per-pixel */
"24 21 25 1 ",
"  c black",
". c #010101",
"X c #0E0E0E",
"o c gray10",
"O c #1B1B1B",
"+ c #252525",
"@ c gray15",
"# c gray20",
"$ c #343434",
"% c #353535",
"& c #434343",
"* c #444444",
"= c #535353",
"- c #656565",
"; c gray46",
": c #989898",
"> c #9A9A9A",
", c gray68",
"< c #AEAEAE",
"1 c #C1C1C1",
"2 c #D5D5D5",
"3 c #E9E9E9",
"4 c #EAEAEA",
"5 c #FEFEFE",
"6 c white",
/* pixels */
"                        ",
"                        ",
"          6666666       ",
"     66666666666666     ",
"     66666666666666     ",
"     66666666666666     ",
"     666      66666     ",
"             66666      ",
"            66666       ",
"            6666        ",
"           6666         ",
"          66666         ",
"          6666          ",
"         66666          ",
"         6666           ",
"        66666           ",
"        6666            ",
"        6666            ",
"         66             ",
"                        ",
"                        "
};
