/* XPM */
static char *_582232947182[] = {
/* columns rows colors chars-per-pixel */
"24 21 32 1 ",
"  c black",
". c #010101",
"X c #0E0E0E",
"o c gray6",
"O c #191919",
"+ c gray10",
"@ c #1B1B1B",
"# c gray15",
"$ c #343434",
"% c #353535",
"& c #434343",
"* c #444444",
"= c #535353",
"- c gray39",
"; c #646464",
": c gray46",
"> c #767676",
", c gray53",
"< c #888888",
"1 c #9A9A9A",
"2 c #9B9B9B",
"3 c #ACACAC",
"4 c gray68",
"5 c #AEAEAE",
"6 c #C1C1C1",
"7 c gray76",
"8 c #D5D5D5",
"9 c gray84",
"0 c #EAEAEA",
"q c gray92",
"w c #FEFEFE",
"e c white",
/* pixels */
"                        ",
"                        ",
"         eeeeee         ",
"       eeeeeeeeee       ",
"       eeeeeeeeeee      ",
"      eeeee   eeee      ",
"      eeee    eeee      ",
"      eeeee  eeeee      ",
"       eeeeeeeeee       ",
"      eeeeeeeeeeee      ",
"     eeeeeeeeeeeeee     ",
"     eeeee     eeee     ",
"     eeee      eeee     ",
"     eeee      eeee     ",
"     eeee      eeee     ",
"     eeeee    eeeee     ",
"     eeeeeeeeeeeee      ",
"      eeeeeeeeeee       ",
"        eeeeeeee        ",
"                        ",
"                        "
};
