/* XPM */
static char *_582232976374[] = {
/* columns rows colors chars-per-pixel */
"24 21 27 1 ",
"  c black",
". c #010101",
"X c #0E0E0E",
"o c gray10",
"O c #1B1B1B",
"+ c gray15",
"@ c gray20",
"# c #343434",
"$ c #353535",
"% c gray26",
"& c #434343",
"* c #535353",
"= c #646464",
"- c gray46",
"; c gray53",
": c #9A9A9A",
"> c #9B9B9B",
", c gray68",
"< c #AEAEAE",
"1 c #C1C1C1",
"2 c gray83",
"3 c #D5D5D5",
"4 c gray84",
"5 c #EAEAEA",
"6 c gray92",
"7 c #FEFEFE",
"8 c white",
/* pixels */
"                        ",
"                        ",
"         888888         ",
"       8888888888       ",
"      888888888888      ",
"     88888888888888     ",
"     88888    88888     ",
"     8888      8888     ",
"     888       8888     ",
"     888       8888     ",
"     8888     88888     ",
"      8888888888888     ",
"       88888888888      ",
"         888888888      ",
"            88888       ",
"           88888        ",
"          88888         ",
"          8888          ",
"          888           ",
"                        ",
"                        "
};
