/* XPM */
static char *f5056ae44f774e3cbce6a7e156a24601[] = {
/* columns rows colors chars-per-pixel */
"64 64 75 1 ",
"  c #000000",
". c #191509",
"X c #1A180B",
"o c #161616",
"O c #171719",
"+ c #1C1C1B",
"@ c #251E0E",
"# c #2B1F11",
"$ c #2F250E",
"% c #30250F",
"& c #2C2311",
"* c #302511",
"= c #382714",
"- c #372813",
"; c #3D2B15",
": c #252525",
"> c #262628",
", c #2F2F2F",
"< c #302E2F",
"1 c #31302E",
"2 c #2E2F31",
"3 c #312F30",
"4 c #2F3130",
"5 c #303030",
"6 c #393937",
"7 c #373938",
"8 c #393939",
"9 c #402B16",
"0 c #4A2F16",
"q c #4B2F19",
"w c #4A3016",
"e c #4B3119",
"r c #52321B",
"t c #5C371D",
"y c #5D381E",
"u c #633C1F",
"i c #643C20",
"p c #6B3F22",
"a c #6B4021",
"s c #744325",
"d c #794526",
"f c #774629",
"g c #794529",
"h c #7F482A",
"j c #454545",
"k c #4F4F4F",
"l c #504E4F",
"z c #4E504F",
"x c #50504E",
"c c #4F4F51",
"v c #504E51",
"b c #4F5150",
"n c #505050",
"m c #585657",
"M c #575956",
"N c #595957",
"B c #575958",
"V c #595959",
"C c #676767",
"Z c #686667",
"A c #686866",
"S c #666769",
"D c #686669",
"F c #686868",
"G c #727271",
"H c #80472A",
"J c #80492B",
"K c #8A4F2D",
"L c #8A502D",
"P c #8A4F31",
"I c #8F5432",
"U c #915531",
"Y c #159F16",
"T c #159F18",
"R c #16A019",
/* pixels */
"                                                                ",
"                                                                ",
"                                                                ",
"                                                                ",
"                                                                ",
"                                                                ",
"                                                                ",
"                                                                ",
"                                                                ",
"                                                                ",
"                                                                ",
"                                                                ",
"                                                                ",
"                                                                ",
"                                                                ",
"                                                                ",
"                                                                ",
"                                                                ",
"                                                                ",
"                                                                ",
"                                                                ",
"                                                                ",
"                                                                ",
"                                                                ",
"                                                                ",
"                                                                ",
"                                                                ",
"                                                                ",
"                                                                ",
"                                                                ",
"                                                                ",
"                       knkkckkzlVVVVVVFFCC                      ",
"                     Nl88888888888jjjjjllzDN                    ",
"                    NA8:oooO+++++++>:35548z8z                   ",
"                    VVAGGDDNVVVVnnnnjjjj885::                   ",
"                   sgVVZSNBbccjjjj888355::::%*                  ",
"                   afudsitttrrrr00e;;;&*%***;*                  ",
"                  figfLUfUKKgphhfsareyrr-rw**;*                 ",
"                  ufuKUfhUKKpihhfsarwtyrw;re&;*                 ",
"                  ufuKUsUKKKaphJssat9ttyr-re*95                 ",
"                 8jVDbUsUKKhphhfsput;yttr=1555:                 ",
"                 7bVVDDGCMNNNcvnkcjjjjj8878:::>*                ",
"                 8NNNVNDxllxjjjj8787875451:::>:*                ",
"                 ur8jzNMlzlljjjj88888811554:::;*                ",
"                 ufuIff;sput*TrrewwRX-&***-;;*;*                ",
"                 uduKIIfUKKKpTgdspuT;yttrw=;9*;*                ",
"                 uguKUUgUKKKpTfpsauT;tttrw-;;*;*                ",
"                 ifuKUIgULKKuTgsspuT;yttrw=;;%;*                ",
"                 iguKUUdULKLuhfsspuY;tytre-;;%;*                ",
"                 igiLUUfULTKihgssput;tttre-;;%;*                ",
"                 igiLUUfUKTKuhgssput;ytTre=;9%;&                ",
"                 NgiLUIsULTTthdsaput;ttTre=;;&,3                ",
"                 nDSDMUsULKTthdsfput;tTTrw;1222:                ",
"                 jNVMDGDNNNTTcllkzjjjjT87771:>:                 ",
"                 8jbNVZNbkckTTjj8888TYT4,<1:>::&                ",
"                  r8jjjcbkkcjjTTTTTTT841<,,$##=;                ",
"                  iiyttttte0@we;;;;;.;;;;#&;*;*;                ",
"                  igihUsUhhsrspasuut;tyre*;;*;*                 ",
"                   iffLihhJsripppuu0;tyre*;;*9*                 ",
"                   nfigfihHsrtpapuu9;ttr;*;*;&                  ",
"                   vCGDgusssyruiiit;0yre*;***:                  ",
"                    NNBFDCCmNBxkjjj888535:>+O                   ",
"                     NnNmkkkjjjj8888355:>:++                    ",
"                       88887<55<<::::+++++                      "
};
