/* XPM */
static char *_582875332998[] = {
/* columns rows colors chars-per-pixel */
"64 64 126 2 ",
"   c #0F0F07",
".  c #0F0E0A",
"X  c #110E05",
"o  c #120F0A",
"O  c #0D1009",
"+  c #131007",
"@  c #15120C",
"#  c #1A150E",
"$  c #16180D",
"%  c #1E1A0E",
"&  c #161513",
"*  c #191612",
"=  c #171814",
"-  c #1C1A14",
";  c #171719",
":  c #1A1719",
">  c #171918",
",  c #1C1B1A",
"<  c #231C0E",
"1  c #2A1F0F",
"2  c #211610",
"3  c #231D13",
"4  c #291F14",
"5  c #231E1A",
"6  c #1F201B",
"7  c #25200E",
"8  c #2A220F",
"9  c #252115",
"0  c #2B2415",
"q  c #2E2816",
"w  c #252219",
"e  c #2B241A",
"r  c #2E291A",
"t  c #302615",
"y  c #322A16",
"u  c #3B2F15",
"i  c #31271A",
"p  c #332C1B",
"a  c #392E1B",
"s  c #393217",
"d  c #36311C",
"f  c #3B321D",
"g  c #3F381E",
"h  c #1D1D20",
"j  c #211E22",
"k  c #212121",
"l  c #2C2820",
"z  c #2E2E2E",
"x  c #332C21",
"c  c #2E302F",
"v  c #363122",
"b  c #3C3422",
"n  c #3E3820",
"m  c #32332F",
"M  c #2E2E31",
"N  c #312E33",
"B  c #2E3132",
"V  c #343434",
"C  c #393635",
"Z  c #363836",
"A  c #393936",
"S  c #363639",
"D  c #39363A",
"F  c #36393A",
"G  c #3A393A",
"H  c #40351F",
"J  c #413A1E",
"K  c #413621",
"L  c #433A24",
"P  c #483E26",
"I  c #453D2A",
"U  c #4A3E2B",
"Y  c #403E3F",
"T  c #3E403F",
"R  c #4B4225",
"E  c #4C432D",
"W  c #4F482D",
"Q  c #534627",
"!  c #594723",
"~  c #554827",
"^  c #594A23",
"/  c #52462C",
"(  c #544A2C",
")  c #594C2D",
"_  c #56502E",
"`  c #4D4531",
"'  c #4E4830",
"]  c #524633",
"[  c #534A32",
"{  c #594C31",
"}  c #574C38",
"|  c #594E39",
" . c #5F5134",
".. c #5B503A",
"X. c #66552E",
"o. c #645632",
"O. c #695731",
"+. c #665A35",
"@. c #6B5B34",
"#. c #665B3B",
"$. c #695A3A",
"%. c #6F6035",
"&. c #746139",
"*. c #3C3D42",
"=. c #3F4140",
"-. c #404141",
";. c #5F5F57",
":. c #5E5E5C",
">. c #635940",
",. c #6A5E41",
"<. c #615F5C",
"1. c #5F605C",
"2. c #63635D",
"3. c #68655E",
"4. c #625F61",
"5. c #656562",
"6. c #696664",
"7. c #676863",
"8. c #696965",
"9. c #666468",
"0. c #69666A",
"q. c #6C6B6A",
"w. c #706F6D",
"e. c #9F9F9F",
"r. c #A4A4A4",
"t. c #AAAAAA",
/* pixels */
"V A V S S S A S S D N G C A C m A S V A S Z S Z S V A S S V Z m Z V A V S S V Z S V V V m A V C Z Z A m Z A S S V Z A S A V S A ",
"A V V A A V V A V S G F V c V V V V S S A S S V A D S F N D F F A S S A S A V S D V A V V V S S V G S m V S S S Z V A V S V A z ",
"A S A S S A F V V D V V B =.G F S G F S V D D G V S S V V S S V S S S V S D S V V S S A Z G D D F Z V Z -.S S V S z G G V S A A ",
"V S V r.r.m S , 5 * , > k ; & , , , , : : , , * = , , , , , : , : , - > > , , : , , > > , - , , : > : , * * > 5 , A S r.e.V V V ",
"S A S r.t.V S = # @ # @ @ * * # # o # o * o # @ @ # o # @ # o # @ # o # + # @ @ @ @ & O @ @ @ # & = * o * 3 # o > V V t.t.S S A ",
"S V S V S A V 5 @ w 0 9 r r i y q q 0 p r r 9 9 7 9 r w p q q p e q q r f w p 3 w 9 6 r r v q 0 t 8 r r 4 3 5 e 0.G S B S A S V ",
"S V A Z A V Z V <.r - 3 p 0 [ f a K b U y p % 3 9 0 p q U K b s b p K b U t p e 9 w % p p I b f f } 0 p 2 , w 3.V m A A V m A S ",
"V A V : , , S S C <.9 9 9 y 0 [ { ~ ] y p % 0 9 q p 9 y p E f f a L a E p t e i e 9 e 2 p p / ( [ 0 8 8 w w 2.C S C : > : S V Z ",
"Z Z S , @ & - V D C 2.9 9 9 q q ) W q p 3 3 3 r t W [ q 0 r { u s f ] w p q E ) q q 5 3 w r i { 0 p 3 3 w 3.S S V - @ @ 6.V V C ",
"S Z G * @ w O 5 V D V 3.- w 3 p t t 0 3 9 < r p / d g ' b < p / ( W p a 0 E a s / p 0 9 3 0 q 9 p 3 0 5 2.V G z , @ w 9 2.V Y z ",
"A V S , @ w 5 @ , c S Y 7.- 0 3 3 3 9 5 0 - q 9 q t q q 9 p p q y t t 9 0 p r q p 8 y 5 3 % 9 4 5 3 5 7.A Z m 5 @ 5 e - 6.S V C ",
"V A V , * 0 w 9 @ - C B D 6.w 5 9 5 9 w 5 9 e w 5 3 6 % l 5 3 5 - 5 0 9 w 9 5 w 9 5 0 9 w 9 3 5 9 w 8.N F V , @ w 9 w 5 3.V C S ",
"Y M G 5 o p r 9 3 * , N *.C <.3.0.9.4.7.7.6.2.2.9.q.7.0.2.9.5.0.8.8.2.3.<.3.9.9.8.2.3.8.2.7.4.7.2.2.V F G : * 3 5 q w w q.Z S V ",
"V A F : # p i 9 9 5 o , D S A m V h h : , , : : , * - , , , h * , : , > , * , , = - > , ; : h V m G S D : @ w 5 8 p p e 2.V G C ",
"N *.V h @ r P y q 2 w # C A z G - * @ . @ @ @ @ # # $ . # o @ @ @ @ @ # * # # @ & = @ @ @ * @ 5 D m A : o r < i u U t < 0.V N G ",
"S V S , @ y H / q p 5 3 7.D G , # - 3 0 3 r % 5 p b < 5 w 0 < ,.7 9 5 3 5 1 d f w * 9 9 3 9 5 @ , S A , # 5 t t U P 0 e 2.S A C ",
"S A V , # 0 d ) [ 0 0 9 7.S , # 3 5 9 5 7 9 7 9 r d s 7 9 5 7 @.R 9 5 5 < g f r 9 < 7 9 5 9 0 3 @ 5 S , @ 9 8 [ ) s 0 0 3.V D S ",
"S A S : # p b W p q < w :., & @ 3 3 9 3 0 3 - 9 e L d q - 9 8 o.R 1 4 4 f d 0 r 9 9 3 0 9 9 5 2 3 w V ; - 0 t q / K p w 5.V D V ",
"A V S 5   p I p 9 0 3 5 0.* & 5 0 3 3 0 9 4 3 5 p 9 b r w < [ ) f ` * e v q r r 5 2 7 9 9 < 3 q 3 5 4.h & % 0 t p I p 2 q.A N A ",
"m A S > @ p p 0 0 < 9 5 8.j o 4 3 9 < ( E < 0 w 9 5 0 r w 9 { X.s ] 0 % r q 0 0 w e 7 E [ < 9 < 0 5 7.; @ w 9 9 q p i 5 2.S A V ",
"S V S 5 @ e p 3 5 0 3 9 7.& = 3 5 2 q t ~ _ / < 3 q r r 4 < ~ %.f ` 0 9 r p 3 9 < Q _ / q q 2 5 < e 2.: & - 9 5 3 p 0 3 8.A V C ",
"m A S > * 9 - e 0 0 r w 2., @ 9 5 4 < 0 8 _ R J 9 3 0 2 3 9 ( O.a P < q % 3 w < J R _ 8 0 < 4 5 5 e 5., * r e 3 9 < 9 e 2.V G V ",
"A S F , O 9 9 9 9 y y - 2.k @ 9 3 e 5 3 p t ) y p b 9 3 r ] R &.b b W 3 3 0 b b y { q p 3 5 e 9 < 5 8.= @ p p 0 9 9 3 - 7.S F D ",
"S V S , @ 9 9 e y ] q 9 7.= & 9 9 < e w < i q b f s i 5 3 W ~ O.f f R 3 0 0 v f b q q < w e % 9 9 9 5., + q W p e 0 3 5 8.S F S ",
"S S V : @ 5 r i ( s i 5 0., # s f p b 9 2 9 e p d b r q < ~ ) +.b a E 9 q q b v r 0 w 3 < b v d d v 0., @ p s ~ r r 9 5 2.S S V ",
"A S D j o 0 p 0 ( a q 5 5., @ f f f d 0 q 5 r q q d q r q f / ) L p n 2 q 0 p p q q 3 0 e d n b q 5 7., & q f [ 0 p 0 5 8.F V A ",
"S A V * # 0 0 p 0 { p 5 q.: @ 9 i r v 0 w 0 9 i r 9 b e 0 v y g y K b < e I w r p 5 4 0 0 r 0 q 9 9 2.: @ p ] t q q 0 e 1.B Z V ",
"V G G :   d E a p 9 r 3 :.: o w 3 x 0 r p # 0 3 r p w w - p b n b b 9 r 5 w p q 3 r 2 p r e r e 7 6 w.; # r 0 i p E p 2 4.` S V ",
"G S M , 3 9 a E 0 y 0 w q.: * 2 9 3 4 5 9 3 9 w 7 < 5 0 5 r 0 0 8 0 r < w 4 < 4 3 < 3 5 9 0 % 5 9 - 2.> @ q b 0 W f 0 r 8.c V F ",
"V V F , X q b a [ t p w :., # 3 w 0 < 3 8 0 E [ ( f b e 0 3 9 b $.t < p w b f ( } [ 0 7 7 9 0 0 9 % q., @ 0 9 [ s n 0 % 5.F V S ",
"V A F , $ q d b s { r 5 5., o 4 % 8 ( { ~ ) ~ Q ) ( f b p 3 b f O.+.1 i a K { ~ Q ~ ( ~ ) W 8 < 5 w 0.* @ r { f b p r 9 2.A F V ",
"S S S : @ r b f u { 9 w 0., # #.) ~ $.@.X.@.@.^ ~ ~ s b 0 d b d @.$.#.q a H / ~ @.@.@.@.@.+.Q ) 9 5 9., = 0 ) y b b r 9 3.A V S ",
"V G V > * r y f a ( q 6 2., # 3 E R H a d g b p f b b b 8 $.@.O.p L p q b a a f f a f f g d Q E #.< 2.: & p E f a a y e 1.V F V ",
"V S F , @ q K H ` p q 9 2., @ 9 8 < W U W E f b b f b p t 8 $.$.b p 0 q b b p f b b W E E ` 0 4 < 0 8., @ 0 b / K K 9 3 5.F Z Z ",
"m G S * # q b U p 0 0 9 q., @ 3 4 e - 3 0 < E R ` b b 0 p 8 < $.p 9 3 0 p f L ` W E 9 7 5 4 4 3 0 6 1.: @ d 9 t U b p 5 2.F F B ",
"Z B S , @ p I d 4 a r w 2., % 9 3 - p - 3 0 7 9 < 4 9 0 9 4 a < q r i 0 < 3 < 3 < 9 < 5 3 w 5 3 7 w q.> $ 8 t p p U p 3 8.F B A ",
"V G V = # r p q y / i w 0.: @ 9 < b p p i 3 3 3 t 9 e 9 4 p i b b v r 3 - p p r 9 9 e r r 9 9 7 5 5 5., $ 0 [ y q p i 0 2.S G V ",
"F V A , + 0 p 0 { p r w 7.* @ < y L 0 r q 5 9 p q p p x < b b b b d v 0 r p q e r - 9 e q r g g 9 9 9.: $ 0 b [ 9 p 9 5 7.F V D ",
"V G S : @ 9 9 p ( L 0 - 0.: @ v n p 0 0 e 9 p d b 9 w r 0 f / ~ f b b < 0 0 r b b b < 0 r 9 I y f 3 7., @ y f ( p 0 9 0 2.S D V ",
"S A V > # 7 9 q 0 / y 9 7.> # b e r r 9 3 < L d p b 0 0 9 [ ~ Q a K U 3 p 0 r b f d 9 9 9 r 0 y f b 7., @ r / t q 9 3 5 2.V S D ",
"F S A , @ 0 2 9 q p q w 2.: @ 9 9 9 4 4 8 / g d q r 0 4 9 { ) ^ b a / 4 2 l x q a f Q 8 0 5 5 9 3 9 8.- # 4 p r 0 2 4 5 2.A S S ",
"S V N , * w % e 0 9 p 5 2., @ 3 9 9 5 < / ) f r q q 0 5 3 ` @.@.b b L 4 4 4 i e i f _ / < 4 5 < 9 , 5.- O x r 9 9 3 5 w 6.V Z S ",
"V S D - o r d % 3 9 - 9 q.; @ 9 9 9 % r ) / q r 9 % 2 0 3 8 ) O.s E 8 q 3 w < 9 r q W ( p # 9 9 9 0 6., @ 5 0 - 3 p r 3 7.F S V ",
"Z F V > * 0 p r w 9 9 9 7.; @ 0 9 % q E W y 0 5 9 5 r x 0 # ) @.s W < 5 r e 0 3 5 q q ( E 0 < 0 4 2 q.; @ 0 % r q p q w 6.c A V ",
"V S D , X p E p 9 9 0 , 9.; - < 4 9 4 [ 8 0 3 5 9 q p w 9 <  .O.g ' 5 3 p i p 0 4 5 0 8 [ 9 9 5 9 w 2., @ w 7 9 y E p % 7.F G V ",
"Z D V , # q f / p q < w 7.6 @ 9 0 9 < < 7 < 0 3 d d r 0 9 9 R ) f L 4 w 0 p v b 5 9 < < < 1 9 9 9 3 8., * % p p Q b q w 7.M D C ",
"S V G , o p K / ( 0 0 5 5.S   q - e 3 5 9 e 3 3 g d q r w 9 0 Q Q 0 0 3 e 9 b b 3 3 e 9 9 3 r 2 - w 9.; @ q 0 ] E L q 2 7.F S C ",
"A V S : # t a { [ 8 < 5 8.V 2.9 3 5 4 w 5 9 < 9 d d q 9 5 9 < ) $.< 2 e 9 q r b 0 < 5 5 w 4 3 4 w 5.S j # < t ] { a q 9 7.S S C ",
"Z V A , @ i a ( i 0 e 5 2.A m 0.9 - 0 9 < < 0 9 f d < 0 9 3 0 < #.7 3 e 3 < y a 9 < 0 3 3 1 9 5 :.=.V , @ 5 r 0 Q K q 4 5.V V C ",
"m A F * # 0 | y t 4 3 5 2.V G z 2.w - e 9 w 5 w v 6 9 9 w w - w 0 - 9 6 - w 3 r 5 3 9 w 3 5 5 6.T m V : @ 9 % p y U 0 4 0.V D C ",
"Z V S ; 5 r 1 t 3 9 5 6.G V V Y S q.7.:.0.7.:.8.q.7.q.5.5.0.5.7.2.7.0.4.q.7.q.5.5.7.8.0.5.5.7.F V S Z A , = 9 9 0 p p w <.A A C ",
"Z V V h X p p 9 < w 8.V D C , # h ; , k & , : , : ; h > : : : * , h , h & , , , , ; , ; , : : , , , A z A , @ - 0 q q - 0.A N G ",
"V V -., o 4 3 9 @ 8.m S N : : & @ @ @ @ @ # @ @ @ @ # @ & @ # @ & @ @ @ # & # o @ @ @ , @ > * @ @ @ , G m A , & 3 e 9 r 2.V A V ",
"F F z , # 5 5 5 7.m A D 5 & 2 5 9 0 < 9 0 - v 0 p 0 r p 9 p 9 p 0 x r e r i 9 i q d 3 9 w * < < 9 9 @ > S A Z : @ 3 5 5 8.Z V A ",
"A S V , * 5 w 6.A Z V 6 @ 5 0 p 0 0 d 9 3 9 9 p R n f / y p t ( ( E q i i | f f ' 0 d < 2 r i y x % 5 & : V G V , @ w 5 <.G V D ",
"F V F > @ w 3.m D A : O 9 0 i 0 ] [ q 0 e - 5 p y / [ q 0 t [ H H a | 0 r t ~ ( t q 3 3 0 w q ] q q 0 5 & , V A S , @ 9 3.V S S ",
"A M A > 4.5.G V V , O w 9 0 y W ) / / p r % 9 9 0 b 3 p p W f f a L s W p t 0 i e 9 e % y y Q ( ( y 0 0 w O w S Z V A 5.7.S V S ",
"S G A V A V V G , & 9 3 r y P H a L K U p p 3 2 3 0 p t U b L p b a b f E 0 p r 9 9 % p p U H J K U p p - 9 @ * V A A S V S A V ",
"A S c F V G S : # 9 w 9 r p p 0 0 q 9 p e q 3 0 3 3 q 5 b 0 i r r e t q a 9 r 3 3 9 < r t p 0 9 0 q y i 3 w w @ S S z A S V G V ",
"V V F t.r.V A ; @ e 5 5 3 r # 0 w 3 0 5 w 3 9 w 4 e 3 9 3 5 - w 3 w 2 9 3 4 5 5 9 w w 5 w 2 0 9 0 5 w - r 5 w 9 7.F V t.r.S V A ",
"G V V e.r.A A : 8.2.2.8.7.7.0.0.2.7.7.2.6.6.7.2.2.2.6.7.7.7.2.5.2.8.2.2.2.2.7.8.5.2.2.2.2.3.7.7.5.0.2.3.7.7.<.2.5.A S r.e.A V S ",
"V S A S V S S m A S A V F N S V S D S S V S S Z V S S S F Z F V Z F Z S A A F B S S S Z F F S V V B F G z A A S S V V A A A S V ",
"S S m A A V S G m A V C D G V G V V S V S V S V D D V S N S S V Z S V S S A V V D S A V S m S S S A S V A V m G S S A S m S V A ",
"S D A V A S S V C V C D N V G V G C V A S D V D D V C S C V Z Z V V C V C V S Z D D V A V A S C C C S C C C G V V V V S A V V S "
};
