/* XPM */
static char *_582875347223[] = {
/* columns rows colors chars-per-pixel */
"64 64 244 2 ",
"   c #191C0C",
".  c #151514",
"X  c #1B1515",
"o  c #1B1B14",
"O  c #1C161C",
"+  c #151B1B",
"@  c #1B1B1C",
"#  c #151718",
"$  c #0E1A16",
"%  c #221B15",
"&  c #221919",
"*  c #20190F",
"=  c #182219",
"-  c #1B210F",
";  c #23211B",
":  c #141B23",
">  c #1B1B22",
",  c #1B1626",
"<  c #191B30",
"1  c #221B24",
"2  c #1A2225",
"3  c #2E2E2D",
"4  c #212123",
"5  c #2C352D",
"6  c #283A2C",
"7  c #323325",
"8  c #33352C",
"9  c #3A352B",
"0  c #33392C",
"q  c #3A3A2D",
"w  c #323A26",
"e  c #352C3A",
"r  c #392E36",
"t  c #2D3431",
"y  c #2D323B",
"u  c #2C3A37",
"i  c #343434",
"p  c #3A3533",
"a  c #343B34",
"s  c #3A3B34",
"d  c #35343A",
"f  c #3A343B",
"g  c #343B3A",
"h  c #3A3A3A",
"j  c #372D2E",
"k  c #41363A",
"l  c #35423B",
"z  c #2C4230",
"x  c #3C2C44",
"c  c #343541",
"v  c #3A3542",
"b  c #3B3942",
"n  c #393947",
"m  c #283A44",
"M  c #413643",
"N  c #472646",
"B  c #394241",
"V  c #5C5A53",
"C  c #675D5A",
"Z  c #5D6453",
"A  c #64664E",
"S  c #6B645D",
"D  c #656457",
"F  c #6B6D5A",
"G  c #5B5D69",
"H  c #615E63",
"J  c #685D67",
"K  c #735E6A",
"L  c #5D6364",
"P  c #596567",
"I  c #5B6574",
"U  c #5F7275",
"Y  c #636364",
"T  c #64646B",
"R  c #6D636C",
"E  c #6B6B6C",
"W  c #686866",
"Q  c #736668",
"!  c #686777",
"~  c #67736C",
"^  c #AE7A0B",
"/  c #B47C0D",
"(  c #BC7C0D",
")  c #B9760A",
"_  c #AE7D15",
"`  c #AC7B1B",
"'  c #A97A16",
"]  c #B57513",
"[  c #BA7314",
"{  c #B57C13",
"}  c #BC7D14",
"|  c #B47C1B",
" . c #BC7D1A",
".. c #B6751A",
"X. c #BC7D21",
"o. c #AB7C25",
"O. c #C27D0D",
"+. c #C87A0A",
"@. c #C37C14",
"#. c #CB7E14",
"$. c #C47D1B",
"%. c #C97D1B",
"&. c #C37616",
"*. c #D87815",
"=. c #D36F12",
"-. c #C17C22",
";. c #9C8D1B",
":. c #AB830C",
">. c #B5820E",
",. c #BC830D",
"<. c #B4880A",
"1. c #AD8315",
"2. c #A5841A",
"3. c #AD841B",
"4. c #A98917",
"5. c #B58314",
"6. c #BB8315",
"7. c #BC8A15",
"8. c #B4831B",
"9. c #BC831B",
"0. c #B48C1C",
"q. c #BC8A1C",
"w. c #B58A15",
"e. c #A49319",
"r. c #B09416",
"t. c #AD8723",
"y. c #B48323",
"u. c #BB8422",
"i. c #BC8921",
"p. c #B58726",
"a. c #AB9221",
"s. c #C3830C",
"d. c #C7860D",
"f. c #C38313",
"g. c #CA8414",
"h. c #C38914",
"j. c #C3831B",
"k. c #CA831C",
"l. c #C38A1B",
"z. c #CA8A18",
"x. c #D99B1B",
"c. c #D48315",
"v. c #E49D15",
"b. c #EC9D15",
"n. c #E39D1D",
"m. c #EC9E1B",
"M. c #F69D18",
"N. c #E49F0E",
"B. c #DDA41C",
"V. c #DBA918",
"C. c #DDB11D",
"Z. c #E3A316",
"A. c #ECA313",
"S. c #E4AA14",
"D. c #ECAB15",
"F. c #E4A41C",
"G. c #EBA41C",
"H. c #E4AA1B",
"J. c #EBAB1C",
"K. c #F1A41C",
"L. c #F2AA1C",
"P. c #F7A617",
"I. c #ECB21D",
"U. c #E9B116",
"Y. c #F2A812",
"T. c #C48322",
"R. c #C98624",
"E. c #D99F23",
"W. c #C79526",
"Q. c #E89E24",
"!. c #F39C24",
"~. c #DBA522",
"^. c #DDAA23",
"/. c #DAA927",
"(. c #DEB321",
"). c #CCAA34",
"_. c #E3A424",
"`. c #EBA523",
"'. c #E5AB24",
"]. c #EBAB22",
"[. c #E3A52A",
"{. c #E4AA2B",
"}. c #EBA82B",
"|. c #F3A323",
" X c #FBA423",
".X c #F4AC21",
"XX c #F2AA2A",
"oX c #F7A926",
"OX c #EAB126",
"+X c #EAAA33",
"@X c #F8B22C",
"#X c #FCD33A",
"$X c #F4CC3E",
"%X c #FECC45",
"&X c #FDCC4C",
"*X c #F5CA4A",
"=X c #EDD34C",
"-X c #FDD344",
";X c #F3D44C",
":X c #FCD34C",
">X c #FDDA4C",
",X c #F8D745",
"<X c #FDCC54",
"1X c #FCCD5A",
"2X c #FAC954",
"3X c #EDD757",
"4X c #F5D354",
"5X c #FCD453",
"6X c #FDDB53",
"7X c #F4D45B",
"8X c #FCD45A",
"9X c #FDDB5B",
"0X c #F5DA57",
"qX c #E6CC4F",
"wX c #FEE458",
"eX c #F5D868",
"rX c #FFFC6B",
"tX c #FFFC67",
"yX c #FFFF73",
"uX c #FFFE7C",
"iX c #F8FB79",
"pX c #9F9F9F",
"aX c #A4A4A4",
"sX c #AAAAAA",
"dX c #FEFC85",
"fX c #FFF38C",
"gX c #FEFE8C",
"hX c #FAFA88",
"jX c #EFFE95",
"kX c #FEFE94",
"lX c #FEFE9B",
"zX c #F8FB94",
"xX c #FFE988",
"cX c #ECFDA7",
"vX c #FEFDA3",
"bX c #FDFDAA",
"nX c #F9F9A6",
"mX c #FDFDB9",
"MX c #FAF1AE",
"NX c #FEFEC5",
"BX c #FFFECA",
"VX c #F5FCC4",
"CX c #FEFDD3",
"ZX c #EDFFCD",
/* pixels */
"i h i i i i h i i q v y c 9 s i c h d p h i s a i s t i h 9 i i 9 p i p 0 n d 0 u 0 q h h 5 s e i h q c d c q i i h h t h i i h ",
"h i i h h i i h n v w h k i i h i s p p d f d h i y b g p y v g h d c a v y h i x h 0 d e f p s d i i k h 7 b n h 3 h i i i f 3 ",
"h i h i i h h i w 5 v r 5 a 8 u 0 a a 5 h t i a 9 j s f 8 f 8 h i b h q p h 9 i b 0 d i b a w i u 8 0 u r v 5 w i 3 h h i i h h ",
"i i i aXaXi p @ > > @ - , > > @ O O > 4 # @ O o : ; # X : . 2 . + o + # ; . + & # & o O # 2 @ O @ > > O - @ > > 1 s i sXpXi i i ",
"h h i aXsXi i # $.{ f.k.5.T.[ @.%.l.9.] @.z.} | 5. .k.5.( 9.[ f.} 6.( ` f.8.h.| s. .1.| @.(  .j.f.[ T.5.R.@.{ $.# i i sXsXi i h ",
"h 3 h 3 h h i > 5.6.,.6.n.G.U.`.H.H.H.'.L.v.( z.,.) A.XXF.+XG.K.L.n.'.XXn.G.L.O.h.{ j._.J.J.F./.`.U.A.Q.6.,.6.5.W h i 3 h h h 3 ",
"i i h h h i h i J i.2.4. XJ.dX<X0XqX4XtX'.}.6.` 8.I.{.B.dX,X3X5X:X-XeX>XfXV./.}.o.6.&.D.^.xXwX;X5XuXG. X4.' i.J i i h s e t h h ",
"i h i O # @ i i f A T.*...'.H.lXlXlXdX)._.s.s.6.G.G.M._.^.dX4X8X:X>X&XzXC.H.P.M.D. .j.@.F.(.fXlXvXH.{...*.q.A f h h @ # # h 3 h ",
"8 n 7 O $.5.& v z x D  .,.$.[.S.hXMXF.P.,.} R.Z.B.dXbXD.A._.lX3XeX3XlXG._.L.kXlXA.`.$.5.7.m.+XkXS.}.$.7. .D e z e & 8.$.T 7 n i ",
"s e l > ] l.|   x 8 h W 4.#.g.G.L.B.+X8. .7.B._.lX5X<XlXOXM.!.dXdXuXP.~.J.nX=X>XlXI.b.j.$.O.B.S.K.5.@.4.W h s x   | h.{ R u f q ",
"y w d > h./ 4.i.% h 7 s Z 6.%.5.{ 8.>.<.q. .K.|.G.].V.`.D._.{.V.H.{.D.K.N.I.V.`.oXF._.7.| z.j.6.5.&.{ F 8 7 s ; u.2.>.f.T e q y ",
"n p r    .5.0.=.{ 2 8 m s I ,.9.s.$.@. .{ 6.| 6.f.&.} l.1.s.6.6.[ %.1.#.T.&.T.} ' 0.w.d.5.' 9.8.5.d.I p m s O _ =.0./ $.A r a n ",
"h 9 g < j.`. X .,.0.  i N v Y J J I U L F S R D A ! ! J C U S J S E T I H D S Y R Q L Y K Q P F J L b N s   3.7.X. X`.7.! a 9 d ",
"7 v 0 O X.A.Z.'.j.[ | 2 h 7 l h h . , & o O o < O o > @ @ @ # @ > . 2 @ : & . = o o > 2 # @ . 7 h s 7 f 2  .[ j.}.Z.Z.-.T 0 b 7 ",
"i h s # @.U.dXH._.h.&.,.t g 6 p X r.l.[  .8.6.j.eX1.r.) 9.+.5.g._ f.#.8.9.>.h.<X( j.{ ..9.s.p.@ i 6 g + ) %.h._.S.dXU.@.H s h s ",
"h d z > } `.5XvXS.`.9.{ Q h i O $.f.} 9.6.8.} O.A.1X} i.$.8.4.CX8.f.O.$.'  .:X1Xe.} #.9.5.g. .} O h d & 9.5.oXS.vX5X`.} T u d h ",
"f i i O  .'.;XlXlXD.6.8.F w @ j.+.9.j. .5.} z./ F.4XeX} 8.6.@.NXiXj.{ h.t.&X:XF.1.g.6.5. .} 6.#.j.O 9   | 9.J.kXlX;X'.j.J i a r ",
"p h w # T.B.wXfX}.V.&.T.P o o. .u.{ j.,.%.8._ f.m.8X$XD.9.5.3.BXyX .8.9.<X-XXXS.#._ 8.%.s.j.| 8. .y.8 + j.( S.[.fXwXx.R.Y w k i ",
"0 f t 2 +.H.xX(.M.( j.' R & ,.f.8.f.t...( 9.} $.oXF.#XoXq.( kXbX;XrX .8.-X|.V.V. .6.@.( ..a.f.8.g.( E 1 |  .s.K.^.fXF.s.W y k 0 ",
"h e h > } J./.H.7. .9.q.C # f.5.f.6.+.kXdX .$.2.( `.J.Z.{ f.lXmX9XuX} 8.S.G.@X{ 2.$.9.fXkX+. .f.1.j.H * 5.9.%.>.F.^.D.} ~ g e i ",
"h d i @ ' ].`.@.9.} 5.d.T 2 ..9.$.} 7.n.bXjXuXj.5.g.x.XXj.>.bXmX4XiX{ 5.J.V.( X.$.uXjXnXn.w.} $.5...G 2 s.5.j.5.} L.}...Y g d h ",
"0 5 b X l.j.[ z.[ Y.`.5.Y # { #.q.[ s.h.~.cXuX3X3.{ k.| ( 2.vXNX,XrX .8.h.} 5.T.3XuXcX~.j.s.} 7.c.{ E # >.}.A.} k.[ 9.q.C b 5 8 ",
"0 h 0 o ..{ 6.[ }.OXF.0.Q o l.@.} 8.j.5.}.P.zX6X6X<X,.8.j.kXkXCX>X6XrX9.[ 7.%X:X6XzXP.{.5.j.0.{ &.6.E % 2..XB.XX} h.} 9.S w h 0 ",
"a x f = ( h.y.S.A.lXG.w.J @ [ e.8.g.5.} f.n.M.eX1X:XA.w.} bXkXVXeX*XyXw.&.`.5X:X7XP.`.j.} { g.6.;.g.D , 0.A.vXA.D.o.,.( Y d x u ",
"0 s p o 9.@.}.M.jX<X_.h.D + ;X8X,X<X5X9.8.6.S.G.%X8X].G.O.kXlXVX%X:XuX3.U.m.&X4XK.F.q.8.w.:X&X5X:X5XP @ } '.:XvXM.XX@.6.Y p h 0 ",
"c d p : } D.~.P.zX5XZ.4.T X z.<X5X9X%X^.5.6.G.|.'.&Xv.J.l.1XkXbXeXqX5X%.G.`.:XC.L.n.f.} Q.%X6X>X_.h.W o 6.H.6XfXP.~.D.{ T 8 f c ",
"v y k o w.F.V.V.J.zXA.h.Q > | h._.B.Z.L.[.@.h.B.n.M.6X/.3.6X,X:X>X%X:X .`.8Xm.A.Q.f.7._.}.G.B._.j.:.S o @.'.vXK.B.V.H.8.S f y v ",
"0 M 8 $ d._.gX/.Z.J.Q.u.V + j._ 9.`.P.Y.!.g./ T.'.L.Z.O.q.!.%X9X&X9XoXq.d.x..XH.l.{ O.A.F..X_.s.{ 6.! @ j.A.A.{./.kX_.d.Z 8 v 0 ",
"i 6 s % u.[.$XlX'.H.P.[ U % } q.@.k.u.| 5.h.@.} 8.f.} | 3.b.'.Z._.Z.b.2.` j.g.| { @.l. .|  .l.@.j.| H + } .X~.P.kX,X~.u.R q 6 h ",
"h f d + ) `.eX&XkXP.'.6.P & +.5.>.5.8.R.5.2.dXlXkX,X<XoXK.z.{ 7XmXi.+.A.XX,X*XlXlXdX2.{ z.( { 5.g.O.U > q.n.P.jX*XeX`.) W d v i ",
"p y n o h._.:X;X8XzX~.s.T > j.3.s.5.dXzXkXvXbXzXlXkX5X*X_.,.2X>XVXmX8.S.:X:XbXnXlXvXbXcXjXdX8.d. .h.C o { ~.dX7X;X:X`.7.S v y p ",
"9 h i . g.A.:X6X:XbXn.6.T X { BXbXbXmXCXNXmXNXbXvXgX3X9XD.5X5X5XCXCXVXXX2X;XgXkXNXNXmXNXNXNXbXlXo.5.S   j._.gX4X6X,Xb.7.L i f 9 ",
"i g h X g.A.6X:XeXlX~.$.S & 6.{ iXyX;X4X;X>X>X1X%X9X3X5X[.mXZXBX7X6X,X~.>X-X;X5X5X=X8X0X5X&XuXyXNX:.P & s.F.kX5X:X6XK.f.Y h a i ",
"i f 3 2 } n.3X4XfXD.H.w.Y + 5.k.j.} yXdXuXtX5X:X3X4X,X2X].y.mXNX<X6X/ ^.%X:X;X8X2X5XrXuXuXiX8.7. .w.E : } {.F.lX5X7Xv.[ E 5 v a ",
"9 y v   T.+X,XdXF.|.A.f.P + %.} { 0.} }  .9.yXyXuX8X%XL.b.O.0.BX:X{ ,._.[.8X5XrXiXyX6.{ 8.9.2.5.$.+.S : j.|.A.^.dX,X{.q.D h y 9 ",
"i s i : ( F.kX~.L.V.D.y.W 1 :.f.h.6.3.9.9.` l.1.7.( } 8.0.G.G.| } }.'.,.9.{ { { 6.9.@.9.6.j.7.+.$.8.T ; ' A.OXM./.gXG.} I i k i ",
"p a v & 7.G.x.{.F.lXV.#.Y X $.5.t.<X-XZ.J.6.@.&.G.`.G.s.6.'.#X5X5X>Xx.f.+.!.OXC.j.] 1.G.A.G.!.X.1.O.L . f.G.dX|.'.x.`.6.S M u p ",
"i c p . k.K.{.m.mX#X_.{ Q o / u.%X:XoXG.OX/ w.`.A.!.+XF.| 0X>X1X&X6X5X/ `.m..Xx.Q.l.f.~.OXZ.,X4X5.W.D o  .^.&XjXP.{.L.j.L 9 c a ",
"s y p o | ) ].|.lX4XOX6.L = 9.&X>X`.V.M.O.5.:X0X>Xx.oX|.O.:XcXkX>X4X1X5.D.L.Z.:X>X*X7.f.A.F.-X6X%X^ ! < ,.C.*XkX|.OX) | F p y s ",
"i 8 p > 6.h.1.A./.yX'.$.Y > >X:X_.V.I.{ X.T.-X:X5XP.V.V.-.fXcXgX:X7XdX8.H.N.}.1X;X5X .&.$.^._.F.9X:XY O >.G.vX_.G._ d.8.T p i i ",
"0 d h . 6.l.` 9.D._.G.6.Y :  .@.9. .( y.#.hX9X:XG.|.J.{  .lXlXlX6X1XdX<.5.}.D.A.:X8XgXj.y.O.} 9.O.j.I o 6.K.[.D.6.8.h.9.V h h 5 ",
"s d i ; } ( 6.( } _.G.u.T   7.6.{ 9.@.c.cXdX:X'.OXN.,.T.s.kXBXNX;X&XyX4.%.k.~.oX'.&XkXjXc.6.j.{ 6.5.D O T.G.B. .} 9.) } E i d s ",
"a f t 2 @.F.XXO.9./  .h.C & 0.` ( p.6./ cXlX_.A.| l.] @.6.2.zXmX&XuX:.9.} } @.| A._.vXcX>.} y.( 8.3.Q X 9.{ } 6.O.XXZ.6.T t h i ",
"i d h # f.J.B._.@.9.l.] D % { l.$.s.3.dXlX~.'.@.| 5.}..X7.| lXNX5XdX9.{ |.'.5.5.@.(.E.lXfX4.s.$.7.| S o ] 9.l.O._.~.L.j.Y s d h ",
"h k 5 > ] OXtX).A.{ <.R.P & } } g.{  .vXG.j.g.` 9.V.oXM.5.9.bXNX,XgX .$.Y.H.%Xq.` z.@.K.vX9.{ #.{ T.C 2 -.<.| Y.).rX_.{ T t h s ",
"f 8 h > j.B.0XdX'.{.h.] P 1 6.@.| f.8._ 6.+.9.9.1X#XZ.L.6.} dXjX=XuX .#.S.F.<X9X9.8.+.6._ 3.f.| @.6.! . } 7.{.'.dX0XV.l.T h j f ",
"f i a # j.H.3XzXMXJ.` $.! 8 e.O.7. .j.f.f.y. .( &X9XD.]. .5.7.bXdX5.6.5.XXm.>X*X( X.u.O.f. .$.h.#.e.C @ j.| G.MXkX3X_.@.H a i h ",
"c s 7 1 g.J.4XlXhXb.9.f.R h C j.| +.4.&.} w.8.f.5X:X~. .g.5.} lXNXs.5.f.| oXF.,Xg.5.0.} &.4.O.5.} S d > s.6.G.hXlX0XJ.g.R 7 i c ",
"h e l + @.F.6XvXA.Q.8._ C d i R  .f.@.6.6.8.} O.6X<X9.5.f.{ k.6.mXX.} j.4.#.H.:X;.g.#.9.5.} j.} J h d & { 8.|.S.vX:X].( E u d i ",
"h i 8 > &.I.iXZ./.g.$.z.T a 6 i S e.} $.{ 8.6.T.:Xj.8.@.:.$.6.} 0.6.+.6.5.9.} G.@.9.{ R.5.s.` W p 6 t + s.k.} _.H.dXJ.$.H s h i ",
"w e s : R.V.F.OX$.&.f.P f w a h v V R J Q C A I L P S R W P L S R S W D J W E Y Y S T P L E S 0 d a q d :  .@.j.'.Z.Z.X.H a b w ",
"v 9 5 , { !.@X..5.4.F s N v + O 1 : = $ o o 1 = 2 @ % . 4 > & X O : < & X # + + & X > O & X > - & 2 f N 5 - 3.5.9. X|.9.! a 9 f ",
"d h f   T./ 2.*.j.H u y p : ( 8.,.$.} T.{ 6.9.{ 9.,.{ %...,.5.$.f.,.:.w.p.&.l.f.0.2.5.d.9.i.9.| 9./ : a m s @ 9.=.0./  .D r i b ",
"d 9 v # s.f.1.9.A h w a   | c.5.6. .h.<.| $.].G.H.}.'.V.J.A.'.~./.].Z.|.Z.A.A.[.A.oX_./ 9.@.} { 6.k.{ o s 7 s * i.4.>.f.R y 9 y ",
"q v t > 8.6.i.A N a a . q.%.^ |.A.F._.u.l.7.~.}.uX*X#XbXV.A.D.lXvXlXM.F.P.lX8X>XlXH.A.R. .O.OXD.K.} $.1.@ p s x   | l.{ T u f q ",
"s c 0 > &.5.R r z x % 9.7.} +XZ.hXMXOXN.@.} [ Y./.lXbXB.K.}.fXeX-X3XnXD.Q.J.kXlXv.XX} 5.,.K.[.lXD.~.k.,.9.o x z f O 5.T.R 7 n 8 ",
"h 3 h # H Y h i v   8.*...].I.vXlXkXgX)._.+.s.9.A.K.m._.^.dX4X:X:X:X;XfXV.B.P.M.U.[ g.} F.(.fXlXvXU.}.X.*.8.  f h i h Y Y h i h ",
"i h p i h i i h O q.4.0.!.G.dX&X0XqX9XtX}.{.j.o.8.OX{.F.dX,X7X9X5X-XeX>XzXV.^.}.o.6.$.G.^.xXwX4X&XdXF.M.0.3.9.O 3 h h i i i h i ",
"h i 3 h i h i @ 1.h.^ / XXD.S.'.S.'.B.H.D.v.( h.h.) P.XXZ.+XG.K.D.n.`.XXn.F.L.O.h.{ j.F.I.D.B.~.`.S.F.].} ^ h._ h p 3 h h i h 3 ",
"i i h sXaXi h # %.{ z.$.{ ..%.j.%.k.l.{ } k.6.{ 5.5.k.5.} u.] f.6.h.( ` f.9.9.9.s.X.8.| @.O. .j.j.$. .5.$.z.{ %.T h i sXaXd i h ",
"h y i pXaXh h O T J H D ! T T T R H J ! L W T D T Q L D ! Z E C ~ D L S ~ C L W Z W Y H L ~ D J T Y T ! A Y T T H h h pXpXh i h ",
"i h h i t h i 3 7 l c r i 0 s u 0 a a 5 s y i s i r s f 8 v 8 c t c d q i k 9 8 b 0 d h B y 0 i u s 5 i r c l w h i i h h i h 3 ",
"i i 8 h h i h h n e w h 9 v a i i p p h i d h e s d v a p y c i h y c a v y f i x i 8 y e f p s d s b 9 i 9 e n h i f i 3 h i h ",
"h h h i h i i i 8 q d c d 7 h h c i r i h i a a i s t i s q i p p p i p 0 v d 0 a 0 s h h 8 i e h h 7 d c d s 8 i i i h h i 3 h "
};
