/* XPM */
static char *_37a3dad2c7d46279092873c1d09861a[] = {
/* columns rows colors chars-per-pixel */
"64 64 161 2 ",
"   c gray18",
".  c #343434",
"X  c gray21",
"o  c #373737",
"O  c #3A3A3A",
"+  c gray23",
"@  c gray24",
"#  c #3E3E3E",
"$  c #3F3F3F",
"%  c gray25",
"&  c #414141",
"*  c gray26",
"=  c #434343",
"-  c #444444",
";  c gray27",
":  c #464646",
">  c gray28",
",  c #484848",
"<  c #494949",
"1  c gray29",
"2  c #4B4B4B",
"3  c #4C4C4C",
"4  c gray30",
"5  c #4E4E4E",
"6  c gray31",
"7  c #515151",
"8  c gray32",
"9  c #535353",
"0  c gray33",
"q  c #555555",
"w  c #565656",
"e  c gray34",
"r  c #585858",
"t  c gray35",
"y  c #5A5A5A",
"u  c #5B5B5B",
"i  c gray36",
"p  c #5D5D5D",
"a  c gray37",
"s  c #5F5F5F",
"d  c #606060",
"f  c gray38",
"g  c #626262",
"h  c gray39",
"j  c #646464",
"k  c #656565",
"l  c gray40",
"z  c #676767",
"x  c #686868",
"c  c DimGray",
"v  c #6A6A6A",
"b  c gray42",
"n  c #6C6C6C",
"m  c #6D6D6D",
"M  c gray43",
"N  c #6F6F6F",
"B  c gray44",
"V  c #717171",
"C  c #727272",
"Z  c gray45",
"A  c #747474",
"S  c gray46",
"D  c #767676",
"F  c #777777",
"G  c gray47",
"H  c #797979",
"J  c gray48",
"K  c #7B7B7B",
"L  c #7C7C7C",
"P  c gray49",
"I  c gray50",
"U  c #808080",
"Y  c #818181",
"T  c gray51",
"R  c #838383",
"E  c #848484",
"W  c gray52",
"Q  c #868686",
"!  c gray53",
"~  c #888888",
"^  c #898989",
"/  c gray54",
"(  c #8B8B8B",
")  c gray55",
"_  c #8D8D8D",
"`  c #8E8E8E",
"'  c gray56",
"]  c #909090",
"[  c gray57",
"{  c #929292",
"}  c #939393",
"|  c gray58",
" . c #959595",
".. c gray59",
"X. c #979797",
"o. c gray60",
"O. c #9A9A9A",
"+. c #9B9B9B",
"@. c gray61",
"#. c #9D9D9D",
"$. c gray62",
"%. c #9F9F9F",
"&. c #A0A0A0",
"*. c gray63",
"=. c #A2A2A2",
"-. c gray64",
";. c #A4A4A4",
":. c #A5A5A5",
">. c gray65",
",. c #A7A7A7",
"<. c gray66",
"1. c #A9A9A9",
"2. c #AAAAAA",
"3. c gray67",
"4. c #ACACAC",
"5. c gray68",
"6. c #AEAEAE",
"7. c #AFAFAF",
"8. c gray69",
"9. c #B1B1B1",
"0. c gray70",
"q. c gray76",
"w. c #C8C8C8",
"e. c #CACACA",
"r. c #CBCBCB",
"t. c gray80",
"y. c #CDCDCD",
"u. c #CECECE",
"i. c gray81",
"p. c #D0D0D0",
"a. c gray82",
"s. c #D2D2D2",
"d. c LightGray",
"f. c gray83",
"g. c #D5D5D5",
"h. c gray84",
"j. c #D7D7D7",
"k. c #D8D8D8",
"l. c gray85",
"z. c #DADADA",
"x. c gray86",
"c. c gainsboro",
"v. c #DDDDDD",
"b. c gray87",
"n. c #DFDFDF",
"m. c gray88",
"M. c #EFEFEF",
"N. c gray94",
"B. c #F3F3F3",
"V. c #F4F4F4",
"C. c gray96",
"Z. c #F6F6F6",
"A. c gray97",
"S. c #F8F8F8",
"D. c #F9F9F9",
"F. c gray98",
"G. c #FBFBFB",
"H. c gray99",
"J. c #FDFDFD",
"K. c #FEFEFE",
"L. c white",
/* pixels */
"f.f.a.l.a.a.l.f.f.f.f.f.f.f.f.f.f.l.y.l.f.f.l.y.f.a.l.a.l.y.f.a.f.a.a.l.l.a.y.f.f.y.l.l.y.f.f.f.l.a.f.l.l.a.y.f.l.a.f.f.l.f.y.<.",
"f.J.J.J.J.J.J.G.J.J.J.J.J.J.J.J.J.C.J.G.G.J.J.J.J.J.C.J.C.J.J.J.J.J.G.G.J.J.J.J.G.J.G.J.J.G.J.G.J.J.G.G.J.J.J.J.J.J.J.J.G.J.7.d ",
"f.J.>.&.<.&.9.>.>.>.>.>.>.>.>.>.&.0.@.>.7.<.>.f.m.f.a.l.c.y.7.&.f.f.f.7.@.>.&.>.<.7.>.@.7.l.y.l.f.f.a.7.@.>.&.>.<.&.9.<.9.@.c % ",
"a.J.>.>.>.>.@.>.>.>.&.>.>.&.>.>.>.@.>.>.&.&.f.f.q.f.c.a.a.<.@.l.l.w.<.>.<.&.<.>.&.&.>.<.w.a.l.a.l.w.<.>.<.@.7.&.&.<.>.&.@.<.z % ",
"a.J.>.@.<.<.>.&.>.>.>.<.>.>.<.>.<.&.<.<.&.f.f.f.c.f.y.f.>.>.f.f.y.7.>.&.>.<.@.>.>.>.>.f.f.f.y.a.y.7.>.@.>.<.@.>.7.&.&.>.7.<.z % ",
"a.J.&.7.@.G.( <.>.>.>.&.&.>.>.>.&.<.<.>.l.l.a.f.a.y.l.<.<.a.a.f.>.7.&.<.<.&.7.<.>.>.a.y.f.l.l.f.&.7.>.<.<.&.7.<.+.J.! >.>.@.z ; ",
"a.J.7.@.7.] c &.>.>.>.>.>.>.>.>.>.>.&.f.l.f.f.a.l.y.>.>.a.f.l.&.>.@.>.@.>.<.&.@.<.a.a.c.f.f.y.>.<.&.>.&.>.7.&.@.7.! c <.@.<.z @ ",
"f.J.>.>.>.% @ <.&.>.>.>.>.>.&.>.&.7.y.f.f.f.a.f.w.9.>.y.l.f.>.>.>.>.>.>.>.>.>.<.f.f.f.y.l.y.7.&.>.>.&.>.>.&.>.<.>.% % >.<.>.z ; ",
"f.J.&.>.>.>.>.&.y a w y y a 9 y a 9 d y y a w a y y w d a w a y y y w d y w y a a y y w a w y y y w a a w w a ( >.>.&.>.>.>.d ; ",
"f.J.>.>.>.>.>.>.a R ( ` ( ` ( ` G S m L Z m L m S G Z m Z S Z S G G Z Z G G Z S Z m G G Z S G S a.] ! ( ( ] ] a.>.&.>.>.>.>.z % ",
"f.J.>.>.>.&.>.>.w ] >.>.>.>.&.>.y.( ! ( ` ! ( ] ! ` ` ` ` ` ! ( ! ( ( ( ( ] R ( ` ` ` ! ` ( ( y.>.&.>.@.<.&.L l.>.>.&.>.>.>.z % ",
"f.J.&.>.>.>.>.&.w ` &.<.>.&.>.>.7.a.( ( ( ] ! ! ( ! ! ! ! ] R | ( ( ( ! ] R ` ( ! ( ! ` R ( a.>.>.&.7.>.>.<.] c.>.>.>.>.&.>.z % ",
"f.J.>.>.>.&.>.>.a ( &.&.<.>.>.>.@.<.f.( ( ! ( ! ] ( ` ! ( ] ` R ( ! ( ( ! ! ( ! ] ! ( ` ` a.>.>.7.@.&.7.&.>.` w.&.>.>.>.>.>.d ; ",
"f.J.>.>.>.>.>.>.y ( 7.>.&.>.>.&.7.@.<.f.( ( ! ] ! ! ! ` ! ! ] J.d ` R ! | ! ( ( R ] ( R a.7.+.>.&.7.>.@.>.>.( f.>.>.>.&.>.>.z % ",
"f.J.&.>.>.>.>.>.y L 7.>.&.>.>.>.@.>.>.<.y.` ( R ` ( ` ! ( ] M.<.m @ +.( R ` ` ! ( ( ! J.<.&.>.<.>.@.<.<.&.7.( y.>.>.>.>.>.>.z % ",
"f.J.>.>.&.>.>.>.y c &.>.>.>.&.<.7.@.7.@.<.y.( ` ! ( ( ( ( J.<.>.z z % ` ( ( ( ( ` ( G.>.>.>.&.>.>.>.<.&.<.@.z l.>.>.>.>.&.>.z % ",
"a.J.&.>.>.>.&.>.a S a >.>.>.&.<.>.>.<.@.7.>.f.` ! ` ` R J.>.&.<.d z z 2 ( ` ( ( ( G.7.&.<.&.>.&.>.&.>.<.&.c m J.>.>.>.>.&.>.z % ",
"c.C.>.>.>.>.<.@.w G S z >.>.>.&.>.&.>.&.>.@.<.f.` ` ( J.>.>.<.d ; ( z a 3 ! ! ` J.7.&.&.<.9.@.<.>.>.>.>.z S G C.>.>.>.&.>.>.d ; ",
"f.J.@.<.<.@.<.7.y S S G d &.7.>.>.>.>.7.>.<.>.&.l.G.G.f.a.a.z z ; 3 ! z a % 3 J.&.>.&.>.<.@.7.>.&.>.>.a G G ( J.>.>.>.>.&.>.z % ",
"a.J.<.7.>.>.&.a.y Z ( m L d >.>.>.>.&.&.&.>.<.J.J.a.l.a.l.z d c 3 % 2 ] c z 2 ; 2 >.&.7.>.&.<.>.<.>.z L Z ! ` J.>.&.>.>.>.>.z ; ",
"f.J.<.&.<.&.f.f.y S ` ! S G a &.<.@.7.<.>.J.J.f.l.a.f.a.c a c a 2 2 2 ; R z c ; @ 3 3 >.<.&.<.@.&.c G Z ( ( ! G.&.>.>.>.>.>.z % ",
"f.J.@.>.>.l.a.f.y Z ` ( ( S S m >.J.J.C.J.<.<.a.a.l.f.z z ( &.7.d c a ; 3 L ` z 3 % % 2 ; 3 2 <.z G m R ` ` ( J.>.>.>.&.&.>.z ; ",
"a.J.<.>.f.a.c.a.w G ( ( ( ! L z z G a.&.&.7.+.f.f.a c ( >.7.>.@.c z c c z 2 ; ! ! c 2 2 ; d c d c R ( ( ( R ` G.>.>.>.>.&.>.d ; ",
"f.G.7.a.f.f.a.f.a m ` ( ! ( ( G S S Z l.7.@.<.z z ` &.<.@.>.y.c.S m z c a z z 2 3 R ( ( z d z G L R ( ( ( ( ( J.>.>.>.>.>.>.z % ",
"f.J.f.f.f.a.f.a.a S ( ( ! ( ( ! G Z Z S a.z d ` >.>.>.>.>.f.l.f.Z S Z z d d z z z ; 2 ( z d d G ( ( ! ( ( ( ` J.>.@.&.<.&.<.d ; ",
"l.N.l.a.a.f.a.l.y S ( ( ! ( ( ( ( S S S S z ` @.>.>.>.>.f.f.y.f.Z S Z Z c z z z z z d ( z c m ! ( ( ( ( ( ( ( J.>.>.7.&.>.&.c ; ",
"f.J.f.a.f.f.f.a.y S ! ( ( ( ( ( ( Z Z Z G z ] <.>.>.<.w.c.f.a.f.S S S S Z c d d d c z ! c a d ` ! ( ! ( ( ! ( J.>.7.+.<.@.<.c % ",
"l.J.f.f.a.l.f.>.y Z ( ( ! ( ! ( ` S G Z S d ! &.&.>.<.l.y.f.l.f.S Z Z S Z c z z a z z ! z c d ] ( ( ( ( ( ( ` J.>.>.>.>.<.>.d ; ",
"a.J.l.y.c.a.>.<.y S ! ( ( ( ( ! ! S S ( ` ( G >.<.>.>.a.l.a.f.a.S Z Z S Z z a z c a ] a m d ! ( ( ( ! ( ( ! ( J.>.&.<.>.>.7.a ; ",
"a.J.f.a.a.7.@.f.y S ( ( ( ! ( ( ( Z S ! ( ( m >.<.&.&.c.l.a.a.a.S Z S S Z z z d d z ] z a c ( ! ( ( ( ( ( ( ( J.>.>.&.>.>.a.z ; ",
"l.G.f.f.>.&.f.c.y S ( ( ! ! ( ! ( G a.<.( R G ( >.&.>.l.w.a.f.l.Z S S Z m z d z z z L c z d ( ( ! ( ! ( ( ! ` J.<.&.>.<.y.f.c @ ",
"a.J.a.>.>.a.l.y.y S ! ( ( ( ( ( ( Z f.>.>.( Z ( &.7.>.&.l.f.f.f.S Z S Z c z d z z z z z c d ( ( ( ( ( ( ( ( ( J.>.<.>.a.l.a.d ; ",
"f.J.>.<.a.f.a.<.y S ( ( ! ( ( ( ` ! G w.>.7.! Z ! >.&.<.l.y.l.f.Z Z G m c m a c <.a c z a 2 ( ! ( ( ( ( ( ( ( J.&.>.f.f.f.a.c % ",
"f.J.>.f.a.f.7.&.y S ! ( ( ! ( ! ! ] S l.&.&.<.S ] >.<.@.f.c.f.a.S S Z Z a a z d >.z c z m % ` ( ( ( ( ! ( ! ( J.<.f.a.f.f.f.d 2 ",
"f.G.a.f.f.<.>.&.y S ! ( ! ( ( ( ! ! S J.l.f.a.S ! ! 9.>.&.l.y.f.S m S d m c c <.+.m z d z 3 ` ( ( ( ( ( ( ( ` J.y.l.f.a.c.a.z % ",
"a.J.f.a.7.&.@.7.y S ( ( ! ( ( ! ` ! ` S J.a.l.>.G ! &.<.>.&.l.f.S Z c z z d d f.m d z d 2 z R ( ( ( ( ! ( ( ( J.l.f.f.c.y.f.z ; ",
"f.J.y.<.<.@.7.&.y S ( ( ( ( ! ( ` ( ( S J.a.a.f.S ( ( &.>.<.&.a.m z c c a z l.y.d d z c ; ( ( ( ! ( ( ( ( ! ( J.a.f.a.f.f.a.c ; ",
"f.J.7.>.&.<.<.&.y S ! ( ! ( ( ( ! ! ( Z J.f.f.f.G R ( ( <.@.<.>.c z d d c c w.c c z d d 2 ( ( ! ( ( ( ! ( ! ` J.l.a.f.l.a.>.c @ ",
"a.J.&.<.>.>.&.>.y S ( ( ! ( ( ( ( ] ( d d J.l.y.>.m ( ` ! <.7.&.z z c d d a.l.z d z z 3 ; ` R ( ( ( ! ( ( ! ( J.a.f.l.l.>.&.d 2 ",
"f.J.>.>.<.&.>.>.y S ! ( ( ! ( ( ` R J.d z J.f.f.f.d z ! ` ( &.>.z d z z l.f.z d z z z ; c a.( ( ( ( ( ( ( ( ( J.f.f.f.@.>.l.z % ",
"a.J.>.+.<.>.&.>.y S ! ` ( ] ! ( ] C.<.! c z a.f.f.( z z ! ( ` ( z d c f.f.a.z d z d 2 2 >.>.a.` ( ! ] ( ! ] ( J.a.l.>.@.l.f.a ; ",
"f.J.>.9.@.<.>.<.d m ] ` ! R ` ( C.7.@.7.z d J.a.&.&.c z z R ] ! d c &.f.f.. z c z d 3 z &.7.7.w.` ` R ] ! ! ] N.a.>.<.f.a.>.m % ",
"l.G.7.&.<.>.7.@.a m ! ( ` ] ! J.>.&.7.&.( c z y.<.>.>.d c c ! ! c &.9.f.% z z d z 9 % >.<.| >.<.w.` ! ( ( ! ( J.>.>.a.l.<.<.d ; ",
"f.J.&.&.>.>.@.7.y G ` ! ! ( J.&.7.+.&.>.&.z z l.>.@.( ( z a d c >.&.&.3 2 z c z . % d >.<.<.<.>.<.f.( ( ( ` ! G.&.f.a.>.<.&.z % ",
"f.J.>.<.>.&.>.a.y Z ( ` ` J.>.<.@.<.7.@.7.( a z l.` ` R ! z m d &.7.2 % c z d . 3 z ` &.<.@.>.&.&.<.f.( ! ( ( G.l.a.>.>.&.<.d ; ",
"f.J.7.@.&.7.y.f.y G ` R f.<.@.<.<.>.&.>.@.>.c z ; f.( ( ` ( d z >.; ; 9 z d O 2 d c &.&.7.<.@.7.7.&.<.f.( ` ! J.f.&.<.&.>.>.z ; ",
"f.J.&.>.>.f.l.a.y G ! f.>.<.<.>.&.>.>.&.<.@.R 2 ; 3 z ` ! R | d 3 2 ; d z   3 2 2 ` >.@.<.&.>.&.@.>.>.<.y.] ( G.&.7.@.7.&.>.c @ ",
"l.J.&.<.y.f.a.l.y ( f.<.&.>.>.>.<.&.>.>.<.<.c Z 2 2 ; d ` ` R ( ; 2 c z . 3 ; 2 S d >.<.&.<.>.>.<.&.7.@.<.y.( J.>.&.>.&.>.<.d ; ",
"y.J.>.l.a.f.f.f.y f.<.>.>.>.&.>.>.>.@.<.>.c c L ! 9 ; ; z ( ( ( 2 ; z . 3 2 % ( L c c &.<.@.>.>.<.>.<.&.&.<.( J.>.>.&.>.>.>.z % ",
"c.J.f.f.f.l.y.f.a ( @.>.@.7.>.>.>.<.>.<.z G L R ( R 2 3 2 d ( ( 3 ; 3 ; ; 2 ] ! R R G z <.>.>.>.<.&.>.7.>.>.( G.>.&.>.>.&.>.z ; ",
"f.J.y.c.y.w.c.>.y ] 7.>.<.&.@.7.&.<.<.d S m ( ( ` ( ( 2 2 2 z ! ; 2 ; 2 3 ( ! ` ( ! Z S z >.<.&.>.>.@.>.>.>.( J.>.>.&.>.>.>.d ; ",
"f.J.l.y.a.c.&.>.w ` @.&.<.&.<.&.<.<.d G Z ! ` ( ! ( ( ( 2 ; 2 z ; 3 ; 2 ` ( ! ( ( ` ! Z L d <.<.>.<.<.>.@.>.` J.>.>.>.>.&.>.z % ",
"f.J.l.a.l.<.+.<.d ! >.<.<.<.&.<.&.d L Z ` ` ! ( ( ( ( ! ` ; 2 2 3 2 2 ( ! ! ( ( ( ! ` ( Z G d &.>.+.>.>.@.7.` C.>.>.>.&.>.>.d ; ",
"c.C.a.f.&.&.>.&.w | &.<.>.&.<.>.c G Z ( ` ( R ` ( ] ! ` ( ( 2 ; ; ; ( R ] R ` ` ` R ( ` ! Z G c &.7.<.&.<.&.( J.&.>.>.>.>.>.z % ",
"l.G.f.&.7.>.7.&.w ( ! ] ! ! | d m L ( ( ( ! ( ( ( R ] ( ! ( ! 3 3 ! ` ( ( | ! ` ( ( ! ( ` ( L m d ( ( ! | ! ( J.>.>.>.>.>.>.z % ",
"a.J.<.<.+.<.>.>.` a.f.f.J.J.G.J.J.C.J.J.J.J.G.J.J.J.G.J.J.J.G.J.J.J.J.G.J.G.J.J.J.G.J.J.J.J.C.J.J.J.G.J.J.J.J.J.>.>.>.>.&.>.z % ",
"f.C.>.<.<.>.>.>.>.>.>.>.>.>.>.>.>.>.>.>.>.>.>.>.<.<.>.>.<.&.>.>.&.7.a.l.a.f.y.f.f.f.<.&.c.f.@.<.>.>.>.>.>.>.>.>.>.&.<.&.>.>.z ; ",
"f.J.>.>.&.J.! <.>.&.&.>.>.&.>.&.>.&.&.>.>.&.>.&.&.&.<.>.&.>.&.>.&.l.f.a.c.a.a.c.a.&.<.f.y.>.7.&.&.>.&.>.&.>.&.>.>.J.` >.>.&.c @ ",
"y.J.>.>.>.` m @.>.>.>.>.>.<.>.>.>.>.>.>.>.>.>.>.<.7.&.<.<.&.>.>.f.a.a.y.a.f.f.f.<.>.y.l.>.>.&.>.>.>.>.>.>.>.>.>.&.! z <.>.<.z ; ",
"f.J.&.<.<.O ; <.&.>.&.>.>.&.>.&.>.&.>.&.&.>.&.>.&.+.<.>.@.>.7.a.f.l.a.m.f.f.c.&.>.f.f.&.<.>.<.>.>.&.>.&.>.&.>.&.7.% 2 @.>.&.c % ",
"a.J.<.&.<.<.<.&.>.>.>.>.>.>.>.>.>.>.>.>.>.>.>.>.>.7.&.<.<.<.w.l.f.a.l.y.l.f.>.&.l.a.>.>.@.>.&.>.>.>.>.>.>.>.>.>.&.<.&.<.&.<.z % ",
"l.J.>.>.>.@.<.>.>.>.>.&.>.>.>.&.>.&.>.>.>.>.>.&.>.@.>.@.9.f.f.f.a.l.a.f.a.>.&.c.l.&.<.>.>.>.>.>.>.>.>.>.>.>.&.>.>.<.<.>.<.<.y 2 ",
"a.@.z Z a m z c z d z z z z z z z z z z z d z z z m c d d d c d c d z d c c a d d c d m d d m d z z d z z z z z z z z d d m c % ",
"<.z % @ 2 @ ; % % ; ; % % ; % % ; % % ; % ; ; % ; % % ; ; ; % ; ; ; % 2 % % 3 ; ; % ; % ; ; % ; % % ; % % ; % % ; % % 2 ; % % ; "
};
