/* XPM */
static char *_582866868098[] = {
/* columns rows colors chars-per-pixel */
"64 64 156 2 ",
"   c #7E3890",
".  c #843C8D",
"X  c #893F8D",
"o  c #863B93",
"O  c #893D94",
"+  c #833F9B",
"@  c #8A3E9A",
"#  c #87408C",
"$  c #8B438D",
"%  c #90448C",
"&  c #9F5A86",
"*  c #9B538C",
"=  c #8D4394",
"-  c #8F4992",
";  c #83419B",
":  c #8D439A",
">  c #914595",
",  c #924995",
"<  c #9F4F96",
"1  c #93469C",
"2  c #954A9C",
"3  c #9C4E9D",
"4  c #975394",
"5  c #9D5395",
"6  c #9C5993",
"7  c #95549D",
"8  c #9E539D",
"9  c #96589E",
"0  c #9E599D",
"q  c #A3548E",
"w  c #AC568F",
"e  c #A4588E",
"r  c #A85B89",
"t  c #B45C8F",
"y  c #BE5C8C",
"u  c #A24D95",
"i  c #A34E9C",
"p  c #A94C9B",
"a  c #A45495",
"s  c #AA5495",
"d  c #A55A96",
"f  c #AA5A94",
"g  c #A2549D",
"h  c #AA549C",
"j  c #A3599C",
"k  c #AA5A9C",
"l  c #B15794",
"z  c #B35D95",
"x  c #BD5D95",
"c  c #B0569C",
"v  c #B35C9C",
"b  c #BA5E9B",
"n  c #9E6093",
"m  c #BE668E",
"M  c #AF6392",
"N  c #B46293",
"B  c #BB6195",
"V  c #B4629C",
"C  c #BB629B",
"Z  c #BE6D9B",
"A  c #8941A4",
"S  c #9346A2",
"D  c #9C47A2",
"F  c #9D4EA4",
"G  c #9D4DAA",
"H  c #9654A3",
"J  c #9E53A2",
"K  c #965BA4",
"L  c #9E59A2",
"P  c #9755AD",
"I  c #9D53AB",
"U  c #9D5AAA",
"Y  c #9F4DB1",
"T  c #9F56B0",
"R  c #A24EA2",
"E  c #A84FA1",
"W  c #A24FAC",
"Q  c #AB4DAB",
"!  c #A254A2",
"~  c #AA54A3",
"^  c #A359A3",
"/  c #AB5AA3",
"(  c #A354AA",
")  c #AA55AA",
"_  c #A559AA",
"`  c #AB5AAC",
"'  c #B055A5",
"]  c #B35CA0",
"[  c #BB5CA4",
"{  c #B35CAC",
"}  c #BC5AAD",
"|  c #A455B2",
" . c #A955B1",
".. c #BA5BB5",
"X. c #B463A3",
"o. c #BB62A4",
"O. c #BC6BA3",
"+. c #BC64AB",
"@. c #BF6BAA",
"#. c #B960B0",
"$. c #C45D94",
"%. c #C15B9C",
"&. c #CC6785",
"*. c #C46E87",
"=. c #CE6987",
"-. c #CD678C",
";. c #C66B8E",
":. c #CC6C8E",
">. c #D36586",
",. c #D36C85",
"<. c #D96D84",
"1. c #D3668E",
"2. c #D9668D",
"3. c #D36B8C",
"4. c #DA6B8D",
"5. c #C57087",
"6. c #C97285",
"7. c #CE708B",
"8. c #D47186",
"9. c #D2718C",
"0. c #DA718F",
"q. c #D6798C",
"w. c #C66494",
"e. c #CB6594",
"r. c #C46B95",
"t. c #CD6C93",
"y. c #C3659C",
"u. c #CB669B",
"i. c #C56C9B",
"p. c #CC6C9B",
"a. c #D26593",
"s. c #D86592",
"d. c #D46C94",
"f. c #DA6C94",
"g. c #D36698",
"h. c #DD679B",
"j. c #D26C9B",
"k. c #DB6C9A",
"l. c #CB7293",
"z. c #C5709C",
"x. c #CB719B",
"c. c #D37194",
"v. c #DB7293",
"b. c #D3709C",
"n. c #D9709A",
"m. c #C258A3",
"M. c #C567A5",
"N. c #CA66A4",
"B. c #C56DA3",
"V. c #CD6BA1",
"C. c #CE65AA",
"Z. c #C26BAD",
"A. c #CE6BAB",
"S. c #DC66A5",
"D. c #D36EA2",
"F. c #CE70A4",
/* pixels */
"8 ! ( ) 8 5 J @ : J g 8 ! G ^ J i ~ 9 J ( u x.,.! J ! j 8 8 ! j 8 g g j ! g 3 ( ! j ! ! 8 ^ ~ 8 j j ! g ! j J ! G f r ( | j 5 ( ",
"j J R ! ! j I = : J 8 g ~ J ! 8 ! ! j ! ~ h V.e.^ j 8 ! j ! ! ! ^ ! g j 3 2 = 2 J j g ! ! 8 8 ^ J ! j J ! 8 j ! E i.i.~ W 8 5 ! ",
"j ! J ! j j ! : : I j j ! ! ! 8 g g j L ! u o.b 8 J g J ! ! ! ! ^ 3 ! ( ! > o @ J 8 g ( 8 = = ! ! ! ! ! j ! ! j h V.x.h 3 j g ( ",
"j ! ! ! 8 ! ! ! ( ! ! 8 ! g J j J g 8 ! ^ 7 ~ h J ~ ( ! ! 3 j ! ! R ! ( ( 1 1 1 ~ ! g ! ! X X G 8 j ! 8 ! 8 ! ! h z z ~ ! 8 0 ! ",
"8 ! ! 8 ! J ! ~ g ! ! W 8 g ! j ( i J H _ i ! ( ^ k < F ! ! 8 ! g g j g ! 3 J R 8 ! 8 R ! 2 , ( ! j ! j ! 8 ! 8 ^ 8 a ! ^ 8 5 ! ",
") ! 8 i ! ( 8 a a i ! ! J j g ! ! 2 = , ! 7 ! ! ^ 7 O = ! ( 8 g 8 ! g 8 g ! ! ! j ! ! ! ( J J ) 8 ! g J ! ! g ! K I J H H ! ~ ~ ",
"G i ! 8 ! ! < k k 5 ( ! J j ! ! H > O @ ! 8 8 ! ! g = = J _ 8 g ! ! J 8 j ! ! ! 8 ! ! g ! ! J 8 ! ! 8 ! g ! j J H ! ( g 8 ^ ! 3 ",
"O 2 ! j ! ! j @.O.g ^ ! 3 j ! R ! S @ A ) j 8 j g ^ R 3 ( ( 8 ^ ( J J ~ ^ j 8 ! ! j 8 ! ! j j g ! j ! j ! 8 ! j h ! ! ~ ^ 8 2 = ",
"; + J a g ( h r.p.j H h a 8 I g i ! J ( ! 5 s D.k.u U 9 g m.k.e.u.g.$.j I ( ~ g g W h e ~ H _ J ( j 8 J 7 = O G ! ! 8 j ! J > o ",
"@ : R a g ( < f s 7 7 j h U ^ a j ! ! J ( J a y.w.k P ! l.v.e.c.j.k.e.V 8 ( h J 7 / C u.V.u.j.w.u 8 ! ( ! = = J ! 8 8 ~ ! 8 = o ",
"$ 2 ) 8 8 U 7 8 p ( U ! j I 9 * J j 3 ! I J j / 0 ^ ~ b t.:.:.9.t.v.1.z.a j 8 0 ~ Z -.k.d.4.1.g.o.a 8 ! ( 3 3 j R ! j ! ! 3 2 > ",
"< R  .( 8 L ! W R ( 0 J ! I ^ j J g g ! J _ J ! P G h y.p h j.3.:.1.d.c.z ~ J 8 V c.1.k.-.N ~ L @.h g ( ! ! j 8 J 8 ! 8 ! ! J F ",
"U J ( ! 8 8 8 ( ! g 8 7 I ( i ! 8 ! ! g J J ! 8 ! ] i ~ 8 J } d.l.t.f.d.p.) ( J w.1.f.f.i.k G K a a h ( ! J ! g ! ! ! 8 g ! ! ! ",
"J 8 < G ! g j i j g j ( ( s h 7 ! ! g j 3 j ~ f x i.m N _ G g 3.d.e.j.<.j.( I g a.d.f.1.e.h ( j j g ! ! F j j 3 i 8 ^ ! ! j 8 J ",
"g a f h ! L ! ! 7 g R J k e.u.) ! g j ! 7 h C w.a.j.q.6.+.W a N 1.p.j.,.g.~ 7 C c.j.a.;.b j h i ! _ J 7 J ^ ! ! J ! ! ! ! g g 8 ",
"~ i.i.] G H 8 J J ~ ) G e 9.j.g ( 3 ! ! j v j.c.f.e.S.g.f.b ! H ,.b.u.4.t.g g V.a.n.7.B._ L 4 A : G ! 8 J ! R W ! ! R J j g ! j ",
"u V.B.h 8 j g ! ( ! g ! g j j g 3 ! I ( p j.9.:.1.f.f.d.=.t.o.I m.l.-.,.5.0 R 4.1.d.j.N a ~ I @ o ! / 8 ! ( ! 8 I 8 < 0 H J _ i ",
"h V v i ( g j ! 1 = 1 i ! 8 ! ! ! 8 8 g b t.t.y.p.p.V.t.d.d.y.c h r.D.S.p.( ( d.v.e.[ ) 8 J g , S J 8 5 ^ ( ! ! O , ~ ( ! q r.:.",
"( h a J ( ! 8 ( @ o O J ( ! 3 ^ ~ 8 0 j j.c.u...d h b w.d.f.a.$.I N a.f.&.a ( Z r.V ( W F g j W ! ! g 0 ( ( g ! # = F F ~ f j.n.",
"F j 8 ! ^ J 8 ! 1 : F ! ^ ! ! R 0 8 j s p.t.l D J 5 ~ o.p.n.n.l.I f B j.r.k J k h g ! 8 8 j ~ R g ! ^ ! ! R 8 g U U J 0 U 8 ~ u ",
"! U 8 8 ! ! 8 g R J ! ! g ! 8 j 8 ^ J R o.j.t j ` ^ ! h b y.i.p._ < W ) ( H ! 8 ( 8 0 0 9 R g k g g g 8 J H g ! ! ) 5 H 9 J ^ _ ",
"8 ! 8 8 g ) ! a ! J ! g 8 j ! ! 8 ^ J ! ' B.V X.~ g g g g j f a ( h p R 8 0 h ^ J 8 5 ^ | F h Z Z.h F ! ! j ! g <.p.h ) R i R g ",
"j J I g j G I g ! j ! j 8 g ! J | ! 0 H i h a 8 g 8 8 ^ R ! ! 4 3 b t.l.l.l.b | j g 7 ~ | R h B.Z.k 8 U J 8 j ! <.e.f ^ ! ) ! ! ",
"g G ! j , @ 1 g ! 3 j / ! J J ! W 4 n 0 ! ! ~ ! ! J L 9 F ! ( J 0 y.a.t.d.f.x I R ) ! 7 j g i E w a ! ( 8 0 ^ g b #.J 7 H a 8 J ",
"! ! ^ 8 1 + : R ! 8 I T a k G ^ ( 2 = 1 F ! ( ! g j ! ! ! ! ! j H ! b j.t.x ~ H U F ~ g J ^ g g ( ! g g ~ ! ! 7 ! ! ! g h g g J ",
"8 ! j 8 1 1 1 ! ! 8 8 3 g ^ J J J > . o 1 J ! 8 ! 8 3 F ! ( ! ! ^ ! 8 8 g 8 8 L o = 8 ! 5 ! j g 8 J ! ( I ! 8 j H 8 ( i 8 ! ! J ",
"j ! ~ ! ! G ! ! J h l l g ( ! J ! , > > 2 F g ! J ) ^ ( ( ! 8 ! ! J J I P H 9 ! X = j ! H J ! ! 8 j j a a g ( ! ^ ( ) ! 8 a 8 j ",
"g ! j 8 ! J ! g K ~ w.w.~ H 0 ! ! J F 3 ! ! ! j 3 ^ ! F ( ! 3 ! g g ! h h i j ^ J 3 g ! J ( j u g b i.x.p.y.b ' h 2 ! g j g J ( ",
"! ! g ! g g 8 8 7 h u.p.~ H 8 ~ ! ! ! ! ! ! ! 3 ^ R X X J ( ! ! J j g g h g ! L / J 5 J 8 8 / [ u.b.d.d.d.n.b.t.g a g ! ! g = O ",
"^ J F J ! j ~ ( J j b b ! J 8 ! j ! J 8 ! ! j ! ^ 3 % O R ^ ! ! 8 ! ! I I J g g ! g J ! 8 g C p.n.f.1.,.,.a.l.u.O.k j g J H = o ",
"F 1 1 F j 8 8 J ! 8 ~ J g ! J L J J g j ! ! ! ! j ! ! g ! J 8 ! ( ! g g j g g h 8 ^ j ! 8 k u.j.w.-.f.v.c.w.v ! v g J J 8 ! J ( ",
"1 O @ 2 ! j ! ( ! 8 U P g k R J R ! ! ! ! J ! R ! ! ! ! R ! g g H ~ x g.f.u.v j ! ^ J 8 8 b b.1.q.t.p.V.[ h J H h g ! _ ^ 8 4 ! ",
"G = O G ( 8 j ^ ! g j ! j 8 ! 8 g ! I G ( j g ( ! I g a P I 8 ! ~ j.&.f.1.f.V.x I d 8 6 ( p.g.2.j.,.8.p.g 0 a ) ) * d I H J g ( ",
"! 2 2 ! ( g 8 ! ! 8 J ! ! ! ! j g F 1 : , 3 8 ! 8 J ~ g R g 8 ! x t.j.u.d.9.j.p.~ g 8 8 h r.t.0.e.3.p.o.i g v B.r.x.C { ( g k 5 ",
"! J ! J g ! ! 8 j J j ! 8 J ! ! 8 , o o 1 i _ g ! 0 ( j l l g L p.t.V.[ x.7.a.k.C J H J C j.3.:.d.e.b ) ! C p.d.a.4.1.y.%.q 8 H ",
"g ! J j F j ! ! 8 ! ( ! ! ! j ! H : o O > G ! 3 ( 0 H ) w.e.h 9 d.7.z 3 V e.1.4.p.~ U ! t.h.3.t.x.[ p ) b p.0.>.j.1.0.4.c.y.g | ",
"! 8 g j g J ~ 8 ~ ! 3 3 R ( g ! | 1 = = 1 R ! g ! j F ~ i.u./ 7 %.i.q I _ o.p.f.d.~ ! i 3.1.4.x.V k i o.e.3.f.s.x.p.j.g.j.A.a 5 ",
"^ 8 8 ! ! 8 J j ^ 8 = = ! ^ J 8 ( 8 8 8 J ! ! ^ ! 8 J ! b b j 8 p i.d | ! ) [ w.e.g F h b.k.u.b h J g z.9.:.j.D.M k w r.b.v j 5 ",
"! g ! ~ ! 8 ! ! ! 8 = = ! ( 8 8 u d d g ( ! g 8 J J ! j ( ~ 8 ! R V k ( 8 5 ~ k / < ! g Z.i.b i J ( u p.c.u.M.X.( F w p.r.a ( ( ",
"J 3 ! J 8 j ! g g ^ 8 3 ( ( 8 ^ k @.O.k 3 ! ! j j R j g P I 8 R ^ 4 ~ G d e H P H 8 ` 5 ! & j ( 7 ( f p.a.b ] 4 g h ..z e ) G 8 ",
"g g ^ | @ o ! a ! ( ! 5 6 ! ) E f O.@.k 8 j ^ 9 ! ! ! j 8 5 ! ! J U ! g R g g g ! g g 8 ^ U J J J j ! J ! j J j 8 8 j J J ! ! g ",
"( 8 5 4 X = I ! ! j i _ _ 8 g ^ a h h g g ! ! J @ = 3 ! j ! ! ! J ! J g g ! ! j Y G O = J 0 7 ~ g ! g j J ! g ! ! ^ L ~ J ( J g ",
"I J ^ ^ g J ( J J j 8 W R g g H ~ j < j ( ! F 3 . o 2 I ! ! ! J 8 j g g ! 8 ! J G @ o 1 ! ~ 8 h ! j g ! g ! 8 ! J ! < J > = = 5 ",
"j ! 5 ( ! ! L ^ H j a h h j j H U 8 J ( ( 3 J ! > 1 F ! J ! ^ J ^ ! ! R R ! J J d $ A G D W ^ 8 ! J ! g J j ! j ! / J ! X O O ( ",
"8 h h j ~ 8 ! ! I ! h i.p.h ! J 5 L ! 0 8 g j ~ ! J ! j 8 8 j g W i J ! ! ! g g k 4 9 g h c g ! g J g ! ! j ! ! 8 g 8 ! o O > ^ ",
"a [ M.V.p.V ~ F ! R h r.r.h R ! J ! 0 8 g g ^ 8 ! ! ! ! a a g j 1 > , ! ! j 8 g G ) 8 q z.i.5 ( ! j 8 ! 8 ! J g ! ^ g ` ! ( R ^ ",
"x V.u.9.3.r.X.! 8 ^ h g j g ^ J ^ ! ! J ! ! ! 8 ! 8 ! ^ 8 ^ ! g : o : H ~ 8 a k ~ ! ! k i.V.q U ! j ! j ! j g ! J g < J ! ! ! 8 ",
":.n.d.1.3.t.i.f ! 8 3 ( ( 8 8 J ! g ! ( ! ! J ! ! j J ( ! J ! F S : : J ! 8 k +.z.q I ( u c j H ! J g ! ! 8 ! ! ! ! ! J ( J g g ",
"] ^ ! C.1.3.z.%.! ^ 8 8 ( R a C j.t.t.4.6.%.| 9 8 j g j 8 ! ! ! 8 J ( J 8 u v o.O.f 5 j j F R ! g R S : , 8 8 H ! j j J g g ( i ",
"a 8 7 b a.:.c.d.( ^ 8 8 j k b i.9.a.u.j.d.w.V 6 j ! J ! j ! j ! ^ J J ! J g h k k j g ! ! ! J ! j G A   : H _ ! ( ! J J 8 8 ( ) ",
"g ^ L a V.*.l.s.J ! 9 8 k o.e.g.4.f.j.j.k.q.i.~ ! F J ! ! F g j j g i ! ! j g a F R J ! ! ! j g g g 2 : 1 ! J F g ! ) ( 2 = 2 8 ",
"W ! J g Z t.g.S.! J g d b u.d.3.k.p.i.w.e.8.t.Q S S : 3 ! ! 8 ! ~ ! J R ! ( J 8 J ! ( R 8 j ( ! a ! J J ! ( h k a 8 R I A . = F ",
") f h ( h i.k.s.! 8 g C i.t.d.s.:.b k g h :.;.i @ . o 1 3 ! ! ! j i ! ! ! R ! _ ! ^ ^ j ! ! ! ! ! 8 8 ! ! a k B.O.f a J 1   : J ",
"i.-.C ) D y.8.,.J g c u.d.c.j.p.b ! 8 8 v C Z ! 1 : = 2 ( ! ! j 7 ! ! ! J R J J 8 8 8 8 ^ ! ! H ! ! 8 j j 5 f O.O.f 8 8 2 : = J ",
"N -.g.` G o.r.i.J j b j.f.d.u.[ ( ! ! ^ B o.` H ! J R 8 ! ! j 8 9 J ! R ! g 8 8 2 : , 3 ! ! F 8 J ! g ! ! R g f d 6 8 ~ J J ! ^ ",
"( w.j.a H g s ( 8 h y.f.4.t.C g ! J I R v E G 6 ! ! ! ^ ! ! ! ! L J 8 ! j ! j H A o o 1 ! ! J j j j 5 3 ( | R i ^ ( _ ! J ! j g ",
"E ( J 6 6 F ) ! F / i.t.u.b j K J j ! ! ! j ! ! ! 8 I J J ! ! 8 g ( W F ( j 3 ! @ . + A 8 ^ G j J j g g J J ! 5 ! j h 8 J ! J g ",
"! g g / ) g g ^ ! ! h h h u E ( ! ! g 8 g 8 J J ) ^ j 8 ! F ! g ! g = = ! ! 8 j ! , ; S 8 k J j ( ! ! g ( ^ ~ j ! g g ! 7 8 d a ",
"H j g G G a 0 H X = 9 H 8 k V.k.! 8 j ! ^ ( ! ! 8 ! 5 a h h g 8 ^ F O $ ! ^ g 8 ! 7 J F 8 j F g ~ 8 g ( ! G G ! J J 8 ! H k B.p.",
"H j j h h a j I O = J U J a p.7.j ! ! ^ R 3 = = 5 ! ( h i.r.k G j ! 2 2 J ! g ! J g g ~ j ! ! ! ! 8 g J 2 = 1 ( j ! 5 _ 8 a D.g.",
"( J h i.i.h g J ^ 3 ! W ( ! ) ! ! ! j ! ! 3 > O 6 ! I ~ i.r.k ( ! ! ! ( ~ 8 j ! ^ g s f g L 8 ! j ! ! J 1 o O ! ! ! 8 ( 5 a V.a.",
"! R h r.r.h R ! I g ! h E G ( H g J ! ! ^ ( ! ! ! ! 5 a h h g 8 ! R ! J 8 g g J 8 h N.B.~ 8 8 J ! j ~ J = . > ! 8 ! ! ( J ~ o.C ",
"F ^ g h j g ~ 8 7 8 / 8 k 4 5 6 ! j ! g 8 8 J J ( ^ j 8 ! R g g ! J ! ! g g ! g 7 ~ F.V./ 7 8 ! J j 8 8 2 = 2 J L ^ ! g J 7 g u ",
"! 0 8 ( | 5 8 ! ) ! 8 H T I ( ~ F j ! ! j ! ! ! h ! J L J ! J J ! g ! ^ 5 g ! J ^ ~ %.y h ! j R ^ ! ! ! ( R ! ! 8 j j g ( ( J ~ "
};
