/* XPM */
static char *_7b14a3e33dc48d6bfe3fa87fa272f20[] = {
/* columns rows colors chars-per-pixel */
"64 64 222 2 ",
"   c #1F983A",
".  c #269E3B",
"X  c #359F37",
"o  c #1DAD36",
"O  c #1EA13A",
"+  c #1EAB3A",
"@  c #1FB039",
"#  c #28A52D",
"$  c #2DA333",
"%  c #25AB35",
"&  c #2CAA35",
"*  c #24A43D",
"=  c #2BA43C",
"-  c #26AB3B",
";  c #2CAB3D",
":  c #24A534",
">  c #32A434",
",  c #32A33C",
"<  c #3AA53E",
"1  c #32AB3C",
"2  c #3BA93C",
"3  c #38A937",
"4  c #2EB836",
"5  c #22B43C",
"6  c #2DB33C",
"7  c #2CB436",
"8  c #33B43B",
"9  c #4DAB3E",
"0  c #44A234",
"q  c #50AF37",
"w  c #54AD3D",
"e  c #5BAA3E",
"r  c #4DB23B",
"t  c #53B335",
"y  c #54B23C",
"u  c #5BB43C",
"i  c #50BA3B",
"p  c #59BA38",
"a  c #64AC3B",
"s  c #6DBC3D",
"d  c #6AB439",
"f  c #76BE35",
"g  c #7BBC36",
"h  c #74B53D",
"j  c #7BB63D",
"k  c #75BD3D",
"l  c #7BBD3D",
"z  c #7CB437",
"x  c #54C132",
"c  c #7BC22B",
"v  c #6EC437",
"b  c #6DC43D",
"n  c #68C939",
"m  c #74C335",
"M  c #7CC335",
"N  c #7CC936",
"B  c #75C33D",
"V  c #7CC23D",
"C  c #76C93E",
"Z  c #78CA39",
"A  c #249347",
"S  c #3B9B44",
"D  c #359949",
"F  c #1FAC44",
"G  c #24A543",
"H  c #2BA342",
"J  c #25AB44",
"K  c #2BAB44",
"L  c #23AA4B",
"P  c #25A64B",
"I  c #35AB44",
"U  c #32AB4B",
"Y  c #3EA147",
"T  c #2BB147",
"R  c #24B045",
"E  c #26A850",
"W  c #31A854",
"Q  c #5CAC4C",
"!  c #59AC44",
"~  c #48B243",
"^  c #53B442",
"/  c #59B543",
"(  c #52B844",
")  c #52B848",
"_  c #63AA4B",
"`  c #63B345",
"'  c #6EB545",
"]  c #64BD44",
"[  c #6DBD43",
"{  c #6DBD4B",
"}  c #64B849",
"|  c #75B544",
" . c #7BB643",
".. c #75BC44",
"X. c #7BBD43",
"o. c #74B54C",
"O. c #7CB64B",
"+. c #74BC4B",
"@. c #7CBC4A",
"#. c #69BF50",
"$. c #6EB452",
"%. c #76B454",
"&. c #7BB652",
"*. c #74BD53",
"=. c #7CBB52",
"-. c #7FBC58",
";. c #3FC240",
":. c #59C146",
">. c #65C345",
",. c #6CC344",
"<. c #6BC24D",
"1. c #6DC94E",
"2. c #6CC945",
"3. c #74C243",
"4. c #7CC144",
"5. c #73C941",
"6. c #7ACA43",
"7. c #75C24A",
"8. c #7CC24A",
"9. c #7DCA4A",
"0. c #73CD49",
"q. c #74C252",
"w. c #79C751",
"e. c #81BC35",
"r. c #82B53C",
"t. c #82BC3D",
"y. c #8BBC3D",
"u. c #85B53A",
"i. c #92B736",
"p. c #94DD1C",
"a. c #9BDD1C",
"s. c #98DA1A",
"d. c #A1DE1C",
"f. c #8EE118",
"g. c #96E515",
"h. c #9BE316",
"j. c #9DEA14",
"k. c #94E31C",
"l. c #9BE31C",
"z. c #95EB1B",
"x. c #9DEA1B",
"c. c #A2EB16",
"v. c #A2E31D",
"b. c #A2EA1A",
"n. c #A2E615",
"m. c #85C62F",
"M. c #8FDD21",
"N. c #8ED62B",
"B. c #8CDA2F",
"V. c #9BD722",
"C. c #94DD23",
"Z. c #9CDD24",
"A. c #94DB2A",
"S. c #9BDD2C",
"D. c #97D627",
"F. c #82C436",
"G. c #84CA35",
"H. c #8BCE35",
"J. c #82C33C",
"K. c #8CC13D",
"L. c #84CA3D",
"P. c #8BCC3D",
"I. c #8ED534",
"U. c #85D13B",
"Y. c #8BD13C",
"T. c #94DA31",
"R. c #9ADB34",
"E. c #92D23D",
"W. c #A3DD22",
"Q. c #AEDE21",
"!. c #A1DC2B",
"~. c #A2D62C",
"^. c #A1DF33",
"/. c #8AE426",
"(. c #95E123",
"). c #9CE323",
"_. c #97E821",
"`. c #9CE923",
"'. c #95E12C",
"]. c #9AE22A",
"[. c #9BE334",
"{. c #A2E324",
"}. c #A2EA21",
"|. c #A0E22A",
" X c #A6E827",
".X c #84AE4C",
"XX c #82B643",
"oX c #8AB544",
"OX c #82BD44",
"+X c #8ABD45",
"@X c #83B54C",
"#X c #8DB64A",
"$X c #82BC4B",
"%X c #8ABB4C",
"&X c #90B54C",
"*X c #95BD46",
"=X c #81AC50",
"-X c #84B452",
";X c #82BB51",
":X c #8DBB54",
">X c #85B658",
",X c #82C244",
"<X c #89C244",
"1X c #83CB44",
"2X c #8ACA44",
"3X c #82C24A",
"4X c #8AC44C",
"5X c #85C94C",
"6X c #8CCC4C",
"7X c #91CB41",
"8X c #93CA47",
"9X c #8CD443",
"0X c #80D04A",
"qX c #8ED349",
"wX c #86D140",
"eX c #92D143",
"rX c #94D24B",
"tX c #84C252",
"yX c #8BCB54",
"uX c #8BC451",
"iX c #90CE53",
"pX c #8DC761",
/* pixels */
"B 3XO.7...i.V J H 3.,X+.X.u.4.3.@.XXO.$X3.J.'.v.$Xk M M B 4...X.M &.4.OX=X,.B @X;Xk V @.3.OX<X,.l l ..X.@.X.4.4.[ 3X .l 4.6.k F.",
"l OXOX4.q.t.[ = 1 3.j 3.,Xt.,X..l Z ,X5.r.J.~.{.b $X%XO.$XX.k +XOXB F.3XV p 6 q 3.+XXX4.4.+.| OXX.X.@.X.4.4.X.l ,Xg.a.uX@.V @.&.",
"X.4.e.4...8.9./ r V j k 4.OX8.X...m b X.3.$XU.2XB X.@.&.4.4.X.X.o.$X2.@XO.4 . H m @X@.C k = ; OX@.X.4.4.4.B k 4.OXl.C.,XX.l X.$X",
"@.8.3.X...k ,Xj ,.,XOX3.B X.X.4.X.4.$XOX@.<.5.@.XXB J.,XB 3.,XB O.b M 8.OXu U / N O.{ J.k = o @.l B l l  .X.@.$Xt.6X5XB B C 4.X.",
" .X...4.OXl ,Xt.4.@.@.4.7.X.X.4.+XX.O.OXt.3.J.XX@.,XX.k OXX.7.X.4.XX6.@.X.B $.4.3.%XX.V X.} ` X.X.X.X.X.X.@.X.@...=.4.4.X.4.l @.",
"y.t...X.t.X.7.X.g  .O.,X4.X.OXX.+.i 8 w B OXV @.B @.1 % &.+X..#Xl =XX.,.X.K.V 4. .X.X...X. .X...X.X.@.@.OX,XJ.l  .l t.l XXj $X,X",
"2.4.,XX.t.@.{ N m...X.t...@.t.X.o.8 O 1 @.@.B +.J.+.- 5 +.XX3.$X4.F.4.6.C.a.9.m XX4.3.,XOX3.,.5.J.t.l X.4.X.4.B ,X$XOXJ.t.$X8.b ",
"H e  .6.4.@.,XD.T.6.X.t...@.OX3.y.i T ^ X.t.g 3XX.OXX.3XX.k 9.k ..4...XXQ.W.@.@.k ,X4.h OX$X .OX'.N.G.J.@.@.X.+.M +.3.B =.,.i S ",
"J H +.N g $XB S.A.5XO.t.,X8.k OXV @.X.&.X.B X.l.x. .8.=.V X.,XX.&.&.4.k 8...B X.8.M X.@.l F.O.J.{.(.m -X@X= * l 4.8.OXj 4.1.. L ",
". , *.3XX.$Xk J.m.4...z X.@.X.X.4.X.M X.4.V 4.C.C.X.,XX...@.J.t.F.F.V k k V OX@.4...X.4.V V @.| Y.U.3.:X8.5 - @.X.X.4.l V 3.> G ",
"< r @.3XX.X...X.OX@.l 6.@.O.X.C X.@.@.@.B 4.O.$X,X@.V M 4.X.(.(.(.k.U.;X@.l X.V t.X.8.X...4.1XX.[ 3X4.m s ..$XOX4.X...X.,X4.w 2 ",
",.3.OXX.k V 6.X.8.@.X.C OXj k X.8.X.X.l V 8...X...@.k V ;X$X).S.}.}.A.6Xl l X.@. .l J...X.%.@.+.:X@.h V J.+X<Xk l 4.X.4.OX4.4.] ",
"8.3XX.X.,XC X.X...OX8...j J.9.$X..k ,Xl ..4.4.OXX.8.4.V X.t.l.l.Z.).l.A.,XOX..@.3X(.z.l.x.J.F.J.@X .X.4X+.{ 3...,X4...X.X.j 8.X.",
"X.$X . .4.+.@.X.3.OX8.3.t.b >.%XX.X.,X,X@.X.k X.l X.4. .J.OX(. XZ.Z.l.(.2X$Xl 4.5Xl.h.a.x.XXX.4.b J.t.+.O.OX4XX.X.4.4.X.X.j OXX.",
"l y.N l O.8.@.4.3.j | ,Xk 3 1 @.@.J.p.A.OXB l V @.&.tXO.X. .P.`.|.Z.{.j.C.,X@.X.[.h.{.~.Z.=.6.] =.F.f @.y.g ,.4.OXX.4.l @.X.4.X.",
"M S./.e.O.6.e.4.X.OX@.5X[ J G X.X.l `.].,Xg @.@.x.(.`.G.G.O.@.Z.b.p.Z.`.(.,X&.M `.s.{.!.l...n S K k 3X<.X.J.8. .X.l ,Xk 4.4.X.X.",
"M '.Z.M | 7.4. .#X| 3.<XX.k OX..X.4.5X4X8.X.X.X.A. Xd.V.qXX.m 6Xl.S.{.W.(.J.X.5Xl.Z._.'.L.,X{ < D 3.,XO.@.l ,X4.OXX.4.X.m ;XOX-X",
"l qX9X4.X.J.l 6.9 4 r ....X.3.XXX.X.X.OXX.X.X.X.2Xc.d.a.k.1X,X@.l.).{.s.a.X.OXx.l.Z.x.(.,Xj Z ( i C  .+.B l  .4.J 1 2.OX .X.f.z.",
"X.=.q...t.J.l B K : 4 O.#X2.$XOXX.X.X...X.4.X.X.-.g.l.{.x.'.6Xl <X(.b.).`.OXX.l.W.v.(.P.OXl 4.,.n M  .3XC k X.4.J D { OX .6.z._.",
"X.X...X.8.@.$XOX^ 8 w O.+XOX3.X.4.X...X.,X4.X.X.V 1XZ.).l.Z.(.t.:XS.v.].'. .XXx.{.Z.P.3XOXt.O.;X*.X.,X8...X.,X@.6.j ,XOX+.o.,X@X",
"V V ,XX. .X. .$XX.....OX4.3.OX5.4.X.X.4.X.X.4.X.4.,XyXs.n.).C.F.N Y.S.g.x.OXOXC.C.1X@.4.@.4.X.,X:XX.4.3XX.3.4. .X.F...4.V ,XV ,X",
"t.j ....4.F.V +.OXJ.OXB B X.XX3.X.X.4.X.X.X.X.X.8.k @.6XZ.).l.V h @.I.p.(.4. .X.G.X.3.k V ..M A.Z.V X.,XX.X.X.,XZ.`...7.M OXo.3.",
"3X .X.4.B ,.3.4.l 3.4.4.3.X. .4.X.X.X.4.X.X.X.X.j @.k 4.pXA.p.$X4.X.OX@.$X..V =.O.f 7. .M 3.4.C.l.X.+.l OX4...OXd.{.@.8.k M @.O.",
"0. .+XM t Y Q V OX3...XX$XX.OX4.4.X.X.X.X.X.4.X.XX3X7.c g OXJ.X.4.X.X.=.4.k M @.+Xl 3X;X .+.X.K.t.X.8.l  .8.B  .0XY.=.,X@.k ,Xl ",
"l OXr.3.> F I k +.@.4.M X.X.l 8.4.9 K K ! +Xl J.3.l XX+X$XX.OXX...5Xl.{.W.).6XX.t.O.5X+.X.J.O.@.4.l X.X.+XX.B l $XO.8.4.l t.OXXX",
"OX[ 8.X./ = ~ +X4.l @.| X.OXX.X.X.8 O   8 >.XX7...OX5.b l X...3X3X2Xl.).`.p.P.,X@ & b  .+XX.@.C 8.@.X.X.4. .3X8.V B ..X.X.8.3.,.",
"B OXtXs 5.3.8.X.4.l ,XJ.X.OX4.@.7.e 1 1 y 7.3.$X@.X.OXOXl X.4.| ,X@.U.(.).P.O.X.L Y ,.l 3XX...V f @.4.,XV o.X.g j ,X4...X.j OXOX",
"X.X.j X.,X4.l OXX.X.(.k.,XX.M O.4.X.[ ..OX,Xj r.4.@.+.8.X.X.,XO.X.l @.OX4.X.l X.@.| ..8.l OXX.=.F.2XC.(.g.J.8.O.X. .8.+.,X,X| 8.",
"@.OX<Xl OXh ..4.X.,X`._.,X@.M O.F.3.OX+XB V t.3.g tX= 5 8.OXb +XX.M @.+.....M ;X,XV 3.4...X.J.1Xl.R.`.].l.,XJ.N 6.k XXe.3X1.H J ",
"......3.k ,X3XB B X.2X2XX. .X.@.4. ...3.X.3.@.OXV 8.$ ; @.OX3.j @.@.tXOXV 4.X.*.3.g +Xk 7...B.C.l.Z.l.{.V.X. .X.9.l ,Xl B ,., H ",
"7.2 $ 7.j 4.[ ,X,Xk @.@.X.,XX.X.$X$XX.X.8.OXOX@...6.@.@.@.X.+X,X4.l X.| X.V M 8.$Xu.%Xj 8.3.S.n.!.Z.b.l.S.,X@.@. .X.8.4.X.,XX.@.",
"p . E ) t.u.,Xk @.X.,Xl X.4.k 4.B V 3.OXOXl V 5.O...F.g 4.w.h 3...X.G.a.l.T.2X4.3.B <.4.J.7X).).).l.l.A.9Xk X.V V 6.| 8.X.k ,Xl ",
"@.> & $.&X3.3.@X$Xk M V B 4.X.4.3.&X+.X.,X,.@.XX,Xl X.X.l 4.X.@...X.G.R.{.h.s.rXl 4.+.B $Xx.).Z.W.).l.A.,XV X.4.J.OXg X.X.V @.X.",
"8.i ( 8.OXl 6.@.b @.%XO.$XX.k +X<X .- J d l 3X4.4. .,XX.O.@.k 4.X.X.3XC.b.).R.l.@.M 8.*.t.s.Z.b.h.{.j.iX .B 4Xk.].I.,XX.4.X.X.X.",
",XX.8.8.V l J.4.B X.@.@.X.4.4.OXh % U . ; *.l B @.4.,XX.F.,Xl J.4. .8.2Xl.l.).v.2XX.V l eXl.d.Z.c.(.2X8. .6X(.b.c.l.,X4.X.@.V @.",
"k OXXXl k l X.X.$Xl J.,XB 3.6.3.y.F W + K 8.F.OX@.V  .4.k.(.4.X.8.4.X.4.1Xk.l.Z.S.OXl j ).].!.a.|.4X .X.4X`.!.d.j.C.l X...X.V @.",
"..4.X. .4.3.B XX..OXX.k OXX.4. .t.Q A & p +. .B O.M  .,X_.].4.OX@.@.c l ,XiXS.{.x.k @. .l.Z.{.l.4X4.OXY.g.S.a.v.A.E.t.@.OXM ..X.",
"4.4...OX$X3.X.OXB @.; 7 *.#X[ #X,.tXk V 3Xq.$XJ.@.X.X.OX2X2X4.B @.V 3.B @.@.4XC.C.@.V F.).v.'.7XX.X.OX).g.l.).).1X3XX.@.4.l @.X.",
"4.....X.X.X.X.X.F.+.- @ +.OX3.$XK.z G.C h t.B O.X.X.4. .@.$Xk 4.X.l X.&.V X.4.J.<Xk V OX'.(.2X@.N X.$Xl.l.).N.Y. .@.l ..X.X.@.X.",
"@.X.4.4.X.OX4.3.X.3X .3XOXk 4.l $X(./.3X@XX.3X3.4.k 4.4.l 4.X.@.4.X.X.,X3Xl V ..l *.3Xl l J.X.k +.X.,XS.s.8X,XX.4.V X.J.8.&.V 4.",
"OXk ,X@.l l @.V 4.X...@.X.X.X.@.,Xz.k.X.$X,X=.+.8.h 4X+X..7.3.V .. .4.3.4.l X.4.@.M XX4.,Xh 4.OXl ..X.X.X.X.X.X...4.3Xh 4.V ,Xt.",
",X@.+...@.,X..8.4.@.X.4.X.l X.X.o.3XtXO.V M 7.M - > [ 4.l 3XX. .OX<X@.k OX$Xl 4.3.p - _ v 3X .6.4.4.X.X.X.3.X.4.+X,XX.3X@.@.+.+.",
"o.N F.(.l.(.l X.4.X.4.4.4.4.X.,XX...X. .B ..| d J H :.C k B X.$X3.7.B @.@.X.;XX.;X6 A 7 ,X$X3.3.X...X.3.4.l X.X.[ X.k ..& : I $X",
"=.M 4.k.).{.2X8. .X.,XX.X.X.4.X.X.X.f B 4.@.4.k * 1 ] OX+X+XX.+.X.3.8.OXl O.X.X. ._ K a 3.@.k V 4.X.X.4.X...X.X.0.l k :X, * ; o.",
"..X.X.c.D.v.Z.OXX.OXV X...@.X.,XF.X.<X4.X.8.,XX.%X$XOXOX..3.3.V y.s +.y.t.l J.C J.C l +.OXOXX.V X.X.X.X.X.X.4.B [ X.C @.% % ;.*X",
"OXOX=.`.S.v.).,XX.4.V X.@.X.,XP.A.`.A.,X .O.@.O.s k B X.,XOXV l r I r  .8...=.f 8.m 8.X.V.a.uXs X.3.4.X.X.X...X.&Xj b #X;X;X3.j ",
"(.k.@.P.l.l.b.}.X.OXX.X.X.,XH.D.S.c.p.OX@.4.V l <X,XB B 3...4.4.6 o U 3.6.%. .t.X.+.[ 2Xp.).,XX.4...k X.X.3.X...XX,X3.X...,XOXOX",
"l.).$X,X).D.v.Z.X.X.3.X.,XL.A.v.l.).4X&.M M @.4.+.4.X.X.OX@X .X.t 8 9 t.F.f <XT.W.OXX.g +XB o.<XX.X.X.4.X.X.X.X.B 6.j 4.l 4.X...",
"uX0XX.l 4Xx.Z.d.4.4.B X.6X[.l.n.v.A.1X .OXV V X.V X.@...@.4.8.@.X.X.V 4.X.X.G.B.^.g +.w.l z ,X4.4.t./ - _ j %X@.N k 8.+.X.F.l @.",
"V ,Xl X.tX(.h.!.k &.X.P.).l.D.W.S.U.k 4.OXk 4.X.k X.4.OXt.l l B X.X.l X.@.X.V G.g L.k | 3X,Xg @...t.: P - ,Xn l  .3XO.,XX...w.X.",
"f @.k V @.2Xl.l.8.V J.Z.c.V.}.].wXl | 3X,Xj ,X7.+X$X..m OXe.X.8.X.X.l X.@.@.X.X...3X3X3.8.@. .3.6.V / J } B ,X..$X@XF...d P ' d ",
"$XV 4.J.4.2Xk.`.+.V 2XS.{.).].2X3.@.@.4.4.3X7.y G J - ^ 8.<Xl 3.X.4.k X.8.8.@.X.XX..X.t.t.<.8.,X..K.4.' oXXX;X4.J.l ..V % H T X.",
"=.l -.X.h B 8.&.+.t.).}.l.l.P. .4.XXOX4.k 4.[ 0 H G : 2 } $XO.O.$XX.4.V l 4.3.X.@.,Xy.l @.OX4.X.| %X7.3Xs -XM p.A.N *.,X: = J V ",
"k.k.iX8.X.X.3Xc 3Xl k.(.S.E.@.M X.j j 4.l X.{ u * K I ^ 4.t.l m X.8.4.X.l B l V w.s k 0.6.XXOXs @...X.m L.o.4X(.].y.B %.[ G a | ",
"9X(.k.f g k @.@.4.X.&.,XOX@.| @.OX4.k OXOX4.6...X.8...3.X.4.X.4.X...$X4.X.l X.X.u . I >.l ..8.X.4.l t.XXF.X.O.t.J.V h X.4...7.+X",
"j 8X(.%XJ.X.B 4...,Xl l 4.V V 8.X.7...@.XXX.X.OXJ.X. .@.X.4.4.X.k X.@.X.X.4.X.@.= K * I <.+Xt.7.B B =.>X..Z 4...*...5Xv  .,X ...",
"X.4.O.4.X.@.V 3.l 3XX.X.OX,Xk 7.3.4. .X.,Xk 8.O.X.B X.X.l l 4.X.X.4.B 7.O. .,Xg P = K K >.%XX.Z j %XX.X.B ..OXX.l X.+.8.4.X.@.X.",
"k 8.X.F.M OX@.k X.l t.V X...OXB l X.8.4.6.B M V 4.@.$X@.@.X.X.X.t.&.= - @.<X,.$X8.: # u 4Xe.j @.l ..=.J.s 7X' t.V J.X.4.X.l J.F.",
"l @.l  .@.j ;X4.F 1 <.X.t.z ^.d.,XX.X.l XX%Xl 8.+.X.l j ,X,XX.k V &.- - X.+X2.>XV ' ,X3.+.+X*X+.M 7.8.4.y.] X.4.-.X.@.X.l F.M.C.",
"4.@.l OX,Xl @.X.G > 2.@.OXl [.k.X.X.4.l X.{ , P OXF.@.X._.C.,X@.3.X.u p X.l 4.X.b %X:Xo.+.3.B t.l 9.l +.a 1 / 3.X.N @.J.l 3X'.`.",
"l @.3Xk.k.,X@.l  .l X...8.X.J.e.X.X.X.X.8.<., J X.F.@.OXk.(.3X@.4.3.e.y...X.<Xm ,XX.B l t.B b $X@.B X.,XG G * X.&.V @.4.l OX(.).",
"4.X.3XC.C.,XX.4.+X,X+.+.,XOXOXX.,X4.3.h XX+Xj 8.@.X.l l ,XOXX.f @. .X.X.X.@.3.3.X.X.Z.).B +.%X&.@.OXk 4.; G = X.l M X.X.X.&.P.2X",
"8.X.X.OXX.X.4.4.k 3.3X4.X.B 3.q.j X.8.3.6.B V V V @.O.@.@.X.X.4. .3X8.7.3XX.h @.4.l s. X8.*.t. .k $Xe.o.p K ` l @.X.@.4.X...J.J.",
"X.4.V X.@.g 8.X.8.l XXt.B B OXXX6.X.OXj ,X| tXO.X.B X.X.l 3.X.X.4.X.l X.l ,Xl 4.V 3X5X0XXXl v 8.C ..:XV B V ..OXl 3.X.4.X.X.8.O."
};
