/* XPM */
static char *_583419379573[] = {
/* columns rows colors chars-per-pixel */
"192 64 47 1 ",
"  c black",
". c #010101",
"X c gray5",
"o c #0E0E0E",
"O c gray6",
"+ c #191919",
"@ c gray10",
"# c #1B1B1B",
"$ c #252525",
"% c gray15",
"& c #272727",
"* c gray20",
"= c #343434",
"- c #353535",
"; c gray26",
": c #434343",
"> c #444444",
", c gray32",
"< c #535353",
"1 c gray33",
"2 c gray39",
"3 c #646464",
"4 c #656565",
"5 c #747474",
"6 c gray46",
"7 c #767676",
"8 c #868686",
"9 c gray53",
"0 c #888888",
"q c gray60",
"w c #9A9A9A",
"e c #9B9B9B",
"r c #ACACAC",
"t c gray68",
"y c #AEAEAE",
"u c #C0C0C0",
"i c #C1C1C1",
"p c gray76",
"a c gray83",
"s c #D5D5D5",
"d c gray84",
"f c #E9E9E9",
"g c #EAEAEA",
"h c gray92",
"j c #FDFDFD",
"k c #FEFEFE",
"l c white",
/* pixels */
"                                                                                                                                                                                                ",
"                                                                                                                                                                                                ",
"                                                                                                                                                                                                ",
"                                                                                                                                                                                                ",
"                                                                                                                                                                                                ",
"                                                                                                                                                                                                ",
"                                                                                                                                                                                                ",
"                                                                                                                                                                                                ",
"                                                                                                                                                                                                ",
"                                                                                                                                                                                                ",
"                                                                                                                                                                                                ",
"                                                                                                                                                                                                ",
"                                                                                                                                                                                                ",
"                                                                                                                                                                                                ",
"                                                                                                                                                                                                ",
"                                                                                                                                                                                                ",
"                                   .                                                                                                                                                            ",
"                                                                                                                                                                                                ",
"                                  . .                                                                                                                                                           ",
"                                   . .                                                                                                                                                          ",
"                                    .                                                                                                                                                           ",
"                                                                                                                                                                                                ",
"                                                                                                                                                                                                ",
"                                . @-o.                                                                                                                                                          ",
"                               :wgllgo                                            .        .  .               o<9ttq6%.                  .                           .                          ",
"                             ;sllllll&            .  .  .                 .           .. .                  .3flllllklt@.       .                .             . .   .                          ",
"                            wllllllu7      .      %*=               =% .  o=@          o=*&                 qllllllllllg%.                         O=*%     .       .%@                         ",
"                        . opklllq:     .      .o0gllll6       =tw.%dlle  <llkt.    . <illlkh7O            .0llkt:  =rllls .   <lpo      =hg:   . <pkllkh7O    ;hh@ %rll@                        ",
"                          wjlli@.            .$fkkllllg3kt.   tll:glllk<:llkll6    otllllllkkr          . +kkle.    .6lll<    tkl-      9klq.  otklllllkkt    7kk3,glll<                        ",
"                         :lllw          .   .%gllgw66t3plk@   yllylltllqdldiklgo   plllr6<tlll%           wllt        sllw    tll=      yll4   plllt6<rlll&   3llillls3                         ",
"                         slli                tlluo    @kks .  tllll, wlllho tll:  <llg=   Oklk=           sll<.       wlli    5ll6     @lll%  <klf= . okll=   =lllll3                           ",
"                        %lll=   .@3wttt6    =llso .   4llw    glllt. =lll6  <ll9  ill:  o<slls            lll%.       6llg    <llw     6lls.  ilk:  o<dlls   .=llll<                            ",
"                        3llg . :illlllll9  .9ll3    .ogll6. . llll@  olll@. @llt  lll69tlllli%           .llk@       .wlly  . okllo   ogll6   lll69tlllli%    olllt                             ",
"                        6lkt  %llllllllll  .tll=     wkll6    tklw    lll    lly  klkllllli<. .           lll:       Xlll9     wll, . 9llgo   lllllllli<    .  klk%                             ",
"                        3llho ogls9=oollk=  tll:  . ellll9    tll1    llt   .lll  llliw6:+   2i<        . tllt       tlll@     -llg# <lll6    llluw5>@.  2i<   lll  .                           ",
"                        #llle .+%    3lkl   9lli=-<sllaikg=   tkl=    klt    lll  qlli> . =8slls          3klleo.  @tlkl8       rllfpllli.    qklp:   =8slls  .llk .                            ",
"                         yklks9:-=,9slll9   =llklllllg%3lll4  yll=   ollt    lll  #gllkllllllkl3          opklklrralllliO      .%gllkllfO     #glllllllllkl4   lls                              ",
"                        .oiklllllllllllq   . <klllllt@ Xtlk4  wll%   oglw.   slg   %alllllllly=            Xpklllllllk8o         %tlllt#       %sllllllklt=    llt                              ",
"                           <alllllllkw<       @6t93@     =3 . o3=     @=     @7@  .  :6trt93$              . 1illllsw#   .   .  .  @=@        .  :6ttt93%  .   =6@                              ",
"                            .@=6675*o      .     .         .                                                   o==o        .        .                                                           ",
"                                                                                                                                                                                                ",
"                                                                                                                                                                                                ",
"                                                                                                                                                                                                ",
"                                                                                                                                                                                                ",
"                                                                                                                                                                                                ",
"                                                                                                                                                                                                ",
"                                                                                                                                                                                                ",
"                                                                                                                                                                                                ",
"                                                                                                                                                                                                ",
"                                                                                                                                                                                                ",
"                                                                                                                                                                                                ",
"                                                                                                                                                                                                ",
"                                                                                                                                                                                                ",
"                                                                                                                                                                                                ",
"                                                                                                                                                                                                ",
"                                                                                                                                                                                                ",
"                                                                                                                                                                                                ",
"                                                                                                                                                                                                ",
"                                                                                                                                                                                                ",
"                                                                                                                                                                                                ",
"                                                                                                                                                                                                ",
"                                                                                                                                                                                                ",
"                                                                                                                                                                                                ",
"                                                                                                                                                                                                "
};
