/* XPM */
static char *bd2ac788b71a49bcc0292b9d0ad60869[] = {
/* columns rows colors chars-per-pixel */
"64 58 74 1 ",
"  c #010002",
". c #0C0104",
"X c #090806",
"o c #050609",
"O c #08070C",
"+ c #04090B",
"@ c #0A0A0C",
"# c #120104",
"$ c #1D0005",
"% c #110209",
"& c #1C0008",
"* c #11110F",
"= c #110F10",
"- c #131315",
"; c #240106",
": c #290006",
"> c #230308",
", c #2C0109",
"< c #340007",
"1 c #3A0007",
"2 c #350009",
"3 c #3A000B",
"4 c #212224",
"5 c #45000B",
"6 c #4C020D",
"7 c #54000D",
"8 c #5B010D",
"9 c #550110",
"0 c #63000E",
"q c #6B000E",
"w c #71010E",
"e c #6D0010",
"r c #740012",
"t c #7A0012",
"y c #7A0C17",
"u c #404143",
"i c #535456",
"p c #80000F",
"a c #88000F",
"s c #9B000E",
"d c #850112",
"f c #8C0012",
"g c #870B16",
"h c #880C17",
"j c #830A19",
"k c #950114",
"l c #9C0113",
"z c #A30114",
"x c #AA0115",
"c c #A60018",
"v c #AD0118",
"b c #AF081A",
"n c #B40016",
"m c #B90117",
"M c #B40119",
"N c #BC0119",
"B c #B3081C",
"V c #CD0117",
"C c #C3011A",
"Z c #CC001B",
"A c #C6091E",
"S c #D3011C",
"D c #DC001D",
"F c #E5001F",
"G c #EB001E",
"H c #F0011E",
"J c #F8011E",
"K c #CC0621",
"L c #D70220",
"P c #DB0121",
"I c #E50121",
"U c #EB0121",
"Y c #F40121",
"T c #FFFFFF",
/* pixels */
"TTTTTTTTTTT4OOOO@@@OoTTTTTTTTTTTTTTTTTTTTTTo@@O@OiTTTTTTTTTTTTTT",
"TTTTTTTTTTT-         TTTTTTTTTTTTTTTTTTTTTT      uTTTTTTTTTTTTTT",
"TTTTTTTT OX          oOO=TTTTTTTTTTTXOoo@OX       @@XTTTTTTTTTTT",
"TTTTTTTT                 TTTTTTTTTTT                     TTTTTTT",
"TTTTTTTT   2333333133$      TTTTTTTT   ,333111,:,$       TTTTTTT",
"TTTT      .SUIIFFFFFHd      TTTT       NGFFFFGxlzq       TTTTTTT",
"TTTT   7mMnDFFFIFFFFGZMMv&   TTT@      NGFSxxzZSDVMMM:      TTTT",
"TTTT   wYGFFFFIIFFIFFFGGI&         >977KFFSnMnCVCSGUG<      TTTT",
"       qGFFIFFFIFGFFFFFFD,..o      7YUUFFIFFFGxssMDFI3...   TTTT",
"       qGFFFFFFFFIIFFIIFIZCSt      7GFGFFFFFFFFDFZzccNVSk   TTTT",
"   .ertxGFFFFFFFFFFFFIFFIFUUf      6UFFFFFIFFFCmNnlllSGGc   TTTT",
"   .PYGUFFFFFFFIFFIFFFFFIFIUf   &$$eFFIFFIFFFFnzzzlslZDFl   TTTT",
"   #ZIIFFFFIIFFIFFFFFFFFFFFGf  .MIDDIFFUIIIFFFFFFVlllllzr   TTTT",
"   .SFFFIFFFFFFFFIFIFIFFFFIGd   NGFFIFIFFFFFFFFFGZlllCZSk   TTTT",
"   #ZGFFFFFFFFFFFFFFFIFFFIIGz<<1CGIFFFFFFFFIFFSSSCllsSGGc      T",
"   .ZGIFIFFIFFFIFFIFFFFFFFPIFFFFFFFFFFFFFIIFFFzllllllSFGc      T",
"   #SFFFFFIFFIFFFFFFFFFFFFFFFFFFFFFFFFFFFFFFFFSZSCllkzxxlhgg>  T",
"   .SFFFFFFFFFFIFIFIFIIFFIIFIFFIFFIFFFIFFFFIFFGFFSnmmmMmnBbb,  T",
"   %VFFFFIFIFIFFFIFFFIFFFFFFFGIFIFFFIFFFIFFFIFIIFFFFFFFFCkks,  T",
"   #ZFFFFFFFFFFFFFFFFFFFFFIFFFFFGFIFFFIFIIFFIFFIFVzzzzzxd##&   T",
"   XSFFFFFIFFFIFFFFFFFFFFFFFFFFFIFFFFFIFFIFIIFFFGZlslszze      T",
"   #ZGFFFFFFIFFFFIGFFIIFFIIFFFIFFFFIFFFFFFIGFFFFFSzzzzzxt      T",
"   #ZFFFIFFIFFFFIFIFFIFFFFIFFIIFFFFFIFFFFIFIFFFFFFFFIIIIc   TTTT",
"   %BAASFFFFFFIFFFFFFFFFFFFFFFFFFFIFFFFFFIFFFFNmnnnnmmnNd   TTTT",
"   .ygjBFFIFFFFIFFFFFFFFFFFFFFFFIFFFFFFUFFIIFFxkllxxvlllr   TTTT",
"       eGGIFIFIIIFIFFFIFFIFFFFIFIFFIIFFFFFFFFFxllMFFFvlzq   TTTT",
"-      eGFFFFIFFFFFFFIIFFIIFFIIFFFFFFFFIFFFFFFSSSVxxx6;;$   TTTT",
"TTTT   eUFIFIFFFFIFFFFFFFFFFFFFFFFIFIFFFFFFFFFSVVCnMn:      TTTT",
"TTTT   rGFFFFFGFFFFFFFFFFFFFFFFFFFFFFFIFFFFFIPxllMIFF<   @XXTTTT",
"TTTT   wJGGFIFFFFIFIFIIFIFFIFIFIFFFFFFFFFGZzzvZDDKlzz;   TTTTTTT",
"TTTT   <trtDFFFFFIFFFIFFFGIFFIFFFFIFFFFFFGClllmCNCCCC<   TTTTTTT",
"TTTT =*+   ZFFFFFFFFFFFFFFFFFFFFIIFFFFFDDDCzzzlllcVVZ,   TTTTTTT",
"TTTTTTTT  .ZFFFFFFFFFFFFFFFFFFFFFFFFFFFxllnGFFxszw...    TTTTTTT",
"TTTTTTTT  #ZFFFIFIFIFIFFGIFFFIFFFFFSnnnVZZCnmnzkle   TTTTTTTTTTT",
"TTTTTTTT  #VFFFFIIFDUFIIFIFIFFFIFIFZzxxZDSCkklcvMt   TTTTTTTTTTT",
"TTTTTTTT  %VFFFIFFFFIFFFFFFFFIFFIFFFIFIxlllllzSFGz   TTTTTTTTTTT",
"TTTTTTTT   <<2fGIFFIFIUFFFFFFFFFFFFFFFFxllnDPSIGYc   TTTTTTTTTTT",
"TTTTTTTTTTT+  8HFFFFIIFFFIIFFFIFFFFFFFFcllxVZZlkk0   TTTTTTTTTTT",
"TTTTTTTTTTT   0FDDFFFFIFFIFFFFFFDFFFFFFcllllll&   O@@TTTTTTTTTTT",
"TTTTTTTTTTT   .$$:ZFFFFFFFFFFFFFxlzNGFFxslMFGF<   TTTTTTTTTTTTTT",
"TTTTTTTTTTT       CFFFFFFFFFFFFFVCNCNCNzllfrtr&   TTTTTTTTTTTTTT",
"TTTTTTTTTTT      .AFFDIFFFFFIIFFDDFClllzzxe       TTTTTTTTTTTTTT",
"TTTTTTTTTTTTTTT  .MLKPFFFFFFFFFFxlzslssDUYl       TTTTTTTTTTTTTT",
"TTTTTTTTTTTTTTT   566fGFFFFFSMmmlllllsk0793   TTTTTTTTTTTTTTTTTT",
"TTTTTTTTTTTTTTT   +  7DSSFFFVkllxvxxxxx$      TTTTTTTTTTTTTTTTTT",
"TTTTTTTTTTTTTTTTTT   5zllDFGCkllDFFFFGF;      TTTTTTTTTTTTTTTTTT",
"TTTTTTTTTTTTTTTTTT   #:::lvxvklsxMvnnnn;  TTTTTTTTTTTTTTTTTTTTTT",
"TTTTTTTTTTTTTTTTTT       lmmmMnnllla000#  TTTTTTTTTTTTTTTTTTTTTT",
"TTTTTTTTTTTTTTTTTT @@o  .CFDDFFFxll0      TTTTTTTTTTTTTTTTTTTTTT",
"TTTTTTTTTTTTTTTTTTTTTT   #$$7xxzczxq      TTTTTTTTTTTTTTTTTTTTTT",
"TTTTTTTTTTTTTTTTTTTTTT      3zzl879<   TTTTTTTTTTTTTTTTTTTTTTTTT",
"TTTTTTTTTTTTTTTTTTTTTT      1kff&  +   TTTTTTTTTTTTTTTTTTTTTTTTT",
"TTTTTTTTTTTTTTTTTTTTTTTTT    ..     TTTTTTTTTTTTTTTTTTTTTTTTTTTT",
"TTTTTTTTTTTTTTTTTTTTTTTTT           TTTTTTTTTTTTTTTTTTTTTTTTTTTT",
"TTTTTTTTTTTTTTTTTTTTTTTTT           TTTTTTTTTTTTTTTTTTTTTTTTTTTT",
"TTTTTTTTTTTTTTTTTTTTTTTTTTTTT  OTTTTTTTTTTTTTTTTTTTTTTTTTTTTTTTT",
"TTTTTTTTTTTTTTTTTTTTTTTTTTTTT   TTTTTTTTTTTTTTTTTTTTTTTTTTTTTTTT",
"TTTTTTTTTTTTTTTTTTTTTTTTTTTTT  OTTTTTTTTTTTTTTTTTTTTTTTTTTTTTTTT"
};
