/* XPM */
static char *_5f7bacf4056490299bdcffe50301e1e[] = {
/* columns rows colors chars-per-pixel */
"64 58 32 1 ",
"  c #010002",
". c #0C0104",
"X c #060806",
"o c #050509",
"O c #09050B",
"+ c #06080A",
"@ c #0A0A0C",
"# c #120104",
"$ c #1D0005",
"% c #1F0008",
"& c #0F110E",
"* c #0F0E13",
"= c #141415",
"- c #240006",
"; c #2A0006",
": c #230209",
"> c #2B0109",
", c #360406",
"< c #390507",
"1 c #370A07",
"2 c #390807",
"3 c #36050A",
"4 c #39070A",
"5 c #36080A",
"6 c #3A080B",
"7 c #390710",
"8 c #360910",
"9 c #3A0811",
"0 c #410006",
"q c #44030B",
"w c #4A020B",
"e c #FFFFFF",
/* pixels */
"eeeeeeeeeee O@@@@@@@.eeeeeeeeeeeeeeeeeeeeeeX@oO@o eeeeeeeeeeeeee",
"eeeeeeeeeee        o eeeeeeeeeeeeeeeeeeeeee   o   eeeeeeeeeeeeee",
"eeeeeeee XO          o@o*eeeeeeeeeeeX@X @@O       o@+eeeeeeeeeee",
"eeeeeeee                 eeeeeeeeeee        o            eeeeeee",
"eeeeeeee  o<4343<4<44:      eeeeeeee   >4q44<<;;>%  o o  eeeeeee",
"eeee      #44443444444      eeee       236,6344544       eeeeeee",
"eeee   446744444444343444#   eeeO      44344444643234>o     eeee",
"eeee   444474444444443644%         :466444444444424443      eeee",
"       444446446544464444>.. o    o4444444444444744444...   eeee",
"       4444444444444444544444      4464444446646444344444   eeee",
"   .4444444444444444444444464 o    3464446446,44444q4444,   eeee",
"   #446444464264464446447,426   $-$466344444444644437444,   eeee",
"   #43444444444444464444<6444   444444444464444426443<645   eeee",
"   #4364464444466444444433444   6354445464444444444444244   eeee",
"   #44464464444444444444644443,<4444,44444646444<66444444      e",
"   .22444544454444644444444444324446444444444445366344444      e",
"   #44444444444444446444464446444444444444264544666444444466:  e",
"   .44644654444444444445444444644442446444444446634426444124>  e",
"   #44444464644454464244444444444446544444444444444444443644:  e",
"   #4644444444624444464454444544454444664446444444<644646###   e",
"   .44444454444445444444624444,64464444,54444444444444446      e",
"   #45444444444444444454444446644444464644644546444444644      e",
"   #44626444444444464644444444444444445444444444444446444   eeee",
"   #44444445444464444444445446445446444446444444444444446   eeee",
"   .44464644444444464446445444464464446446444624464444444   eeee",
"       443372444446,444444445444446,444444444464434444443   eeee",
"=   o  66<6<44444664444444444444444644444444444444434w>:%   eeee",
"eeee   443<7,4444444264444644464644444455444454444424-      eeee",
"eeee   6<<4464444446,6446444446444446444444644444347<, o @@@eeee",
"eeee   4434464445444465444264444446424446444464444344;   eeeeeee",
"eeee   ,464444444444446444444544464444444444444464q34>   eeeeeee",
"eeee &=X  .424444464444445444444445444644644464464443,   eeeeeee",
"eeeeeeee  .46666343444464444446<444444546444444444...    eeeeeee",
"eeeeeeee  #4446664644444444444464544444444444<4444   eeeeeeeeeee",
"eeeeeeee  #4<444<<34624444444436446444444424443463   eeeeeeeeeee",
"eeeeeeee  #636446424264444444444442464464337246,34   eeeeeeeeeee",
"eeeeeeee   ,,,34464346464446<634644444454642343666   eeeeeeeeeee",
"eeeeeeeeeeeo  44344q444344446466444644446346444446   eeeeeeeeeee",
"eeeeeeeeeee   24444344444444364644,64444464444%  o@@@eeeeeeeeeee",
"eeeeeeeeeee   .$%>4444424464644654644464444463,   eeeeeeeeeeeeee",
"eeeeeeeeeee       44444444346663444444444,4464$   eeeeeeeeeeeeee",
"eeeeeeeeeee      .4444444464443<24444444444       eeeeeeeeeeeeee",
"eeeeeeeeeeeeeee  O4474444464<43644454444446       eeeeeeeeeeeeee",
"eeeeeeeeeeeeeee   qww3466<643<6<444634,4223   eeeeeeeeeeeeeeeeee",
"eeeeeeeeeeeeeee      q44346444464444644-      eeeeeeeeeeeeeeeeee",
"eeeeeeeeeeeeeeeeee   06666<444444444324;      eeeeeeeeeeeeeeeeee",
"eeeeeeeeeeeeeeeeee   #-;>63464444444664-  eeeeeeeeeeeeeeeeeeeeee",
"eeeeeeeeeeeeeeeeee       46444642444363#  eeeeeeeeeeeeeeeeeeeeee",
"eeeeeeeeeeeeeeeeee @@X  .44,43664444      eeeeeeeeeeeeeeeeeeeeee",
"eeeeeeeeeeeeeeeeeeeeee   $$$436444,3      eeeeeeeeeeeeeeeeeeeeee",
"eeeeeeeeeeeeeeeeeeeeee      4342344,   eeeeeeeeeeeeeeeeeeeeeeeee",
"eeeeeeeeeeeeeeeeeeeeee      <446#  @   eeeeeeeeeeeeeeeeeeeeeeeee",
"eeeeeeeeeeeeeeeeeeeeeeeee    ...    eeeeeeeeeeeeeeeeeeeeeeeeeeee",
"eeeeeeeeeeeeeeeeeeeeeeeee           eeeeeeeeeeeeeeeeeeeeeeeeeeee",
"eeeeeeeeeeeeeeeeeeeeeeeee           eeeeeeeeeeeeeeeeeeeeeeeeeeee",
"eeeeeeeeeeeeeeeeeeeeeeeeeeeee  oeeeeeeeeeeeeeeeeeeeeeeeeeeeeeeee",
"eeeeeeeeeeeeeeeeeeeeeeeeeeeee  oeeeeeeeeeeeeeeeeeeeeeeeeeeeeeeee",
"eeeeeeeeeeeeeeeeeeeeeeeeeeeee  oeeeeeeeeeeeeeeeeeeeeeeeeeeeeeeee"
};
