/* XPM */
static char *_581797235844[] = {
/* columns rows colors chars-per-pixel */
"64 64 141 2 ",
"   c black",
".  c #010000",
"X  c #000100",
"o  c #010101",
"O  c #000002",
"+  c #010002",
"@  c #6D4838",
"#  c #6E4939",
"$  c #7B4C32",
"%  c #7C4C35",
"&  c #7E4C35",
"*  c #7D4D36",
"=  c #7E4B38",
"-  c #7D5039",
";  c #7D503B",
":  c #7E513E",
">  c gray32",
",  c gray33",
"<  c #555555",
"1  c gray39",
"2  c #656565",
"3  c gray40",
"4  c #7B7B7B",
"5  c #7C7C7C",
"6  c #955331",
"7  c #955033",
"8  c #945431",
"9  c #965432",
"0  c #955633",
"q  c #945134",
"w  c #955235",
"e  c #945335",
"r  c #975235",
"t  c #955237",
"y  c #955436",
"u  c #9F5E38",
"i  c #9E5E3B",
"p  c #A15D3A",
"a  c #A6683F",
"s  c #915940",
"d  c #B16C43",
"f  c #B06D43",
"g  c #B26A44",
"h  c #B16B47",
"j  c #B36A47",
"k  c #B06C45",
"l  c #B16C45",
"z  c #B26D44",
"x  c #B26E47",
"c  c #B36E47",
"v  c #B36A49",
"b  c #B16D48",
"n  c #B06C49",
"m  c #B26C48",
"M  c #B36D49",
"N  c #B26C4A",
"B  c #BE7749",
"V  c #BB7949",
"C  c #BC7A4A",
"Z  c #BE7F53",
"A  c #BF7E58",
"S  c #C17C52",
"D  c #C07D52",
"F  c #C17C53",
"G  c #C27D53",
"H  c #C17E53",
"J  c #C37B55",
"K  c #C37A57",
"L  c #C57B56",
"P  c #C17C55",
"I  c #C27D54",
"U  c #C17E54",
"Y  c #C07F55",
"T  c #C37E54",
"R  c #C37E55",
"E  c #C27F55",
"W  c #C27D56",
"Q  c #C27E57",
"!  c #C37E57",
"~  c #C57E54",
"^  c #C17D58",
"/  c #C27C58",
"(  c #C37D59",
")  c #C27E59",
"_  c #C27C5A",
"`  c #DC8953",
"'  c #DB8856",
"]  c #DE8855",
"[  c #DE8B57",
"{  c #E68C58",
"}  c #E78D59",
"|  c #EA8C58",
" . c #FB9B5F",
".. c #FD9D60",
"X. c #FF9C61",
"o. c #FDA16E",
"O. c #FDA36F",
"+. c #FAA56E",
"@. c #FBA670",
"#. c #FEA470",
"$. c #FFA571",
"%. c #FDA670",
"&. c #FCAE7D",
"*. c #FCAE7E",
"=. c #FBB27D",
"-. c #FEB17D",
";. c gray65",
":. c gray66",
">. c #FCAF81",
",. c #F9B181",
"<. c #FDB180",
"1. c #FDB082",
"2. c #FEB082",
"3. c #FCB78E",
"4. c #FCB891",
"5. c #FBBA9A",
"6. c #FBBC9B",
"7. c #FCBC99",
"8. c #FCBD9A",
"9. c #FCBD9C",
"0. c #FCBD9E",
"q. c #FCBCA0",
"w. c #FEBDA1",
"e. c #FACCAA",
"r. c #FECBAC",
"t. c #FDCCAE",
"y. c #FACBB1",
"u. c #FECAB2",
"i. c #FFCDB2",
"p. c #FECAB4",
"a. c #FFCDB8",
"s. c #C0C0C0",
"d. c #C1C1C1",
"f. c #CECECE",
"g. c gray81",
"h. c #D0D0D0",
"j. c gray86",
"k. c gainsboro",
"l. c #FBFBFB",
"z. c gray99",
"x. c #FDFDFD",
/* pixels */
"                                                                                                                                ",
"                                                                                                                                ",
"                                                                                                                                ",
"                                                                                                                                ",
"                                                                                                                                ",
"                                                                                                                                ",
"                                                                                                                                ",
"                                                                                                                                ",
"                                                                                                                                ",
"                                                                                                                                ",
"                                                                                                                                ",
"                                                                                                                                ",
"                                                                                                                                ",
"                                                                                                                                ",
"                                                                                                                                ",
"                                                                                                                                ",
"                                                                                                                                ",
"                                                                                                                                ",
"                                                                                                                                ",
"                                                                                                                                ",
"                                                                                                                                ",
"                                                                                                                                ",
"                                                                                                                                ",
"                                                                                                                                ",
"                                                                                                                                ",
"                                                                                                                                ",
"                                                                                                                                ",
"                                                                                                                                ",
"                                                                                                                                ",
"                                                                                                                                ",
"                                                                                                                                ",
"                                                                                                                                ",
"                                                                                                                                ",
"                                                                                                                                ",
"                                                                                                                                ",
"                                                                                                                                ",
"                                                                                                                                ",
"                                                                                                                                ",
"                                                                                                                                ",
"                                                                                                                                ",
"                                                        :.                                                                      ",
"                                                        x.2                                                                     ",
"                                                        l.h.3                                                                   ",
"                                                        x.h.:.3                                                                 ",
"                                                        l.f.:.:.<                                                               ",
"                                                        j.j.d.:.5 <                                                             ",
"                                                        d.l.h.;.:.5 >                                                           ",
"                                                          j.h.d.:.:.4 <                                                         ",
"                                                            M s ; : * * @ @ @ %                                                 ",
"                                                        y : # # ..i.i.0.>.} @ %                                                 ",
"                                                        ; * a 6.t.t.p.t.5.#.} 4.                                                ",
"                                                        = $ <.6.a.y.y.u.5.,...}                                                 ",
"                                                            $.o.=.0.u.e.w.-.@.} 4.                                              ",
"                                                              C C >.5.0.5.q.*...|                                               ",
"                                                              ' V $.-.*.#.h B Z A Z M                                           ",
"                                                                [ ` $.@.m K K A Z Z ' M                                         ",
"                                                                    [ w K Z K Z G G G G m                                       ",
"                                                                      e M I G S K I Z G k k q                                   ",
"                                                                      0 h m k c M k I I I k n q                                 ",
"                                                                      w j i w g / Z I / ' Z n n 0                               ",
"                                                                        r t p I I I I G A L T k w 0                             ",
"                                                                        6 0 p K / / I / G I / M c w 0                           ",
"                                                                        e e M M Z I I I K I I k k k w e                         ",
"                                                                          t h M M I I I G / I G I M k e 9                       "
};
