/* XPM */
static char *_581793662190[] = {
/* columns rows colors chars-per-pixel */
"64 64 131 2 ",
"   c black",
".  c #010000",
"X  c #000100",
"o  c #010100",
"O  c #010101",
"+  c #020001",
"@  c #000200",
"#  c #000201",
"$  c #000002",
"%  c #010002",
"&  c #010103",
"*  c #020003",
"=  c #010302",
"-  c #020202",
";  c #000004",
":  c #010004",
">  c #020204",
",  c #59372B",
"<  c #59372D",
"1  c #58382B",
"2  c #653A27",
"3  c #683B26",
"4  c #693A28",
"5  c #683B28",
"6  c #6A3B29",
"7  c #683D2D",
"8  c #693E2E",
"9  c #693F2F",
"0  c #40403E",
"q  c #7E4531",
"w  c #414143",
"e  c gray26",
"r  c #434343",
"t  c #434345",
"y  c #666B67",
"u  c #68696B",
"i  c #6A686B",
"p  c #823E27",
"a  c #824026",
"s  c #824028",
"d  c #834129",
"f  c #82412B",
"g  c #83412B",
"h  c #9F5935",
"j  c #9D5936",
"k  c #9F5937",
"l  c #A25835",
"z  c #A15837",
"x  c #A35936",
"c  c #A15838",
"v  c #A25938",
"b  c #A05A38",
"n  c #BB673B",
"m  c #C66B3F",
"M  c #B16943",
"N  c #B36942",
"B  c #B26843",
"V  c #B36944",
"C  c #B26A44",
"Z  c #B36B45",
"A  c #B26946",
"S  c #B36946",
"D  c #B46844",
"F  c #C46B41",
"G  c #C56C42",
"H  c #DF7948",
"J  c #E2774B",
"K  c #E27949",
"L  c #E07A4A",
"P  c #E17B4A",
"I  c #E8834B",
"U  c #EC814B",
"Y  c #F7894E",
"T  c #FA894F",
"R  c #FA8951",
"E  c #F98B50",
"W  c #FC8950",
"Q  c #FB925B",
"!  c #F9915C",
"~  c #FA905C",
"^  c #F8935D",
"/  c #FA925D",
"(  c #FB9F6C",
")  c #FAA06B",
"_  c #FBA06B",
"`  c #F8A16C",
"'  c #FAA06C",
"]  c #FBA16C",
"[  c #FCA26E",
"{  c #979692",
"}  c #939796",
"|  c #969694",
" . c #979797",
".. c #989795",
"X. c #989697",
"o. c #979893",
"O. c #969799",
"+. c #97959A",
"@. c #979998",
"#. c #98989A",
"$. c #98999B",
"%. c #B3B1B2",
"&. c gray70",
"*. c #B0B4B3",
"=. c #B2B4B3",
"-. c #F7AD8A",
";. c #F9AD89",
":. c #F8AE89",
">. c #F9AD8B",
",. c #FAAE8A",
"<. c #FCAC89",
"1. c #F9AD8D",
"2. c #F9AF8C",
"3. c #F9AE8E",
"4. c #FCAD8C",
"5. c #FCAD8E",
"6. c #FABEA2",
"7. c #FCBFA2",
"8. c #FCBFA3",
"9. c #F9C0A2",
"0. c #FBC0A2",
"q. c #FDC0A3",
"w. c #FCC1A3",
"e. c #FCC0A4",
"r. c #D4D4D6",
"t. c #FBFCF7",
"y. c #FBFBFB",
"u. c #FAFBFD",
"i. c #FCFAFD",
"p. c #FBFDFC",
"a. c gray99",
/* pixels */
"                                                                                                                                ",
"                                                                                                                                ",
"                                                                                                                                ",
"                                                                                                                                ",
"                                                                                                                                ",
"                                                                                                                                ",
"                                                                                                                                ",
"                                                                                                                                ",
"                                                                                                                                ",
"                                                                                                                                ",
"                                                                                                                                ",
"                                                                                                                                ",
"                                                                                                                                ",
"                                                                                                                                ",
"                                                                                                                                ",
"                                                                                                                                ",
"                                                                                                                                ",
"                                                                                                                                ",
"                                                                                                                                ",
"                                                                                                                                ",
"                                                                                                                                ",
"                                                                                                                                ",
"                                                                                                                                ",
"                                                                                                                                ",
"                                                                                                                                ",
"                                                                                                                                ",
"                                                                                                                                ",
"                                                                                                                                ",
"                                                                                                                                ",
"                                                                                                                                ",
"                                                                                                                                ",
"                                                                                                                                ",
"                                                                                                                                ",
"                                                                                                                                ",
"                                                                                                                                ",
"                                                                                                                                ",
"                                                                                                                                ",
"                                                                                                                                ",
"                                                                                                                                ",
"                                                                                                                                ",
"                                                                                                                                ",
"                                                                                                                                ",
"                                                                                                                                ",
"                                                                                                                                ",
"                                                                                                                                ",
"                                                                #.                                                              ",
"                                                                a.e                                                             ",
"                                                                a. .r                                                           ",
"                                                                u...{ e                                                         ",
"                                                                a.&.O.{ t                                                       ",
"                                                                u.r...O...t                                                     ",
"                                                                =.t.%.#.#.u e                                                   ",
"                                                                  i.r.#.{ @.u e                                                 ",
"                                                                  =.i.&.#.#.} y e                                               ",
"                                                                    k q 7 7 7 7 6 3 2 6 6                                       ",
"                                                                9 3 , 1 R _ :.0.3.` H < 6                                       ",
"                                                                6 < < [ 6.7.w.7.:.` / K 6                                       ",
"                                                                1 , T 6.0.7.w.0.w.<.~ K                                         ",
"                                                                    I 3.3._ 3.7.0.5.( T P                                       ",
"                                                                      U T R ` -.:.-.( Q J                                       ",
"                                                                        m n / ( 3.l C C v p                                     ",
"                                                                          G G / c B D D C v d g                                 ",
"                                                                              v C C C D C C z a d                               ",
"                                                                              v k D C D C C k z d d                             "
};
