/* XPM */
static char *_581797104697[] = {
/* columns rows colors chars-per-pixel */
"64 64 127 2 ",
"   c black",
".  c #010000",
"X  c #000100",
"o  c #010101",
"O  c #000002",
"+  c #6E4936",
"@  c #6D4838",
"#  c #6E4939",
"$  c #6E483B",
"%  c #794B33",
"&  c #7D4B32",
"*  c #7E4B36",
"=  c #7F4B36",
"-  c #7C4C35",
";  c #7E4C35",
":  c #704B38",
">  c #7D5039",
",  c #7D503B",
"<  c #7F503C",
"1  c #51514F",
"2  c #535552",
"3  c #555450",
"4  c gray33",
"5  c #555555",
"6  c #545655",
"7  c #585455",
"8  c #7D7B7E",
"9  c #7B7D7C",
"0  c #7C7C7C",
"q  c #955033",
"w  c #955333",
"e  c #945335",
"r  c #955436",
"t  c #965537",
"y  c #955438",
"u  c #925840",
"i  c #935941",
"p  c #AE6D45",
"a  c #B06D42",
"s  c #B06D43",
"d  c #B16B47",
"f  c #B46C44",
"g  c #B56D45",
"h  c #B46C46",
"j  c #B46B48",
"k  c #B26C48",
"l  c #B26E49",
"z  c #C87C4B",
"x  c #C17C53",
"c  c #C27D53",
"v  c #C07C55",
"b  c #C17C55",
"n  c #C27D54",
"m  c #C27F55",
"M  c #C17D56",
"N  c #C47C54",
"B  c #CD7E53",
"V  c #C17D58",
"C  c #C27C58",
"Z  c #D07F50",
"A  c #D37F53",
"S  c #E88C59",
"D  c #E98E59",
"F  c #EA8E5B",
"G  c #EB8A5D",
"H  c #E88E5C",
"J  c #F09358",
"K  c #F1975B",
"L  c #FF9B5F",
"P  c #FA9C5F",
"I  c #FB9C62",
"U  c #FD9D63",
"Y  c #FD9C65",
"T  c #FDA16E",
"R  c #FDA36E",
"E  c #FCA570",
"W  c #FEA470",
"Q  c #F9AF7E",
"!  c #FDAF7F",
"~  c #FDB17D",
"^  c #FCB07F",
"/  c #FDB17F",
"(  c #FEB07F",
")  c #A8A7A5",
"_  c #A7A8A3",
"`  c #A7A9A6",
"'  c #A6A8A7",
"]  c #A6A5AA",
"[  c #A9A7A8",
"{  c #A7A9A8",
"}  c #A7A8AA",
"|  c gray66",
" . c #A8A8AA",
".. c #A9A9AB",
"X. c #BFBFBD",
"o. c #FAB081",
"O. c #FDBB99",
"+. c #FCBB9B",
"@. c #FDBB9B",
"#. c #FBBC99",
"$. c #FCBC99",
"%. c #FEBC9A",
"&. c #F9BC9F",
"*. c #FDBE9D",
"=. c #FDBC9E",
"-. c #FCBD9E",
";. c #C1C0BE",
":. c #FECBAE",
">. c #FDCBB0",
",. c #FECBB0",
"<. c #FECAB2",
"1. c #FFCAB2",
"2. c #FECCB1",
"3. c #FCCDB3",
"4. c #FFCDB2",
"5. c #FECCB3",
"6. c #C0C0C0",
"7. c #C1C1C1",
"8. c #DBDBDD",
"9. c gainsboro",
"0. c #FCFDF8",
"q. c #FDFBFC",
"w. c #FCFAFD",
"e. c #F9FDFC",
"r. c gray99",
"t. c #FDFDFD",
"y. c #FEFEFE",
/* pixels */
"                                                                                                                                ",
"                                                                                                                                ",
"                                                                                                                                ",
"                                                                                                                                ",
"                                                                                                                                ",
"                                                                                                                                ",
"                                                                                                                                ",
"                                                                                                                                ",
"                                                                                                                                ",
"                                                                                                                                ",
"                                                                                                                                ",
"                                                                                                                                ",
"                                                                                                                                ",
"                                                                                                                                ",
"                                                                                                                                ",
"                                                                                                                                ",
"                                                                                                                                ",
"                                                                                                                                ",
"                                                                                                                                ",
"                                                                                                                                ",
"                                                                                                                                ",
"                                                                                                                                ",
"                                                                                                                                ",
"                                                                                                                                ",
"                                                                                                                                ",
"                                                                                                                                ",
"                                                                                                                                ",
"                                                                                                                                ",
"                                                                                                                                ",
"                                                                                                                                ",
"                                                                                                                                ",
"                                                                                                                                ",
"                                                                                                                                ",
"                                                                                                                                ",
"                                                                                                                                ",
"                                                                                                                                ",
"                                                                                                                                ",
"                                                                                                                                ",
"                                                                                                                                ",
"                                                                                                                                ",
"                                                                                                                                ",
"                                                                                                                                ",
"                                                                                                                                ",
"                                                                                                                                ",
"                                                                                                                                ",
"                                                                |                                                               ",
"                                                                r.5                                                             ",
"                                                                r.| 5                                                           ",
"                                                                e.[ [ 5                                                         ",
"                                                                r.6.{ ) 5                                                       ",
"                                                                w.8.| { _ 7                                                     ",
"                                                                7.0.7.} _ 9 2                                                   ",
"                                                                  w.8.| ..{ 8 1                                                 ",
"                                                                  7.r.X.| ' { 8 2                                               ",
"                                                                    k i , , , , * & % = *                                       ",
"                                                                u < # # L / $.4.+.o.H $ *                                       ",
"                                                                , + + o.4.:.4.1.+.^ W H *                                       ",
"                                                                : # Y :.1.1.1.:.1.O.T D                                         ",
"                                                                    K =.$.^ +.4.4.=./ I D                                       ",
"                                                                      J I Y o.&.$.$./ W G                                       ",
"                                                                        z z Y o.:.a l v k w                                     ",
"                                                                          S N E p v m N v k t y                                 ",
"                                                                              k S l N v V v g w y                               ",
"                                                                              k s v N v v N p s t y                             "
};
