/* XPM */
static char *_583593281905[] = {
/* columns rows colors chars-per-pixel */
"64 64 181 2 ",
"   c #000000",
".  c #3E3727",
"X  c #3F3029",
"o  c #3E3331",
"O  c #4F2E1D",
"+  c #47311C",
"@  c #4D321F",
"#  c #7C351D",
"$  c #452F24",
"%  c #4C2C24",
"&  c #432D2A",
"*  c #4B2D29",
"=  c #512D23",
"-  c #532E2C",
";  c #453226",
":  c #4C3226",
">  c #43332B",
",  c #4B332B",
"<  c #4E382D",
"1  c #523424",
"2  c #52352C",
"3  c #50382C",
"4  c #5A3F2C",
"5  c #452F31",
"6  c #4B3630",
"7  c #4C3933",
"8  c #563B30",
"9  c #5E3D31",
"0  c #533431",
"q  c #7F2F24",
"w  c #7D2929",
"e  c #673921",
"r  c #6A3925",
"t  c #633C2B",
"y  c #6D3B2B",
"u  c #733A2A",
"i  c #633E35",
"p  c #6A3B32",
"a  c #773B30",
"s  c #5D4430",
"d  c #5D403A",
"f  c #6A4225",
"g  c #63432D",
"h  c #73432B",
"j  c #654237",
"k  c #6B4134",
"l  c #684833",
"z  c #624138",
"x  c #75403A",
"c  c #8D2C15",
"v  c #8F241A",
"b  c #862E1E",
"n  c #8D2C1D",
"m  c #96261A",
"M  c #9F2518",
"N  c #922C1C",
"B  c #9B2C1C",
"V  c #85331E",
"C  c #8A311D",
"Z  c #9A3315",
"A  c #92311C",
"S  c #9D321B",
"D  c #933212",
"F  c #AE3A0B",
"G  c #BA340F",
"H  c #B23D0F",
"J  c #BC3C0C",
"K  c #AD2C17",
"L  c #A2261E",
"P  c #A42A1D",
"I  c #AD2E1F",
"U  c #B42C14",
"Y  c #B22F1B",
"T  c #A23514",
"R  c #AC3214",
"E  c #AC3813",
"W  c #A3321B",
"Q  c #AD311B",
"!  c #B23312",
"~  c #B83215",
"^  c #B43D11",
"/  c #941F28",
"(  c #8E2624",
")  c #862C24",
"_  c #8D2D24",
"`  c #81242C",
"'  c #8E2629",
"]  c #8D2C29",
"[  c #922524",
"{  c #9B2725",
"}  c #922B23",
"|  c #9A2B21",
" . c #92242B",
".. c #99262B",
"X. c #922C29",
"o. c #8D3122",
"O. c #8C3820",
"+. c #8C3229",
"@. c #823326",
"#. c #933221",
"$. c #9B3123",
"%. c #933826",
"&. c #91302A",
"*. c #862631",
"=. c #A12724",
"-. c #A82721",
";. c #A12B22",
":. c #A63321",
">. c #C53E05",
",. c #CD3C06",
"<. c #CF360A",
"1. c #C43D0B",
"2. c #CC3D0A",
"3. c #D23C06",
"4. c #D13D09",
"5. c #C03F15",
"6. c #CC3F12",
"7. c #D63D11",
"8. c #BC4205",
"9. c #B6400E",
"0. c #BB410E",
"q. c #9E5A37",
"w. c #975B39",
"e. c #9B5B38",
"r. c #965A35",
"t. c #A65A38",
"y. c #AA5C3C",
"u. c #AB5B36",
"i. c #B05E38",
"p. c #AE6437",
"a. c #C54305",
"s. c #CB4305",
"d. c #C44A06",
"f. c #CA4906",
"g. c #C4430A",
"h. c #CB430A",
"j. c #C54A09",
"k. c #D14306",
"l. c #D64F05",
"z. c #D94D06",
"x. c #D2440A",
"c. c #DB410A",
"v. c #D24A0C",
"b. c #DA4E0D",
"n. c #DC4307",
"m. c #DE5306",
"M. c #C04013",
"N. c #E14B0B",
"B. c #E55107",
"V. c #E35807",
"C. c #E1540A",
"Z. c #E65C0D",
"A. c #E85A0E",
"S. c #ED530D",
"D. c #EB6607",
"F. c #EF6B07",
"G. c #E7600E",
"H. c #ED620B",
"J. c #ED6A0C",
"K. c #F06707",
"L. c #F3660C",
"P. c #F46B0C",
"I. c #FC6C0E",
"U. c #F47407",
"Y. c #F3720C",
"T. c #EC6412",
"R. c #F36512",
"E. c #F26B11",
"W. c #FC7210",
"Q. c #9C5F40",
"!. c #AF5E43",
"~. c #966044",
"^. c #9F6245",
"/. c #9D6848",
"(. c #AD6240",
"). c #FE850C",
"_. c #FC8C0B",
"`. c #F1960A",
"'. c #FC920A",
"]. c #FC9A09",
"[. c #FF8311",
/* pixels */
"                                                                                                                                ",
"                                                                                                                                ",
"                                                                                                                                ",
"                                                                                                                                ",
"                                                                                                                                ",
"                                                                                                                                ",
"                                                                                                                                ",
"                                                                                                                                ",
"                                                                                                                                ",
"                                                                                                                                ",
"                                                                                                                                ",
"                                                                                                                                ",
"                                                                            u a s >                                             ",
"                                                                        i x 4 g p 2                                             ",
"                                                                    l e u u k 3 % =                                             ",
"                                                                8 g y.e.~.k % * , >                                             ",
"                                                              j h t.p.!.: > - ,                                                 ",
"                                                            j f y.u.q.+ < 5                                                     ",
"                                                          d g (.e.(.1 3 X                                                       ",
"                                                          z q p.w.; & 6                                                         ",
"                                                        p h e.y.@ , , >                                                         ",
"                                                        p e /.r : 7 ;                                                           ",
"                                                      9 r h t 3 * X 6                                                           ",
"                                                      p f y : > 0 ; >                                                           ",
"                                                      0 t t : > % ; X                                                           ",
"                                                      , z i % 3 p 1 ,                                                           ",
"                                                      < % 1 = t j $ , >                                                         ",
"                                                    > & - : i y 3 ; % 3 o                                                       ",
"                  m ) V A n O.      _ C c N } (   #.} o.[ S @.) A ' _ C A n   X.( N N c C o.      O._ o.V ) m                   ",
"                # } | ' { ..` ]   C _ } #.' [ X.} c n +.' n ) $.P ( C ' %._ c } X.' } X._ _ C   &.*...{ ' | N #                 ",
"              o.w ;.f.a.a.j.Z #.A ) L R g.d.8.g.M.! { C b } | d.a.E Z  .} _ ! J g.8.a.g.R M ) n #.Z j.a.a.a.;.w o.              ",
"              o.X.>.3.>.a.f.F } ' m >.>.h.x.>.,.k.k.8.&.) D 8.x.6.a.H L _ n k.k.,.>.x.k.>.>.B  .#.F f.a.>.3.>.} o.              ",
"            C _ L x.k.h.2.s.g.| } a.v.>.>.a.s.a.g.2.s.{ n } g.3.2.g.d.E N n 1.h.a.a.f.>.1.v.a.} S j.4.6.h.k.k.L C A             ",
"          X.C _ R 1.s.s.h.s.x.} ' s.>.s.a.s.s.f.s.s.,.K } _ h.k.f.f.k.0.N n k.f.s.s.>.f.s.>.k.' } h.s.1.s.s.1.K o.n ]           ",
"          ] } o.g.j.1.s.a.k.a.N #.s.3.4.x.>.k.s.>.4.f.f.B A J s.>.,.3.f.N ] 4.>.s.k.>.x.k.3.,.n N s.k.a.s.1.d.g.o.A ]           ",
"          o.N  .4.k.h.h.a.6.U _ C >.g.a.f.J.[.P.f.a.1.f.' A Y s.a.7.<.d.N *.>.f.Y.[.H.d.a.g.>.C _ U 2.a.x.h.s.4. .N ]           ",
"          _ +.,.,.g.a.v.>.s.:.) N h.h.3.b._.`._.,.>.3.a._ N Y s.3.s.,.h.N _ a.>._.`._.b.3.h.h.N ) :.f.>.v.>.g.s.,.] ]           ",
"        _ } ] ,.s.s.f.Z.h.g.B _ B ,.s.,.G._.].).C.f.3.a.} m :.f.k.>.k.g.} ( s.C.).].'.Z.,.h.s.| _ B g.f.A.f.s.s.3.] o.]         ",
"        } ] _ ,.f.2.m.L.x.f.v o.W h.a.x.U._.'.J.D.2.k.a.P } B a.h.3.k.2.} _ s.H.Y.'._.U.k.s.2.:._ m a.c.P.m.2.s.,.] ] X.        ",
"        ] ] } ,.h.g.L.L.,.a.} N Q a.k.G._.'._.P.W.s.s.d.~ } #.a.h.N.k.>.} _ s.W.F.).'._.G.k.a.K _ } a.>.L.L.g.h.3.,.&.]         ",
"        X.] 4.,.,.h.I.P.>.f.&.} ! a.f.Y._.'.P.D.Y.>.a.f.1.[ n a.f.S.k.>.} _ >.P.F.J.'._.W.f.a.! } X.f.3.P.P.s.,.,.,._ ]         ",
"        ] o.,.,.,.f.D.E.3.g._ [ 1.h.h._.'._.E.P.E.s.h.f.4.} n s.f.L.z.>.n X.s.P.P.E._.'._.h.g.1.} _ h.3.P.P.f.3.,.,.X.]         ",
"        ] ] ,.4.2.z.F.P.c.1._ [ 3.h.s._.'.Y.R.L.P.s.h.a.k.+._ 3.f.L.S.k.N o.f.J.P.L.U.'._.s.g.3.[ o.J 3.E.F.z.3.,.,.' o.        ",
"        X.' ,.,.c.B.P.R.3.G V [ k.a.h.'.].H.I.K.H.h.7.a.k.] _ 3.a.P.L.f.n X.2.P.L.I.Z.].'.f.a.k.[ V ~ 4.E.P.B.3.4.<.] ]         ",
"        _ ] 3.,.a.L.P.L.n.N c X.>.s.a._.F.J.J.H.P.h.s.s.s._ n s.h.L.I.a._ } k.L.D.P.J.F._.a.s.>.} c N k.L.P.L.a.,.3._ ]         ",
"        ] _ ,.,.f.L.F.L.f.A c N g.s.d.).Y.F.E.P.L.k.s.,.s.} n s.h.P.K.s.n X.4.L.P.E.F.Y.[.d.s.g._ N N k.L.F.P.f.,.,.] ]         ",
"        ] ] ,.,.f.K.L.H.x.N n ] g.,.f.P.P.H.T.P.V.2.h.s.s.n n s.1.L.L.f._ } >.V.P.R.H.P.Y.f.,.a.] C A k.H.P.L.s.,.,.] #.        ",
"        o.' ,.3.f.P.P.V.,._ ] ] a.3.h.H.U.P.R.P.z.2.s.>.s.} m s.h.L.P.f.n _ 2.z.E.L.P.P.H.s.,.s.X._ _ 2.V.P.P.a.3.,.] ]         ",
"        ] ] ,.,.f.K.P.l.>.A _ ' f.,.s.C.P.I.L.P.x.4.h.h.a._ n s.h.P.P.f._ n k.k.P.L.I.L.C.s.,.s.' _ C >.z.P.L.f.3.,.] _         ",
"        ] ] ,.3.f.L.F.k.,.N ' } a.h.>.k.H.P.P.H.a.>.s.h.f.' n s.2.L.L.f._ n 2.>.D.P.P.H.x.>.,.f._ } N ,.s.P.A.f.,.3.] _         ",
"        X.o.,.3.s.m.P.f.k.Z N } f.2.>.x.H.P.P.F.h.f.h.>.s.} n a.h.P.m.h.X.n f.h.L.P.P.H.h.s.>.f.[ m Z k.f.P.m.h.,.,.] X.        ",
"        ] ' ,.,.>.h.J.2.c.W m [ a.2.k.>.m.P.P.J.h.s.s.s.s.} n s.h.L.k.a.&.' s.h.J.P.P.C.>.k.1.f.[ | T n.s.J.h.1.,.3.] ]         ",
"        X.+.3.,.h.s.z.f.>.J _ } a.s.>.x.l.I.P.l.x.>.h.>.^ | ] f.s.b.h.g.n X.a.x.l.P.P.z.x.>.s.a.} n G ,.f.z.s.h.3.,.o.]         ",
"        ] ] _ ,.h.s.x.h.3.1.n } a.2.2.f.f.E.R.h.s.h.h.s.Q X._ g.>.n.h.f.c ' h.a.h.P.E.h.s.h.2.a.} _ 5.,.f.k.s.h.,.n ] ]         ",
"        ] ] n ,.h.s.s.s.,.f.} } f.4.h.a.s.A.Z.a.>.f.,.k.B [ n g.>.4.2.f.[ } f.>.s.A.A.s.>.h.2.f.} N g.2.f.s.,.s.,._ &.]         ",
"          ] N ,.a.s.h.h.2.d.n ( f.4.>.s.,.k.x.>.s.s.2.h.B _ A h.s.>.2.f.X._ >.h.s.h.x.s.h.>.k.f.} n d.4.k.s.s.a.,.N ]           ",
"          ] } ,.h.s.s.h.2.f.n [ g.>.>.x.h.>.>.s.h.s.h.a.N n N g.f.s.2.f.X.n s.h.h.>.>.h.x.>.,.g.} _ f.2.h.s.k.a.,.X.]           ",
"          ] o._ h.k.s.s.2.g.o.' E a.s.s.s.h.>.s.s.h.f.>._ N C s.s.>.f.J } n f.s.s.>.h.>.s.s.a.! _ _ d.2.h.s.h.h.n _ ]           ",
"          ] ' n J 2.s.s.s.a._ o.L a.h.a.h.s.k.s.>.s.s.K _ C ' s.>.s.s.U _ A h.>.s.s.k.s.s.s.8.L n _ g.4.s.s.h.1._ _ '           ",
"            _ n 1.1.h.s.3.a._ C / d.h.s.s.a.s.h.s.h.a.L ) C ] k.s.h.a.L b o.x.s.h.s.s.f.s.h.d. .n _ a.,.s.h.1.1.n _             ",
"            _ n B ^ <.k.h.H Z } _ C a.s.s.s.3.f.f.a.' o.b C N R 1.n.H B n _ a.s.s.s.k.h.s.a.V o.N Z H g.x.<.J B C }             ",
"              } [ :.j.j.9.T N _ X.X.=.Q 1.d.a.0.K =.} C n _ } W ^ g.W [ _ X.=.Q 0.a.a.J Q ;.X. .( N T 9.g.j.$.[ }               ",
"                _ n m N c n n ( n c n n } } } m n n } _ n _ ) _ N Z C n c %.n n m } } } N n c N } b c c N N n n                 ",
"                    ) n o.o.&.] } n n _ X.] _ _ _ o.&.N N _  .) _ n X.' o.q o._ _ _ _ ] o._ n ' } &.#.o.n )                     "
};
