/* XPM */
static char *_582233993947[] = {
/* columns rows colors chars-per-pixel */
"40 36 138 2 ",
"   c #000000",
".  c #080500",
"X  c #BE9718",
"o  c #BF9624",
"O  c #C78B07",
"+  c #C68A0D",
"@  c #CA8B0D",
"#  c #C3940A",
"$  c #CA910E",
"%  c #CE9B0E",
"&  c #CA8317",
"*  c #C28E13",
"=  c #CC8D11",
"-  c #C48D19",
";  c #C59116",
":  c #C89213",
">  c #C3921B",
",  c #CD9518",
"<  c #C59A1B",
"1  c #D09716",
"2  c #D89810",
"3  c #D2941E",
"4  c #D6991A",
"5  c #DEB51F",
"6  c #F8AB1D",
"7  c #E7BC18",
"8  c #F5B418",
"9  c #C58C21",
"0  c #C98C21",
"q  c #D98C20",
"w  c #C39523",
"e  c #CB902C",
"r  c #D39521",
"t  c #D19922",
"y  c #D09628",
"u  c #D39830",
"i  c #C4A226",
"p  c #E5AC24",
"a  c #E4AF2D",
"s  c #EDB523",
"d  c #E9B927",
"f  c #E1B02D",
"g  c #ECB42B",
"h  c #E4BE2F",
"j  c #EABB2D",
"k  c #F6B923",
"l  c #F0B52B",
"z  c #FAB72A",
"x  c #F3AC36",
"c  c #E8B633",
"v  c #EFB935",
"b  c #EAB23B",
"n  c #E4BF3A",
"m  c #EBB838",
"M  c #F3CE49",
"N  c #FDCC4B",
"B  c #FFD54E",
"V  c #F1DF4D",
"C  c #FCDC4A",
"Z  c #ECD35D",
"A  c #F7D355",
"S  c #FED555",
"D  c #F5DB53",
"F  c #FFDB55",
"G  c #F5D75A",
"H  c #FED55C",
"J  c #F6DA5D",
"K  c #FEDB5D",
"L  c #F4E156",
"P  c #F8E157",
"I  c #FCE25D",
"U  c #F3CE64",
"Y  c #FBCE67",
"T  c #FDCF6F",
"R  c #EDD666",
"E  c #ECD865",
"W  c #EEDA6C",
"Q  c #F5D465",
"!  c #FDD563",
"~  c #F5DA64",
"^  c #FDDB63",
"/  c #F6D669",
"(  c #FED66B",
")  c #F4DB69",
"_  c #FDDC6B",
"`  c #F4D270",
"'  c #FFD473",
"]  c #F2DC76",
"[  c #FCDD73",
"{  c #F6E566",
"}  c #FDE262",
"|  c #F7EB61",
" . c #F5E06B",
".. c #FEE26B",
"X. c #F5E377",
"o. c #F7E07A",
"O. c #F1FB76",
"+. c #FEFC7F",
"@. c #F6DD80",
"#. c #F5ED80",
"$. c #FFF584",
"%. c #F5FA82",
"&. c #FEFB84",
"*. c #FEF08F",
"=. c #F0FC8C",
"-. c #FEFC8C",
";. c #FFF394",
":. c #F6FD96",
">. c #FDFB93",
",. c #FEF69C",
"<. c #F4FB9B",
"1. c #FEFC9C",
"2. c #EFFEA3",
"3. c #F7F4A3",
"4. c #FDF7A3",
"5. c #F4FCA4",
"6. c #FDFCA3",
"7. c #F7F5AB",
"8. c #FDF4AE",
"9. c #F3FCAC",
"0. c #FEFCAB",
"q. c #F5FDB2",
"w. c #FDFCB2",
"e. c #FDFCB9",
"r. c #EDFBCA",
"t. c #FDFDC3",
"y. c #FFF4C8",
"u. c #FDFDCC",
"i. c #EFFBD3",
"p. c #ECFDDB",
"a. c #FEF3D3",
"s. c #F2FED6",
"d. c #FEFCD3",
"f. c #FFF5DC",
"g. c #F2FED8",
"h. c #FEFCDB",
"j. c #FEF1E0",
"k. c #F3FDEC",
/* pixels */
"                                                          0.j.h.                ",
"                u.d.u.1.                                5.6.u.h.                ",
"                h.p.u.0.6.                            *.w.5.y.h.                ",
"                u.u.d.6.6.6.                        5.0.e.6.{ $.                ",
"                d.u.k.5.6.8.1.                    0.9.0.1.' -.                  ",
"                >.! { q.w.1.q.0.                6.3.0.0.` ! :.                  ",
"                  O.H ,.9.w.6.0.1.            0.1.e.5.^ K &.                    ",
"                  >.X./ -.w.w.;.w.0.        w.<.e.1._ } D -.                    ",
"                    &.^ ( 9.9.6.0.w.1.O & } q.6.0.( B ! -.                      ",
"                    >.) P ( 6.w.5.q.0.& ; ( w.9.) F _ ! -.                      ",
"                      -.D ! ! 9.9.6.6.A , _ 8.6.H ^ E }                         ",
"                      &._ H H ) 6.1.Y ..X S w.H _ ..I &.                        ",
"                        :.^ H ! / { ^ ! w 8 L ( ^ S ( &                         ",
"                        &.( J [ ..K ! K < > g d K S z * =                       ",
"                        = P I H H ^ S m O 3 ; 3 : ; w @ *                       ",
"                        4 =.( _ ( ! H b 3 @ k 5 v p i & +                       ",
"                    J -.& u J I ^ H h # : l S ' ^ ^ 4.1.&                       ",
"                ^ M ! ! d - _ H H ^ j % + l ) C J 0.0.w.e.,.                    ",
"            ! N 0.e.6.! I 7 9 > - e + = 3 x ) _ ) >.0.6.5.0.6.1.                ",
"        0.0.5.0.w.6.<.K _ l : t , a m m p 3 ^ ~ o.( / 0.e.0.8.6.E _             ",
"    e.*.0.q.0.6.0.( ^ C ( 6 < ( } F ^ K F o H ^ S F ^ ^ } 6.5.4.w.0.:.1.        ",
"    j.t.u.e.~ K S ) _     > 0.q.8.0.;.( } 7 # n ! I S ] ^ K X.1.6.1.0.5.6.      ",
"    a.u.d.u._ J G           0.6.0.w.0.( H g q > e ; & -.&.&.S _ ..<.e.h.t.g.    ",
"    h.r.h.y.B             6.0.6.0.0.0.Q } p J I ! +         &.:.=. .V d.h.a.    ",
"                          6.0.9.0.1.W [ S 2 H ^ _ S               >.+.h.t.t.    ",
"                        6.w.7.w.1./ K ^   f _ ) 6.4.                            ",
"                        6.1.q.6.) ^ ^     ^ H ~ 0.0.1.                          ",
"                      ,.9.w.4.U ^ ^       H K ^ 4.0.6.                          ",
"                      0.1.0.K ^ ..          / ! 0.8.6.                          ",
"                    6.e.1._ ^ -.            &._ ^ 5.6.1.                        ",
"                    u.u...~ &.                $.[ <.e.w.                        ",
"                    s.h.Z -.                  >.] J 8.5.                        ",
"                    u.u.&.                      %.B w.w.                        ",
"                                                &.^ u.d.                        ",
"                                                  >.k.i.                        ",
"                                                  >.t.t.                        "
};
