/* XPM */
static char *_583595427096[] = {
/* columns rows colors chars-per-pixel */
"64 64 194 2 ",
"   c #000000",
".  c #623F29",
"X  c #663D34",
"o  c #5B482D",
"O  c #4A5420",
"+  c #554635",
"@  c #5C4436",
"#  c #5E4C33",
"$  c #5D463B",
"%  c #5D4B3C",
"&  c #56453B",
"*  c #5C523D",
"=  c #664126",
"-  c #6B4A25",
";  c #64442B",
":  c #6A442D",
">  c #654A29",
",  c #6C4B2D",
"<  c #70412D",
"1  c #714B2C",
"2  c #7F4E2E",
"3  c #7C462A",
"4  c #644435",
"5  c #6C4534",
"6  c #644B34",
"7  c #6C4B35",
"8  c #64463B",
"9  c #6B453B",
"0  c #644C3C",
"q  c #6B4B3B",
"w  c #734432",
"e  c #714A34",
"r  c #7A4B35",
"t  c #74433A",
"y  c #734C3B",
"u  c #7B4D3C",
"i  c #7A4639",
"p  c #66503A",
"a  c #6C533B",
"s  c #74543A",
"d  c #7E523C",
"f  c #7C5838",
"g  c #3A2745",
"h  c #3C2846",
"j  c #3E2A4A",
"k  c #3B274A",
"l  c #412B4D",
"z  c #442C51",
"x  c #553966",
"c  c #573A68",
"v  c #5C3C6D",
"b  c #5E3E71",
"n  c #603F74",
"m  c #564940",
"M  c #5D4C44",
"N  c #4B584E",
"B  c #5D5040",
"V  c #5F5249",
"C  c #634745",
"Z  c #6B4543",
"A  c #634C44",
"S  c #6B4C42",
"D  c #6A4149",
"F  c #634C4A",
"G  c #6B4C49",
"H  c #784542",
"J  c #724B43",
"K  c #764A49",
"L  c #645143",
"P  c #6B5343",
"I  c #675048",
"U  c #6F5848",
"Y  c #645D4B",
"T  c #765245",
"R  c #7C5443",
"E  c #785747",
"W  c #614173",
"Q  c #66437A",
"!  c #69467E",
"~  c #934E2F",
"^  c #815228",
"/  c #8F582F",
"(  c #97562C",
")  c #9B542D",
"_  c #9A5B2E",
"`  c #925E2E",
"'  c #8F4F33",
"]  c #8A4D3D",
"[  c #854B35",
"{  c #904D32",
"}  c #805135",
"|  c #8A5536",
" . c #80533E",
".. c #8D523A",
"X. c #8E5B39",
"o. c #945534",
"O. c #995535",
"+. c #965C37",
"@. c #9D5A35",
"#. c #94563B",
"$. c #9B563C",
"%. c #945A3B",
"&. c #9C5A3B",
"*. c #A85631",
"=. c #A25639",
"-. c #A55B3A",
";. c #AA5838",
":. c #8A6036",
">. c #976236",
",. c #966139",
"<. c #9C623C",
"1. c #A0623B",
"2. c #B3643D",
"3. c #855645",
"4. c #8D5D45",
"5. c #865149",
"6. c #8C5C4A",
"7. c #815C41",
"8. c #955543",
"9. c #9A5542",
"0. c #935C42",
"q. c #9D5B43",
"w. c #945A4A",
"e. c #9A5D4C",
"r. c #9B574A",
"t. c #A45C42",
"y. c #AB5A44",
"u. c #A15C49",
"i. c #A45446",
"p. c #AA5357",
"a. c #8E6243",
"s. c #8A6446",
"d. c #936044",
"f. c #9A6146",
"g. c #93634A",
"h. c #9C6449",
"j. c #966352",
"k. c #AC6B45",
"l. c #A9674D",
"z. c #A86549",
"x. c #B46A43",
"c. c #B56A4C",
"v. c #B86C4B",
"b. c #B06442",
"n. c #AE7047",
"m. c #BF7342",
"M. c #B6714A",
"N. c #BE744F",
"B. c #BB784E",
"V. c #B27244",
"C. c #B26C52",
"Z. c #AF7351",
"A. c #BC7552",
"S. c #BB7C51",
"D. c #B07759",
"F. c #BC7E5C",
"G. c #C36F4A",
"H. c #C37645",
"J. c #C2744B",
"K. c #C3794B",
"L. c #C47B52",
"P. c #CC7B53",
"I. c #C4765F",
"U. c #C67658",
"Y. c #D37B62",
"T. c #B7804A",
"R. c #B9824C",
"E. c #B78152",
"W. c #BF815A",
"Q. c #C48457",
"!. c #C9805D",
"~. c #C1815B",
"^. c #CB8061",
"/. c #C58468",
"(. c #6E4983",
"). c #6D4782",
"_. c #714A86",
"`. c #744C8A",
"'. c #784E8E",
"]. c #76508D",
"[. c #78508F",
"{. c #7B5193",
"}. c #8C5EA6",
"|. c #8E61A6",
" X c #8E62A9",
".X c #9166AB",
"XX c #966EAD",
"oX c #9370AA",
"OX c #9E77B5",
"+X c #9E79B5",
"@X c #A27CB6",
"#X c #A47EBB",
"$X c #A481B8",
"%X c #A885BB",
/* pixels */
"                                                                                                                                ",
"                                                                                                                                ",
"                                                                                                                                ",
"                                                                                                                                ",
"                                                                                                                                ",
"                                                                                                                                ",
"                                                                                                                                ",
"                                #X$X+X}.[.! W v                                                                                 ",
"                              Q `.OX X`.c b b v b                                                                               ",
"                              b _.].`.c {.}.+X`.c P X.h.                                                                        ",
"                              v b g b _.+X$X X`.v j   , ;.            u.#.L E 9.6.y E                                           ",
"                              l l b `.$X%X X(.v z v W   - ..      g.&.w.9 - w.G , D.#.3.                                        ",
"                                  W `.+X}.(.].b z _.b   X p.    / C.X.w y * 4 q i.t.n.+.6                                       ",
"                                  v _.`.`.(.v j v _.v   P J & ,.y.$.s X G A q y H 7 ^ %.9.S                                     ",
"                                  v Q `.! W b   v W     4 O -._ S.} 4 *             P s j.@                                     ",
"                                  l v b W c             0 G p.H.T a 9                 Z 8 L g b `.`.                            ",
"                                    z l l               0 5.t.B. .5                     9 % v `.`.oX.X`.                        ",
"                                                        6 9 9.x.5 0                     > p v (.}.%X@XoX!                       ",
"                                                        a +  .y.4 Y                   l 0 h g ! `.}.#X@XoX!                     ",
"                                                        3.p p 8.A                 _.! v l W l c `._.`.}.@X`.                    ",
"                                                        9.3.@ s J               (.%X+X`.z x `.l v _.[._.`.[.W                   ",
"                                                        t.0.> # 9               $X+X.X`.v W `.`.W n ! `.W v W                   ",
"                                                        &.$.$.1 4             ! $X|.(.].x b `.}._.c v v n W k                   ",
"                                                        :.$.Y.#.p             ].|.[.`.W W Q (..X_.`.n l l h                     ",
"                                                        r.@.N._ K S           _.`.`._.Q z Q (.OX X_.`.v                         ",
"                                                        w.<.B.M.&.a           v `.).! b g `.[.OX@X].! v                         ",
"                                                        5 #.F.A.@.r V         l b v b j k _.! XX|.`.! b                         ",
"                                                        S 2 d.F.M.a.9           l j z   j W `.(.(.Q v v                         ",
"                                                        A y = [ b.&.u.5                   z v b b v v W                         ",
"                                                          & p ] S u ] U                     j b b b x                           ",
"                                                          M % 6.J.E.x.1.4.                                                      ",
"                                                            B i -.k.U.z.-.h.                                                    ",
"                                                            L t q p 7 | &.O.w.                                                  ",
"                                                            + 9 O.&.t.%.f R D                                                   ",
"                                                              Z A G u 8.q.t.0.p                                                 ",
"                                                              A A q 7 s ^ +.q.1                                                 ",
"                                                              C > d.#.f.a.} u 6.M                                               ",
"                                                              G s $.Y.J.v.=.8.#.A                                               ",
"                                                              C w $.) R.U.c.q.#.G                                               ",
"                                                              A N X -.k.K.S.%.-.G                                               ",
"                                                            K % A 0 : s.+.P.*.$.$                                               ",
"                                                            q q q 5 u 5 4.@.@.h.A                                               ",
"                                                            q 5 w.w.< q q g.a.5 A                                               ",
"                                                          V 5 0.!.&.h.4 F 4 ; a A                                               ",
"                                                          A , f.m.K.&.T P S 9 q m                                               ",
"                                                        M 4 , %.Q.H.V. .@ X q 0                                                 ",
"                                                      I 8 q 7 r.k.P.L.0.y q 0 I                                                 ",
"                                                    F q S 9 p 9.&.K.K.0.5 0 %                                                   ",
"                                                  9 6 0 S & e +.&.o.^.o., q F                                                   ",
"                                                V A r 5 0 S q w.q.' l.4.7 8                                                     ",
"                                                S ; q.X.p 0 : R X.q.... q I                                                     ",
"                                              V q e.v.=.g.o 9 q g.8.w P $ V                                                     ",
"                                              0 = I.A.*.$.E 9 A = i 4 L G                                                       ",
"                                            M 0 h.A.P.L.=.%.# q T 4 S 8 A                                                       ",
"                                            % 0 ~ ~.x.Q.U.@.7.q 9 M $ q A                                                       ",
"                                            $ q -.~.` H.P.c.8.> Z * P t 0                                                       ",
"                                          0 p $.=.Z.#.v.J.L.@.&.w p 0 Z A                                                       ",
"                                          0 6 q.q.) 1.=./.J.S.q.d.7 q 9 S                                                       ",
"                                          U 4 $.e.( 2.0.$.~.J.c.%.h.: 6 J F                                                     ",
"                                          9 4 &.0.=.>.9.r &.S.L.&.&.w.a 9 8                                                     ",
"                                          P S 9.e.1 0.%.O.7 X.L.@.$.%.r 7 S C                                                   ",
"                                          9 @ 0.+.T $ q.h.5 q o.$.z.-.X.4 9 Z                                                   ",
"                                        M 9 U r | $ A e $.s.q y 4.' t.0.s 0 9 0                                                 ",
"                                        A 5 $ d 0.q M 9 3 4.4 F . l.$.w.w 0 0 9                                                 "
};
