/* XPM */
static char *_583341741161[] = {
/* columns rows colors chars-per-pixel */
"64 64 221 2 ",
"   c #000000",
".  c #3C3C30",
"X  c #7A3A1F",
"o  c #5C2D2A",
"O  c #4D3425",
"+  c #4D362C",
"@  c #4D3C2D",
"#  c #473828",
"$  c #543525",
"%  c #5B3525",
"&  c #553927",
"*  c #53352B",
"=  c #5B342D",
"-  c #533A2C",
";  c #5B3B2C",
":  c #5B3A25",
">  c #4C3532",
",  c #443934",
"<  c #4D3B33",
"1  c #483937",
"2  c #543531",
"3  c #5B3532",
"4  c #533B32",
"5  c #5A3C33",
"6  c #533A3A",
"7  c #5B3B3A",
"8  c #623424",
"9  c #633A23",
"0  c #633B2D",
"q  c #6B3E2C",
"w  c #673628",
"e  c #753B28",
"r  c #603736",
"t  c #633E32",
"y  c #6B3E31",
"u  c #783F34",
"i  c #10531E",
"p  c #0E4B2E",
"a  c #134D2D",
"s  c #1A482B",
"d  c #12532C",
"f  c #115A2E",
"g  c #17542A",
"h  c #134D34",
"j  c #194A31",
"k  c #124B38",
"l  c #0E5332",
"z  c #0F5D33",
"x  c #135334",
"c  c #1A5232",
"v  c #15563A",
"b  c #22483B",
"n  c #1E6F35",
"m  c #1A7B3B",
"M  c #216E3A",
"N  c #227C3E",
"B  c #207234",
"V  c #4C412D",
"C  c #4B4124",
"Z  c #53422D",
"A  c #5C412D",
"S  c #5F4127",
"D  c #464133",
"F  c #4F423C",
"G  c #564135",
"H  c #6C442D",
"J  c #674727",
"K  c #73432E",
"L  c #7D422C",
"P  c #7A4A2C",
"I  c #744126",
"U  c #7F5024",
"Y  c #6C4533",
"T  c #684438",
"R  c #734432",
"E  c #7C4532",
"W  c #7A4A35",
"Q  c #7B423B",
"!  c #754938",
"~  c #784D39",
"^  c #4C3D40",
"/  c #185543",
"(  c #196F42",
")  c #1C7B45",
"_  c #1C734D",
"`  c #1C7B4C",
"'  c #1B7643",
"]  c #1B6E59",
"[  c #1E7653",
"{  c #1C7C53",
"}  c #1E745C",
"|  c #1D7C59",
" . c #236D45",
".. c #217B41",
"X. c #23734C",
"o. c #227B4C",
"O. c #29764B",
"+. c #266F52",
"@. c #247452",
"#. c #237B53",
"$. c #227A5A",
"%. c #297558",
"&. c #237865",
"*. c #784B42",
"=. c #873C32",
"-. c #85411E",
";. c #864424",
":. c #834823",
">. c #85442B",
",. c #8A442B",
"<. c #834B2C",
"1. c #8A4A2D",
"2. c #8D4827",
"3. c #94432C",
"4. c #954A2A",
"5. c #9D5026",
"6. c #854532",
"7. c #8C4532",
"8. c #844A33",
"9. c #8B4A34",
"0. c #8B443A",
"q. c #854A3A",
"w. c #8A4B3B",
"e. c #854439",
"r. c #924633",
"t. c #944B32",
"y. c #994838",
"u. c #865036",
"i. c #9B5637",
"p. c #A35234",
"a. c #A4593A",
"s. c #A65739",
"d. c #B55D3E",
"f. c #AB643A",
"g. c #BB633C",
"h. c #B5663C",
"j. c #B6703C",
"k. c #C06036",
"l. c #8F5045",
"z. c #B45547",
"x. c #AC6443",
"c. c #AD6A44",
"v. c #AC694B",
"b. c #B46644",
"n. c #B46A43",
"m. c #BA6543",
"M. c #B07044",
"N. c #19853D",
"B. c #1D983B",
"V. c #27972B",
"C. c #268C35",
"Z. c #239E3C",
"A. c #26923E",
"S. c #1EAA2F",
"D. c #1EB220",
"F. c #1DA438",
"G. c #1FAE39",
"H. c #1EAD31",
"J. c #24A82D",
"K. c #25AB35",
"L. c #23A53C",
"P. c #22AB3C",
"I. c #28A738",
"U. c #23B03C",
"Y. c #20B535",
"T. c #32A838",
"R. c #74BA3D",
"E. c #76B638",
"W. c #70B630",
"Q. c #64C02F",
"!. c #76C32A",
"~. c #64CC3C",
"^. c #6CC739",
"/. c #75C43B",
"(. c #1B8142",
"). c #1C834C",
"_. c #1C8B47",
"`. c #1C8252",
"'. c #18825C",
"]. c #228544",
"[. c #23834C",
"{. c #278B44",
"}. c #219A42",
"|. c #249B4A",
" X c #299743",
".X c #329A4F",
"XX c #228254",
"oX c #21815B",
"OX c #258952",
"+X c #259B57",
"@X c #1DA441",
"#X c #1DA947",
"$X c #2BA242",
"%X c #23A24B",
"&X c #27AA4D",
"*X c #26A844",
"=X c #30A24B",
"-X c #2AA658",
";X c #268460",
":X c #69BC44",
">X c #77B943",
",X c #78B452",
"<X c #6FC343",
"1X c #84B63D",
"2X c #91DC17",
"3X c #A3DC15",
"4X c #A7D81C",
"5X c #ABDA0E",
"6X c #8CE916",
"7X c #96EB15",
"8X c #9CE21D",
"9X c #9AE818",
"0X c #81FF1D",
"qX c #A5E617",
"wX c #A5F218",
"eX c #98DC27",
"rX c #A0D427",
"tX c #8FEA20",
"yX c #91F024",
"uX c #A4E322",
"iX c #94B54C",
/* pixels */
"                                                                    @.                                                          ",
"                                                                     .X.                                                        ",
"                                                                    OXm ].                                                      ",
"                                                                    M [.#Xo.                                                    ",
"                                                                  | A.).&XN.                                                    ",
"                                                                  N <X_ F.T.[.                                                  ",
"                                                                O.J.!.XXI.<X{.                                                  ",
"                                                                |.^.eXX.*XW.P.                                                  ",
"                                                               .L.qX3X`.K.3XU.`                                                 ",
"                                                              XX*X6XR.'.B.9X-X#.                                                ",
"                                                              ) J.uXI.o.K.wXB.[.        +X                                      ",
"                                                              ` *XW.@XX.#XW.G.`       |.                                        ",
"                                                              ` }.U. X[ @X X X[.h `.+XX.                                        ",
"                                  7X                          `.{.K...[ B.L.]...v m [.                                          ",
"                                  ~.eX                    +X .v #.(.$.} [.].| x _ v a                                           ",
"                                   X^.5X                -X(.O.x a `...o.@.) j l h h                                             ",
"                                  @. XR.6X9X          |.f g k x h d g = d v x v b                                               ",
"                                    { L.&X7X9X        '       g h g *.= d h c                                                   ",
"                                    k (.I.L.<X                    Q V 2                                                         ",
"                                      x c @.[.                  W ; - 2                                                         ",
"                             X+.O.{ ` @.x s i                 G R 0 -                                                           ",
"                          V.|.~.!.,X&X`.n / /               l.e Y o o                                                           ",
"                        V.I.9X7XJ.C.` m &.H e y.Q e.      y.z.C V r                                                             ",
"                        L.8X^.O.{ $.L.I.).Y g # J ,.= G > f.z.# 5 ,                                                             ",
"                      @XK.>X_ %X9XrXD. XO.j l   4 4 - 8 P b.8.q 7                                                               ",
"                    |.H.{.N F.qXeX/.I.[.` h l     D 4 ; 7.b.p.7.#                                                               ",
"                  K.C.%.&.G.G.Z.S.C._.OXv l         6 * 1.c.h.<.u -                                                             ",
"                } ) (.#.] @.;X[ OXo.  v p             2 ; >.x.z.! :                                                             ",
"                                      v c             F + w e i.r.=.l.                                                          ",
"                                      a                 6 > y 9 J q q                                 @.@X$X|.K.                ",
"                                                        6 - W v.x.p.7.e.                            #.=X<X9X2XY..X              ",
"                                                          4 : 1.p.n.s.=.*.                *.0.,.r.Y o.o.N.{.iX2X#X              ",
"                                                          1 - % > T e P 4.7.          =.<.>.I K 4 p `.o.X.'...{.>XL.            ",
"                                                          # ; ! :.,.y.A t *       i.<.>.Y ^ < # a d X.L.^.3XW.[.C.&X            ",
"                                                            - ; - Y e.>.<.8.<   7 Q -.T - ;   c c x [  XZ.I.8XR.m N.+X          ",
"                                                            > ; < = t J t.=.: $ $ 0 # 3 =     #.] z d ( $.)._.U.&X).{           ",
"                                                            > & 1.1.r.u J H w.: - @ $ D       P.%.N.f     #.@.o... .;X          ",
"                                                            < - <.d.g.5.4.u t , 4 ^ 8       o.W.3Xo.s               )           ",
"                                  0X                        < & 9.9.c.g.i.7.=.Z 3 *         :XtX*Xo.                            ",
"                                  V.uXqX                    4 & 9 L a.g.c.<.r.: C 9         1XqXL.).                            ",
"                                  XX&. XqX                7 4 - - - ~ 3.g.;.P w -           3XE.{                               ",
"                                    N.#.|                 4 $ S = O & P t.>.~ ;             >X_.%.                              ",
"                                      5 >.9.              5 9 E q.; - % q.q.$ 4             [.}                                 ",
"                                  9XY.|.  9 P           1 ; 8.x.<.W * * 5 - - -             #.                                  ",
"                                qX>X&X`     7 9.        + $ <.b.b.1.Y * * + - 5                                                 ",
"                              qXK.B { X.    O #       1 3 ; <.b.d.i.H - 5 = G                                                   ",
"                            wXW.).|           3 *.  < , = $ L s.k.b.R - O 3 >                                                   ",
"                            yXO.              - % - - 6 = A 8.,.n.m.w.: - -                                                     ",
"                            +X                F 6 4 O - 4 = w.2.6.g.u.# 4 7                                                     ",
"                                              < * ; : & - 3 E <.e a.L 5 -                                                       ",
"                                              4 8 K u.; 4 + R 1.6.K O 5 *                                                       ",
"                                            F $ <.a.<.E - @ $ W 8.O Z - 2                                                       ",
"                                            O ; f.m.3.9.; Z & 0 $ 7 * 5                                                         ",
"                                          F 5 W n.h.h.1.q.$ - * Z 7 ; @                                                         ",
"                                          # 0 E x.a.n.x.1.y ; 6 ; + & <                                                         ",
"                                          6 % 9.n.;.n.h.i.0.% < @ G $ 2                                                         ",
"                                        ; 4 <.1.a.>.a.f.n.3.4.$ 5 # 5 -                                                         ",
"                                        * 4 ;.9.;.9.,.n.g.v.L u.% 2 7 -                                                         ",
"                                        @ 4 ,.1.:.s.E 6.j.h.l.t.q.% A & 6                                                       ",
"                                        - 2 ;.,.W 2.3.; L h.g.6.8.E : - 2                                                       ",
"                                        - 5 1.>.* ,.>.0.O 7.h.>.1.t.H $ 5 ,                                                     ",
"                                        + * >.9.- - r.t.t V I r.7.1.K $ 5 Z                                                     ",
"                                      , ; > I q - 4 $ >.! - - 6.>.t.9.5 > $ 4                                                   ",
"                                      < $ 4 q ~ = & < ; >.0 4 & t.e w.* V $ 3                                                   "
};
