/* XPM */
static char *_581521339121[] = {
/* columns rows colors chars-per-pixel */
"64 64 244 2 ",
"   c #35733B",
".  c #30703A",
"X  c #385E4A",
"o  c #2C6C43",
"O  c #2C6B4C",
"+  c #27694A",
"@  c #336C43",
"#  c #34664B",
"$  c #3B654C",
"%  c #336C4C",
"&  c #3B6C4C",
"*  c #376744",
"=  c #2C7345",
"-  c #2C734C",
";  c #27754A",
":  c #33734C",
">  c #3B734C",
",  c #33794C",
"<  c #367645",
"1  c #2C6C53",
"2  c #2D6C5B",
"3  c #296857",
"4  c #346454",
"5  c #346B54",
"6  c #3B6C54",
"7  c #33655C",
"8  c #3C665B",
"9  c #336C5A",
"0  c #3B6B5B",
"q  c #3B6552",
"w  c #2D7453",
"e  c #2D735A",
"r  c #287855",
"t  c #337353",
"y  c #3B7453",
"u  c #337952",
"i  c #33735B",
"p  c #39785A",
"a  c #2B6B63",
"s  c #336B63",
"d  c #3B6C63",
"f  c #396566",
"g  c #347263",
"h  c #377564",
"j  c #317765",
"k  c #1E7C48",
"l  c #5E5E5E",
"z  c #426A4D",
"x  c #426A53",
"c  c #426858",
"v  c #447157",
"b  c #43734D",
"n  c #62615E",
"m  c #476D63",
"M  c #646464",
"N  c #6A6B6A",
"B  c #676766",
"V  c #787877",
"C  c #605E61",
"Z  c #1D9D3C",
"A  c #1D9C36",
"S  c #1D9C2C",
"D  c #239C33",
"F  c #249D3A",
"G  c #2A9C3C",
"H  c #269738",
"J  c #259734",
"K  c #1DAB2B",
"L  c #1DA42C",
"P  c #1DA334",
"I  c #1DAB34",
"U  c #1DA43C",
"Y  c #1DAC3C",
"T  c #1DB234",
"R  c #23A52D",
"E  c #22AB2C",
"W  c #29A72D",
"Q  c #24B32D",
"!  c #23A435",
"~  c #2AA432",
"^  c #23AC34",
"/  c #23A43C",
"(  c #2AA23C",
")  c #23AB3C",
"_  c #29AC3D",
"`  c #2AAB36",
"'  c #23B23B",
"]  c #26B235",
"[  c #6BBA2B",
"{  c #73BC2C",
"}  c #7AB82D",
"|  c #7AAD3A",
" . c #6EB534",
".. c #6DBC34",
"X. c #6CBB3B",
"o. c #68B73A",
"O. c #75B434",
"+. c #73BB35",
"@. c #7BBC33",
"#. c #74B43C",
"$. c #7BB53C",
"%. c #74BB3C",
"&. c #7CBB3C",
"*. c #7CB336",
"=. c #6AAA30",
"-. c #5CBC37",
";. c #73C12D",
":. c #76C528",
">. c #6DC234",
",. c #6CC33A",
"<. c #6ACA37",
"1. c #73C333",
"2. c #73C33C",
"3. c #7BC33C",
"4. c #78C636",
"5. c #6BC228",
"6. c #1E9D45",
"7. c #249D43",
"8. c #279A48",
"9. c #279B52",
"0. c #2F894B",
"q. c #1EA443",
"w. c #1EAC44",
"e. c #1DA64B",
"r. c #1BB445",
"t. c #23A443",
"y. c #2AA343",
"u. c #23AB43",
"i. c #2AAB44",
"p. c #23A44A",
"a. c #2AA24B",
"s. c #23AA4B",
"d. c #29AC4A",
"f. c #32A444",
"g. c #24B446",
"h. c #27A952",
"j. c #2EAE53",
"k. c #2A8864",
"l. c #7AAC46",
"z. c #6DBD45",
"x. c #68B847",
"c. c #73B443",
"v. c #7CB443",
"b. c #74BC42",
"n. c #7BBC43",
"m. c #7CB54A",
"M. c #77B94A",
"N. c #77B953",
"B. c #68B45A",
"V. c #4A814A",
"C. c #6CC244",
"Z. c #73C243",
"A. c #7CC244",
"S. c #77C648",
"D. c #6FD047",
"F. c #87AD39",
"G. c #84B838",
"H. c #84B82A",
"J. c #9CDD1B",
"K. c #98DC17",
"L. c #95D914",
"P. c #A4DB18",
"I. c #B4D81C",
"U. c #8BEA0E",
"Y. c #98E80E",
"T. c #8DEB1B",
"R. c #8BE616",
"E. c #94E314",
"W. c #9AE415",
"Q. c #94EB13",
"!. c #9BEB13",
"~. c #94E31B",
"^. c #9CE41B",
"/. c #94EB1A",
"(. c #9BEA1B",
"). c #8DF317",
"_. c #96F317",
"`. c #96F50D",
"'. c #A3E40E",
"]. c #A3E314",
"[. c #A4E31B",
"{. c #A6E918",
"}. c #AAF018",
"|. c #9ADD23",
" X c #81C239",
".X c #8BCE31",
"XX c #A3DB24",
"oX c #9CEA22",
"OX c #99E423",
"+X c #91EC23",
"@X c #A4E623",
"#X c #A0F221",
"$X c #84B843",
"%X c #8AB24A",
"&X c #83C348",
"*X c #16ABDE",
"=X c #16A6E9",
"-X c #16A6F9",
";X c #17B4E6",
":X c #71D4FE",
">X c #6ED3FD",
",X c #858585",
"<X c #8C8C8B",
"1X c #8A8687",
"2X c #9D9E9E",
"3X c #959797",
"4X c #8F8F91",
"5X c #A29E9E",
"6X c #AC9E9D",
"7X c #9EA39E",
"8X c #9FAB9F",
"9X c #A4A39E",
"0X c #A7AA9F",
"qX c #9D9FA4",
"wX c #A39EA2",
"eX c #A99DA5",
"rX c #9DA4A4",
"tX c #9DA7AA",
"yX c #9EAFB2",
"uX c #A4A4A4",
"iX c #AAA5A5",
"pX c #A4A9A5",
"aX c #AAA9A6",
"sX c #A5A5AA",
"dX c #AAA5AB",
"fX c #A5AAAB",
"gX c #AAAAAA",
"hX c #A8ABB2",
"jX c #A9B5BA",
"kX c #B3B6B9",
"lX c #B1ADAE",
"zX c #B0BBC3",
"xX c #ACC7CB",
"cX c #B3CBCC",
"vX c #B7C5CA",
"bX c #B3D4CF",
"nX c #ADCDD3",
"mX c #B3CDD4",
"MX c #BBCCD2",
"NX c #B8CBD8",
"BX c #B2D1D5",
"VX c #B3D2DA",
"CX c #ADD4D5",
"ZX c #C1CACF",
/* pixels */
"t % w s : G...G.sXsXuXsXuXuXI u./ U O.n.b.$X<XM n B B & # j & , t & uXpX,.wXgXgXuXpXuXuXuX9XuXiX9X4Xn N B l B B M B > 4 t f : : ",
"+ v 9 6 ZXR A.X.4.nXmXmXmXnXnX7.) t.] / ..{ <.0 uXuXpX> e w @ e 3 w uXiXu.O.@.rXpXuXuXpXfXfXfXrXuXpX9X,XN N n M 1X9X: i : 1 ; 6 ",
"y 9 % vXhXH Y &.v.@.M.mXNXNXNXNX/ / u.F ) 7.-.d fXrXtXy . 5 $XF 5 p o sX! n...R.R.BXcXvXjXsXeXeXfXtX>X:X:X=X7XsXpXaX9 %.X.y - c ",
"5 ; cXjXhXj.U W X.;.#.(.Y.(.sXuXqXgX7.) U ` i.; ZXjXsXsX%X .%.W 5 % t BX9.q.m.}.[.P.eXhXkXcXbXbXNXjX:X-X=X-XuXsXuXrXe +.1.9 & w ",
"0 hXuXqXwXP / / i.&.,...R.I.T.9XeXeXeXiXs 9 z   hXZX1.| *.4.{ ) 9 , 5 - xXS _ ..~.T.K.{.rXrXfX6 t =X*X=X-X-XgXsXjXeX*.m.+.* 9 s ",
"eXaXaXiXuXT p.( 6.F } z.3.I.^./.`.rXuXuXt s X t rX%.%.@.%.S.I 9.* 0 r % sX_ a.~ *.4.(.+XK.t 7   9 x =X=X;XdXuXuX2.%.H.2.u., t . ",
"0XrX9X9XaXiXh./ u.Q u.c.#._.R.}.~.pXpX& t % u r +.~.~.1.m.c.e.I v o 5 8 wXiX^ U / a.[ &.n.1 h w 1 b : w ; uXuX&.>.{ N.<.Z s aX& ",
"9XpX; O sXrXqX/ / 7./ ) `  .@XR.@XwXiXr 2 $ & z.~.[.Q.b.;.G.! ( lX- t : uXgXsXp.P s.t.! W w * : : 1 4 i m.&.+.C.%.n. .' ~ 2X8XtX",
"uXuX& 0 5 e $ / ) _ q.t.7.t.Y ) / uX$ a < : ~.OXQ.[.[.%.z.y.Z ) NXjX9 % 9XuXuXsXU / a.I ( d ; c 9 > 8 O.Q.{.K.2.&.5.m.i.uXaXiXwX",
"aXuXuXq e i w > F ( ) ^ ^ ! / G ' c 6 u . n.!.]./.T.o.G.>.) y.uXZXfX# y uXiX9XrXuXuXuX# : 2 h ; d - <.oXOX#XE.$.$X$.u.) uXiXuXfX",
"uXuXsXt w * ; e i w 8.U _ ) ) t.q.& 6 s - ^.[.J.W.$X@.b.E P s.4 5 sXsX9XwXaXdXgXaXuXuX6 & , o i = /.~.R.!.P.Y.&.o.' D S p aXuXuX",
"aXuXuXuXc $ y 1 8 6 , / D ) / Z ) 1 < % %X{.K.).XX>.N.s.G ` U i t q 9XaXgXsXrXfXuXuXsXi i , @ 0 G.J.}./.K.oXX.m./ e.( : 5 ; uXuX",
"uXuXuXiXi w 5 9 O w t 1 uXuXuXuXsXd = r v./.!.+X*.} g.A s.Z   : % g 0 pXuXuXF.3.A.N.uX: s 8 9 w $.(.Q.Y.{.#.~ ) u./ 0.u w x 0 uX",
"sXuXuXuXo n.,.& , t & p uXsXpXiXuX% 9 0.|  .n.{  XI p.f.) ` 8 2 O r 8 uX$X$.J.(.Q.| y.I t > $ 2.2.@.c.8.t.P ) ! Z R k.O : 5 = # ",
"l ^.Q.n.,.+.t.7 8 9 4 9 uXuXuXuXsX5 5 % 2. X..$XP ^ ) H ! = a u t , > *.!.!.~.U.W.$X_ ! N M M $XX.8.g.P t.) ] q._ W O 9 s ; * p ",
"T.].^.{ Z.&.K t 5 u % , M M M M B M M M  .&./ 6.a.A / ` a t 6 # : q c._.R.].@XQ.C.E 7._ M M B L ! ) / / I t.H i.3 t % 5 y ^.[.~.",
"@X~.3.+.) q.6 0 > r   c +.+XXX;.I 8.B n ' D e.^ q.d.I B B 2 a z : x.Y.`.~.].].x.z./ t.p.uXwXrXF / t.u.! ! P vX5 w , $ , L.K./.^.",
"Q.G.Z.! g.wX+ w O g w v.OX`.U.&X` 7.rXsXtXrXqXhXsXuXuXqXsXfXgX; &.&.P.J.(.o.&X*.~ ` ! w.@ p + cXBXnXmXmXnXVXVXnX5 1 XX@X}.{.n.X.",
"+.Y ! p.H cXzXt * 8 &.W.Q.[.~.l.7.s.vXBXBXmXmXmXBXBXcXMXMXMXxXX.b.2.W.P.G.D.:.! P i.I G $ 9 i : nXnXBXNXNXNXxXzXuXOX!.).L.,.>.%X",
"s.H / 8.xXMXxXzXuXn.W.!.{.~.W.S.) P MX=X=X:X>XnXcXvXjXtXrXhX*.&.,.c.A.&.o.q.p.Q a.t.e.= p 9 4 r uXtXsXsXwXeXsXuXaXG.O.D.$.z._ ! ",
") sXkXhXsXfXkXzXZ.L.Q.).L.(.v.P d.U wX=X=X=X:X:XyXd i % #.%.F.X.$XP D ' s.y.t.t.! L < m 3 t Q ].R.K.4.9X9X9X0X0XpXt./ E 6.Y R q.",
"dXeXwXuXsXuXfXN.1.@XE.|.].]._ I P t.sX-X;X-X=X;X=X0 o t <.' _ 8.T u.t.P A ^ ( q.h + 5 = , 2 / E.`.XX@X].uXpXpXrXsXL ' Z a.! _ / ",
"uXuXpX, : = uX%.+XW.P.Q.^.c.U u.D / pX7XuX=X=X-Xp 3 t 8 ) P U I / F aXl <XrXMXjX. & v 9 % < 7.u.W.[.J._.L.uXgXeXiXiXeX8.) 7.o pX",
"uXuXuX9 4 t 1.#.{.W./.{.%.^ t./ s.eX5XiXaXuXu % @ 0 @ , 4 p 8 : uXiXiXM <X9XsX: y a 4 , d % ) 7./.~./.@X(.,.9XuX9 s < ; 5 , 2 eX",
"uXuXuXw 6 b +.%.T.].^.&.) I i.8.^ uXuXuXfXuX= d w : * 8 9 > $ i 8 gXuXM <XuXt 8 1 5 : 1 p # ^ p.J.OX!.P.Q.b.2Xy - : 6 5 - x r pX",
"uXaXuX@ a l.#.,.&.X.n.^ a.t.D E uXuXuXuXpXuXuX4 7 % y - w p 3 I 4.X.iXB M aX; 5 t - c q ; c Q U ! Q.).(.P.$X:.f c 7 3 g 6 5 t uX",
"uXaXuX3Xu 3.;.v.+.A.F p.F F d.gXsXuXuXuXh.R.~.{.> - w : : * g ! D S.X.~.I.`.U.!.oX* e , 9 uXP / ~ +.OXP.).#.+.7 : & % r z O uXuX",
"rXuXiXpX#.&.o.4.3.D ) ` W L ,XuXuXgXaXuXy.R.Q.[.L.> a g 7 @ w ` / / z.2.J.J.(.~.].n.9 3 O sXy.u.q.( F.b.#.S.2.9 e , i - w uXgXgX",
"gXsXuXuXM.O.@.m.D y.e.K Y B B B B l l N ) [.T.]._._.d 8 t y w 7.i.8.! ! 3.1.$.m.` q.9 . uXuXF / T / D.G.O.[ ,.{ $ 4 z 0 aXuXuXwX",
"2XuXuXaXx.N.1.D w.t.Z > e M M M M B N B 7.7.T.[.E.^.!.b 9 o p 2 D ] P ^ t.Y G R e.w.5 uXaXuXuX) a.~ H &.$.n.n.@.uXgXgXuXqXuXgXuX",
"M B M M >.q.q.' U & i # & uX<XM M M B M ^ Y :.|.^.}.W.b.o u 7 = Y t.Z ) i.^ w.p.~ ~ M M M M M B / u.Y ^ $X[ N.c.M B M ..}.J.|.N ",
"uXiXsXuXpXW ) 5 t $ : u e uXgX7XfXuXuXuXi.! $X/.oXR.W.$XO.uXuXuXpXuX~ 7.U / 7.^ w ,XN M M B B M M F ^ e.P $X5.b.N ,X) %.OXY.^.(.",
"/.uXpXuXuXuXuX% O % e ; : 2X .^ tXuXaXiXw.T / %.{.W.].^.#.uXuXuXuX9XuXaXiX9 5 dX8X7X<XM M M M B n M y.t.t.' %.G.0X5Xq.( <.$.^.[.",
"@XK.nXnXBXt + < y t 7 p '.'.X.9.h.iXiXgXU / y.n.o.oXR.Q.G.sXsXsXsXuXtXjXxXy 3 CX<.+.[ sXpX9XuXuXdXdX> F 8.8.! X.yXfXD u.) o.1./.",
"H.Z.&.t % 6 . 2 8 & 9 O.W.].D.W / uXiX3Xt.( y.K H.A.P.R.S.o.& bXBXMXmXnXmXnXnX$Xl.:.A.E ! uXpXuXe y @ % 0.7.U s.xXvXa.P / 9.;.+.",
",...1.#.9 y i sX% - j P./.~. .u.! pXiXlXzXt.G / Y | @.3.o.&.i f 7 0 = , jXhX ./.[.E.$Xt.) uX0 @ O 3 i 5 ; : jXtXfXfX/ d.' ` y.x.",
"q.$X..>.C.O 5 pXw - z Q.E.&.&XF t.qXsXjX0 e.Y u.Y g.1.x.n.F.+.: < 2 d 4 6 &.J.[.E._.$.q.Y fXy 5 : v 3 5 t t dXeX9X9X: P / L ^ y.",
"t./ ^ y.H ) b uXlXlXaX/.!.A.! q./ <X3Xq 4 y & U ! F a.) ,.3.1.9 + x % 0.8  .~.}.(.R.' 9.y.a . h 5 % u 0 5 % gXgXgXuX9 8 y.) D ! ",
"t.L ( 7.g./ dXaX5X9X$X@.%.+.^ D ) B 3 6 u # y @ y.P t./ ^ >.Z > & p 3 t #.OXE.K.J.1.I / ^ < O % $ e 4 y % iXaXuXqX5 d o e H h.f.",
"t 6 % , 5 uXuXpXpXuX1.x.&.7.t.u._ o 1 s o , 7 s 5 dXeX/ 8./ / 9 e 2 : & !.~.`.[.F.C.! t.U 0 @ s i - , % 9XuXaXrXiX& 9 - i : O = ",
"e 9 w - sXuXuXuXuXpX>.m.2.~ 7.) M % 0 - t 5 i s uXuXuXuXgXuXw w 8 t 2 G.[./.R.{.+.] D t.9.# 5 8 M.,./.W.{.P.R.~.5 e = & % x + y ",
"# $ uXuXuXuXuXuXuXF.G. .u.u.7.U M q e # b t ; uXwXgXuXuXuXuXuXw : o % b.].'.+X#./ ! ) ' X f 0.7.E @.%.J.J.).!.{.^.h t 1 w , e & ",
"uXwX5X9XuXuXuX: e x.Z.S.A S g.uXM 7 + g + y uXsXgXgX$.Y U aXuXuXuXi 2.4.E.K.1.7.t.t.t.t.1XeXtX' / a.C.1.[./._.L.W.P.> % g sXuXpX",
"uXuXuXuXuX6 i t   +.O.i.' q.qX<XM 7 p & <XgXuX2XwXm.1.} I uXuXaXuXuXX.A.X.z._ / / i.Y n N B.fXmXt.D / t. .@.4.[.!.}.~.uXsXaXuXuX",
"uXuXuXuX6 % % r 9 } u.9XqXaX+ y ; B N M M <XuX$XA.x.A.p.7.uXwXuXuXuX&.&.3.H t.E ! q.: d M B tXvX) K G / h.t.l.+.~.!.,.sXuXuXuX2X",
"iXuXuXiXu = 6 7 O d 5 uX4X1XN z m O O M C J.E.b.{ @.S s.uXuXuXaXiXiX4.#.} g.6.' p.@ 9 : 6 M <Xw - / 8.! ) ^ U ] n. ...G.fXaXaXuX",
"B M M h + x z w 5 t M M n B ,XsXO 4 0.+ W.T./.{ v.A.Q A M C N ,XuX$.M.G.I / ) / s < @ 7 5 D g.* , 7 V.; q.t._ U ~ t.i.,.m.<XV N ",
"B.M M 7 i 5 - : > 5 uXuX:X:X:X-Xw 8 & Q.}.OXF.b.Y ~ 8.u.B M M N M &.,.U u.7.P 5 t 5 y u w./ ! y.3 y O * 9 & % 9 ; 8.L I G B B M ",
"%.1.@.~.(.5 O x 5 = iXuX:X:X=X=X5 w ^.!.!./.N.~ ) ! e.rXwXsXiXeX,X&XK t.) 9 w o : 9 5 0 ` t.p.+.%.6 : 5 < e , 7 5 1X1XB B M B t ",
"&.S...3.|.T.`.T.P.#XmX-X;X-X-X=Xt $X~.P./.;.! Y 7.h.R VXmXmXvXzXaXU 8.sX4 w @ v @ e % y P F u.2. X~.7 i t O . 0 tXrXhXsXdXuX% O ",
"u.F.#.+.W.(.~.OX(.P.!.NXMX=X-X< ; X.A.b.D h.^ ^ / W zXxXmXCXVXCXlXfXpX; v : 3 3 t c t e ^ g.D &.X.OXVXVXxXxXcX! l.cXjXrXfX= w v ",
"/ ' &.Z.O.H.&X{ W._./.W.uXuXuX7 t G.#.D r.t.8.! ] wXiXhXgXpXuXgXlXgX3X& O ; v : - 5 4 O / H ^ *.1.!.P.cXjXyXjXe.+.;.MXZXt 8 * - ",
"/ A T 7.F 3.l.1.Z.%X .~.pXuXpX8Xd G A i.e.W t.Y # 9X7XuX0X9XaXaXkXvXuXt : x $ : t p 8 CX/ t.z.X.$X~._.hXiXeXiXR t.&.sXuXi 9 t 4 ",
"5 / ) q.! ' q.u.t.L ) u.uXsXuXuXdX] g.! R ) - t z uXgXuXuXrXrXtXqXhXq 5 - s t 3 6 1 nXBX/ f.#.S.v.^.OXlXaX9X9Xu.t.$.$.aXy 7   h ",
"5 v L U _ / 7.G ^ _ ~ s.% dXgXsXuXuXuX4 4 j @ 0 s w sXK.R.~.P.{.!.uXd :   f = i q jXtXsXt.t.3.=.:.~.U.lXiXuXuXU ) %.G.OXR.x k B ",
"9 : rXuXD Y ^ t.u.H u.E 7 i 7XuXuXuXsXgX> 4 u 4 : ; } oXI.)./.W.(.W.R.h % % i * kXiXaXpXg./ [ &X2.P.oXfXuXuXuXy.R n.1.^.U.!.8 M ",
"B 9XpXuXaX_.a.F ! / - 6 g O a.%.!.OXuXuXuXuXi @ 7 A.@.x.~.].W.W.!.Q.OXS.[ %.v.cXuXsXaXuXuX! G.,.#.`.XXuXuXuX5Xt.! 9.<.OX^.#XE.M ",
"M 4XuXuXuXrXfXuXuXuXt O = i.) ;.K./.rX5XuXuXuXuXfXW K 3.|.Q.+X/./.I.F... X+.C.jXuXuXsXaX5 t.N.@.3.Q.^.uXaXgXuXU Y ) [ 4.].K.K.M ",
"C N 1XpX'.~.l.U s.s : % d.! y.[ @XK.P.uXgXuXaXfXaXY U ` @.].I.).!.%.Z.n.c.&XzXfXuXaXiXt 8 : ( X.$.|.pXuXuXuXuXw.I 9.n.;.,.~.W.N ",
"y a N L.3.b.>.I ! p ; 3 G G w.S.R.{.W.XXuXuXuXuXuXuXh.8.) D b.$.>.+.%.@.F E gXtXuXuX- : 5 i q.m.G.%X5XuXuXsXgX( h.H ! F.*.S./.M ",
"- 1 @X^.E.l.^ 8.H t 5 6 / u.H v.1.+X_.E.uXuXuXsXfXuXS u.u.I ] 8.F Y _ T 8.B uX9XuXe v y $ 9 @ / o.4.aXpXuXuXuXsX6.` u.^ u.| } N ",
"F.4./.(./ y.U / u r 4 % _ P ) K $.+.OXE.{.uXuXsXaXuXuXF / ^ U / p.G L s.@ B ,XlXuX6 3 r v ; p sX3.M.iXpXuXuXuXuX! u.K t.s.I D.M ",
"b.G.{ y.Y L ^ M q o y 0 . / r.8.n.O. X@XU.~.M B M M M l M B 5 5 = 0 5 + & M M ,XuX5 t e X % uXuXgXuX7XuXfXuX,XN % = u./ 8.E 6 8 ",
"t 7 w - 1XM N M 6 t ; f M ! 8.] ) %.1.l.G.,.B M M B B M N 1X9 : , 6 5 u 6 sX4XM B t > 4 B M B B M M M M M B B M i % 5 0 * - 9 : "
};
