/* XPM */
static char *_581514139882[] = {
/* columns rows colors chars-per-pixel */
"64 64 239 2 ",
"   c #2C743C",
".  c #336E3C",
"X  c #375E51",
"o  c #2D6C4C",
"O  c #2A6A48",
"+  c #346B44",
"@  c #34654D",
"#  c #3C654D",
"$  c #336D4C",
"%  c #3B6C4C",
"&  c #386744",
"*  c #2D734C",
"=  c #2B7747",
"-  c #347345",
";  c #33724C",
":  c #3A724C",
">  c #377849",
",  c #2D6C53",
"<  c #2B6959",
"1  c #346554",
"2  c #3B6653",
"3  c #336C53",
"4  c #3A6C54",
"5  c #336C5B",
"6  c #3B6C5B",
"7  c #38655C",
"8  c #2D7353",
"9  c #2C735B",
"0  c #2A7756",
"q  c #347353",
"w  c #3B7354",
"e  c #34745B",
"r  c #3D745B",
"t  c #357A58",
"y  c #336C63",
"u  c #396966",
"i  c #2A7566",
"p  c #377463",
"a  c #326F6E",
"s  c #1F7143",
"d  c #5E5C5D",
"f  c #675F5C",
"g  c #426959",
"h  c #427455",
"j  c #506557",
"k  c #65625E",
"l  c #516969",
"z  c #656565",
"x  c #696466",
"c  c #666569",
"v  c #69696A",
"b  c #686869",
"n  c #757675",
"m  c #7C7C7C",
"M  c #787978",
"N  c #6D6C6E",
"B  c #615F62",
"V  c #827B7D",
"C  c #1D9B2E",
"Z  c #1D9C3B",
"A  c #1E9B35",
"S  c #249C2C",
"D  c #239D34",
"F  c #239C3B",
"G  c #2B9D3B",
"H  c #289935",
"J  c #1EA62D",
"K  c #1DA435",
"L  c #1DAB35",
"P  c #1DA43B",
"I  c #1DAA3C",
"U  c #1DB239",
"Y  c #1CB829",
"T  c #25A72C",
"R  c #24B42E",
"E  c #24A434",
"W  c #29A433",
"Q  c #23AB34",
"!  c #29AB34",
"~  c #23A43B",
"^  c #2BA43B",
"/  c #23AB3B",
"(  c #2AAA3C",
")  c #24B33C",
"_  c #24B435",
"`  c #30A53A",
"'  c #6CB82C",
"]  c #77B82C",
"[  c #79AC38",
"{  c #6DBD35",
"}  c #6CBB3B",
"|  c #6AB738",
" . c #74B333",
".. c #7BB434",
"X. c #74BC35",
"o. c #7BBD34",
"O. c #73B53C",
"+. c #7BB43B",
"@. c #74BB3B",
"#. c #7BBB3C",
"$. c #65AD30",
"%. c #69C52C",
"&. c #76C42D",
"*. c #6BC435",
"=. c #6CC33C",
"-. c #69C63A",
";. c #74C334",
":. c #7CC334",
">. c #73C33C",
",. c #7AC23B",
"<. c #76CA3C",
"1. c #71D238",
"2. c #5EC339",
"3. c #1D9E41",
"4. c #1E9E54",
"5. c #249D43",
"6. c #299D44",
"7. c #269B4A",
"8. c #2B8652",
"9. c #1EA343",
"0. c #1DAA43",
"q. c #1DA64A",
"w. c #1EAF4B",
"e. c #23A343",
"r. c #2AA343",
"t. c #23AB43",
"y. c #2AAB43",
"u. c #23A44B",
"i. c #2BA24B",
"p. c #24AB4A",
"a. c #29A94A",
"s. c #32A948",
"d. c #24B245",
"f. c #27A753",
"g. c #2AAF54",
"h. c #7CAE48",
"j. c #6CBA46",
"k. c #74B542",
"l. c #7CB443",
"z. c #73BC43",
"x. c #7BBC43",
"c. c #7CBB4A",
"v. c #77B74B",
"b. c #75BA51",
"n. c #6EB04F",
"m. c #7C817C",
"M. c #6AC645",
"N. c #75C343",
"B. c #7CC244",
"V. c #7BC54A",
"C. c #88B92B",
"Z. c #84AB39",
"A. c #83BA3B",
"S. c #83B737",
"D. c #90B63F",
"F. c #9DDC15",
"G. c #97D91A",
"H. c #8FDA12",
"J. c #A3DE1C",
"K. c #A7D917",
"L. c #A6D90D",
"P. c #9AE70E",
"I. c #8CEB13",
"U. c #8DEC1B",
"Y. c #8BE517",
"T. c #94E314",
"R. c #9AE415",
"E. c #93EB14",
"W. c #9BEB14",
"Q. c #95E51B",
"!. c #9BE41B",
"~. c #95EB1B",
"^. c #9BEC1B",
"/. c #8BF318",
"(. c #98F319",
"). c #8AED0D",
"_. c #A3E514",
"`. c #A4E41B",
"'. c #A6E818",
"]. c #A4F716",
"[. c #A2EC0F",
"{. c #83C338",
"}. c #95D828",
"|. c #A7DD24",
" X c #8DE722",
".X c #9BE422",
"XX c #9CEB22",
"oX c #95E726",
"OX c #92F122",
"+X c #A5E423",
"@X c #83B947",
"#X c #81AC41",
"$X c #84847F",
"%X c #82C245",
"&X c #7C7D81",
"*X c #757C86",
"=X c #817F81",
"-X c #798183",
";X c #848484",
":X c #8B8B8B",
">X c #878989",
",X c #8F9291",
"<X c #959595",
"1X c #989697",
"2X c #969896",
"3X c #979799",
"4X c #9B9B9B",
"5X c #989999",
"6X c #908B8D",
"7X c #A49A9B",
"8X c #9EA39E",
"9X c #A1A19F",
"0X c #9D9EA3",
"qX c #A19FA0",
"wX c #9EA4A3",
"eX c #9CA8AC",
"rX c #A4A5A5",
"tX c #A9A5A6",
"yX c #A5A9A6",
"uX c #A4A6A9",
"iX c #A9A3A9",
"pX c #A4ABAB",
"aX c #AAAAAA",
"sX c #A9AAA7",
"dX c #A8ACB1",
"fX c #AAB4B5",
"gX c #B1ADAF",
"hX c #ADC7CC",
"jX c #B4C8CD",
"kX c #ADCED6",
"lX c #B1CDD2",
"zX c #B4CADA",
"xX c #B8CAD4",
"cX c #AED2D7",
"vX c #B3D2D8",
"bX c #B9D2CF",
"nX c #AFD6E5",
"mX c #C2CED8",
"MX c #F2FDD2",
/* pixels */
":X:X:X:X:XK.~.X.@.:X:Xt.O 4 g I 0.e.S.#.j.^.oXxXzX5 e - zXzXzXzXzXzXzXzXzXzXzXzXkXnXlXxXz B b b :X>X3 * g < :X:X:X;X,X,X;X:X:X:X",
"5X5X1X5XF.OX+X@.b.J 1Xo p./ t.$ # U E Q F o.;.|.$ r # 3 cXkXcXcXcXvXlXcXvXcXcXcXvXzXhX>X<Xd v ;X4X4Xp < e   rX9XrX1X<X<X,X4X1X<X",
"1X1X1X^.`.I.j.W Y g g 9 r.).U.E K e q.p.) j.@.{ - O r s lXlXlXjXlXlXlXkXlXlXlXlXjXjXM.{.b.;.G.'.T.6 7 . : ; sXrXsXrXrX4X1X4X3X3X",
"1X1X1XF.B.k./ G 1 Q.G.r = K.Q.^./ ~ ,XeX~ W E %X; 4 ; a uXuXuXuXrXuXuXuXuXuXsX( { {.Z.*.v.N.G.T._.OXXXw $ o rXrX9XrXrX4X2X3X<X3X",
"5X5XI.>.+.;.L 9 #.^.T.8 $ W.[.K.,.^ J 5XmXeXQ P q < o rXqXiXrXqXiXiXrXrXrXqXiX~ U 7.e.K ~  .:.<.E.G.T.T.w rXrXaXsXrXrX1X3X5X2X5X",
"1X1X{.j.] W E 7 ' !.x.Q : b.T./.%.z.P W dXuX$ y u + rXrXrXrXrXrXrXrXrXrXrXrXrXt.! e.P _ 6.~ *.k.:.`.!._.rXrXrXtXwX8XwX4X1X5X<X4X",
"5X5Xl.<.{ ~ i.= '.'. .~ 7 F V.O.O.@X/ / uXuX: * q rXwXrXrXuXrXrX8XrXrXrXrXrXrXrXyX= ( A ~ ~ G B. .#.V.j.S.aXrX4XpXwXsXwX1X1X<X2X",
"2X1XO.=.^ 5.0 A.!.X.N.3.>XR K #.X.k.~ 9.eXdX+ e * rXrXiXtXrX9X4X4X4XiXrXuXrXrXrXrXyX# q t 9 + * e.e.K &.O.tX9X,X`.pXrXrX5X5X3X<X",
"<X' A.e.Q a.+ @.~.A.I E :XI P W N...6.I rXrX8 3 rXrXyXrXrXrX!.E.+XK.yXrXrXrXtXrXaXrX:X$ oX_.T.+Xo ; / P 3.4XW X.:.U.aX0X4X5X<X5X",
"<X{.^ e.~ 1X6.N.] M.G e.:X:X/ e.F E d./ rXrXrXrXrXrX4X4X5XW l.#.).E.sXrXrXrXrXrXuXrX).E.F.!.^.P.h.4 , t r 8 E p.+.~.`.F.<X<X4X5X",
"8 j.r.5X1X5XP =.N.~ E a.:X:Xa.~ / W E / rXrXrXrX~.R.} A 3XK @X+.+X.X.XrXrXrXrXrXrXQ.OXR.J.+X!.X.;.q + 0.~ W 5 F o.c.J.Q.sX5X1X<X",
"; 4 - 4X<X<X7.{ j.~ P D :X:Xz 5./ L 9.e.rXrXrXQ.R.'.v.y.9 F Q p.X.~.'.MXrXtXrXrXrXK.P.!.OX{ [ >.X.; d.L.oX=.* d.=.{ '.~.R.n 1X5X",
"7 ; @ rX5X5XQ G / D p.u.:X:Xz z 9.0.6.t.uXrXW.XXT.l.e.9.- Q ~ E ~ S.H.9XrXtXrXrXG.XX+.*.#.] f.u.< *.!.Q.+X:.O d.G x.@.R.R.5 4X2X",
"w 1 i rXrXrXI L 7.E Y * :X:Xb z 1X1XE I rXrX`.Q.{.~ _ 9.g O r.~ ~ %X@XrXrXrXrXO.=.S.j.e.F R t.@ ^ `.!.[.O.-.g K Q %.x.o.Q.5 1XrX",
"wXr 5 4XrXrXu.u.L r.T 5 ; :Xz z 1X2X1X2 6 K.U.A.I D D > tXrX) e.~ } @.rXrXyX[ S.-.O.Q ! e.Z 4 8.G.K.XXz.S.;.1 ~ P ^ @X#.@.7 + rX",
"tXrX1X<X1 , rXe.E i.e 7 ; :Xz z 1X5X- 5 , ~.o.X.e.e._ e tXqXO e.! 7.*.yXrX .M.>.A.e.F ( 9.z v D R.W.=.:.k.7.; ~ 3.a.| @.] e 8 & ",
"rXuXrX6 5 * rX4.P rX- 5 q :Xc z 8 e O e z.} o./ R 9.5 rXsXrX$ Q L ! O.yXrXO.V.F / F T p >Xx D @XR.#.c.;.E / x 6.~ Q W z.@.$ ; $ ",
"rXrX8 O w 8 rXrXrXrXwX& . :Xz z & $ 4 + #.O.W G H u.rXrXaXrXrXe.7.~ *.  e ;.Z Q 9.t ; 3 :Xz L j.X.#.{ ~ u.e.V x q./ e.e.#.p @ q ",
"rXrXq 0 ; @ rXtXrXuXrXrX6 :Xx - 3 g e =.O.a.P ~ 5.8.rXrXrXrXrX7.i.~ v.M.# @ rXyX1 % , w :Xz =.C.-.;.F ~ ~ yXtXwX% 6.H L %.3 3 6 ",
"yX2 3 * 4 o rXrXrXrXrXuX:X>Xz 4 5 = [ o./ A w.4 : 4 , rXtXrXrXaXL ~ H z.3 4 rXrXr $ - @ :Xr.{ @.B.S w.! aXrXtX% 3   a.e.x.4X3 3 ",
"rX4 4 e w e rXrXrXsXwXrX:X:Xz ; q - N.W U ~ fX7 O g 0 q rXrXaXaXrXT 0./ , rXrXrX9 = 9 q :XD &.l.5.5._ T aXrXq * 4 8., uX5X3XrXaX",
"9 4 q o 3 rXrXrXsXaXrXrX:X:X4 e o p 5 rXuXrXaX- ; 9 8 # rXrXuXaX8Xi # 3 rXrXrXaXwX1 0 8 :Xp.a.I E d.vXpXwX< * y $ 3 < rXrXrXrXrX",
"$ g $ 8 e tXrXyXsXaXrXQ.L.(.|.T.4 3 <XtX9XrXrXrX; 5 * * 9 rXrXrXgX6 ; aXsXuXoXI.'.Y.$ :X>X9.Q i.J rXjXpX0Xt o > 2 0 $ tXtXrXrXaX",
"* ; 6 4 tXrXrXrXyXU L.|.).Q.!.^.J.Y.1XtXrXrXyXrX; 3 + w < sXrXyXuX; rXrXrXR.`._.Q.T.i.,X>Xt.F 5X2XrXbX~.'.|.;.5 e # aXrXrXrXe , ",
"uX* `.}.J. XG rXrX) Z.} _.+X'.!.+XF.G.rXtX8XrXrXrXw $ 9 t rXuXrXrXrXtXtXtXP.h.X.T.R.W.6X:Xc z 2X<XpX.XQ.).#.E 3 3 8Xm.sXrXuX4 8 ",
"eX XR.W.).o.~ g 8 @ y.' >.@.' @.{ x.(.W.aXrXrXrXrXrX7 .XF.&.e.rXY./.j.<.rX' v.B.X.M.@X..:Xz z 1X7X(. .>...e.a e Q.!.[.xXjX; w * ",
" X'.W.`.] N.e.* *.' > s.{ M.N.{ o.] ] c.rXrXuXrXtXuXU.R.'.Z.z.; `.Q.+.O.; h L e.^ O.@X-.:Xc b 3XM.[ o.E i.( O E ..%X).J.lX= $ 7 ",
"!.^.] -.c.L O o.!.`.$.6 e.F T #.B.M.@XN.X.e > uXrX].F.!.:.o.*., ].Y.#.#.[ o , t.K u.*.B.6XB b o.{ O.g.~ F q &XE e.#.F.J.z + p A.",
"T.*.c.+.H d.h v.R.+X|./ e ~ F t.Z G z.{ >.< , r m H.].G.} } L 3 P.Q.S.S.j.d.-X* R Q i.L #.z v N.^ Q 9.) 8 M V P y.T >.+X$Xk f >.",
"} A.#X,.P e C =.E.I.E.l.! - ~ q.r.L Q { ] h X = 7 ~.W.Z.N.s.7.: ~ (.k.z.o.K &X&X1 q A R f.z v ! / P / ; m.m.M M 0.T L { n c :. .",
":. .z.L e.; a.,.~.`._.-.C v a.~ e.~ J p.~ 1 w q ~.] M.,.;.K F * u.P #.#.z.R m m m V ~ Z f.z z -Xm.u 7 5 , m.M m ~ f.u...>Xv 2.{.",
"+.V.5.e._ 7 G ' J.~.!.+.! t.b R Q e.7.L ^ b i % ;.j.Z.X.q.Q ( c E E ~ o.v.E z z z b z z z c B c z + + ; w 8 z x b L ^ K B x O.@.",
"/ ( 9.U 5., i.-.} R.U.l.6.( c z b F p.5.L z q X.X.@.z.T ~ a.B N 3 a.J @.:.e.5 = b b x z c b z b z b y 3 e - c c x z z c c c k.~ ",
"e.D E Q 7.lX~ W c.] 1.#.e.P kXvXhXxX~ p.~ bXlXz.{ B.E P ~ u.xXlXlXC p.5.W u.o g e kXlX|.T.>.lXlXlXlX= w & E. X_.bXjXvXkXlX$.<.~ ",
"e./ I e.O cXE K / [ #.+.( L lXlXzXzXxXb xXlXZ.>.S.t.i.I p.*XhXcXkXzXp.I ~ U % $   T.P.^.G.b.N.cXvXzXcX- x.`.^.Q.}.U.cXu ; x.G ~ ",
"I D 7.8.cXnX~ / ~ ) j.@.e.Q lXlXkXlXlXl hXvXN.Q U S P - # jXmXhXlXlXS Q ( K 2 t t W.G.W.%XO.@X:.= ^ T vX%XG.T.Q._./.- 3 ; P ~ t.",
"e.s.$ 1 p vXxXe.^ K 4.e._ / iXiXuXuXiXv gX4XK / p.^ p.q $ pX0XdXqXqXuXE ! uX3 $ J.Q.|.v.] @.~ 0 } #.v.< E M.@._..XT.!.. q f.W r.",
"f   8 4 : xXpXeX/ F p.F ~ ~ 7 9XyX9XtXz 8XyX! I ~ aX2 - t rXrXtXuXrX8X^ P rXrX7 E.W.X.-.z.X.r { `.R.;.Q 3 ~ X.X.C..X/.y > ~ F Q ",
"x w 3 3 $ wXrXtXtX/ J / ) H r tX7XgXtX7Xb tXsX7XtX8Xz y O rXsX# < 6 e sXtXrXrXE.K.>...#.Q W | N._.E.x.J , y.~ o.*. .B.% ;X:X:X>X",
"z ; o 9 y ; rX9XrXuXu.D e.L 8 rX4XrXrXaXz eXaXrX8Xz M rXiXrX3 8 3 q , rXrXuXrX#.z.*.5.t.q./ S.Q.XXU.Z.) % F 0./ @.c.+.X.<X$X6X:X",
"z 2X1Xo q 4 rXrXrXrX, 4 * 3 $ rXyXrXaX2X1Xz rXrXrXz ;XwXaXrX  t e 4 + rXrXtXS.z.#.e.~ ~ T -. .+XR.o.k.P uXy.I 7.e.+.;.@.:X:X:X:X",
"z <X3Xq e w qXrXrXe e q w 9 @ rXrX9X5X1X<Xz rXrXz &XgXyXrX, u $ 2 @ t uXrXrXl.>.E I E r.r.} {.!.Q.>.a.. sX3 L E L e.T ~ q.:X:X:X",
"z 2X<X<XtXqXuXrXtXe . g < ; sXaXrXaX5X4X<Xz x z z m tX0XrX+ w 7 e > rXsXrXrXN.E ^ 0.F / uXZ.#.{ ' >.9.rXuXrXH / R 3.t.7.R :X:X:X",
"z 2X<X2XrXrXrXrX<X$ & u r O rXrX4XrX2X4X5X1Xz m.-XM U.'.!.q - O $ rXrXrXyX@XQ A ! 3.p.tXF :.o.-.@X^ 5.rXwXsXwXr.6./ t./ D r.:X:X",
"e 8 1X3XtXrXuXrX3X@ 9 8 * yXK.I.R.N.<X<X<X5Xv m m z.H.|.`.G.w 8 rX9XrXrXrXE ) E A q.rXtX_ ] h.h.0.W P rXwXrXrXyX4 ^ e.9.7.L :X:X",
"4 q 5X3XsXrXrXrXsXy @ > 4X/.'.T.(.[ ' rX5X1X,Xx &X@.].L.XXY.E.aXrXrXsXrXrXJ e.i.> rXrXrXE f.E p.^ P rXaXrXrXrX* 3   : # :X:X:XO ",
"o r 5X1XrXrXrXrXrXrXrXrX'.^.F.R.x.#.( 1Xk.X.#.;...w I %.oX`.T.I.rXO 7 q 9Xe.e.rXrXrXrXiXQ Z / T P s.rXrXrXrXyX3 q r o t >X:Xr 8 ",
"; 5X3X3XrX3 e rXrXrXrXrXU.J.(.x.@.e.L 6 X._.E. X@.u.y / E ;.E.|.rXi ; % @ ; rXrX9XrXrXe.9.e.! 9./ + , rXrXrXrXq 3 < $ ; ,X:X; 5 ",
"z 5X3X3Xg 4 + i rXrXrX`.Q.+Xo.@./ ~ $ y  .J./.K.A.9.; W 6.U #.>.~.; t @ r 5 sXrXrXrXrXT d.u.H / q , ; 8 rXrXy - w @ uXdX:X:Xq a ",
"z 4X1Xq * $ p % rXrX^.(.@.' =.~ P P r - X..XE.^.X.e.8 W ~ P c. .v.+ 2 p + : 3 rXrXrXrXe.~ ~ rXrX4 1 0 > rXuX6 < o t uXfX+XT.E z ",
"z P.R._.< i . 1 rX4XZ...%.N.9.a.r.e.o t.:.E.J.k.A.I 4X/ / t.C B.{.8Xa 0 * 9 + 1XrXrXrXrXrXuXrXrX% e 5 < _.I.J.;.y pXfX X^.`.Q./ ",
"~.K..X`.!.p $ r rXM.x.>.o.+.( S t.4 ; e.b.L.`.j.+.~ 3Xq.^ S t.W v.4X2 o 4 2 q <XrXrXrXrXrXrXrXrXe . ; !.W.E.E.x.] uX'.K.`.Q.#.E ",
"Q.`.`.Y.].O 9 rXtXX.k...t.^ Z d.K , 1X^ / %X$.X./ E 4X$ a.E ~ ~ ] 2X4Xo O 0 % rXrXrXuXrXrXrXrXrXrX8 oXT.|.&.} 6.r.i ~.^.P...+.p ",
"&.z.@.'.T.@ g rXrX,.k.W I Q y.L 8 5X<XK I L A.#.0.E yX1X; ~ / ( 6.1X<X1X- < q ^.Q.(.rXrXrX0 3 rXrXW.R.`.S.{ g.E 4 + /.Q.^.>.x.< ",
"/ ' c.@.o.XXrXtXrX,.{ ) 3.e.6., 1X1X3X3Xf.~ l.} u.D yX1X4Xp.Z ~ u.2X1X4X> : Z >.`.Q.oXrX* . a rXrXE.J.+.{ a.A t.q 3 K.+X| ] >.4 ",
"F / @.l.%.+.rXrXrX~ ~ ~ E t.<X4X3X1X1X1XE / / o.~ ) rX1X5X1Xp.~ Q 2X2X5X1X< y.H z.&.R.6 4 q # yXW.T.<.O.-.e.! ~ 0 E.K.).x.A.e.- ",
"r.Z / {.@.b.2XrXrX~ P W ; % 5X3X1X2X3Xt < ( L x./ 9.rX1X4X3Xe.e.P 1X1X1X5X5X~ 9.+.O.x.W.- , uXuXM...v.I 5.~ P q o '.!.S.k.=.W e ",
"J g.~ P k.{.tX5X4XC ~ e 6 , 4X5X1X2X1XO : 1 0.r.C s.=XrX5X4X1X4X1X1X2X4X8XrXL ( L S.=.M.u @ fXfX..N.r.K ~ p.~ * fXH.<.c.*.T 6.;X",
"v / C y.Q H z.qXrXrX+ q q < 8X5X1X1X$ > q w K e./ 5.n rXrXrXrXtXrXrXrXrXrXrXrXe.r./  ...@ dXfX] X.! J / ) T q fXwX;.} } d./ / :X",
"z 5Xr.~ ~ E ) q O M &X6 ; q m m m m 3 y $ 7 : ~ f.z z =X;Xn m M m.m m m m.m m m 0.I E :.m.&X-X*.y.G Q Z Z g.=Xm ;X=.j.s.K t.3 :X",
"z <X4Xe.K r.P y w &XM m a o m.&Xm V o e 4 - m m M c z n M ;X=Xm m M M m m m m m m D i.{ &X&Xr.E I p.6.V M m V m ~ K E E D 7.:X;X",
"z v M M M % % * % M m ;X* w &X!.oXH.].U.G.m m m ;XB c b M M M m &Xm.&Xm.m m m m m m G E V =XZ W t.m.m.n N n m $XW ( 9.^ R m <Xv ",
"b d v ;X6 * e * q v n M m m @X!.'.).T.E._.F.m V M d v z ;Xn m.;XM M m m m m m m V m m m M m m m m M n v z v n M / ~ e.9./ z b d ",
"z z z z - * u 3 z z x b z z &.l.| @X>.J.!.).W.z b z z z z b z z z x z x c b z z z z z z z z z c x x v b B c c b L 5.) 6 + B z v "
};
