/* XPM */
static char *_581513380980[] = {
/* columns rows colors chars-per-pixel */
"64 64 250 2 ",
"   c #2A783A",
".  c #357C3C",
"X  c #37783D",
"o  c #3B6B3B",
"O  c #42773A",
"+  c #2E7B47",
"@  c #347643",
"#  c #3B7544",
"$  c #347D44",
"%  c #3B7C45",
"&  c #3B754B",
"*  c #347C4B",
"=  c #3B7C4C",
"-  c #34744B",
";  c #3A7552",
":  c #357C53",
">  c #3B7B52",
",  c #387A5A",
"<  c #30744D",
"1  c #437B45",
"2  c #427B4C",
"3  c #447449",
"4  c #427C52",
"5  c #457756",
"6  c #446F47",
"7  c #7D7E7C",
"8  c #807F7A",
"9  c #1C9438",
"0  c #1E8B31",
"q  c #248C3A",
"w  c #278838",
"e  c #36843C",
"r  c #25963B",
"t  c #3D9C38",
"y  c #2C992E",
"u  c #3DA33C",
"i  c #3CAB3C",
"p  c #39A736",
"a  c #3BB037",
"s  c #449C3A",
"d  c #4D9B37",
"f  c #43A536",
"g  c #43AB35",
"h  c #43A43C",
"j  c #4BA43C",
"k  c #43AA3C",
"l  c #4AAC3C",
"z  c #4CA535",
"x  c #55A73B",
"c  c #48AC32",
"v  c #79BB3A",
"b  c #74B736",
"n  c #3EC03C",
"m  c #6AC53C",
"M  c #78C338",
"N  c #6DCA24",
"B  c #1D9047",
"V  c #2D8444",
"C  c #278948",
"Z  c #348344",
"A  c #3B8244",
"S  c #35824A",
"D  c #3B824C",
"F  c #358A49",
"G  c #259444",
"H  c #379B48",
"J  c #298953",
"K  c #348153",
"L  c #3C8253",
"P  c #368A55",
"I  c #299354",
"U  c #3DAB43",
"Y  c #3DA545",
"T  c #3DAD4C",
"R  c #1FA044",
"E  c #42824D",
"W  c #428545",
"Q  c #459D4B",
"!  c #489C46",
"~  c #569E45",
"^  c #438255",
"/  c #589E54",
"(  c #44A442",
")  c #4BA344",
"_  c #44AA43",
"`  c #49AA42",
"'  c #44AA4B",
"]  c #47A64A",
"[  c #55A745",
"{  c #43B244",
"}  c #49A554",
"|  c #55A752",
" . c #4BB251",
".. c #6CBD47",
"X. c #7CBC44",
"o. c #74BC4B",
"O. c #79BA48",
"+. c #79B354",
"@. c #5D946A",
"#. c #7C8B7C",
"$. c #779379",
"%. c #659375",
"&. c #61A05A",
"*. c #6CC445",
"=. c #7CC244",
"-. c #78C547",
";. c #74C74F",
":. c #6DC355",
">. c #82B83B",
",. c #88C63D",
"<. c #82BD44",
"1. c #86B749",
"2. c #88B854",
"3. c #83AC44",
"4. c #87887A",
"5. c #92847D",
"6. c #888E78",
"7. c #91A37D",
"8. c #87C548",
"9. c #83C457",
"0. c #8EC464",
"q. c #8F7B92",
"w. c #7D8B86",
"e. c #7C9484",
"r. c #729692",
"t. c #848782",
"y. c #858A83",
"u. c #8B8C85",
"i. c #858C8B",
"p. c #8C8D8A",
"a. c #898585",
"s. c #938B85",
"d. c #978688",
"f. c #8C938B",
"g. c #879585",
"h. c #94948A",
"j. c #8A8A92",
"k. c #9A8993",
"l. c #8B9892",
"z. c #9D9C9C",
"x. c #979897",
"c. c #A49D9D",
"v. c #AA9D9C",
"b. c #A89997",
"n. c #B19C9C",
"m. c #A7998E",
"M. c #9CA58B",
"N. c #8CAC9A",
"B. c #9DA39D",
"V. c #9CAA9C",
"C. c #97A899",
"Z. c #99B69B",
"A. c #8CB583",
"S. c #A5A68C",
"D. c #A3AC95",
"F. c #A4A49D",
"G. c #ABA39D",
"H. c #A3AA9C",
"J. c #ABAC9C",
"K. c #AAA692",
"L. c #B2A59E",
"P. c #AAB297",
"I. c #9E9DA3",
"U. c #9D9FA9",
"Y. c #9A9EB5",
"T. c #A39EA4",
"R. c #AA9DA4",
"E. c #A59DAB",
"W. c #AB9DAB",
"Q. c #B29DA4",
"!. c #B39AAA",
"~. c #A49DB5",
"^. c #B49DB6",
"/. c #9DA4A3",
"(. c #9CAAA3",
"). c #9DA4AB",
"_. c #9CAAAB",
"`. c #94A7A5",
"'. c #9AB2A5",
"]. c #9CA8B4",
"[. c #8DADA6",
"{. c #A4A5A4",
"}. c #AAA4A4",
"|. c #A4AAA5",
" X c #AAAAA5",
".X c #A5A5AA",
"XX c #ABA3AB",
"oX c #A4ABAB",
"OX c #ABAAAB",
"+X c #B1A4A4",
"@X c #B3ABA5",
"#X c #B2A4AC",
"$X c #B2ABAC",
"%X c #BAA7A9",
"&X c #A8B5A9",
"*X c #B5B5AD",
"=X c #A4A4B2",
"-X c #AAA4B3",
";X c #A4AAB3",
":X c #ABACB2",
">X c #A7A6BA",
",X c #B7A8B5",
"<X c #A9B4B5",
"1X c #B4B4B3",
"2X c #B5B6BA",
"3X c #C2B6B8",
"4X c #C999B1",
"5X c #96CCB4",
"6X c #B3C4BA",
"7X c #A8D4B9",
"8X c #A6CCB5",
"9X c #9FACC4",
"0X c #AABBC6",
"qX c #B3B3CA",
"wX c #B19CC5",
"eX c #C5B9D8",
"rX c #9EC6CA",
"tX c #9DCFD4",
"yX c #AAC9CB",
"uX c #B4CBCD",
"iX c #B6C8C9",
"pX c #AAD5CB",
"aX c #A7D7C8",
"sX c #B6D5C8",
"dX c #ACCBD4",
"fX c #AECDDB",
"gX c #A8C7D6",
"hX c #BBC4D5",
"jX c #B3CCD3",
"kX c #B9CAD5",
"lX c #B4C5DB",
"zX c #B3CCDB",
"xX c #BACDDC",
"cX c #B4C4D4",
"vX c #A9D5D8",
"bX c #B3D3D4",
"nX c #B3D3DD",
"mX c #B7D7D9",
"MX c #B2E1CB",
"NX c #A7CBE6",
"BX c #B2CCE2",
"VX c #B8C8E5",
"CX c #A9D3E4",
"ZX c #B6D4E4",
"AX c #B7CAF3",
"SX c #9ED7E2",
"DX c #C2CAD7",
"FX c #C2CCD2",
"GX c #C4CAE4",
"HX c #C1D2EE",
/* pixels */
"k l *.-.X.<.X.=...l f k _ k u k _ u l ` i H G Z = $ = K q { f j k k u ( ] k M k >.*.z _ _ ` s k _ q % L . = F & # , w p -.1.b -.",
"f d +.P.6XcXfXvXxXjXjXzXBXzXzXzXkXnXvX0X,X@X7./ g k ( 2.b k ! U <.8.X.8.k ( ) +.O.o.h U Y ` u k i ) t q E > # Z G s ` p l f { k ",
"0XgXZXnX0X]. X@XkXzXzXnXBXfXjXzXgXkXxXBXCXvX<X=X' g v m ,.<.1.-.:.*.h i k uXvXgXvXZXkXiX&XA.| _ l i _ ( v -.k Q i } c z T d &XVX",
"cXiXFX*Xv.G.|.|.H. X|.F.H.F.{.}.:X|.B.K.L.L.;XzXuX[ >.1.O.O.X.*.M X.kXbXVXmX'.4Xv.v.}.;X2XDX0XmXz t a U *.2.-.O.,.u f <.2XaXZXG.",
":X=X/.(.|.|.{.W.{..X.X/.{..X{..Xv.{./.oX1X$X{.F.;XNXvXQ -.a 2.v ! ZXsXtXDX&XH.N.H.V.}.R.XXOX_.&XzXnX} x i x v v 8.u *.AXgX&XR.(.",
"J.H.)..X=XoXI.=X.X.X|.}.{.}.}.}.J.}..XE.,X2X$X{.OXJ.|.f.Y z c _ l NXCX@XwXG.W.3XOXoXoX_.).)..X.XH.<XyXOX( f -.-.>.FXZXcX_.H.{.,X",
"F..X-XE.}.J.D.H..X}.}.}.{..X.X{.)..X}.OXoX{.F.F.#Xx.!.Z.s ] i O.=.iX.X@XV.E. XF.v.c.{.|.|.{.XXQ.].`.2XpX( l +.v ( dX X;X>Xv.K.D.",
"{.{.}. XJ.F.x.~.{.{.F.}.F.{..XoX#X{.|./.T.}.OX.X(.%X).G.r u _ ) *XfX}.M.=X=X=XV..X XG.}.{.F. X{.F.,Xb.1Xe.C x i CX/.XXD.R.|.`.>X",
"|.{..X{.B./.{.{.|.|.{.|./.|.{.{.|.|.{.{./.|.{.{..XT.(.V.S e t k jX>X,XF.F.|. XT.Q./.(._.OXR.F.oX.X X/..Xd.Z Y j iX|.:XN.'.b.{.|.",
"{.{.}.}.}. X}.R.XXR.XXT.XXR.XX}.T.XXXXW.W.}.XXXXoX#XR.u.B $ r ] vXB.V.v.E.U.`..X'.R.|.B.+X}.oXz.(.oX(.M.$ * r s <XXXT.!.%X}.+XXX",
"oX.X/.{.{.{.}. X{.{.{.|.{.{.{.{.{.{.{.{.{..X{.{.XXQ.G.u., L = = %XOXF.H.$X>X=XG..X{.+Xv._./.{.|.{.j.5.V D * > Z m.&X}.#X[.(.}._.",
"I./..X.X.XF.|./.F.F. X{. XF. X{.G.|. X{.{.J.F.F.`.|.@X#.= - + = ,Xf.R.E.W.D.v..Xc.p.T.,XQ.B.&Xz.p.5.C 4 > % - 2 I h.(.{.b.(.}.(.",
"$X.X.XOX}.XXXXoX|.{.{.{./.{./.oX{.|.{./.{..X.X/.{.|.4.J = + 2 F G y./.V.&X!.oX|.-X.X).C.XXQ.c.f.4.C Z + = E Z = * s.@XoXI.-XR.R.",
"8 s.p.8 d. X|.i.E..X-XXX-X.XW.T.E.XX.XW..X-XXX.Xa.6.J X D A 2 # L 9 | 4.j.w.p.XX(.c.%XC.e.d.#.J = > + = - < 5 A * I a.a.e.d.i.j.",
"L + > $.h.4.4.s.f.t.{.t.|.4.x.t.u.f.p.u.p.h.h.p.C E 2 P $ 6 D S . % . C y.j.l.#.t.d.$.J J & 4 = < L S 2 E P * X Z % % $ A = = & ",
"@ $ S S & > > : = = = D @ = * = * = = * = L * @ Z 3 + $ 2 = - L > = > & V $ # 4 K = 2 % D $ % % % 0 ` ` t k j U U ~ ( U _ h ) r ",
"F * = > * = A * D A < = e 6 5 S & = = : : : $ D 1 1 $ : > > D $ . A * D 3 . # G ( _ ( _ k h k ] u  .( z ~ 5XVXzXZXdXkXuXZ.&.! p ",
"h i k h ( _ _ j w * 4 Z V r h v m ) f l f g j f H ) k l f h { i G , 3 , & , r p k f h f f f h h | 5XCXgXdXBX0XsXpXpXjXBXnXdXpXbX",
"vXuXcXBXAXkXZ./ { X.<. ._ ..1.v v 2.7XAXyXyXnXAXaXaXjXlXqXDX7X@.) $ : S = 9 o.8.v 0.8XbXAXzXuXsXkXqXbXmXcXAXDX XR.XX2XuXzXfXzXjX",
"hXbXpXbXcXbXaX&X5.Q H ( 8.a 9.M 9.8XxXzXVXuXcXzXBXxX<X|.1X/.'.pX,Xy 3 . A } u <.gXlXcX2X|.T..X>XJ..X;XH.F./.;X_.W..X{.B.V.(.H.F.",
"`.:X,X|.B.}.qXbXoXr g X.>.M s 0XlX6X9X=XOXJ.V..XF.F.F.I.I.XX XB.aX.XL & . ) k mXmXyX<XC.B.H.oX:XD.OX{.z.1XXX/.{.;XoX/.{.F.}.W.#X",
"^..X)..X{.C.B.R.H.q.F q ` _ 1XyXC.Y.F.D.}.{..X{.XX{./.<X=X/.}..X~.;Xw > G s iXgX:X].T..XG.+X XT.>XI.H.V.C./.OXG./.T.}.+XXX.X).oX",
"{.G.G.J.G. X-X>X.XH.I + i ~ yX$XF.S. XXXR..XG.G.E.{.|.|.z..X2X{.|.+XC.$ w T pXqXJ.F.}.|.{.F.{.{.V.{.XXW.G.b.H.|..X.X.X{.F.{.F.H.",
".X/./..X.X).H.S. X{.a.3 G p.V.{.}.-XI./.:X/.x.OX{.OXF.{.$X}.{.H.C.^.-XZ C >XK.R.}..XT..X.XoX.X.X}. X|.z.I.I.E.-X}.{.{._.oX.X}.R.",
"oX.X.XI.oX{.|.{.Q.:XY @ 1 l.E.}.*XH..X/.#X/.R.}..X}.{.|.{.{.{.T.{.{.v.I C {.#Xc.{.v.C.@X.X{.{.;X{..X{..Xz.z.{..X/.{. X|.|.F.}.|.",
"F.F.@X{.{.B.|.{.B.D.j.P * t.(./.(.|..X{.XXoX.X).{.{.F.{.{.{.OXOXT.#Xf.& 3 (.`.OXW.=XOX/.F.}.}.M.}.{.}.{.T.F.T.{..XT.XX/./.}.T..X",
"|.c.c.z..X.X.XE.,XC.d.3 & G 5. X#X!..XG.{.F.F. X{.|.{..X.XR.XX.XoX}.4.$ # G.<Xx.J.N.F.`.$XT..X=X{.{.{.oX{.oX.X|.|.{..XoX).OXI..X",
"OXXX+X.X.X{.XXR.~.w.r & $ Z C 6.i.p.f.F.V.OX/..XV.|.}.}.}. XOX{.F.p.J D % g.I.-X}._.#XI.R..X{.{.{.{.{.{.{.}.{.{.x.F.F.}.{.}.}.}.",
"_.B.B.F. XD.M.g.4.F Z ; ; 5 A D # 1 V * P %.i.k.p.i.a.i.i.f.l.l.w.: - s 0 B s.s.R.Q.B.#X.X.X|.|.{.}..X{.|.{.{. XF.OX.X.X:Xz.OXz.",
"!.XX$Xl.%.> : + 5 X K % = + > ; = D = = = 5 = @ 2 = ; = > * D @ - 5 @ 0 Q B 5 * F & P $.e.y.d.T.p.g.p.p.y.u.p.u.p.p.i.a.z.f.B.l.",
"= = = & > % D D + S 9 k ( k C O K * - # 3 # O % ; > : L ; @ 2 # e % w ` ( ] 9 e S Z S = = L > = = > = > = > = = , : P . F V V   ",
"i i k h h ( ( ( ) f 1.X.=.( *.X.>.=.-.k h U ' U f k k p g x *.-.( ! U g l s _ k ! w X V 2 & * = = % $ D * % = = X w ] j k k p  .",
"h ` f z *...l u ] k M M O.<.i o.g 8.M ;.f ) i ] ) U ' ) z o.O.j v -.k j a o.-.1.8.i 9 2 $ : % > 4 ; K C i p _ ( k ( ' ( i k x O.",
"lXBXfXyXDXFXcXZXxX1X}.+.M 8.M j s O.1.v k ` ( p k p ` ..v 8.O.i _ ..[ &XBXFX;.N v s { o.<.X.M u c g h h g l k k k | Z.hXGXBXvXvX",
"nXZXCXfXxXkXdXdXuXcXaXHX<Xs ` f  .t O.=...M 2.>.a [ M.3XdXvXpXbXlXGXtXkXgXhXcXxXj ] p d O.X.,.m @.5XmXzXlXxX0XzXvXrXnXmXyXdXdXlX",
"H.&XiXiX&XH.J.&XV.XXz.#XZXvX0XG t  .b 1.<.SXDXuXCXNXzXxXkXyXcXBX8XkXbX1X&XL.oXoX{.mXd Y ;.b 1.<.aXdXcXBXzXkX0X.X#Xb. X$XoX.XW.!.",
"|./.).;X)..X{.z.>X&XoX X+XI.G.q.C m b d VX7XdXzXFX,X}.I.|.|.{.+XwXW.|.F.oX.X/._.;XC.VXC a T O.AXhX2X=X/.|.C.{. X|.oXXXW..XF.V.D.",
"G.}.:X.XT.T.{.XXm.;X,XW.C.D..Xg.q R C vXhXCXjXqX.X.X_.C.{.}._..XC._._..XT.$XR.G.H.K.].> p z X.iXkX).}.@XK. X1X/.I.}.F.F. XF./..X",
"{..XE..XoX|..X{._. XG.{.XX%XoXz.y P , vXiX*XB.{..XR.{.H.%X#X.X/.}. X{.{.I.2X XC.).L.L.1 { _ { fX2X|.b.}.+XT.I.:X{.OX{.c.F.R.OX|.",
"{.{.}.}.F.F.{..X}.}./.C.OXI.|.%X6 S ; S.OXT.1X*XV.}.|._.E./.(.J.}.T.-XOX}.F.R.;X.X{._.; ' ) p bXB. XoX_.`.;X.Xb.F.{._.oX/..X2X{.",
"{.{.{..X.X.X{.{.oXXX_.F.F.oXR.|.% V = G R..X<X,XG.{.}..X}..X{.|..X}.}..X{.}..X.XC.+XF.* Q k U kX.X{.{.{.{.}.{..X|.}..X{./.}.}.{.",
"}.{.{.{.{..X{.}.Y.%XV./.^..XR.w.> ; = $ e.$XH. X|.}.{..X{..X}.{.|.{.B.B.|.(.{.}.-X=X}.$ q a p nX{.|./.x./.|.{.(.{.R. X{. XR.}.B.",
"{.{.z.z..X{.{.{. XC.<X{.H.|.oXk.>   ^ 6 6.C.oX{.oX|.|.(.F.{.|.F._.{.{.OX_.I.G.Q.R.U.e.s V u [ GXn.+X}._.{..X{.oXoXQ.R./._.}. X_.",
".X|.{.|.|.OX{.F.J.v.x.#XW.j.$.q 5 Z = L V 5.;Xb.}.{.{.F.F.{.G.T.R.T.}.XX!.b./.[.&X#.J o % G H uXN._.Q.Q.XXI.T.+X{.`._.OXF._./.R.",
"|.{.{.{.}.{.z.x.U.|.h.t.j.$.J S >   * > S J j.i.R.XX}..X{..XoXoXOX|..X.X:X:XT.u.j.4.& * = * U k {.{..X{..X.X_./..XW.}.R.}./.XXOX",
"p.p.u.p.u.f.a.4.j.p.q.$.J q % S & S D V . e X q a.y.u.p.u.y.y.i.4.p.p.t.7 u.h.s.i.C 4 + * ; 9 i s.b.OX/.{.}.}.{.`.x.c.u.x.7 p.4.",
"= & * = = = : = @ = ^ $ & 2 w >.-.j ~ t } r A L F S * > ; > * S s.y.e.f.d.s.%.J &   Z 1 2 ; & A I %.h.d.u.e.4.s.q.6.g.4.$.P I & ",
"$ % % = = D $ = S 0 ( k f X.-.o.-.~ i i ~ s ;.h Y e Z % = = . Z > - > > - > D @ * > 5 Z Z 2 A ; = = & = > , * = K & ; = S + $ % ",
"1 & K * 2 2 q h k ( k f k k u u [ N.c ' Y v -XD.+X.XN.&.s k U k C w Z L . D 4 * * q U U / q 3 * = = = = @ = = = q r q % % Z = = ",
"_ u ] i T yXZXuXjXjXkXkXzXjXjXbXrXAXpXuXpX7XBXlXuXdXvX7XvXpX2.>.O.[ ) d [ p u k z 1.m ,.m k p z _ h h j _ _ k h ( Y U | h U _ h ",
"=.v ~ sX6X3X9X*XyXyXjXjXdXjXbXjXbXbXfXwX3X).B.E.^.XX1XqXVXfX5X0.f ] 1.<...i -.<.<.;.1.b =.( 8XgXfXdXbXmXdXbXbXbXfXyX*XM.Q u s [ ",
"*.2.7XAXoXG.'.+Xc.R..X.X{.{.{.{.L./._.W.#XV.(.@XV.H.oXOX.X=X}.$X1Xk *.M <.*.+.>...v p <X].4XiXAXkXkXkXuX<X).;X:XvXxXBXfX#X7.f *.",
"8. XVXH.T.^.&X_.XX.X}..XoX.X.XoX+XT.J.|.oXD.).R.H.{.~..X{.F.D./.&XaX2.M ;.O.M ] ) 7XAXkXiXmXlX.XoX/..XXX X X+X+Xb.}.V.'.#Xx.G r ",
"_ kX{.H.].E.,XJ.{.F.R.F.G.{.G.{.|.(.F.V.B.+XXX-X/.F.R.>XXXD.=XoX^._.V p h ( j h ZXjXjXVXCXkX*XV..XoX:X<X}..X{.F. XV.}.XXY.:Xw.3 ",
"i.s.).v.'._.G.v.{.{. X|.{.{.|.oX.XT.!..X.XW._.`.XXL.F.D.~.U.H.9XB.@X0 g f ( ` U MX X{.oX.XB.{.oXF..X$X*X}.F.{.|.~.E.H.V.b.+Xu.& ",
"C y.|.|./.{.z.]..X{..X{.{.I.{..X|._.}.{..Xv.|.K.=X|.F.=XOXK.J.b.{.W.B f } a ! bX>X,Xm.Z. X=X!.|. X}.}.}.{.{.{.{.oX X/.T.>X=X#.D ",
"S d.{.{.F.|.{._.}.F.(.{.}.{.}.oX.XT.I..X.X{.{..X/._.R.{.{..XZ.l.}.+XX r ! ' tXkX{.|.|.|.{./.{.{./.{.OX{.F.F.z.c.}.{.oX{.G.C.6.4 ",
"# G C.+X;XR.}.@X}.}.{..X}.}.{.{.{.{.{.{.{.}.}.T.@Xb.|. X.XXXE.!.].W.Z = r w pX,X#X#X-X#XXXXXXXXXT.{.}.}.{.}.{.}.V.z.!.,X_.{.C % ",
"@ D G a.F.~.{.B.=X;X.XI..X.X{.{.{.{.{.OX{..X{.{..XE.`.=X{.C.@XG.=Xr.= 5 $ . bX.X{.{.|.{.{.{.{.|.#X XoX/.(.(./.OX_.oX+XN.m. X: K ",
"L % < q s.Z.-X#XI.OX{.{.R.z.x..X{.{.{.OXz.|.{.|.R.$X{..XE./.:X`.6.S A * @ P XXW.H.F.{.{.F.F.F.F.`./.}.XX#XXX/._.}.z.#X_.{.4.4 = ",
"& : = ^ q 6.#.w.h.z.F.$X%Xz.k./.{.{.{.{.{.{.|.{.F.|.}..X}.XX{.d.C @ F 2 & > w.#X.X_.{.{..X{.oX|.|.XXXXT..X.XT.{.}.n.{.j.s.K D   ",
"Z O , = >   ^ 5 + * ^ @.$.t.a.k.p.f.F.4.f.f.c.u.`.w.k.d.t.$.D C 3 P * = = & I s.W..XW..XE..XE.W. X{.oX/.OXOXc.+Xw.f.t.B = $ $ ^ ",
"u q . L A P o = D $ $ > = > = > & * L @ = & ^ * ^ @ - > D D @ % e E # . Z Z X B u.u.u.g.p.p.u.u.6.u.s.s.y.@.L C = > P - 2 % 0 j ",
"' ) U (   A P # & = = = # % A $ D * @ D = = @ = + E * = $ w ] U p Y ~ _ ) Q r - = = = = $ = * = : : = ; > 4 = % > = 1 X 9 Q { k "
};
