/* XPM */
static char *_582869174712[] = {
/* columns rows colors chars-per-pixel */
"64 64 227 2 ",
"   c #42303E",
".  c #394B35",
"X  c #444139",
"o  c #4D4B3F",
"O  c #4B543B",
"+  c #53513D",
"@  c #3E2D4B",
"#  c #3F2445",
"$  c #3D324C",
"%  c #3C3A4C",
"&  c #3B2D53",
"*  c #3E3354",
"=  c #3A3757",
"-  c #482B4E",
";  c #44314D",
":  c #442B53",
">  c #4B2C55",
",  c #462C59",
"<  c #4C2E5A",
"1  c #522F5F",
"2  c #502D57",
"3  c #423452",
"4  c #433854",
"5  c #44335A",
"6  c #4B345B",
"7  c #4B395D",
"8  c #473556",
"9  c #533254",
"0  c #52355D",
"q  c #52395E",
"w  c #5B345B",
"e  c #592D61",
"r  c #4C3464",
"t  c #4C3667",
"y  c #543564",
"u  c #5A3462",
"i  c #533A64",
"p  c #593A65",
"a  c #5C3D6C",
"s  c #56386A",
"d  c #5A3A79",
"f  c #643A6A",
"g  c #643D74",
"h  c #693D79",
"j  c #3E4844",
"k  c #2D4259",
"l  c #37475D",
"z  c #3D5444",
"x  c #3B4464",
"c  c #464646",
"v  c #4A4646",
"b  c #444B44",
"n  c #4D4D44",
"m  c #45454B",
"M  c #4A474A",
"N  c #454B4C",
"B  c #4D4D4D",
"V  c #54444C",
"C  c #514C4C",
"Z  c #564B47",
"A  c #4C5145",
"S  c #455149",
"D  c #4D504C",
"F  c #425446",
"G  c #525145",
"H  c #52534D",
"J  c #58504D",
"K  c #4C4D52",
"L  c #4B4A54",
"P  c #514453",
"I  c #524C53",
"U  c #5A4E5A",
"Y  c #574A57",
"T  c #4C5154",
"R  c #465359",
"E  c #525253",
"W  c #555B51",
"Q  c #5A5B56",
"!  c #52525C",
"~  c #565B5C",
"^  c #5C5C5C",
"/  c #5C5658",
"(  c #624957",
")  c #615D5D",
"_  c #675957",
"`  c #5E615C",
"'  c #5A665A",
"]  c #5B745E",
"[  c #62625E",
"{  c #656858",
"}  c #706A5C",
"|  c #68715C",
" . c #4B4961",
".. c #5B436B",
"X. c #584966",
"o. c #5D5C61",
"O. c #595966",
"+. c #5D4074",
"@. c #5E4975",
"#. c #5F4679",
"$. c #5B4879",
"%. c #5E5371",
"&. c #4B5264",
"*. c #64426D",
"=. c #624C61",
"-. c #625D63",
";. c #615B6A",
":. c #61516E",
">. c #654376",
",. c #6A4572",
"<. c #64447B",
"1. c #6C447B",
"2. c #634B7D",
"3. c #6C4A7C",
"4. c #624A76",
"5. c #72477A",
"6. c #6B537F",
"7. c #685A77",
"8. c #745979",
"9. c #5D6262",
"0. c #5C676A",
"q. c #5F6A64",
"w. c #5A6470",
"e. c #646464",
"r. c #6A6564",
"t. c #656964",
"y. c #6A6A65",
"u. c #63656A",
"i. c #6B656B",
"p. c #666A6A",
"a. c #6C6C6C",
"s. c #72676E",
"d. c #726D6B",
"f. c #756D6A",
"g. c #6F7163",
"h. c #6C736D",
"j. c #697867",
"k. c #73736E",
"l. c #7A746E",
"z. c #737B6C",
"x. c #787765",
"c. c #6C6674",
"v. c #6C6C71",
"b. c #6B6679",
"n. c #6E6C79",
"m. c #656674",
"M. c #766571",
"N. c #736D72",
"B. c #796E74",
"V. c #746D7B",
"C. c #7C6C7F",
"Z. c #6D7273",
"A. c #6F7975",
"S. c #6D737D",
"D. c #6A7979",
"F. c #747474",
"G. c #7A7276",
"H. c #747975",
"J. c #797A76",
"K. c #747579",
"L. c #7A7579",
"P. c #757B7B",
"I. c #797A7A",
"U. c #817267",
"Y. c #827676",
"T. c #75887B",
"R. c #6B8779",
"E. c #84837E",
"W. c #593F80",
"Q. c #663C85",
"!. c #654381",
"~. c #6B4483",
"^. c #6C4C84",
"/. c #6D4B8A",
"(. c #6C458A",
"). c #734683",
"_. c #734B84",
"`. c #734C8C",
"'. c #784989",
"]. c #6C5687",
"[. c #725583",
"{. c #745B83",
"}. c #74558C",
"|. c #7A528B",
" X c #73588B",
".X c #7B5A8B",
"XX c #7A5683",
"oX c #734992",
"OX c #784793",
"+X c #6D5093",
"@X c #7A5293",
"#X c #785997",
"$X c #786881",
"%X c #6C7E80",
"&X c #747781",
"*X c #757D82",
"=X c #7A7D81",
"-X c #7D7D8A",
";X c #7A7587",
":X c #7A7D95",
">X c #6C6587",
",X c #81558A",
"<X c #814F96",
"1X c #815592",
"2X c #827682",
"3X c #758283",
"4X c #7B8285",
"5X c #76868B",
"6X c #7B858A",
"7X c #768B8C",
"8X c #7A8B8D",
"9X c #7E8B82",
"0X c #7C8790",
"qX c #748A93",
"wX c #7B8C91",
"eX c #7E9096",
"rX c #7D9298",
"tX c #758A89",
"yX c #7D8CA1",
"uX c #83848B",
"iX c #838B8C",
"pX c #848484",
"aX c #828D92",
"sX c #898F94",
"dX c #829395",
"fX c #8A9496",
"gX c #8A918A",
/* pixels */
"e.e.e.e.e.e.e.t.e.e.e.e.r.c B B B 6XaXqXeXwX5XdXwXwXaXiXwXiXwXwXaXuX8XwXaXaXwXaXqXrX6XsXc B K T e.` e.t.e.e.e.e.e.^ p.a.e.e.r.e.",
"a.a.d.a.a.a.d.v.a.F.a.a.a.^ E I p.K.*XaX0X7X5X3X8XwXwXwXwX7XwXwXwXwXwXwXwX7XwX6XwXaX6Xo.F.c K 9.d.F.F.L.F.F.F.F.G.p.a.p.e.k.d.i.",
"a.a.a.a.a.a.a.a.p.F.p.a.e.t.H M h.t.Z.aX6XaXfX8X7X7X7X7X7X7X7X7X7X7X7X7X8X7X7X7X8XiXa.[ y.K B a.a.a.F.F.F.F.F.F.F.F.F.a.a.F.v.a.",
"a.a.a.a.a.a.a.a.a.a.a.a.e.a.B B a.v.a.K.Z.Z.Z.v.F.K.K.F.K.K.F.F.A.F.K.F.F.F.K.K.P.Z.e.p.^ B E a.a.a.F.F.F.F.F.F.N.F.J.a.a.a.p.a.",
"a.v.a.a.a.a.a.a.a.p.d.a.e.e.B K e.F.a.F.F.I.F.J.I.G.F.G.G.G.I.G.G.I.G.F.K.F.G.G.h.k.p.) y.B I a.a.a.F.F.F.F.F.I.F.F.Z.a.p.h.a.h.",
"a.a.a.a.a.a.a.a.a.y.v.p.e.e.M H d.a.p.G.F.F.F.Z.F.F.F.A.A.L.F.F.F.F.L.F.F.F.F.F.F.G.[ r.e.E B p.a.t.a.F.F.F.F.F.F.Z.F.a.a.a.a.v.",
"a.h.a.a.N.a.a.a.N.a.d.a.p.e.D E Z.p.t.I.Z.F.I.F.Z.F.Z.H.F.A.Z.F.Z.A.F.P.Z.F.A.Z.F.k.e.e.e.B E p.v.a.F.F.F.G.H.F.A.Z.I.L.a.a.a.a.",
"a.a.a.a.a.a.a.a.a.h.p.a.e.e.B M p.v.a.F.F.F.L.H.F.F.F.G.L.F.N.a.a.N.F.F.L.F.F.G.F.G.e.p.e.M M F.a.N.F.F.F.F.F.e.iXA.Z.F.d.a.d.a.",
"a.N.d.a.a.a.p.N.a.a.d.a.e.e.B B a.a.a.F.F.G.F.F.F.F.G.F.F.G.F.a.a.F.F.F.F.F.F.F.F.F.e.e.e.B H a.a.a.F.F.F.F.F.F.H.F.H.F.a.p.d.a.",
"y.a.p.p.a.a.a.a.a.a.a.a.e.e.C T a.k.p.F.F.F.F.F.F.F.a.a.a.F.F.F.F.F.F.F.F.F.F.F.F.F.e.e.e.K B a.h.p.F.L.H.F.I.H.F.F.F.F.F.a.d.p.",
"a.a.a.Z.a.a.Z.a.a.a.a.p.e.e.D B a.v.p.H.F.H.F.F.F.F.p.a.p.F.F.F.F.F.F.F.F.F.F.F.F.F.r.t.t.B C a.a.a.A.I.F.P.a.F.F.F.F.F.F.F.F.a.",
"d.p.a.d.a.a.d.p.a.a.N.a.p.e.B B a.d.a.F.F.F.L.F.F.F.p.N.a.I.F.F.F.F.F.F.F.F.F.F.G.F.u.t.e.B B a.h.a.P.I.F.H.F.F.H.F.F.G.F.H.L.F.",
"v.p.F.F.a.a.F.a.a.a.a.a.r.t.K B a.v.a.F.F.F.F.F.F.F.F.F.F.F.F.F.F.F.F.F.F.F.F.F.F.L.e.e.p.B D a.a.e.I.N.K.F.I.G.F.F.F.F.F.F.F.F.",
"F.F.F.F.F.F.F.F.a.p.a.a.t.e.B B a.d.p.G.F.F.F.F.F.F.F.F.F.F.F.F.F.F.F.F.F.F.F.F.F.F.e.e.e.B B a.s.d.F.P.Z.L.F.N.F.F.I.F.v.F.F.F.",
"d.F.d.F.F.F.F.F.d.a.a.a.e.e.C B a.h.a.F.F.G.F.F.F.F.G.F.F.F.I.F.F.G.F.F.F.F.F.F.F.I.e.e.e.B C a.p.F.m.iXP.P.F.h.F.F.J.F.F.F.F.F.",
"F.F.a.p.F.F.F.F.F.F.F.a.e.e.B I a.v.a.F.F.H.F.F.H.F.F.a.I.h.F.F.F.F.F.F.F.F.F.F.F.F.e.e.e.B T a.a.p.Z.3X8Xv.I.F.F.F.F.F.F.F.F.F.",
"F.F.F.F.F.F.F.F.H.F.a.a.e.e.B B a.a.p.F.F.F.G.k.F.F.F.F.I.F.F.F.F.F.F.F.F.F.F.F.&Xk.t.u.{ H B | n.s.j.s.T.K.*XF.F.G.a.a.G.H.G.H.",
"F.F.F.F.F.F.F.F.F.L.Z.F.e.e.B B a.a.a.G.F.F.F.k.F.F.F.F.I.F.F.G.H.L.F.F.F.F.F.F.V.k.t.-.e.I L a.m.x.z.:Xz.A.V.G.F.F.p.a.F.F.F.a.",
"F.F.F.F.F.F.F.F.F.F.F.F.e.e.B B a.a.a.I.Z.K.P.A.F.F.F.F.F.F.F.F.F.v.F.F.F.F.F.I.F.F.p.u.e.E L v.| &X2X-XH.S.h.J.H.G.F.F.F.G.I.F.",
"F.F.F.F.F.F.F.F.F.F.F.F.e.e.B B a.a.a.F.F.L.*X*XF.F.F.F.F.F.F.F.I.J.I.H.F.L.F.F.H.I.t.e.e.D K v.j.N.0X#XA.l.H.F.F.F.H.F.a.p.F.F.",
"F.F.F.F.F.F.F.F.F.H.F.F.e.e.B B a.a.a.F.n.K.*X*XF.F.F.F.F.F.L.I.F.F.F.F.F.F.G.F.I.*Xu.t.[ A n a.v.M.>X@Xa.Y.h.F.a.F.F.F.p.p.G.F.",
"F.F.F.F.F.F.F.F.F.L.F.F.e.e.E D a.a.a.J.F.F.K.A.F.I.F.F.F.F.F.F.a.a.a.F.F.F.I.F.F.-Xe.e.[ A A a.M. X}.6.B.L.G.F.F.I.F.F.F.F.J.F.",
"N.F.F.F.F.F.F.F.F.I.F.F.r.e.D B a.a.p.G.F.F.L.Z.I.I.F.F.F.F.F.F.4XI.I.I.H.F.F.F.F.2X0.e.e.H B m.#X5.,.#XL.l.L.F.F.F.a.F.I.F.F.F.",
"F.F.F.F.F.F.F.F.F.F.F.F.e.e.B B a.a.a.F.k.F.F.F.F.F.F.F.F.F.F.F.F.G.F.F.F.F.F.H.h.uX;.p.;.I K ].`.OXt .Xp.2Xh.F.F.I.F.F.F.F.F.F.",
"F.K.K.F.F.F.f.k.F.F.F.F.e.e.H M a.a.p.F.F.F.F.F.F.F.F.F.F.F.F.F.K.h.;X X'.z.x.V.l.R.t.) ' Y 7.~.3.r !.%.M H A.S.G.F.F.B.F.F.k.l.",
"Z.Z.K.K.Z.F.L.I.F.F.F.F.e.e.B I a.F.a.G.F.F.F.a.F.F.F.F.F.F.F.F.x.Y.a.'._.].[.`.;X;Xc.M.u.T f h > ..{.( ( X gX6XwXwXwXwX8X3XD.D.",
"iX8XuX=XP.K.A.F.F.F.F.F.e.e.M D p.a.a.a.F.F.F.L.H.F.F.F.F.H.F.H.F.I K XX'.oX|.1XXX$.1...7.l q w s 5 4 P K N aX7XqX0XwXwXwXiXwX6X",
"~ O.~ o.~ ^ o.e.^ ^ ^ ^ e.p.B C p.F.k.p.I.F.F.F.F.F.L.F.L.F.F.G.-XO n X.#X6.1 <.^._.!.1.q k ; q y ..P N R O.O.O.-.-.) / / ) ) -.",
"^ ^ ) Q ^ Q Q / -.^ ^ ^ e.e.B B a.N.e.^ o.Q ^ ^ ^ ^ ^ ^ ^ ^ ^ ^ w.. G T #.8.,.s _.!.1.u ..: l @ - ; J O S ` ) _ Q [ ~ ~ ^ Q Q Q ",
"^ ^ ^ ^ [ [ ) Q ^ ^ ^ ^ ^ ^ B T p.d.e.^ ^ ^ ^ ^ ^ ^ ^ ^ ^ ^ ^ ^ O.O.C P ! ).3.,.6 g $.g 1 , l l  .L P C ) W W { ~ ~ ~ ^ o.9.9.' ",
"^ Q ^ ^ ^ ^ / ^ ^ e.^ ) ^ H B B B ^ ^ [ ^ ^ ^ H ^ ^ ^ ^ o.^ ^ ^ { ^ Z U m f /.Q.a t a y y 5 l : 5 >.5.XX=.-.e.o.e.) ^ o.^ ^ o.o.",
"B I B B B B B K B B c B T M E B B E M B c B K B K B H B B B K D K b V z L V X...g w i 5 < k 3 w y a 1.6.T N b E n B B B B B D B ",
"I c B B N T E B I I K E I I I I I I I K I I I I I I I T I I I K N ! K L B E B B < > 5 l k x & _.^.!.,.`.+XY B N n C B K T K E B ",
"B H t.sXaX8X=X8X7X7X7X7X7X7X7X7X7X7X7X7X7X7X8X8X7X7X7X7X7X7X7X7XwX8X8XsX6X0.T T S c b a.9XS H n [.!.u h 2.pXiXyX8X8XwX5XwXaX9.B ",
"K Z.iX6X5XwXrX5X8XwXwX8X7XeX8XwX7X8XwXwX7XwX8XwX7XwXwXwX8XwXwXwXaXwX0X6XwX6X6XdXaXaX6X8XwX0.! P P #X<.p i uX5XqX7XqXrXqX5XiXe.t.",
"K a.Z.dXqXrX5XdX8X8X8X8X8X7X8X8XwX8X7X8X8X8X8X8X8X8X8X8X8X8X8X8X5XaXaX8XwXiX8X3X6X0X5XwXdXwXm U + X.<.< 1  .aX8XwXaX6XsXK.i.-.r.",
"E d.y.q.7XwX6XA.G.G.G.G.G.G.B.G.L.G.B.B.G.L.G.F.G.G.G.G.B.G.B.G.K.L.Z.A.H.F.F.P.T.h.Y.G.r.H.J.b c W I p d 6 F.n.F.F.F.uXa.e.i.e.",
"c d.t.P.iXsXP.A.F.Z.F.F.H.k.F.Z.H.F.F.h.h.F.F.F.H.Z.F.F.z.F.F.F.F.N.N.F.J.F.F.F.N.F.B.I.I.a.P.Z.! B X U 0 q Y.n.J.h.H.H.~ p.p.9.",
"K a.d.a.4Xp.F.F.H.F.F.F.G.H.F.F.k.F.F.F.F.F.F.k.F.l.F.F.F.H.G.F.k.F.F.k.F.L.F.F.G.l.h.j.k.J.F.l.l.I L O f.i N.T.h.h.I.A.e.e.u.9.",
"K a.v.p.6XK.G.l.F.F.F.F.F.F.F.F.a.F.J.H.F.d.h.F.F.F.F.F.F.F.F.F.F.H.F.F.F.F.F.F.Z.P.A.F.I.F.N.P.x.e.&.A N.;Xl.h.L.I.a.N.d.) i.i.",
"B a.a.N.I.F.F.F.F.F.F.p.a.a.F.F.G.F.F.a.a.a.d.F.F.F.L.F.F.F.F.F.F.F.F.F.F.F.F.F.F.F.F.F.F.F.F.F.F.I.M B I.k.F.F.F.F.F.F.e.e.e.e.",
"K a.a.d.I.F.F.F.F.F.F.F.F.d.F.F.F.F.F.a.a.p.a.a.F.F.F.F.F.F.Z.a.a.F.H.L.F.F.F.F.F.F.F.F.F.F.L.F.F.F.e.B F.F.F.k.F.F.F.F.e.e.e.e.",
"B a.p.p.F.F.F.F.F.F.F.a.a.p.F.G.F.F.a.a.a.a.a.a.d.F.F.F.I.F.F.a.a.F.I.F.F.F.F.F.F.F.G.I.F.F.F.F.F.G.pXv.I.Z.F.4XP.F.F.F.e.e.t.t.",
"C a.a.a.F.F.F.F.p.N.F.F.F.F.F.F.F.F.a.a.F.a.a.a.a.a.a.F.F.F.F.F.F.F.F.F.F.I.F.F.F.F.F.F.F.F.F.F.F.F.d.F.I.h.F.F.F.F.F.F.e.e.r.u.",
"K a.a.a.F.F.F.F.a.a.F.F.F.F.F.F.F.N.a.a.p.a.a.a.a.a.h.a.a.a.F.F.F.F.F.F.F.F.F.F.F.F.F.F.F.F.F.F.F.G.N.F.F.I.I.F.F.F.F.F.e.e.e.e.",
"B d.a.a.F.F.F.F.F.F.F.a.F.F.H.G.F.a.a.a.a.a.a.a.a.d.a.a.p.p.F.H.F.F.F.F.F.Z.F.J.F.F.F.F.F.F.I.F.F.a.I.F.F.N.F.H.F.F.I.H.t.e.-.r.",
"B a.a.a.F.F.F.F.F.F.F.F.I.F.F.a.F.p.a.a.a.d.a.a.a.a.a.a.s.a.d.F.F.F.L.F.k.v.F.F.F.F.F.F.F.F.I.F.F.F.H.F.I.F.F.G.F.F.L.I.e.e.e.u.",
"B a.a.a.F.F.F.F.J.F.F.N.F.F.F.a.a.a.a.a.a.a.p.a.a.a.a.a.a.a.a.h.F.F.F.F.F.F.F.F.F.F.F.F.F.F.F.F.e.iXh.F.F.N.I.F.F.F.F.I.e.e.e.r.",
"B a.p.a.F.F.N.e.F.F.F.k.F.a.p.F.a.a.a.a.a.a.a.y.M.y.j.p.v.d.y.y.R.Z.h.p.B.l.F.K.F.F.G.V.F.N.K.&XF.F.F.F.H.F.F.F.F.F.K.P.e.y.^ p.",
"D a.a.a.F.F.F.F.F.H.F.a.F.N.a.F.v.a.a.a.a.a.a.a.f.c.a.h.g.i.a.F.8..XL.Z.N.y.j.I.F.F.K.I.G.k.F.F.F.F.F.F.G.F.F.F.k.F.K.*Xe.t.I K ",
"B d.a.a.F.F.H.I.F.d.v.F.F.F.a.F.v.a.a.a.a.a.a.v.j.v.n.} d.k.b.;.|.@XN.j.F.F.Z.f.Z.H.Z.K.k.k.k.z.F.F.F.F.F.F.F.F.G.H.*XI.e.p.~ E ",
"B a.a.a.F.F.F.F.F.p.a.I.G.a.p.a.a.a.h.a.a.a.v.a.~ a.f.c.{ a.V.#X~.|.G.H.&XI.V.s.k.H.Z.F.k.H.F.k.F.F.F.F.F.F.F.F.l.F.=XP.e.y.e.e.",
"B a.a.a.F.F.F.Z.F.F.F.G.F.a.a.a.a.h.a.a.h.a.y.a.K.k.c.y.S.a.[.'.^.}.) A P i.F.G.F.I.N.&XL.P.F.V.F.F.F.F.F.F.F.F.k.Z.4X=Xe.[ e.e.",
"K a.a.a.F.F.F.F.F.I.F.a.p.d.k.p.a.a.a.a.y.a.y.a.r.c.F.N.v.]._.).^.'.U M I k.j.j.C.L.c.I.F.F.K.K.F.F.F.F.F.F.I.F.F.A.4X*Xt.e.e.e.",
"H a.p.a.L.F.F.L.F.L.F.e.p.a.a.a.a.v.v.a.a.a.a.a.y.a.c.7. X@X~.0 ~.oXU N M y.N.;X.X{.:.V.v.h.F.K.F.F.F.F.F.F.F.I.F.H.P.Z.e.e.e.e.",
"B a.a.d.F.F.F.F.F.F.a.a.F.a.e.F.c.c.c.v.v.v.d.i.A.t.[ {.OXOX1.4._.~.K F C f.{.<X(./.+.;XH.F.k.F.F.F.F.F.F.F.F.G.k.P.6XA.t.e.e.u.",
"v N.a.p.F.F.a.I.F.a.a.a.p.p.d.a.f.#X@X5.C.u.m.U.] F.7. X@X3.r './.2.j C .X@X,X^.3.d [.I.F.Z.F.H.F.G.I.F.a.F.H.4X3X*X=XK.o.t.u.r.",
"T a.a.d.L.I.a.t.a.p.a.a.d.Z.F.a.i.}.oX`.{. X2.b.v.8..X|.~.y 6 3.>.6 X.7.}.~.<.>.p ^.@.F.=X6X*X*X*XP.P.3X3X3X3X%X3X4XP.I.a.9.p.-.",
"B y.p.a.p.F.I.I.F.k.F.F.F.F.a.p.C {.oX1.>.oX#X$.>.: |.).+.p y ^.9 ; 3.^./.h t p f ^.V W v.&X6X=X*X*X*X*XT.*X3XD.Z.F.E ^ t.e.e.i.",
"B a.F.p./ ^ / ^ e.^ ^ o.^ ^ ^ ) b I ^.g f W.<.|.1.y <.1.i : u < 4 4 ).Q.+.a t f (.s I o 9.~ Q W o.o.o.o.~ o.-.-.[ Q e.^ / e.t.e.",
"M a.p.e.^ e.^ ^ ^ ^ ^ ~ ^ ^ ^ o.b E : ,.f t y 1.<.6 i 0 : 6 u i = @ >.h 9 5 <.1.d 5 C G o.~ ' [ ^ ^ ^ ) -.) ) / H Q e.^ o.e.e.e.",
"E p.^ W ^ [ ~ ^ ) ^ ^ e.^ ^ ^ ^ ^ ! 5 * i h 1 t r  .@ 8 & : p 5 = , i 1 9 7 >.d ; Y o Q m.^ W O.^ ` ) ^ W Q ^ ^ e./ W ^ ^ ^ v.B ",
"B ^ ^ ) ~ ) ^ ^ E E E ^ ^ ` ^ ^ [ I j = i < y * & @ $ ; : 6 * 4 = t 8 - 6 t 6 3 M ^ n W O.^ [ 7.^ ^ ^ ~ B T ~ ` / e.` 9.` M I c ",
"B E M I M B E B E D B E K C B B G c E Y $ % = > r - 4 % > 5 = % 9 & - ; r < % 4 E m I ! K o O P I C I C C B I B K c B N E M B E "
};
