/* XPM */
static char *cd13655ff02d49e3e21f2dce04a8a385[] = {
/* columns rows colors chars-per-pixel */
"64 64 232 2 ",
"   c #187C3E",
".  c #257D38",
"X  c #297A47",
"o  c #297858",
"O  c #385B6A",
"+  c #3E597A",
"@  c #3A6179",
"#  c #5E5D5D",
"$  c #675D5B",
"%  c #5A6758",
"&  c #4D6950",
"*  c #63645C",
"=  c #656A5C",
"-  c #696659",
";  c #71685F",
":  c #4B4F6E",
">  c #47587C",
",  c #585B78",
"<  c #505968",
"1  c #675C68",
"2  c #795C6E",
"3  c #5B6664",
"4  c #5E646B",
"5  c #586E66",
"6  c #576672",
"7  c #646465",
"8  c #6A6465",
"9  c #646964",
"0  c #666569",
"q  c #6A656A",
"w  c #6A6A6A",
"e  c #676A68",
"r  c #656371",
"t  c #686876",
"y  c #747474",
"u  c #7A7A75",
"i  c #7B777A",
"p  c #767A7A",
"a  c #7C7C7C",
"s  c #777976",
"d  c #736B70",
"f  c #817C7C",
"g  c #867A78",
"h  c #1D883E",
"j  c #1E9D3A",
"k  c #238636",
"l  c #269D38",
"z  c #319A3B",
"x  c #1AAA2D",
"c  c #1EA938",
"v  c #25A32E",
"b  c #23AB36",
"n  c #22A53B",
"m  c #24AC3C",
"M  c #27A535",
"N  c #25B136",
"B  c #5BA21E",
"V  c #4DB539",
"C  c #50B12E",
"Z  c #68AC35",
"A  c #6BB93A",
"S  c #78B838",
"D  c #78AF36",
"F  c #77C52C",
"G  c #6AC537",
"H  c #78C538",
"J  c #78D23C",
"K  c #4FC028",
"L  c #1D8547",
"P  c #1B9246",
"I  c #1D8754",
"U  c #248543",
"Y  c #218B43",
"T  c #25834C",
"R  c #298544",
"E  c #269C45",
"W  c #278251",
"Q  c #219156",
"!  c #1EA842",
"~  c #24A645",
"^  c #25AC4B",
"/  c #4FB942",
"(  c #6FB84B",
")  c #79BA46",
"_  c #7EBC57",
"`  c #7E817E",
"'  c #778677",
"]  c #7B8069",
"[  c #79C745",
"{  c #7DD648",
"}  c #6AC045",
"|  c #85BC35",
" . c #96DE1B",
".. c #9CD40D",
"X. c #A4DB1B",
"o. c #A9DA12",
"O. c #8BE91C",
"+. c #95E512",
"@. c #9BE51A",
"#. c #9CEA1A",
"$. c #98EA16",
"%. c #98F318",
"&. c #8EEA0E",
"*. c #A3E419",
"=. c #A3F218",
"-. c #86C739",
";. c #82D238",
":. c #8CCF26",
">. c #97E824",
",. c #ADE220",
"<. c #A9DE2A",
"1. c #83B747",
"2. c #86857E",
"3. c #85C946",
"4. c #8CC854",
"5. c #3D5981",
"6. c #3E6582",
"7. c #455885",
"8. c #445795",
"9. c #757B82",
"0. c #7C7C82",
"q. c #767288",
"w. c #746E8D",
"e. c #827D85",
"r. c #817684",
"t. c #8A7994",
"y. c #7C8283",
"u. c #748282",
"i. c #7E9791",
"p. c #838383",
"a. c #898685",
"s. c #858B86",
"d. c #8A8B83",
"f. c #868689",
"g. c #8A878A",
"h. c #868A8A",
"j. c #8A8B8A",
"k. c #958A89",
"l. c #8C958D",
"z. c #92938D",
"x. c #9A9B8D",
"c. c #989986",
"v. c #8B8B92",
"b. c #888895",
"n. c #968C97",
"m. c #8D9193",
"M. c #8A9798",
"N. c #969696",
"B. c #9C9595",
"V. c #949994",
"C. c #9A9A94",
"Z. c #94969B",
"A. c #9A959B",
"S. c #959A9A",
"D. c #9B9B9B",
"F. c #A29D9D",
"G. c #A79B99",
"H. c #A99391",
"J. c #9CA393",
"K. c #9EA39D",
"L. c #96A797",
"P. c #96A88E",
"I. c #A4A38D",
"U. c #A3A49C",
"Y. c #A4AB9C",
"T. c #A7A598",
"R. c #ADA995",
"E. c #9B8FA4",
"W. c #8A9AA8",
"Q. c #9694A4",
"!. c #9A94A3",
"~. c #9B9DA3",
"^. c #9A98AC",
"/. c #9B99B2",
"(. c #9189B1",
"). c #A29FA2",
"_. c #AA9DA4",
"`. c #A89DAB",
"'. c #AE9AB2",
"]. c #9DA3A4",
"[. c #9DAAA5",
"{. c #9CA4AB",
"}. c #9DAAAC",
"|. c #94A2A6",
" X c #99B5B1",
".X c #A4A5A5",
"XX c #A9A5A5",
"oX c #A4AAA5",
"OX c #A9AAA5",
"+X c #A4A5AA",
"@X c #A9A3AA",
"#X c #A4AAAC",
"$X c #A9AAAA",
"%X c #B2A6A6",
"&X c #A4ADB0",
"*X c #AAADB1",
"=X c #A6A5B6",
"-X c #B1A5B7",
";X c #A5B4B4",
":X c #ACB2B5",
">X c #ACB7BA",
",X c #ABBABC",
"<X c #A7B9B9",
"1X c #B6BABA",
"2X c #B3C8BF",
"3X c #9C96C2",
"4X c #ABB8C7",
"5X c #B6B8C9",
"6X c #B0BAD7",
"7X c #ADC5CD",
"8X c #AECBCE",
"9X c #A4C4C5",
"0X c #B1C5CC",
"qX c #BCCACC",
"wX c #B7C5C9",
"eX c #A7D8C8",
"rX c #AECCD3",
"tX c #A8CAD7",
"yX c #B1CED3",
"uX c #BACCD4",
"iX c #B4CADA",
"pX c #B8C9DA",
"aX c #AED2D6",
"sX c #A9D2D9",
"dX c #B2D2D5",
"fX c #B3D3DB",
"gX c #BBD3DA",
"hX c #ABD3E1",
"jX c #B8D0E1",
"kX c #C0C7CB",
"lX c #C2CED8",
"zX c #C2CCE7",
/* pixels */
"j.j.j.f.j.j.j.j.j.f.j.j.j.0 7 7 e wXgX8XsXfXtXfXpXiXpXiXiXiXiXiXiXiXiXiXiXiXiXiXsXhXyXqX4 7 0 q j.a.h.j.j.a.j.j.j.a.j.N.p.h.j.j.",
"D.D.D.C.N.D.D.C.N.D.N.D.j.p.w e m.}.4XgXyXtXiX8XaXaXaXaXdXaXaXdXfXaXaXfXaXaXaXaXiXgXwXf.m.# w f.D.D..X.X.X.X.X.X.XN.V.N.m.D.N.B.",
"N.N.N.N.N.D.C.N.N.D.N.D.p.j.8 7 D.m.|.qX0XuXlXuX8XdXyXyXrXrX7XyXrX8XaX8XyXrXdX8X0XwXM.a.j.9 0 N.N.D..X.X.X.X$X.XXX)..XD.N.D.N.N.",
"D.N.D.N.N.N.A.N.N.D.N.N.a.m.7 7 B.N.N.#X{.{.{.].+X+X+X+X$X+X+X+X.X+X+X+XoX+X+X$X:X{.j.j.h.7 w N.N.N..X+X.X.X.X.X.X.XXX~.N.N.N.D.",
"D.N.D.A.D.N.D.S.C.N.D.A.a.j.0 e z.D.A.).+X#X.X$XOXXX).)._.@X.XXX@X_.XX.X.X).XX@X~..Xj.d.z.7 7 Z.D.N.F.OX+X.X.X$XOX.X].N.N.D.C.D.",
"N.N.N.N.N.N.N.N.N.N.N.V.j.h.7 8 D.B.D.$X.X.X.X.X.X.X.X.X.X.X.X.X.XOX+X.X.X.X.X.XU.OXa.d.j.w # D.N.N.D..X.X.X.X$X.XK..XD.S.N.N.D.",
"D.D.D.D.D.D.D.D.D.N.N.D.j.j.0 7 S.N.N.XXF..X$X]..X.X]..X+X.X.X.X]..X.X.X.X.X.X.XOXU.j.a.f.0 q N.N.D..X.X.X.X.XD.#X].oX.XN.N.N.N.",
"N.N.N.N.N.N.N.N.N.D.V.D.a.j.7 7 S.S.Z..X.X.X.XOX.X.X.XOXOX.X].D.D.F..X+X.X.X.X.XoXoXs.m.a.0 7 D.N.D..X.X.X.X.Xj.wX#X.X.XA.D.A.N.",
"N.D.D.N.D.N.N.D.N.N.N.N.j.j.0 0 N.D.N..X.XOX+X.X.X.X.X.X.X+X.XD.D.D..X.X.X.X+X.X.X.Xj.j.j.7 7 C.N.N..XOX.X.XXX.XY..X.X.XD.N.N.N.",
"N.N.N.N.N.N.N.N.N.N.N.N.j.j.7 0 N.D.N..X.X.X.X.X.X.XD.C.D..X.X.X.X.XOX+X.X.X.X.XOX.Xj.j.j.7 7 C.N.V.OX$X$X.X$XOX.X.X.X.XD.D.D.N.",
"N.N.D.D.N.D.D.D.D.N.D.N.j.j.7 9 N.D.N..X.X$X.X.X.X.XN.N.N..X.XXX.X.XXX$X.X.X.X.X.X.Xj.j.j.0 0 C.D.S.oX1X].$X]..XOX.X.X.X.X.X.XD.",
"N.N.N.D.N.N.N.N.D.D.D.N.j.j.7 8 N.D.N..X.XXX.X.X.X.XD.D.N..X.X.X+X.X.X.X.X.X.X.X.X.Xj.j.j.7 7 N.D.N.$X&X+XOXF..X.X.X.X$X.XOX.X.X",
"N.N.U..XA.D.D.C.N.N.D.C.j.j.0 7 N.D.N..X+XXX.X.X.X+X.X.X.X.X.X.X.X.X.XD..XOXXX.XXX.Xj.j.j.7 0 N.B.N.$X~.XX.X$XXX.X.X.X.X.X.X.X.X",
"~..X.X.X.X.X.X.XN.N.N.N.j.j.7 0 N.D.N..X.X.X.X.X.X.XXX.XOX.X.X.XOX.X.X.X.X.X.X.X+X.Xj.j.j.7 0 N.H.A.~.*X{.+X@X_..X.XOX.XD.)..X.X",
".XD.D.D..X.X.X.XD.D.D.N.j.j.7 9 N.D.A..X.XOX.X.X.X.X$XD..X.X.X.X.X.X.X+X.XXX+X.XOX.Xj.j.j.0 7 C.C.D.N.wX&X#X.XD..X.XOX+X.X.X.X.X",
"$X.XA.N..X.X.X.X.X.XD.N.j.a.7 7 N.D.N..X.X.X.X.X.X.X$XD..X).OX.X.X.XXX.X.X.XOX.X.X.Xj.j.j.0 7 N.N.N.|.,XwX].$XU..X.X.X.X.X+XXX.X",
".X.X.X.X.X.X.X.X.X.XD.D.f.j.7 7 C.D.N.OX.XXX.X.X.XXX.X.X+XOX.X.X.X.X.X.X.XoX.XoXOXT.v.d.d.0 * C.S.A.H.J.dX'.[.XX.X.XN.N..X.XOX.X",
".X.X.X.X.X)..X.X.X.X.X).j.j.7 7 N.N.N..X)..X.X.X.X.X.X.XXX.X.X.XOX.X.X.X.X.X.X.X^.T.b.b.v.t * C.M.I.`.9X=XOX].XX.X.XN.D..X.X.XD.",
".X.XOX.X.X.X.X.X.XOX.X.Xj.j.0 7 N.N.N.OX.X+X+X#X.X.X+X.X.X.X.X.X~..X.X.X.X.X.X.X{.Y.m.v.d.q 0 Q.S.+X5XtX.XoXU.U.$X.X.X.X.X.X$X.X",
".X.X.X.X.X.X.X.X.X.X.X.Xj.a.7 0 N.D.N.+X+X#X:X>X.XOX.X.X$X.X.X+XOXOX$X.X+XoX.X.XY.:Xm.2.d.q 0 A.C.I.yX=..XXX=XR.)..X$X.XD.N..X.X",
".X.XXX.X.X.X.X.X.X.X.X.Xj.j.7 0 N.D.N.@X.X#X:X>X.XXX+X.X.X+X$X$X.X.X.X.X.X.X.X.XoX5Xh.a.b.q - x.!.+X*.+./.*XK.@XD..X.X.XN.N..X.X",
".X.X+X.X.X.X.X.X$X$X.X.Xj.a.7 7 N.N.N..X.X+X+X+XXX$X.X.XOX.XOX$XD.D.~..X.X.X.X$X[.5Xh.j.v.= * (.G.>.@.3.%XR.+X`..XXXOX.X.X.XXX.X",
".X.X.X.X.X.X.XXXOX$X.X.Xj.j.7 7 N.D.N.XX.X.X+X.X$X$X+X.X.X.X.X.X:X$X$X$XOX.X.X.XY.5Xb.j.d.= 4 x. .&.G &.-XU..X+X.X+X.X.X$X.X+X.X",
".XOX.X.XOX.X.X+X.X$X.X.Xj.j.7 0 N.D.N..X.X.X.X.X.XOX.X.XXX.X.X.X.XoX.XOX.X.X.X.XK.5Xg.j.f.t = o.{ F ~ =.K.XXF.OX.X$X.X.X.X.X.X.X",
"+X+X+X.X.X.X.X_..X.X.X.Xj.a.e * D.S.N..X.XOXOXXX+X.X.X.X.X.X.X.X}..XU.,.#.R.T.+XT.4X2.t.l.- { A ) v H ) % 1 R.}.+X+X.X@X.XXXXXXX",
"+X+X#X+X.X.X.XOX.X.X.X.Xj.j.0 0 N.D.N..X+X.X.XD..X.X.X.X.X.X.X.XR.XX}.O.F @.=.[ -X&Xl.n.f.= A Z M n V 1 ; $ pXhXyXdXfXdX7X9X<X X",
"qXkXwX5X:X#X#X#X.X.XXXD.j.j.7 7 N.D.N.D..X.X$X$X.XOXOX+X.X.X$XOXU.q 1 3.@.) ..%.>.S G G k.8.~ ~ l m ~ 4 0 0 sXpXiXyXpXuXuXuX0XiX",
"0.9.0.p 0.0.y.p.2.p 0.p.p.j.7 9 N.D.D.N.$XD..X.X.X.X.X.X.X.X.X.X5X0 7 = *.3.x H +.-.( -.l O h b ~ b & 1 = q.q.g 0.0.a p p a e.e.",
"y.a a a u p u s a p a p p.a.7 7 N.D.j.a p.p a a a a a f a a f a a & q t H %.) l :.) ( C ^ k 7.L l I ; w * u g g a u a u u p u u ",
"f a a f f 2.f a p a e.a a a 0 8 N.N.j.p f a a a a a a a a a a a e.9.t 1 e ;.| ( l D V K E R : @ > = # * g 2.9.' a 0.0.0.p.e.y.0.",
"a u p a a a a p e.2.a a y w 0 7 w s s a a p s w a a a a a a a a u 2.- w , C [ G / ~ c c ~ k 7.T M G 4.*.u.e.e.r.0.r.0.0.i a 0.r.",
"7 0 8 0 0 7 0 0 7 7 7 7 8 7 9 0 7 0 7 8 1 9 8 7 0 0 7 0 e 0 7 7 r 3 * $ * = C Z C n m z L O L n M ~ A ..e * % q 9 9 9 7 7 9 9 7 ",
"7 1 0 0 4 4 w * 8 7 0 0 0 0 q 0 8 0 7 7 0 0 8 0 0 7 0 0 7 0 q 0 4 e e 0 e q 8 7 U L T < 5.5.R 3.{ S S J >.$ 0 5 7 7 7 0 4 q q 0 ",
"3 y m.kXdXyX7XlXyXyXyXdXyXdXrXyX8XyXrXdXyX8XaXaXyXyXdXyXyXyXaXrXyX7X0XlX4Xi.r 0 r 8 e V.0Xe 7 % @.| b ( S uXzXpXuX8XfXyXyXqXy.0 ",
"7 ].qX8XyXfXhXrXaXyXyXrXyXyXyXaXrXdXdXyXyXyXiXaXyXyXrXyXdXyXyXyXgXfXiXfXfXrX7XdXeXkX6XhXeXk.2 r 7 %.A N ^ tXtXeXaXaXsXfX8XuXM.a.",
"0 S.].dXiXhX9XjXrXdXyXaXyXaXyXrXaXyXrXdXyXyXdXrXrXdXdXrXdXyXaXyX7XyXyX0XiXgXuXyX9XfXtXfXsXqX3 5 - w.D v M c sXwXiXpX7XuX|.m.f.k.",
"q N.m.M.yXfXyX<X@XXX@X@XXX@X@XXX@X@X`.).@X@X`.XX@XXX@X@XXX@X`..X*X#X.X+X+X+X[.}.-X+X%X%XG.:X{.3 % 7 d m ~ v `.+X+XoX+XkXN.g.v.j.",
"$ H.z.+XkXuX#X.X.XK.]..X]..X.X].oX.XK..X.XU.U.]..XK.]..X]..X.X.X.XD.F.XX$XU.C.OXU.K.).&X@XD.%XT.7 7 < - c N %X+XOXC.oX+Xy.j.v.j.",
"8 D.D.Z.wX]..XXXXXOXOXXXXXXXXXOXU..XXXOX.X.X.XOXXXOXOXXX.XOXXXOXXXOX.XF..XXXOX$XXXXXOX[.U.oX_.@X-X8 1 = }.~ _.oX.XoX$X+Xs.j.j.a.",
"4 S.S.M.5X{..XU..X+X.X.X.X+X.X.XD.].+X.X).~.D.~..X+X.X.X.X@X.X+X.X+X+X.X+X.X.X.XXX[..X].@X}.+X.XI.b.e * _.=XG.[.).*XD.+XN.p.k.k.",
"0 N.N.D.$XOXXX.X.X.X.XN.N.D..X.XXX.X.XD.N.N.D..X.XOXXX.X.X.XOX.X.X.X.X.X.XXX.X.X.X.X.X.X.X.X.X.X+X.X* 0 OX.X.X.X+X.X.XOXf.j.j.j.",
"0 N.N.N.*XOX.X.X.X.X.XD.D.D.)..X.X.XD.D.N.N.N.D..XOX+X.X.X.XD.D.D..XXXOX.X.X+XOX.X.X+XXX.X.XOX.X.X.Xj.w .X.X]..X.X.X@X.Xf.k.j.j.",
"e N.N.N..X.X.X.X.X.X.XN.N.D..X$X.XK.D.A.N.N.N.N.D.~..X.X$X.X.XA.D.).+XOX.X.X.X.X.X.XOX.X.X.X$X.X.X$X1XD..X.X$X1XXX.X.XXXa.j.j.j.",
"7 C.N.N..X.X.X.XN.D..X.X.X.X.X.X+X).D.N.D.D.D.N.N.D.D.F..XOX.X.X.X.X.X.X.X.X.X.X.X.X+XXX.X.X.X.XF..X.X$X.XD.$X.X$X.X.XOXj.j.j.j.",
"0 N.N.N.OX.X.X.XN.D..X.X$X.X.X.X.XD.N.N.N.D.N.N.N.N.N.D.D.D..X.X.X.X.X.X.X$X+XOX.X.X.X.X.XXX$X.X.X.X.X.X.X$X$XD..XOXoX$Xf.j.h.j.",
"0 N.N.C.@X.X.X.X$X.X.XD.~..XXX.X.XD.N.N.N.N.N.D.N.D.N.N.N.N.F.+X.X.X.X.X.X)..XOX.X.X.X.X.X+X$X$X.X).*XF..X.X.XOX.X.X.XoXj.j.j.j.",
"7 C.D.N..X.X.X.X.X.X+XF.$X.X.XN.D.D.N.N.D.D.N.D.D.N.N.N.N.N.D..X.X.X.X.X).D..X.X.X.X.XOX.XOXXX.X.XOXOXD.*XOX).XX.X.XOX*Xj.j.h.j.",
"7 D.A.N..X.X.X.XOX.X.X.X$X.X.XC.N.N.N.N.D.N.N.N.D.N.N.S.D.N.N.Z..X.X.X.X.X.X.X.X.XD..X.X.X.X+X.Xs.kX]..X.X.X+X.X.XoXoX*Xj.h.h.j.",
"7 D.N.N.XX.X~.N..X.X.X.X.XA.N..XD.N.x.Q.C.C.x.C.).m.C.B.N.z.x.V.K.].%XN.J.F.=XF.+X.X.X.X).@X+X[..X.X.X.X.XXX.X.XOX@X+X:Xh.j.p.j.",
"0 N.N.N..X.X.XU..X.XU.D..XD.D.~.N.N.Q.A.C.Q.A.A.c.E.V.S.A.n.N.'.L.*.%X3Xz.T.{.R.+XU.Y.oXOX.X.X.X.X.X.X.X.X.X.X.X)..X#X:Xh.a.w 0 ",
"7 D.D.N..X.X$X$X.XD.A..X.XD.C.D.Z.Q.Q.N.A.N.N.N.N.D.S.S.K.F.n.z.+.@.^.P.U.$XQ.A..XOX{.+X`.+X.XU..X.X.X.X.X.X.X$X.X#X:X>Xv.z.a w ",
"7 N.D.N..X.X.X.X.XN.N.$X$XD.N.D.~.C.x.D.x.V.x.N.0.z.F.H.c.m.P.%.3.$.&XoXoX'.N.A..X+X=X].U..XU.T..XOX.X.X.X.X.X.X.X.X>X>Xs.j.z.j.",
"7 N.N.A..X.X.X.X$XD..X+X.XN.N.N.N.c.J.Q.c.^.D.Q.#XC.V.W.Q.S. .+.S >.l.7 q n..X=XG.T.#X.X#XOXoX=X.X+XOX+X.X.X+X.XU.].>X,Xf.a.j.v.",
"9 D.N.N..X.X$X.X.X$X.XD.N.D.D.N.l./.V.Z.V.Q.C.C.N.V.M.W.|.+.@.) -.$.t * 7 `.Y.I.*X*Xo.=XI.@X=XU..X.X.X.X.X.X$XXXOXoX>X,Xv.j.a.j.",
"8 N.N.N..X.X.X.X.X$X.Xz.N.N.N.N.S.x.S.Z.Q.c.x.B.B.N.B.H.o.%.} l ;.-.4 * 7 c.L.oX .>.:.L.^.U.U.+X.X.X.X.X.X.X.XXX.X}.;X&Xj.j.j.j.",
"7 N.S.D.OX.X.X.X.X.XD.N.D.N.N.D.~...~.S.V.x.B.^.x.Q.P. .#.-.A H 3.:.9 0 e N.*.<.F [ 1.P.oX`.@XY..X.XOX.X.X.X.XOXoX&X,X&Xh.j.j.j.",
"7 D.N.N..X.XA..X.XD.N.N.N.N.N.N.!.&.=.{ A.l.m.H.M.^.c.*.>.S ~ -.J 1.& w @. .%.-.| A J }.].%X#X].)..X@X.X.X[.&X,X,X,X>X#Xf.v.j.j.",
"0 N.N.D..X$XD.C.N.N.N.D.N.D.D.N.V.$.-.$.X.=.3.W.G.z.@.%.:.^ b J S I 8 o.&.[ S 1.n -.3.:X5X;X*X4X>X:X<X<X,X,X<X;X>X,X&X#Xv.a.z.s.",
"7 z.D.N.N..X*XOXOX.X.X$X.XK.D.D.- <.[ ( -.G #.J D k *.3.Z M ! ) b 7.) J S A ^ n A } q - J.,X4X=X4X>X<X4X;X<X<X;X].+X` a j.j.j.j.",
"0 D.F.N.a p a a e.p a f a a e.a 9 & 3.S N F -.-.[ P A H m X ~ v R O H ) 1.~ x C _ B - % t.0.u ' 9.a 0.0.p 9.0.e.2.p y.a i j.j.j.",
"7 N.z.e.2.a a p a p a a p a a f 1 w   [ S l E H ) : ~ x h Q n m 7.k V V b E K -.C P 1 2 u.p ' g f p f f f f f i d a p.a e.j.f.a.",
"w z.p.y p f a e.f a a p.a a a a p 2 + . m H o c N @ W R o X v k 7.W c M X l C C . r = u.0.' g w.a ` p.f p p a 2.p.u s 0.u p m.q ",
"7 2.p a a a p p y y y u u a a a 0.; 3 + k ~ ~ R L X > R P I k 7.L k j . E ~ m X $ d = a 9.a 2.t.p p p y w w y a i p.a a s 7 e $ ",
"# w 7 q 7 0 w 7 8 7 7 7 0 0 0 0 * 4 q 0 + + k P k W O + h T > 5.L X X L P T O 7.e $ 5 q 7 * % 7 q 8 8 q 7 7 0 0 q * 7 7 w 3 7 w "
};
