/* XPM */
static char *_582868728995[] = {
/* columns rows colors chars-per-pixel */
"64 64 239 2 ",
"   c #3D2C45",
".  c #3C2C4B",
"X  c #392349",
"o  c #3D3246",
"O  c #3C314A",
"+  c #37304F",
"@  c #3B2B50",
"#  c #3D2650",
"$  c #3E3156",
"%  c #432C4D",
"&  c #4A2D4D",
"*  c #412949",
"=  c #502E4F",
"-  c #413346",
";  c #44324C",
":  c #49324E",
">  c #473747",
",  c #422652",
"<  c #452C53",
"1  c #4A2D55",
"2  c #452D59",
"3  c #4A2E5B",
"4  c #48265A",
"5  c #512D5A",
"6  c #453254",
"7  c #4A3354",
"8  c #443B54",
"9  c #4B3A54",
"0  c #45335B",
"q  c #4B325B",
"w  c #473859",
"e  c #4C3A5C",
"r  c #523354",
"t  c #52355D",
"y  c #543A5C",
"u  c #5A3B5C",
"i  c #5C365D",
"p  c #4A2C62",
"a  c #542C63",
"s  c #463361",
"d  c #4E3362",
"f  c #4E3C64",
"g  c #4D3A6A",
"h  c #493568",
"j  c #543563",
"k  c #5A3563",
"l  c #543B63",
"z  c #5A3B65",
"x  c #55356B",
"c  c #5B366C",
"v  c #563B6B",
"b  c #5B3B6B",
"n  c #563D72",
"m  c #5B3B72",
"M  c #593774",
"N  c #633464",
"B  c #613C6B",
"V  c #633769",
"C  c #633B73",
"Z  c #633B7A",
"A  c #6A3E7C",
"S  c #603771",
"D  c #3C4554",
"F  c #4A435B",
"G  c #484857",
"H  c #53435D",
"J  c #56475B",
"K  c #5E5D54",
"L  c #5D5B5D",
"P  c #595657",
"I  c #475055",
"U  c #625C5E",
"Y  c #635E54",
"T  c #61495F",
"R  c #5F605B",
"E  c #63604F",
"W  c #65645D",
"Q  c #6A6759",
"!  c #706A5C",
"~  c #4C4562",
"^  c #544263",
"/  c #5B4366",
"(  c #574961",
")  c #5B4B64",
"_  c #54426B",
"`  c #5B426C",
"'  c #59486A",
"]  c #5D5968",
"[  c #5D4171",
"{  c #5C4776",
"}  c #60426D",
"|  c #604B6A",
" . c #615564",
".. c #645D63",
"X. c #685D66",
"o. c #655B6B",
"O. c #6A5C6C",
"+. c #65576D",
"@. c #634374",
"#. c #6B4374",
"$. c #644974",
"%. c #6A4A74",
"&. c #65457B",
"*. c #6B447C",
"=. c #65497B",
"-. c #6B4A7C",
";. c #74497B",
":. c #6B5D72",
">. c #69517B",
",. c #665777",
"<. c #70567D",
"1. c #5F666D",
"2. c #656164",
"3. c #696465",
"4. c #676860",
"5. c #6C6C65",
"6. c #656369",
"7. c #6A636B",
"8. c #66696A",
"9. c #6C6D6C",
"0. c #736D6D",
"q. c #7A6E6E",
"w. c #756B66",
"e. c #6C7466",
"r. c #65746B",
"t. c #6D736C",
"y. c #6D7A6D",
"u. c #677668",
"i. c #737266",
"p. c #73746D",
"a. c #7A736D",
"s. c #74796D",
"d. c #7A7A6E",
"f. c #747867",
"g. c #6C6373",
"h. c #6E6E73",
"j. c #6F6C7A",
"k. c #696379",
"l. c #736E73",
"z. c #7A6D73",
"x. c #756D7C",
"c. c #7A6D7C",
"v. c #716374",
"b. c #657472",
"n. c #6D7373",
"m. c #6D7A73",
"M. c #6D757B",
"N. c #6D797B",
"B. c #677877",
"V. c #747474",
"C. c #7A7474",
"Z. c #747974",
"A. c #7A7A75",
"S. c #75747A",
"D. c #7A747A",
"F. c #747A7B",
"G. c #7A7A7B",
"H. c #816F78",
"J. c #817674",
"K. c #80737C",
"L. c #837B7D",
"P. c #8E707C",
"I. c #836E6C",
"U. c #74826E",
"Y. c #6C8478",
"T. c #7C827D",
"R. c #768578",
"E. c #6E846D",
"W. c #603881",
"Q. c #5F5182",
"!. c #6B4582",
"~. c #664A84",
"^. c #6D4A82",
"/. c #684585",
"(. c #714B84",
"). c #754989",
"_. c #6C5085",
"`. c #685C80",
"'. c #745284",
"]. c #776D82",
"[. c #6C7B81",
"{. c #757381",
"}. c #7B7482",
"|. c #747D84",
" X c #7B7A83",
".X c #7D768A",
"XX c #7D7B8B",
"oX c #767989",
"OX c #7A7D93",
"+X c #6E6B80",
"@X c #827B82",
"#X c #837888",
"$X c #867B92",
"%X c #836D84",
"&X c #897DA1",
"*X c #6D8A8B",
"=X c #6D8C84",
"-X c #748384",
";X c #7C8484",
":X c #7C8A84",
">X c #75858B",
",X c #7B858C",
"<X c #758B8B",
"1X c #7C8B8C",
"2X c #738986",
"3X c #6D968A",
"4X c #74918D",
"5X c #7B928D",
"6X c #789285",
"7X c #6E8995",
"8X c #748593",
"9X c #7C8493",
"0X c #758B94",
"qX c #7C8B93",
"wX c #7E859A",
"eX c #768C98",
"rX c #7D8B9A",
"tX c #7C9292",
"yX c #7C939B",
"uX c #7689A2",
"iX c #7F93A4",
"pX c #818B85",
"aX c #83858B",
"sX c #828C8D",
"dX c #858588",
"fX c #82918E",
"gX c #828493",
"hX c #828C93",
"jX c #8A8A95",
"kX c #838C9B",
"lX c #8B8D9A",
"zX c #87849A",
"xX c #918A9B",
"cX c #819393",
"vX c #83919A",
"bX c #899395",
"nX c #95919F",
"mX c #8A8AA2",
"MX c #898FA6",
/* pixels */
"z z -.^.-.&.-.%.%.[ v v n b v b _ f v ` b z t 5 & 1 q 1 1 ` b B z m g l N m Q.z &.^.v b b m c M ` < 1 r @ 6 q < 6 q 1 c /.&.#.).",
"W.x | D.T.,X9XuXhX,X,XqXqXqX1XaXwXkXsX XG. Xk.F b b C &.@.m j b *.!.~.^.b j p ;.#.%.k l y ` l ` c b l , k 4 3 0 a 7 ' M B z _ j ",
"-X<XkXhX|.M.S.A.hXrXrXrXrXqXrX9X<XqXrXqX9X9X|.S.[ v &.^.(.&.&.~.~.&.V N k 9XvXwX0XyXqXhXXXc.J i C m m b -.(.l l c C z l _ y D.iX",
";XsXaXF.V.C.d.a.i.d.s.p.p.p.f.p.V.t.y.Z.Z.y.V.sX$X^ ` ^.*.!.(.@.-.' qXyX7X6XZ.P.z.z.z.C.F.1X>XhXf e B c /.&.^.#.).l t -.#X1XrXS.",
"#X}.p.i.d.A.M.M.S.S.S.V.V.G.S.S.C.C.a.a.J.A.V.C.F.hXnX6 '.c ^.=.c jX5X-XsXR.E.u.A.s.C.n.n.G.V.D.vXjXH ` x { ).A =.a +.gXeX:X! M.",
"e.s.m.N.{.x.x.D.S.S.V.V.S.S.S.V.V.V.S.S.XX#XD.l.y.y.t.g.b c c @.g rX4X Xc.H.0.T.N.m.m.m.n.S.V.V.n.F.;X].b c !.-.&.xXqX8Xn.Z.V.J.",
"n.F.M.9.n.Z.s.s.A.V.C.A.C.a.V.C.S.V.p.f.f.f.V.V.V.y.V.D.y C v @.%.,Xn.L.z.x.D.m.0.0.C.D.A.C.A.z.Z.r.:XaXe ` [ ~.F jXS.B.|.w.p.F.",
"C.C.a.C.A.t.5.V.V.V.p.V.C.t.V.Z.S.V.S.S.V.V.A.V.%XD.p.S.; b v b K.qXm.! R.M.S.i.A.V.C.V.n.9.F.V.S.A.0.@Xg.+ _ C rXn.C.D.a.Z.n.S.",
"S.S.F.V.V.t.V.V.n.S.V.S.V.S.V.S.Z.n.M.V.n.S.V.M.{.l.a.V.6 $ b B 1X XD.V.a.a.Z.h.S.V.S.V.G.9.p.V.n.A.t.S.g.6 z m qXn.F.n.V.V.V.s.",
"p.p.s.V.V.C.C.p.C.C.C.z.C.q.C.C.z.z.C.q.C.C.C.C.S.A.9.o.9 q q z vXr.y.Z.V.h.M.Z.C.9.V.V.V.S.G.l.p.Z.D.z.- 1 3 k G.V.w.C.D.C.D.z.",
"A.a.p.C.V.n.S.S.l.V.S.D.S.S.l.S.V.V.S.V.S.V.S.V.V.t.C.U 6 2 < 7 C.L.z.V.G.V.}.c.s.C.C.t.V.l.S.S.Z.1.O.- 7 7 q q V.T.p.A.n.n.S.M.",
"j.j.{.S.V.V.p.p.V.y.Z.y.F.t.Z.p.Z.Z.Z.V.Z.Z.Z.Z.m.C.D. .7 % 7 7 @X6.V.n.e.y.V.S.n.2.V.G.a.9.A.e.3.7.- 7 1 < 2 w 9 v.p.i.5.V.D.S.",
"G.A.Z.F.V.S.F.V.D.D.l.V.9.V.D.D.x.V.D.D.V.S.S.V.l.}.o.6 q < 7 7 . 7.V.s.;XV.Z.y.S.S.V.9.G.Z.p.4.7.o 7 < 3 k 6 6 O :.L.C.p.G.n.0.",
"K W W P R A.F.1.V.D.G.S.G.V.S.V.V.S.S.V.D.G.D.V.( ' 7 % 7 < q , t & J o.2.U 4.C.s.p.G.l.6.g.+.o % : 1 q , , e 1 $ 8 6...6.8.1.6.",
"f . 9 O.l.U K Q 4.K A.K A.K 5.U 4.4.4.4.W 5.4.W q < q e 6 1 j 2 O 6 @ 8 7.9.8.] O.7. .> % 6 w 6 < t < 1 q j 1 % 3 1 7 7 7 1 & & ",
"1 2 6 < < 6 q 6 q q 1 q 2 q 1 q 2 q q 1 1 q q 4 5 4 1 < 6 : , q p 5 r % 1 < < ; 7 < 7 % 7 1 3 1 r < ` z e z k B b z l _ v v m r ",
"q 2 2 6 0 0 s 2 6 7 2 1 1 1 1 2 < 3 q 5 5 5 & q 0 0 $ 2 d 0 q 3 2 y < < 7 < 3 e S b z b v M b b M B u v ~  XfX<X0X<XqXqXS.) t z ",
"u u } z i z B N 5 3 < q q 3 m (.).k g v y ^ [ y z v b b j k B t 1 4 7 7 < j 5 j v z l l z b z i ~ 9XrX7X0X<XN.lXhX1X<X1X<X>X8XkX",
"qXqX9X9XkXzX+XF C -.%.l z $.!.A / >.8XcX8X>XqXwXsX;X,X,X;XbX1XI / < 6 f # 2 -.^.{ k.#XkXkXqXqXeX1X<XqXfX,XlXlXF.l.S.;X:X5X5X1X<X",
"<X5X4X<X<XcX1X[.b j d @.-.C -.-.,..XkXkXqX9X9XrX<XcXT.M.|.b.n.hX.X; < 1 3 ` d $.OXgXaX;XV.h.V.S.f.x.D.a.0.v.{.V.S.V.V.C.V.V.S.n.",
"n.Z.G.F.h.n.;XsX#X9 [ Z !.$.F $XaX;Xp.p.J.d.t.y.n.z.V.C.l.D.G.l.sXS.; 3 3 v _ mXvX<XN.r.y.p.Z.G.a.D.n.u.T.F.n.s.G.S.V.V.0.z.C.D.",
"A.C.C.V.n.n.n.t.y.6.q p m z XX:XB.[.n.s.V.V.Z.M.Z.p.y.G.A.t.V.Z.b.F.7 5 k q gX>XG.C.z.C.a.A.a.V.Z.h.Z.V.t.r.Z.p.l.l.S.F.F.V.n.V.",
"z.z.V.D.C.A.J.D.p.l.9 1 v / XXZ.C.a.G.D.w.z.D.p.S.j.S.V.8.S.#Xn.Z.V.}.1 % ( lXT.y.B.S.F.V.p.z.V.B.V.V.z.K.q.C.S.S.S.V.V.V.V.n.n.",
"V.n.V.M.V.V.V.V.V.D.:.< q ( S.S.a.S.h.b.;XV.9.D.V.A.p.V.A.C.p.s.i.J.].6 0 ].V.p.a.a.x.S.S.Z.Z.M.D.A.A.x.l.t.V.{.y.V.V.p.C.C.C.V.",
"|.S.S.j.S.n.Z.s.d. Xf 2 q +.x.S.A.C.t.V.V.V.s.A.p.A.V.C.V.C.Z.V.F.S.w.y @ J.D.n.V.l.l.S.F.V.V.F.V.C.C.V.9.9.V.V.p.V.C.p.Z.p.C.V.",
"e.i.A.s.C.p.V.F.8.p.7.9 7 H S.s.V.G.S.V.S.S.S.j.V.V.V.p.9.h.V.A.9.D.! $ e w.n.F.V.F.S.V.9.C.V.0.V.S.S.S.V.l.l.S.S.S.S.S.M.S.j.S.",
"Z.p.p.9.S.S.S.x.D.C.X.& % 9 o.a.C.l.n.V.V.y.y.Z.S.}.S.{.S.S.{.S.Z.F.Y 0 X a.A.r.f.e.y.V.V.n.S.D.V.p.s.s.C.Z.s.s.C.p.Z.Z.V.A.t.C.",
"S.S.D.V.l.h.V.C.V.:.e , 2 7 % ' 3.7.0.V.D.V.p.C.9.s.p.s.V.a.s.p.S.o.> q 0 3.V.A.S.S.V.V.p.C.s.p.n.V.n.V.Z.V.V.V.6.n.V.S.V.n.V.Z.",
"C.t.p.V.A.C.V.5.+.6 q 2 1 1 1 0 6 6 6 . 6 ) :.:.3.3.2.2.3.3.9.3.o.% : d 3 : g.o.D.c.z.D.D.S.S.S.Z.S.V.F.S.S.Z.S.V.G.Z.V.G.8.F.t.",
"C.D.D.6.J o   . y - & : 2 j 1 : 7 q q 1 0 7 7 6 0 0 < 6 0 0 0 6 % y q 4 x 7 7 ; q < 6 ) o.] 4.p...2.2.......2.2.2.3.2...V.3.A.0.",
"; 6 7 2 q 3 h j , q 7 z j v 4 1 1 < 1 7 1 < % 7 2 7 1 3 6 1 7 < 1 1 , B b v 3 q 7 7 7 < ; 7 9 6 w 6 w 7 0 6 7 2 w 6 w < w < 2 < ",
"v v v k b z k k b x !.!.&.b ~./.&.=.=.b v b b v b b v v b b &.-.b v b ` z v b l j q 1 0 1 1 4 1 1 1 4 1 1 1 1 1 3 1 } l z b k ` ",
"l ` c b -.-.z ` u l ^.-.A ).c &.b (.*.*.v v v M b b ` v M &.(.B #.(.B c S -.#.*.!.b 5 < 7 5 0 q 4 1 q q l b m b b c / l z v z %.",
">XkX9XOXhX,X8XkXgX#Xc.=.{ >.*.Z c &.!.~.n @.k V M x b @.!.(.*.a n [ G |.aXzX>.!.~.e C &.} #.~.j / z k z z B z k z / ].gXrXyX0X7X",
"qXqXqX<XqXtX;X8X6X<X0XfX%Xz b t $.5 -.(.b $.$.%.u T v.dX-X=X3X3XjXlX,XrX>X0X-XqXl F v m -.;.).#.D 9XvX9X9XkX9XkXyX>XtXtX<X,XhX1X",
"f.R.pXpXR.p.C.A.9.p.C.Z.hX2X>X8 j C *.*.$.mXkXrXuX8XqXcX9X,XaXgX*X1X1XG. XV.C.V.x.xXe M -.W./.$.1X<X>XqX<XsX|.n.S.0.A.G.V.z.C.z.",
"D.S.M.{.M.S.S.h.@XV.m.m.A.0.D.o.4 (.#.e zX9X*X4XaXG.s.p.C.G.F.V.%Xc.C.e.U.y.V.x.F.t.jX@ @.S /.xXdXL.V.V.A.0.V.A.D.D.V.y.m.n.m.m.",
"s.V.F.S.n.0.C.Z.l.}.c.a.y.n.S.U e 2 $ mX<X5X<X;XS.S.V.p.V.M.M.N.r.Z.N.S.V.D.C.a.V.e.n.0 c M &.,X:Xn.F.A.n.V.T.r.n.V.a.V.C.z.0.a.",
"S.V.x.c.D.D.V.x.n.Z.Z.S.c.J.J.l.2 e + gX;XT.V.c.V.V.V.V.D.S.V.n.n.Z.z.C.z.;XF.r.V.A.F.7 B v _ 1XdXV.9.V.V.9.p.V.D.Z.p.V.V.S.F.C.",
"y.Z.S.V.C.s.V.V.s.A.l.C.S.h.|.m.q 1 % C.A.p.A.@Xn.C.V.V.V.l.p.d.A.V.V.G.V.V.V.S.}.q.m.% k b l qX9.F.D.V.0.G.D.V.V.V.p.D.n.V.G.y.",
"l.a.V.C.V.V.V.C.A.V.V.V.V.V.l.D.6 1 3 r C.5.T.G.C.s.V.V.V.l.V.V.S.S.S.V.V.V.x.S.j.Z.C.- B Z _ gXV.V.V.A.V.C.y.Z.C.V.V.V.p.V.V.C.",
"S.S.S.V.V.S.S.S.n.A.F.p.V.V.V.U 6 e 3   8.R.y.S.S.S.l.S.S.S.M.V.V.V.t.p.s.p.p.Z.F.D.x.; 4 c e zXS.S.l.h.l.S.V.V.V.V.F.S.G.V.V.n.",
"p.p.t.t.p.s.p.s.G.8.R.t.C.G.G.7.6 < 3 % g.n.9.V.a.d.s.p.V.C.s.d.C.t.0.C.C.p.e.p.9.S.o.l 3 z ' mXV.V.V.V.V.V.S.S.S.S.V.l.l.V.S.G.",
"V.V.V.V.F.Z.V.n.F.n.9.A.V.6...o % e 4 6 o 6.A.z.V.V.V.V.n.V.V.n.n.V.S.S.V.j.V.Z.@XJ w 0 < y q $XZ.V.V.A.V.9.l.V.V.D.V.G.V.V.t.y.",
"S.V.S.V.V.S.h.9.p.A.9.] o.+.6 w e , 1 q 7 > 8.7.z.V.G.A.z.A.F.V.G.S.S.S.S.F.V.L 3.) 0 2 1 r l _ V.p.p.V.V.d.V.p.p.V.Z.p.V.V.V.Z.",
"3.7.3.2.3.....L O.X. .:.8 < q 4 < 1 d e , q % % ..X.X...U U ....L 2.5.U P L 7.0.:.6 q 1 1 % % b ] 0.A.V.l.A.F.V.V.9.V.] h.L 8.2.",
"6 6 2 6 6 6 6 2 7 9 % % 2 q 3 (.-.j b k b j 1 d q 0 q 6 6 6 6 6 +.] ..3.O.X.) ; 7 < < 3 q % q 1 7 ) :.O... .o.o.+. .:.J ) 6 0 . ",
"1 1 1 q 3 q 1 1 2 2 v @.j &.'.C -.b l b k b ~.x j q 2 1 7 7 2 0 q < 6 9 % % 5 4 6 7 q 7 2 q q & 3 1 2 7 7 6 6 6 % 6 6 q 1 3 3 3 ",
"d 6 6 $ s q * ' b b b b b b v l G ]._ b j >.x.C.F.V.x.` j b b M 1 q s d % 1 q 4 3 1 ` l z 3 j 4 1 & : 7 : < 7 1 4 q 1 7 q 1 < : ",
"k x B u u wXMX;X9X<XhXhXqXaXqXhX[.MX<X9X8X6XeX4X9X:X6X*X0X9X<.{ %.b d j @.l l [ l ;.A !.@.b l F m x x v m m v x _ y ^ ` j m C z ",
"_.%.j jX-X9XS.G.;X>X1X<XqX;X1X1XyXcX;XZ.A.z.l.z.x.V.Y.6X4X1X{.<.t z &.^.@.a ^.&.!.-.^.Z '.f OXaX1X1XqXfX1X1X1XsXvX;X|.l.( j j b ",
"C { aXkX{.f.V.C.p.V.C.V.V.V.V.V.C.e.S.t.L.S.a.J.a.s.C.{.}.D.C.D.$Xu &.-./.(./.*./.*.q OXM. XaXhX0XqXhX<X[.B.N.F.8XqX1XqXoX`.g ~.",
"'.V.xXV.0.S.s.B.{.S.{.S.S.S.{.S.a.V.A.S.F.y.h.y.m.p.V.c.S.l.t.m.G.$X$.=.-.*.^.x ^ zXvX,X;XcX1XM.S.V.A.D.C.C.C.C.V.C.p.a.C.z.- & ",
"I xX0.y.y.V..XC.i.i.f.p.p.f.f.p.S.S.s.0.t.V.S.D.M.Z.p.S.Z.Z.F.F.R.S.8 v x b b z 4X:XaX>X1XaXF.m.F.G.G.T.A.V.p.p.}.S.S.V.9.@X+.7 ",
"7.1.B.p.Z.M.D.I.D.A.V.V.D.V.V.S.x.s.D.s.C.M.m.B.c.A.s.V.n.5.s.c.9.S.6 [ b j _ l pXb.M.G.x.V.y.A.0.a.A.G.C.p.a.C.e.r.m.m.e.F.6.o ",
"; 7.a.S.S.0.n.Y.V.S.S.F.V.n.V.N.s.M.V.c.}.0.C.i.p.f.0.D.}.C.A.0.C.c.q j C ` e mX}.@XV.n.y.A.z.c.F.V.V.S.V.S.S.V.C.G.V.j.G.D.o.6 ",
"6 O.a.t.t.s.V.{.V.V.V.V.z.V.A.D.V.t.9.Z.p.C.V.C.V.V.V.V.t.C.V.9.C.B.= q g } 8XaXV.S.V.S.V.V.V.S.S.V.S.n.V.V.0.V.D.S. X9.p.a.g.2 ",
"7 ; c.C.A.V.V.G.V.S.V.V.V.Z.V.9.S.S.S.S.S.S.S.n.Z.p.V.V.V.S.h.V.C.M.= 0 0 1 hXF.C.C.J.C.C.C.C.C.t.p.C.a.s.C.p.Z.A.9.M.Z.s.A.  < ",
"1 d w ..Z.l.t.i.S.G.V.n.V.Z.p.C.V.s.C.Z.t.Z.Z.C.S.V.V.V.V.p.C.Z.D.1.1 2 w % vXV.V.S.S.S.S.V.V.V.D.F.V.V.p.p.0.i.s.s.V.V.5.@X- w ",
"2 q 0 o o.G.V.Z.9.S.V.V.n.9.8.V.C.Z.n.G.9.V.V.V.i.A.t.p.V.j. Xj.+.8 : < 0 7 S.C.V.y.Z.p.t.V.n.n.t.C.Z.S. X{.{.oXp.9.V.T.V.o.7 1 ",
"4 7 ; w $ g.2.o.5.0.a.D.G.l.g.{.a.V.V.V.y.V.V.V.S.S.j.V.V.A.V.3.9 . t 7 6 7 ] J.S.C.S.c.V.c.V.D.S.V.S.n.n.V.n.V.G.V.V.8.o.; 7 < ",
"q % % 2 q   9 8 s 0 0 J ..W E Q 2.4.V.Y 3.3.a.4.V...9.6...] 6 8 2 6 1 q 2 % 9 O.S.V.V.S.C.V.S.V.A.V.V.C.C.C.p.s.o.g.O.- 9 % 2 d ",
"b 1 q 1 4 q X q 7 7 % % 6 7 6 6 % ; e . 6 6 9 % q . 7 7 7 : * 1 q q , q 3 1 7 7 W W W 4.W 4.W W E W 4.O.o.( 6 2 7 ; 6 % q 1 < z ",
"b v b } * d j % < 1 q 1 2 3 d 2 q 1 , t 1 < < q 4 t % q 7 4 C M z b z z z b t % q q 2 2 3 1 0 q 0 6 6 6 q 7 4 q 1 % 7 q q v @.k "
};
