/* XPM */
static char *_582866649739[] = {
/* columns rows colors chars-per-pixel */
"64 64 253 2 ",
"   c #484C3A",
".  c #593D72",
"X  c #673D79",
"o  c #6A3E75",
"O  c #553F54",
"+  c #3F4C45",
"@  c #4B4D4C",
"#  c #494847",
"$  c #534949",
"%  c #495349",
"&  c #535349",
"*  c #4B4B53",
"=  c #484A55",
"-  c #544C54",
";  c #574857",
":  c #4B5455",
">  c #555455",
",  c #645558",
"<  c #556558",
"1  c #696E5A",
"2  c #574965",
"3  c #5C4C74",
"4  c #5D4B7B",
"5  c #5B4477",
"6  c #59536E",
"7  c #655968",
"8  c #644473",
"9  c #63447D",
"0  c #6B447C",
"q  c #644B7B",
"w  c #6A4C7D",
"e  c #684A75",
"r  c #73477B",
"t  c #67537B",
"y  c #72557C",
"u  c #68486E",
"i  c #5E7170",
"p  c #6C6C6B",
"a  c #686A68",
"s  c #726E6D",
"d  c #776A6A",
"f  c #6C746C",
"g  c #6D7A6B",
"h  c #697466",
"j  c #73736C",
"k  c #7A746D",
"l  c #757769",
"z  c #6C6D73",
"x  c #6A6A78",
"c  c #746D74",
"v  c #7A6D74",
"b  c #756C7C",
"n  c #7C6E7C",
"m  c #776678",
"M  c #6C7373",
"N  c #6D7B74",
"B  c #69767A",
"V  c #747474",
"C  c #7B7374",
"Z  c #747A74",
"A  c #7B7A75",
"S  c #74747A",
"D  c #7B747B",
"F  c #747A7B",
"G  c #7A7A7B",
"H  c #846B7B",
"J  c #83757A",
"K  c #81796C",
"L  c #77817B",
"P  c #6E836F",
"I  c #838A78",
"U  c #5C3E85",
"Y  c #683D88",
"T  c #723C8A",
"R  c #5C4784",
"E  c #5D4A8D",
"W  c #644484",
"Q  c #6B4584",
"!  c #654B83",
"~  c #6B4C84",
"^  c #654489",
"/  c #6C448A",
"(  c #644B8B",
")  c #6B4B8B",
"_  c #724583",
"`  c #724B84",
"'  c #73448B",
"]  c #734B8C",
"[  c #7A4B8C",
"{  c #7B4886",
"}  c #645285",
"|  c #6C5283",
" . c #695489",
".. c #725485",
"X. c #73528C",
"o. c #765689",
"O. c #6C4C93",
"+. c #6B4896",
"@. c #734B93",
"#. c #7B4D93",
"$. c #754797",
"%. c #6C5495",
"&. c #765494",
"*. c #7B6C83",
"=. c #766B84",
"-. c #6F7782",
";. c #7B7383",
":. c #7C7B84",
">. c #757786",
",. c #73748A",
"<. c #7953A1",
"1. c #824B94",
"2. c #865594",
"3. c #8C5392",
"4. c #A75D9E",
"5. c #856C87",
"6. c #827484",
"7. c #857787",
"8. c #857993",
"9. c #8F7597",
"0. c #AC79AA",
"q. c #B474AD",
"w. c #B975AD",
"e. c #B37BAD",
"r. c #B87AA9",
"t. c #B86EB7",
"y. c #AE7DB3",
"u. c #AD78B6",
"i. c #B475B4",
"p. c #BC75B4",
"a. c #B47BB4",
"s. c #BB7CB4",
"d. c #BB75BC",
"f. c #B47BBB",
"g. c #BC7CBB",
"h. c #B573BB",
"j. c #AB69AB",
"k. c #9663A7",
"l. c #C27BB5",
"z. c #C27CBC",
"x. c #C476BA",
"c. c #C677AD",
"v. c #E47EAD",
"b. c #BC7CC3",
"n. c #B87AC4",
"m. c #B676C8",
"M. c #C37DC3",
"N. c #C579C6",
"B. c #D27DC3",
"V. c #6C8788",
"C. c #7C8B8B",
"Z. c #788688",
"A. c #7A8A96",
"S. c #76928D",
"D. c #7A91A3",
"F. c #848789",
"G. c #858997",
"H. c #8D9293",
"J. c #8688A3",
"K. c #AB83AA",
"L. c #B584AB",
"P. c #AB84B5",
"I. c #B483B4",
"U. c #BB82B5",
"Y. c #B483BA",
"T. c #BC83BC",
"R. c #BB8BBB",
"E. c #B68AB7",
"W. c #BB93BA",
"Q. c #BE9CAA",
"!. c #B7ADB4",
"~. c #A0A19B",
"^. c #DC899C",
"/. c #D886A9",
"(. c #C283BC",
"). c #C586B9",
"_. c #C59BBA",
"`. c #D790B2",
"'. c #E487A7",
"]. c #E889B5",
"[. c #EF8CB2",
"{. c #C6A7BB",
"}. c #BC83C3",
"|. c #B886C5",
" X c #B994C6",
".X c #BAA1C9",
"XX c #C383C3",
"oX c #C686C6",
"OX c #CD9CCC",
"+X c #C79AC5",
"@X c #D69BCA",
"#X c #CA9DD2",
"$X c #D39DD3",
"%X c #C98AD1",
"&X c #EC90C7",
"*X c #CCA2C5",
"=X c #CBABC5",
"-X c #CCA4CB",
";X c #CCABCC",
":X c #C4A5C7",
">X c #D3A3CB",
",X c #D3ABCD",
"<X c #D6A7C8",
"1X c #CBB1C8",
"2X c #D3B6CD",
"3X c #CDA4D3",
"4X c #CDABD3",
"5X c #C7A7D6",
"6X c #D3A4D3",
"7X c #DCA5D5",
"8X c #D4ABD5",
"9X c #D4A4DA",
"0X c #DBA5DB",
"qX c #D3ABDA",
"wX c #DBACDC",
"eX c #D9AED4",
"rX c #DBBDDC",
"tX c #D7B5D7",
"yX c #C9B3D3",
"uX c #E3A8DB",
"iX c #E2BDDD",
"pX c #E5B7DA",
"aX c #F2B4CF",
"sX c #DAA8E4",
"dX c #DBB9E2",
"fX c #CDA5E1",
"gX c #E6ACE2",
"hX c #E4BBE6",
"jX c #EBBDEE",
"kX c #CB9EE3",
"lX c #DCC4DC",
"zX c #DBCADC",
"xX c #D8C7D6",
"cX c #DACCD5",
"vX c #E2C3DC",
"bX c #E3CADD",
"nX c #E7C8D9",
"mX c #EFC9D1",
"MX c #DCC5E3",
"NX c #DDCAE3",
"BX c #D9C8E6",
"VX c #D6D7E7",
"CX c #E3C4E3",
"ZX c #EAC3E4",
"AX c #E4CAE4",
"SX c #EACBE4",
"DX c #E4C5EA",
"FX c #E5CBEB",
"GX c #EBCCEB",
"HX c #EAC4E9",
"JX c #E7D2E9",
"KX c #E6C5F4",
"LX c #F3CBEC",
/* pixels */
"%.0 q O.! =X>X9XB S M f S 5.s.g.Y.s.@XwX-X*Xd # # - - ( ! +.Q ) Q w b b tXj m L V l G v ! ` +.^ f 1 # % $ $ 2   >   | W ` 5 ..) ",
"U ~ @.3 J.g.,X6XeXG.C.F.F.V.A.I.N.g.T.P.8X+XqX| M S :.4 0 O.0 ~ 9 ~ -.f U.<X1Xx B f S ;.! ~ Q y b F B 7 , 7 E @ 7 C ) 1.{ ~ W _ ",
"O.$.q 8.>.a.a.;XOX,X-XZ.S.G.Z.C.I.i.}.h.XX).#X+.Z B z t x ! 6X6X} X.X P n.9X*XiXxXF.A.Z.! ` e V 7.f mXaXv.'.Y D D 6.! $X6X2.[ 2.",
"! r F.-.:.U.x.E.7X3XOXGXzXbXV V v H K.|.i.s. XX F.D :.:.;X.X;X>X' W <.Z.h.B.0XNXHXbXh S } ! J.S.J :.].[.mX[.! N C M | ,X>X&.9 Q ",
"6 D :.h M ).T.h.U.6XqX@XjXxXAXv D j C 5.X.0 o ..G G.:X_.OXuX6XyX! ) Y 0 C.m.g.>XnXhXhXSXG B ,.( t `.v.[.v./.C ;.C S 4X<XOXQ X.) ",
"V 7.z Z f 0.T.x.0.p.4X4X2XrXAXcXVXa h =.~ @.! ~ c 1X;X<XuX<X4X4Xq  .! ' g z.x.I.:XtXZXiXxXt 9 #.) w ].^.].$.p j ;X8XOX@XoX@.9 ] ",
"h *.B 5.V ~.P.s.oXz.E.3X#XLXtXJXBXF S t [ X %.W <XbXhXtX+X_.(.g.=.5 @.Q f Z U.z.g.a.;X4X*X0 k.Q T #.{ r ~ $.-.<X;X6X6XuXj.! 6.4 ",
"D j 7 8 b j c b.g.a.x.U.T.@XAXMXmXv S ! ) ! 8 sXlXrXKX;X6X7Xg.x.:.W ! ] Z h 5.u.x.M.e.|.K.@.w ~ | ) ( ) {.yX@X;X3X;XOXL.Y.;.1 F ",
"V S 3 ) _ q / U.s.b.s.s.g.g.s.l.U.m y Y +.{ rXzXvXAXAX-XwXe.0.U.S.>.%./ d A =.C w.}.(.d.g./ ] _ / / r +XLXSXtXqX6X4XOXL.;.V C h ",
"J S ,.0 ~ O.) ` s.n.z.T.h.f.U.g.n.o.0 ( %.8XbXAXMXrX-X6X$X(.s.5.Z.D q ! A g z V V F V ~ _ X.y w ) o.5XGXlXGXCX;X<X-Xs.).n V V F ",
"s S b t ^ R ! ) ~ #.u.g.oXi.XXn.n.^ &.( q bXvXZXZX=X-X$Xz.U.|.0 ~ 6.j M b c L g 6.h V O.Y +.9 &.y dXAXlXlXlXZX;X+XoXi.q.y =.b F ",
"Z F f ;.! +.&.5 9 / 1.i.q.).c.s.E.8 / W tXbXlXMXAX,X7X6Xg.i.a.| ] 8 C G S G k =.V l g w ..#.Q ' 4XiXSXCXxXGX-X6X}.f.(.1._ | b l ",
"M M j v ~ Q o )  .( ( } =.V M B n y ) ' OXCXvXBX+X;XR.w.M.2.o._ ] %.3 s c J Q.tX<X,X*.{ e W 4 ) ;XHXhXCXGXOXa.z.N.g.4.&.+.O.q J ",
"f G C v e 0X9X! ^ ] / ..D Z p A >.. +.#.$X;X8X=XsXs.x.g.f.|.] ! T +.3 6.!.wXZXHXNX#X|.m...2.o $X4X,X6XL.U.a.XXx.w.z.&.^ / W ) Q ",
"; cXAX1X-X7Xu.~ ) ! W 4 D k C d V ..R q $XqXOX7Xq.T.g.j.f.W ~ ) t @.3.-XJXxXAXhXlXwXI.oX= # > 8X0X0.g.a.g.T.XXg.R.i./ &.0 ~ q ) ",
"lXnXKX.X8X@X|.q Q ` O.} * % = - % ; * - {.5Xb.d.T.p.d.XX_ ` ) W ) r +XLXhXNXzXAX8Xs.w.x.: & # n.U.g.l.M.g.s.u.T.W [ Q ~ { HXNXvX",
"iXzX3X3Xn.l.' ( ( ) w ^ :XSXdX=XR.x.& : T.p.N.b.d.(.K.* : R ' 4._ 9XDXFXzXvXCX-X$Xz.b.s.G j b I.g.g.g.s.e.I.9.3 ] O.0 o.rXlXKXnX",
"CX<XwXc.).V 3 ' +.e / {.JXJXCX8Xn.x.V j B S i Z V L V v k C H w *X2XlXlXFX:XqX9Xg.E.U.g.! #.r A.A.A.A.A.D.A.D.A.| 5 KXhXJXAX8X_.",
"7Xw.n.n.y.H.>.t 9 ~ yX2XlXcXiX-Xw.E.S.F.G.F.S.Z.C.F.Z.G.G.Z.C..X-X,XrXpX>XeX0Xa.x.f.XXd._ R ` Q ~.Z.C.F.Z.F.Z.:.p FXSXnXrX2X:X7X",
"|.L.I.P.J.>.H.F H qXlXNXFXAXnX8X|.p.6./.v.mX[.F.S.C.:.x B Z {.pX5X5XqXwX6Xe.0.(.U.}.n.R  .t X $.M F N F f V A Z l ;X>X,X>X*X|.p.",
"a.D k Z V J H.Z.1XtXSXJXrXDX{.e.f.Y.H `.].aX[.aXB 9 <.9 @X<X#XkX@Xs.r.l.g.z.M.M.s.i.4.$.T _ U.ZXnXlX1Xb V V C j b |.f.}.d.T.T.x.",
"6.F k >.s F B qX;XGXlXnXzXnXL.T.x.r.V v./.^.&X`.[.{ ^ ~ 8XU.(.U.g.oXe.L.L.U.j.l.1.q 8 3.) R R.iXHXMXAXNXD z F h C K.R.w.M.g.f.e.",
"l z >.%.0 3 ;.OXZXCXxXlXSXQ.f.g.g.s.:.M l '.]./.1.9 } ~ M.m.u.(.U.0.5.; 7 B G.V.j.Y X.q 4 4.B.Y.lXGXtXAXlXD G s d 7.H e.}.g.] 6.",
"Z V C W R X.7X*XbXvXFXKX!.E.s.l.I.H h V K c #.q R ] _ @.( r ` / S G j % 1 c 7.e / ] . 1.O.' f.l.AXlXSXZXbX=Xm J ] R o.' ' ' ~ h ",
"C M C ) W ] >X8XAXCXZX>XU.d.%Xp.K.,.C 1 F S ` ( [ ~ ~ 0 ` X.5 ' q ;.V & 1 b | E ' Q %.Y ..8 N.z.DXMXMXlXSX+X5.e ) ^ $.[ r ] ..*.",
"V Z D q )  X*X-X;X:X-Xl.z.h.a.U.J S C A ;.c 5.q Y ^ @./ @.~ / |.7X5XC # * 7.0 ` w { @.) ) W E.d.K.HXGXvXvXtX3Xw ` 0 5 ~ $.Q t F ",
"S s V =.q dXwX+X5X7Xp.x.g.s.P.7.j C C j E.zXvXzX&.) O.@./ ) ` g.w.,X:XAXBXBXpXSXcX3.0 [ _ =.Y.XX).+XCXCXSX:X5XQ [ 0 e %.Q ) *.f ",
"M C S S 3X*X+XwX0Xe.g.M.b.K.7 c l C S F i.CXJXcXdX..8 ] 0 ~ { s.a.y.6X8XMXbXGXxXFX:X<.w 6 5.U.x.a.T.+X>X,XtXqXQ / #.$./ %.c V J ",
"S A M f 8X>XqX6Xq.U.}.h.|.; # & % # - : z.LXrXlXnXAXe ~ X.] / f.oX1.s.s.6X,X;X:XT.n.8 2.V Z w.s.oXh.gX3X+X{.3X6XR Q 8 X.D Z h s ",
"C p S A {.7X9Xe.XXs.u.) } $ & % = - @ & p.U.FXDXnXMXKXQ ] ^ @.' h.).N.l.e.f.).i.d.oX[ a Z S s E.a.b.u.0X8X8X>X-X;.V ;.C b C Z F ",
"& : : $ {.Y.a.R.n.r ~ ^ ! G > - @ > @ @ z.a.8XCXlXJXDX3X9 o.3 w L.Y.r.g.f.T.x.x.|.g.# @ - % 7 - I.R.s.T.OX6X;X=X% @ $ !.SXNXxX* ",
"d F f n H n.M.0 ( ~ ~ O.} v A F j V V V oXY.,XAXAXlXZX;X{.m :.v D n a.z.b.b.p.T.w 7 : - # : ; % ; 0.(.g.a.-X8X=X  y Y.7XvXvXhXSX",
"NX:.h P C h 6.5 9 O.+.9 w H _.R.n h S S |.).g.4XNXDXFXjX-Xk g ;.g F j k 5.O.4 k j p y % % : # >   ~.e.h.s.R.6X*XC V l.g.6X7XrXbX",
"bXtXF.G.D.| . &.y w / ~ BXDXqXn.U.L j J e.I.XXwX-XmXxXFX,XK !.S j x F f G.t . G.;X;X:X6.k g M S :.5.r h.n.n.g.@XV B q.oXE.+XdXiX",
">X,X:X~ U T +.| ^ / ] 5XAXSX6Xa.M.M C d U.L.a.).sX<XzXBX,X+X| A.G.J.J.A.C.V.G.5X@X4XsXY.0.F F c 0 X.) 0 2.u.g.XXF.C.T.h.g.s.3X6X",
"6X;X$X9X{ +.! V ] W Q BXAXiXOXXXb.S K M 9.f.(.XXy.OX:XdX,XsX_ 4 4 q 8 ~ Z.D {.jXHXMX*Xs.l.n | Q X.^ w r _ X.;.B f ;.T.XXg.oXP.3X",
"a.wXOXtXtX! 4 J R X.| NXxX{.<Xr.U.a v L %.u.b.).+Xz.uX>X;X>X>Xw #.~  .R 1.>XxXhXvXJX{.g.oX5.) ' _ ' 0 q %.! F g Z D r a.g.q.oXU.",
"g.s.T.i.3.|.| m V 6.m AXGX3XY.b.0.z z } Y O.#.g.).j.z.U.8X-X,XO.^ ! 5 <.W +XnXVXvXZX(.h.d.e 5 X.R O.#.#.T u J g N =.q 0 M.oXi.x.",
"}.d.g.p.oXU.6.b G s 2X*X-XwXg.s.XX= q | $.~ O.X %XE.e.q.%XqX0.O.( [ Q _ 3XFXAXpXdXqXh.U.).X.~ ^ Q &./ / w 6.n v F q ! } T u.U.b.",
"_ ) ~ ( W s l g g C ,XOX0Xu.s.s.b.q _ ! / ..0 %.] V n i.i.(.f./ ) 5 ) 9 FXCXlXZX=X;XN.a.a./ [ Q ` r [ q V N F M 5.0  .R O.) q ) ",
"+.q ) E S l M j B *.eX8X5XI.d.T.$ 4 ! W 0 ~ +...j V g N d S 6 $.^ ' ! 9XiXzXlXHXOXoXx.l.|.9 ) _ OX8XHXlXJXxXlXZX/ ) ( q | ~ / +.",
"q 8 C k S V A c C =X*X+X).z.s.N.# ( @.] &.) O.b Z C D b 7.V b w ~ ! 9 6XCXlXLX4Xb.Y.l.E.o ) [ K.R.6X-XrXlXAXSXSXDX| ) W ) ) 3 q ",
"z S k l h D *.| Q OXpXsXe.i.P.B - q ~ / Y } B l M :..Xg.r.C N S *.t 4XtXDXiX-Xq.a.s.a.oXm j D |.T.a.6XeXCXAXJXyXxXMXq | q 8.7.F.",
"j >.>.p J e %.^ ` 5X_.(.m.|.H 1 & . +.t a C D a D _.0XsXP.J k k V z -X#X;X7XE.l.s.oXh.= & > J C.s.a.(.s.+X-X;XGXbXJXCX9.b G 6.M ",
"f -.a A } +.W ] ^ uX4XB 1 H 9 O.^ 2 - $ # a n =X,X;X0Xx.0.V g S g G ,X6X6Xw.a.XXw.b.X.u % & B F.b.g.s.s.XXs.OX>XhXiX1XD A l Z :.",
"j G S b ~ ) 0 q t ! 2 7.p a ; q w ] R : @ zXZXOXOX7Xe.E.:.Z C D Z v ,X9X6X(.a.b.%X~ ' +.8 % z ! { u.h.g.XXg.q.oX6X7X*X=XF.G j J ",
"$ & 2 } 8 o.^ w $.9 2 + @ aX].'.~ 8 %.W BXNXSX0X0X6XU.s.O % % 7 V *X6X0Xi.s.T.|./ T ! } ) d.g.3 ] 0 #.` u.|.|.f.U.a.XX6X:Xx a & ",
"-X$ # q @.Y @.( ~ w >.G aX[.aX/.+.~ _ ZXnXSXW.qXs.E.q.}.- + & @ * ,X6Xa.R.a.d._ ` ! ) [ b.d.M.x.0 X.Q ~ ] ~ Q _ Q }.t.).0.7 > > ",
"6X<X6XCXAX! 5 ] o | n '.[.]././. .~ jXAXzXzX=Xe.E.N.g.S B G J c , sXXXa.I.$.] Q / q ] O.f.a.(.>X3Xe @.Y #.Q  .T 4 z 7 * % , > ) ",
"3X,XOX2XnXzXcXbXKXSXS.S.G./.].q Q 6XhXSXiX8Xs.z.w.oXe.Z.S.F.L Z.L s.I.m / ' ! X.] ! Q O.oXq.XX;XqXCX0 | o.w 3 #.8.D L F F.7.q ! ",
"f.#X9X:XvXSXxXxXzXBXBXF.S.8.0 [ ! 4X<X<Xa.|.b.x.g.L.6.A.C.V.H.V.V G m 7 _ ] ( 8 ] ) 0 ] c.b.}.3XOXbXJ.D.-.A.G.i.=X7.Z.N :.q O.~ ",
"x.U.3XqXOX6X,X;XvXvXSXpXp G ;.5 ) sX+Xw.}.T.u.T.%Xv f F D M N Z Z.C D ! 3 ' 3.( $.9 t w x.a.oXOXwXxXBXZ.F F.F T.6X1XG.H.t Y q ~ ",
"(.e.L.s.s.gX$XOX7X8X4XCXF l p -.r f.p.oXl.s.a.Y.Q M g S J c D k A G.x ) #.Q t $.' X.t A.Y.a.OX6X-XbXlXD d C f T.a.9Xs c +.@.` W ",
"Y oXl.d.|.0.p.).e.|.u.c.S B Z j 6.E.W.Y.u.y.[ / ! ;.M j c S z A z J q ~ ] e ' Y ` q G.A.Y.).>X,X3XbXxXF.Z V S a.U.8X{.8.( / ) $.",
"+.@.U.q.|.T.f.x.}.(.x.b.t n C Z p V *.2 ~ &.R O.~ q *.xXJXBXcXzXGXh ~ 1.!  .$.X.3 7.x -.i.i.eX+XqXnXZXJ J C V g.(._.,XnXrX^ &.| ",
"Q 3 c 5.e.l.M.P.l.d.}.}.! w *.V V f G 5...W ] q ~ @.#XnXiXDXMXZXlXJXhX{ ~ E ) r L D g B B.g.-XwX6XlXFX-.f B M l.f.wX8XnXcXJXR - ",
"2 a L M J GX|.p.L.P.X./ O.r P.$XCXbXc j j ;.q q } 8XuXW.xXFXzXMXAXlXHX;X;X0X3XZ.B G A V D K.9X8X>XFXlXD c h G i.(.a.8XMXxXLXnX$ ",
"% a c J k h Z M H 5.5 Q @.T.r.uXCXMXc a A S *.7.*.I.U.gXhXnXpXGXlXDX;X+X8XOX;XZ.J f j :.^ n.>X;X<XAXxXC D M F x.i.(.-X;XDXCXtX* ",
"  & < f xXrX_.U.a.` ~  .g.s.U.#XDXlXzXD G V V c C U.a.g.8XbXGXBXAX-X3XeXOX6X9.g b d :.} Q [ p._.>XlXn V S V V b.XXi.gXqX4XtXJX@ ",
"&.X.2 zX4X6XuXd.f.~ @.^ j.i.i.9XCXCXzXxXc Z j j N S n.a.T.e.*X6X8X7X$X-Xr.L.F.f S 7.8 o.W 1.Y.sX6X8Xc j G Z V E.oXj.a.OXOXpXlX@ ",
"W Y jXSXlX!.L.p.4.2.Q W M.T.e.yXtXvXJXxX6.c Z V k H e.(.z.b.).a.0.(.}.}.U.; f Z V q 2.) 9 / X P.OX8XJ Z z g j 5.a.XX(.T.(.OX=X- ",
"{.2XHXHXU.w.l.(.+.( 5 | (.w.x.d.*X*XvXvXlXD G V N >.C 0.T.}.g.d.XXg.f.}.o ; < Z G r U +.o.$.#.C yX;Xc Z c Z I c f.XXs.Y.i.U.8X; ",
"3X4X+Xa.M.d.P.; X / %.O.Q }.}.z.-X8X8XZXvXlX@ @ @ * % ; ; >  .) T Q X ' ..* @ a C } _ ... 0 =.l ;.m Z V 7.f 1 : ` X f.Y.f.f.[ q ",
"O.0 [ ! 7 : > $ ] ~ 5 8 2 E.e.g.|.OX6X*X=X1X; @ $ : =   & 7 3 @.] 4 ! ' } x a $ * o._ 0 - @ - @ % >   % O @ $ * ) [ ] ) X 1._ ! "
};
