/* XPM */
static char *_582868263417[] = {
/* columns rows colors chars-per-pixel */
"64 64 252 2 ",
"   c #454E3D",
".  c #553A5C",
"X  c #4D3C58",
"o  c #61385C",
"O  c #4B3966",
"+  c #543B64",
"@  c #5C3B65",
"#  c #553B6C",
"$  c #5B3C6C",
"%  c #583568",
"&  c #5B3C73",
"*  c #5A3875",
"=  c #54336E",
"-  c #623B65",
";  c #623D6C",
":  c #66396B",
">  c #633C74",
",  c #6C3D74",
"<  c #623C7B",
"1  c #6C3D7A",
"2  c #653476",
"3  c #733C77",
"4  c #6D2E7F",
"5  c #3E4B4F",
"6  c #494B48",
"7  c #534C4A",
"8  c #49534A",
"9  c #53574B",
"0  c #4A4A55",
"q  c #524C52",
"w  c #57475A",
"e  c #485454",
"r  c #5B535C",
"t  c #585857",
"y  c #655A5B",
"u  c #614658",
"i  c #5B635C",
"p  c #596A59",
"a  c #5C6B51",
"s  c #65665C",
"d  c #534263",
"f  c #5B4363",
"g  c #5C436C",
"h  c #5C4B6C",
"j  c #564867",
"k  c #5A5965",
"l  c #5D4373",
"z  c #5B4677",
"x  c #514768",
"c  c #63446C",
"v  c #66466A",
"b  c #635C64",
"n  c #665969",
"m  c #725D6A",
"M  c #634373",
"N  c #6A4374",
"B  c #644C73",
"V  c #64457B",
"C  c #6A447B",
"Z  c #644A7B",
"A  c #6A4B7C",
"S  c #6A4B74",
"D  c #734579",
"F  c #675675",
"G  c #744D73",
"H  c #5B6766",
"J  c #5F7271",
"K  c #646364",
"L  c #656A64",
"P  c #6B6B65",
"I  c #646469",
"U  c #6B646C",
"Y  c #646A6A",
"T  c #6C6C6C",
"R  c #6B6463",
"E  c #726C6C",
"W  c #766967",
"Q  c #6C736C",
"!  c #697567",
"~  c #72746D",
"^  c #727A6C",
"/  c #79756C",
"(  c #6C6C73",
")  c #6A6877",
"_  c #746C74",
"`  c #7B6E74",
"'  c #746C7B",
"]  c #7B6D7C",
"[  c #766576",
"{  c #6D7373",
"}  c #6D7B73",
"|  c #6B7779",
" . c #747373",
".. c #7A7374",
"X. c #747A73",
"o. c #7B7A74",
"O. c #73747B",
"+. c #7B737C",
"@. c #737B7C",
"#. c #7B7A7B",
"$. c #82697A",
"%. c #82737C",
"&. c #837979",
"*. c #815E7C",
"=. c #728274",
"-. c #80827F",
";. c #693A84",
":. c #733B85",
">. c #5E4781",
",. c #684584",
"<. c #744785",
"1. c #6B5685",
"2. c #754E8E",
"3. c #7B6D83",
"4. c #756B82",
"5. c #757382",
"6. c #7C7483",
"7. c #797B84",
"8. c #716E87",
"9. c #846C86",
"0. c #847687",
"q. c #957C9D",
"w. c #A96E9C",
"e. c #AD5CA7",
"r. c #B36AA9",
"t. c #AB7AA7",
"y. c #B57CAD",
"u. c #B978AB",
"i. c #B57CB3",
"p. c #BC7CB4",
"a. c #BC7DBA",
"s. c #B876B7",
"d. c #AD6FAC",
"f. c #986398",
"g. c #C37BAC",
"h. c #C37CB5",
"j. c #C37DBC",
"k. c #C879BA",
"l. c #CA72BE",
"z. c #B97CC2",
"x. c #BB6EC0",
"c. c #C37CC2",
"v. c #CC7DC4",
"b. c #C87BC8",
"n. c #CE79C6",
"m. c #79888B",
"M. c #788994",
"N. c #769392",
"B. c #6C8893",
"V. c #84888C",
"C. c #868A97",
"Z. c #8F8E99",
"A. c #AC86AB",
"S. c #B583AC",
"D. c #B887AB",
"F. c #AC85B6",
"G. c #B583B3",
"H. c #BB83B4",
"J. c #B48BB3",
"K. c #B484BC",
"L. c #BC84BB",
"P. c #B68ABB",
"I. c #BB8ABB",
"U. c #BB8BB4",
"Y. c #B992BB",
"T. c #AE91AD",
"R. c #8E85A0",
"E. c #C383B5",
"W. c #C28AB4",
"Q. c #C384BC",
"!. c #CA83BC",
"~. c #C38ABC",
"^. c #CA87B8",
"/. c #C997BD",
"(. c #CC89B4",
"). c #C5A7BC",
"_. c #BFDABB",
"`. c #BC83C2",
"'. c #BC8BC3",
"]. c #B88AC5",
"[. c #B691C4",
"{. c #BEAAC3",
"}. c #C383C2",
"|. c #CA84C2",
" X c #C48BC4",
".X c #CA8BC3",
"XX c #C888CA",
"oX c #CA9CC7",
"OX c #D39CCC",
"+X c #D29EC4",
"@X c #D69CD2",
"#X c #CF90CF",
"$X c #E29ED8",
"%X c #CCA4C5",
"&X c #CCABC5",
"*X c #CDA4CB",
"=X c #CDACCC",
"-X c #C5A7C7",
";X c #D2A5C6",
":X c #D3A4CC",
">X c #DBA3CD",
",X c #D4ACCC",
"<X c #DAABCD",
"1X c #D6A8C5",
"2X c #C9B4CB",
"3X c #D4B4CA",
"4X c #CDA5D2",
"5X c #CDAAD3",
"6X c #CAABDA",
"7X c #D4A5D3",
"8X c #DBA3D4",
"9X c #D4ABD3",
"0X c #DAACD3",
"qX c #D5ACDB",
"wX c #DBABDB",
"eX c #D7A5DB",
"rX c #CEB3D3",
"tX c #D7B6D7",
"yX c #E3A9D8",
"uX c #E3BADC",
"iX c #E2AECB",
"pX c #DAB0E3",
"aX c #E5BAE4",
"sX c #E7AEE6",
"dX c #DAC4D6",
"fX c #DCC4DB",
"gX c #DDCBDB",
"hX c #D7C7D6",
"jX c #DCD1DB",
"kX c #D5C9CD",
"lX c #E2C4DC",
"zX c #E3CBDC",
"xX c #E5C7D9",
"cX c #E3D3DD",
"vX c #E3C5CD",
"bX c #DCCBE3",
"nX c #DDC4E3",
"mX c #DAD2E6",
"MX c #CCC8EB",
"NX c #E3C4E2",
"BX c #EAC4E4",
"VX c #E3CCE4",
"CX c #EBCBE4",
"ZX c #E4CCEB",
"AX c #ECCBEA",
"SX c #E8C5EB",
"DX c #F4C9E7",
"FX c #E7D2E6",
"GX c #F2D2E9",
"HX c #E9CCF3",
"JX c #F3CEF4",
"KX c #FDF1FF",
/* pixels */
"L i m H K xXBX*X;Xy J i.$ ; # Q.j.}.:X1XwXSXgXV.V.* < w C.l l @X7X>XE.E.a.# Z.B.V.m.N.m.8 8 8 7 Y I l ; % l R H R > + $ g K K K ",
"T  .T E hXAXSX9X^.U.[ % ].E.U.2 $ j.D.y.j.wX2XlX@ c # $ M.m.C.-XqXF.E.j.> Z.B.N.M.M.7.( n q r r O.b A % N # _ X...; & ; + ( E ( ",
"R T L cXCXnX*X~.|.1.4.3 H.zXkXXXI.> H.W.I.7X>X4X* + l % N.7.rX<X9X].h.a.+ m.N.V.7.C.2X,X,X&XdXFXgXw % * l $ 0. .#.+ $ * % ' ` T ",
" .K ..lX%X5X~.L.& BXaX>.+ dXxXHX!.P.F 6.J.u.E.pX> , % v | tX@XOXh.q.'.C g ` Q E.=XqX7X:XyX:XuXVXlXZXSXg + d +._ ( j g V < F U Y ",
"Y ` cX%X0XwXQ.: *XcXmX= , ZXgXkX9XH.W.*.V.| P.k.x = d #.5.oXaXp.g.w 2 % g j  .a.E.i.Q.j.L.:X,XtXGXfXlXNXd +.O.X.+.5.+ @ & # T { ",
"! [ 2XY.qXH.a.; 3XxX).U.< qX3XGX0X-Xh.W.7.7.; % 2 : O.( O.s _.6.O.} < ; # & &.`.^.p.}.}.i.U.<X/.).BXCXnX0...Q X. .7.f f V % ~ ( ",
"T ( ,XaXOX XF.; zXDX>XW.+ P.tX>X-X9X.Xi.O.( j M l [ } ..@./ a ..{ ~ g @ & # ^ 5.$.w.L.a.c.j.L.wX8XeX0X%X=X..#.! +.Q ] ] Z % T T ",
"W Y &X8XL.L.g 4XSX@X6XW.m W.K.9XyX-Xa. X( 7.: # w #.( ' } %.#.Q  .T 8.g < - / X.O.] 9.r.r.r.e.r.H.`.S.qX,X] 4.Y jXX.#.E O $ T T ",
"R 7X@XD.c.`.# %XlXqX`.~.I T.k.c.9X>Xp.Q.5.3.g : ]  ./  .} $.bXVXCXbX~ ..l # E o.` } n w.HXzXlXZXV D d.c.a.3.D.@X9XfX+._ ( _ I Q ",
"W rX].H.G.E R.sX,X5X}.y.m n j.|.Q.p. XH.P =.{ { O.Q ] m Y D.7X,XlXVX....O B E O.%.Q VXNXuXzXCXgX4X;.2 9.D @ L.E.*XCXbXkXE T ..Y ",
"g {. X[ ` ) G.:XOXY.|.W.W H J.H.K.p.h.^.X.! O._ bXxX-XW.) u.sXoXCXnXjX..O.' o.{ X.gXCXVXlXAXlX1XwXC D G.S.[.,.s.1X=XNXgX&.P L ( ",
"2 * , ! s U c.&XwXL.s.^.L t k t.XXE.}.u._ ` 0.bXxXDX9Xs.g j.'.I.9XJXhXkXO.P o.O.{ lXaXBXmX7XoXiX:XM I.BXBX4X1 XX0X9XAXbXkXy L O.",
":.d @ @.T T !.H.'.E..XG.H P q w j.p.i.Q.] %.FXhXgXoXP.c.l |.s.j.H.7XtX .^ =.E 5.kXCX@X9X,XeX}.P.D tXnXNXBXrXc L.i.;X%XzXVXw _ L ",
"& O - ( X.O.G.Q. Xh.|.# U K 6 q U %.A.P.O._ hXBX9XW.'.K.X - v.a.p.sX2X_ o./ ] 2X<X5X*XU.y.XX}.g K.tXVXAX*X&XG G.#XOX3X,XnX# [ ..",
"! M < ..T _ '.Q.}.W. X= f U 7 8 ! p ) + w lXJX=Xj.h.a.c 3.5. Xi.a.+X=X%.T 6.-X:X:X8XP.}.p.u.B <.SXbXlX=X7XwX% ~.s.I.;X*X4Xg O 6.",
"..O.Y R $ w 3.W.k.H.l < @ U 6 6 U ' V 2 d ZX9X%Xj.!.Q.+ %.` f.}.Q.H.&X+.] -X5XyX6XQ.u. X!.w 0 i.aXbX<X3X7Xc.,.p.p. X7X7XeX; g d ",
"O.o.[ > C = %.T.'.J.- 1 $ i 9 5 f ; + M OXeX<XS.}.W.@ @.} $.w.}.P.H.,X+.' ).iXb.k.p.G.c m 5 K.9XzXyX*X*Xj.Q.w I.p.~.p.yX=Xd # l ",
"Q / g + * g ] %.%.O.] $ * U 7 w % l + + tXoXH.}.j.K.] [ ~ #.9.a.h.v.;XX h ,XH.U.J.> > & b 9 H.OXrX@X:X/.a.H.k 7 H.E.p.y.qXc # 2 ",
"#._ & M & g 3.T ( 7.~ o.d I 6 < # l c ,X0XH.a.z.H.Z 6./  .! T U.a.}.7XtX* $ [ | g * # < t r >X<X9X$XE.u.F.9.Q  ., i.a. X9X. $ > ",
"Q d # > c O O.o...( ^ W I Y 6 @ g $ 7X@Xk.h.'.; M % # #.O.~  .+.H.u.c.7X$ # #.} N * w > L A.:X=X<Xs.XX!.| o.+.@ , D L.i.*X9.f + ",
"+.$ , < c h ' ~ _ V.~ ..K H w f & % wXG.W.D.9.f = N @ O Q 0...#.%.'.a.I.+ 6.O.P $ $ f > L z.pX*XH.K.L.H.X.s S ;., <.: 0._ U @...",
"f $ * @ + _ 6.X...Q Q / W b d < = Z w 6.#._ 6.0 $ M * $ 0.T 5.X.! # 2 . { { ~ #.[ x N + R XXs.E.s.T.C.%.W G 3 * , > f _ ~ X.L { ",
"@ > & $ j o._  ./ | 0.tXnXZXVXaXC . ' ! ^ Q O.5.; @ * c . o.{  .#.. > &.o.6.xXxXjXbX> F s u.!.H.~.` m.m._ G 3 D : D w O.o. .#.6.",
"M * f & 3.~ ~ O.6.z hXxXAXgXkXCXNXdX[ .. .....O.v * * M j ' ^ ..+.l ] ^ Q bXZXlXBXhX0XH K ].G.[ U / V.fXjXuXpX@ <.@ 6.O.#._ @ & ",
"+.c MXvXxXC V 6.] >.@X-XDXaXCXSXAXlXlX' } ~ @.| { v ; & S 9. .Q ..` 6.#. .VX>X9XNXzXAXU m 8 6 ) T | bXgXgX8X!.M N ( y o.Q 3.V + ",
"' dXhXDX,XqXc z n 2 V :X2X0X-X-X-X0XJXmX@...E  .{ ) $ SXnX=X,X' gXjXoX3X5.4X/.wX,X3X).-Xn   9 +.W JX%XrXyXH.$ C NXgXjXV.V.S O N ",
"bXcXzXBX4XwXc Z 2XeX<.C ).5XyX=XqX;X).2X+.' +...X.#.nXBXFX0XoXc ZXfXqX>Xc A H.}.S.;X7XeX4.8   W 3X/.8Xx.r.J.3 G.7X2XVXfXC.# > . ",
"dXbX0X%X9X`.& 4XNXZXXX1.t.H.i.:XwX<X1X1X=Xj f $.{ GXhXgX&X:XqXC SXlX9X>X@X* S `.b.Q.*X1XK 8 e @X9X<Xv.s.f.G b k.p.&XuXVX0 w : qX",
"vXtXOX<XD.XX;.0XdXGXaX,.l h.s.E.i.S.+X<XoX# g g n lXCXzX,XOX].<.JXhX9X0X8X.Xj v  XK.|.k.H.6 0 ,XK.!.i.H.v k y t.c.!.8XzXt t + *X",
"&X=X@X0Xp.<.i.0XgXzXFXoX'.D p.c.Q.L.H.yXpXV = * X FXfX%X0X|.r.1 y.FXoX&X>Xp.H I ; N p..XE.0 r T.|.G.E., b 9 H y }.h.~.<X9 8 =X*X",
"3X;X@XP.a.;  X+XlXVXzX9Xs.c S.i.s.p.L.j.H.. l V ZX-X,X0X7Xj.u.S L.D.9XrX>X~.k t i r J.i.I.w 6 i w e.: c : b H t H.J.s.@XK 6 0XtX",
"*XwXa.p.|.V p.,XSXbXzX>X XD.w ~.j.}.`.Q.H.w f $ 7X>X9X4Xa.|.Y.0 c.H.k.5X4Xh.e 7 8 7 q w 6 7 8 6 e . ;.,.D , 6 7 w W.L.K.w e >XOX",
"G.c.n.XXu.z XX,X*XAXxX:Xn.W.8 q 8 a.W.j.c.e , 1X9X7X0Xk.H.U.q 8 M !.}.OXyXG.f ,.q e e 6 w r 0 e 6 w f * <.N e 7 8 7 e q 0 0 *X~.",
"U.c.u.`.W.7.s.U.wX;X3X9Xc.y.N.m.C.m.u.(.D.M.N.:X;XqXG.k.!.J.M.m.M.s.j.J.G.L.;.x d 0.V.VXdX2XC.m.m.M.B N % AXtXcXV.m.Z.m.M.,X5Xh.",
"h.!. X'.; C.v.k.I.:X%X=Xc.i.m.C.M.M.C.x C.M.*X>X8XJ. Xa.|.h m.m.m.C.H.XXL.p.> = ; ZXbXZXtX5Xc Z.R.B.Z.- rXBXVXCXhXuXC.v c qX!.p.",
"#X8.q.< M.N.H.i.a..X:X7XQ. XM.m.M.f @ 5 B.C.iXL.v.s.H.A ; m.Z.M.m.m.i.H.K.a.- V $ SXnXVXuXOX[.S z B v q.9XuXmXuXDXFXA ,.B r.F..X",
"y.D . z , Z.m.W.a.a.s.H..Xy.3... .$ # l V.W u.F.Q.W. Xz g @.Q { } { ] k..X6.. + nXFXfX,X:X8XP., =X*X9Xz P.qX-XDXxXnXMXA <.Q.|.k.",
"f $ x = M M.| O. Xt.#Xa.u.!.f ..Q ;.x ;.F ^ n.!.D.9.> ;.<.O.^ ..9. . .}.t.=.&.% gXzX&X;XwX8XL.9XCXnXsX> &  X+X1X,XDXHX: N H.y.~.",
"q V $ % > '  . .$.T.k.}.~.h.@ O.%.- V = z @ 0._ +.P r C $  .( @ X g C ../ 4.O.VXNX9X%XyXp.~.oX0XxXFX8XV Z |.!.8X*X%XqXv ) U H n ",
"6 # > l + v { / X.' a.a.i.}.V ( J G d 2 * g | ~ 7.8 9 _ @./ w ;.g 2 + O./ #.6.).4X0XL.j.j.I.:XzXVXlX%XA > i.P.`.5X8X5X,Xn s L R ",
"9 U E + * $ / {  .+.O & - > * ^ +.% V M O d | / / 0 i X. .+.& ; $ z % _ %.} =X>X9Xp.h.L.`.eX>XgXSXqXOX!.=.Q.c.h.Q.%XqX=XH L _ p ",
"0 { I # c j ] 5. .j V M ; & X / } 6.h = C ; +.$.8 q V.L ~ f g * # % N X.( T 9X9XG.!.j.K.H.:X=XNXdX,X~.U.{ h b.a.y.#Xl.h.D.y K I ",
"6 P P 8.X.[ O. .o.& = - * z O.0.X.W ' > ;.% 6 e 6 y 6.&.$.+ c * N d 8.o.%.0.wXu.H.|.i.^.' >X:X7XrXiXh.$.0.| s.~.U.a.a.L.P.[ K I ",
"r K Q { / o./ ~ R & ;.; Z w E ] Q  .T w < D 6 t s r nXzXxXg $ & d 6.Q =. .G.}.p.|.p.T.9.A.0X:XpX@Xi.p.| _ =.` D.k.b. XG.c.~.y R ",
"M V O.Y P _ X.O.E + 2 % d KXjXzXgXtXT Q w X r t y 2XhXxXCXNXl . ' +.^ ! O.H.|.h.s.U.( 0.U.@X7XoXb.`.A.| / ~ Q 9.N s.H.D.l.G.K H ",
", >.] W o.7.o. .7.0 + S KXFXVXzXDXoX&XP [ 4.) 6 y 6XAXaXAXtXZX0.~ 6.{ 6.$.L.L.W.d.5./ _ g.}.v.J.L.p.O.6./ { #.V h ,.C S F T ) j ",
"N F P s o.4._  .) ..6.[ jXVXtXCX5XeXY.9.oX2X).<X,XN '.*XBXAXNXzX} - c Z 5.p.D.' ] `  .$..Xa.K.h.p.H.O.+._ -.( ,.N 1 <.C L H v :.",
"z 4.T T / l A X.@. .^  .zXNXJX-X9XH.h.> wXVXxXAX7XG.:.H.S.7XlXxXO.D ,.:.d D U @.Q } ..D.G.I.}.h.XXM v / 6.! { N ,.1.< S i Y M ,.",
"0 ~ R F 1.Z l Z  .| ] CXlXbX,X9XI.}.2 z :XzXCXnX,Xc.C x.w.~.4X9XAXz C M <.z 9. .` X.' i.Q.H.y.L.>.c <.& / #.z C ,.: 5.=.y ) S z ",
"0 T E F & Z M <.^ { zXDX%X&X8Xa.p.a.2., 9XGXfXZX%XQ.f XXE.u.wX7X;Xl A V 1 1.c ~ } ! +..Xk.S.6.' ,.> 1 1. ._ l , M G 5.#.FXgXI.d ",
"q VXlXfXc 2.,.; .._ -XoX0XpXi.}.j.`.C Q.:XAXlX,X0XL.] '.h.k.d.0XpX[ A ,.; ,.< ! $. .^ T _ ` #._ ,.,.<.; VXjXZX7X- 6.7.hXAXfXBXW.",
"zXdXVXCXaX,.C A [ tX9XwXoX8XW.H..X; l h.*XaXSX%XOXW.U F.|.c. XA.7X..M >.G l ,.Q ..X.! @.@...! ^ S < M BXVXCXtXpX~.4.mXVXxXVX&XE.",
"lXlXCXNXJX$ A 4.0.&XOXeXXXL.H.Q.p.h 4.W.I.wX*X,XQ.p. .S G.s.XXy.7XE [ z > ,.D '  .{ =._ ] ] O.} [ F ZXxXSX=X1XL.K.B xXzXxX;X4Xr.",
":XtX*XlXlXM h #.! ).<XK.a.|.}.c.v ) ' t.H.a.9X:XL.`.{ [ c XXa.^.H.U E ) A ; D HXfXFXR X.7.B c 3...mXdXxX9X9XW.c.3 M AXlXDXqX6Xe.",
"XX;X;X9XwXxX%.) X.tXOX Xp.p.y.S U ( L ] E.}.eX=Xa.p.#.( [ J.i.!.i.` P ( A <.d.4XCXlXVX0.z < c  .' VXlXtX7Xi.H.a.<.Z fXAX%X4XqXr.",
"z.~.9X*X9X=X..O.3.D.j.}.h.J.[ T { T s T Q.a.H.,X}.j./ ( P [ I.k.}.P ! Y [ , Q.P.*XeXAXv g <.M O.zXBX0X*X8XL.}.L.z HXaXfXtX7XE.e.",
"XXs.H.0X;X=X_ / ~ k.n.G.,.V ' P W T ' h N I.H.8XI.x.$.T ! ) L.D.J.T ! [ Y E G.j.9X:X=XbX,.N +.| qX+X<X'.u.!.L.M V AXgX/.iX5Xy.r.",
"u..XI.s.$XrX| T T S.`.; ,.M L  .Y I 5.B 1 , a.L.y./.b { ! ) ` E m ' L ..3.Q (.].L.@XrX&XC g #.m.-XuXy.p.H.~.a.:.6.lX=XuX7X`.P.n ",
"u Y.d.b.j.L.9X{ O.[ A ,.C S / T ! T h < ;.:.].p.v.S.k S o Z %.O.{ 0.~ bXgX/.$.K.J.l.yX;X- 5.} ;X9XE.u.Q.b.l.t.O.! *X5X/. Xb.p.K ",
"6 O.A.v.b.p.~.M h t n Z ;.B t k k n v S A M C P.H.7 q A D & t e I t xXFX*X&Xk.k J.'.s.0XU H n 5XE.a.XXs.u.Y.k a y 9XpX~.g.n.w.P ",
"8 H [ U.G.i.i.:.,.i 9 M ,.z k y i n @ , A x m t b 6 9 & 4 ,.F n i gXzXOX2X^.h.H G y.!.%Xy r J.j.c.a.K.n r n n t E.h.!.p.h.J.m t ",
"  r y r n N 1 Z ,.9 s m V 1.n hXFXtXJXCXtXb k t k e 7 ,.2.;.* D t GX/.rXz.h.G.t r n g.W.H k g.H.G.U t y w z k y b.~.t.c.~.r T e ",
"w 6 9 n $ Z Z <.C   t b t F &XAXCXCXNXZXNXhXr s 9 6 7 8 k $ Z A zXOX2Xp.K.}.E.H k p t k i t k k p 9 k > <.z r y `.K.H.c.I.6 9 0 ",
"e 6 6 8 A ,.V v d   e 6 8 7 0X%X%X,X&XNXDXzXVX0 9 6 w 5 q 2.l ,.,X5X>XH.L.h.c.  6 8 q 7 6 6 q 6 q 9 q V ;.z r 6 ~.u.k.r.e.0 6 q "
};
