/* XPM */
static char *_583585109123[] = {
/* columns rows colors chars-per-pixel */
"192 64 48 1 ",
"  c black",
". c #010101",
"X c gray5",
"o c #0E0E0E",
"O c gray6",
"+ c #191919",
"@ c gray10",
"# c #1B1B1B",
"$ c #252525",
"% c gray15",
"& c #272727",
"* c gray20",
"= c #343434",
"- c #353535",
"; c gray26",
": c #434343",
"> c #444444",
", c gray27",
"< c gray32",
"1 c #535353",
"2 c gray33",
"3 c gray39",
"4 c #646464",
"5 c #656565",
"6 c #747474",
"7 c gray46",
"8 c #767676",
"9 c #868686",
"0 c gray53",
"q c #888888",
"w c gray60",
"e c #9A9A9A",
"r c #9B9B9B",
"t c #ACACAC",
"y c gray68",
"u c #AEAEAE",
"i c gray75",
"p c #C0C0C0",
"a c #C1C1C1",
"s c gray76",
"d c gray83",
"f c #D5D5D5",
"g c gray84",
"h c #E9E9E9",
"j c #EAEAEA",
"k c gray92",
"l c #FEFEFE",
"z c white",
/* pixels */
"                                                                                                                                                                                                ",
"                                                                                                                                                                                                ",
"                                                                                                                                                                                                ",
"                                                                                                                                                                                                ",
"                                                                                                                                                                                                ",
"                                                                                                                                                                                                ",
"                                                                                                                                                                                                ",
"                                                                                                                                                                                                ",
"                                                                                                                                                                                                ",
"                                                                                                                                                                                                ",
"                                                                                                                                                                                                ",
"                                                                                                                                                                                                ",
"                                                                                                                                                                                                ",
"                                                                                                                                                                                                ",
"                                                                                                                                                                                                ",
"                                                                                                                                                                                                ",
"                                             .                                                                 .                                           .                                    ",
"                     .              .                                                                      .                                                                                    ",
"                                             .                                                                                                                                                  ",
"                                    .             .                                              .. .     . .                                                               . ..                ",
"                       .                                                                           .          .                                           .                 .                   ",
"                 ofh#                                                                                       .                                              .               ofj@                 ",
"                 yzzy               @@          %%  ..                                                                                                                  . .yzzy                 ",
"                :zy0z1             4zz:        >lz9                                              7r&       1zyo                                            -@           . :zy0z1                ",
"                fj@ojd             yzz7       ojzzy.                                           Oyzzf       zzzy                      .                  . yzz:            fj@ojg      .         ",
"               1z7  4z1  .   .     wzze       0zzl%  .                 .                       ylzly      .yzzz1    ..              .     .              @zzz6.          1l7  4z1  ..           ",
"         .  =40jjo  ojke7=   .     7zza     .@zzz0 .     $==     .                         .  7zzzuo   ..  ofzzf         $==     .         %=+           4zzz@     . .=40jjo. Okje7*            ",
"        .<tzzlzf:.   :hzzzzt1      =lzzo  .  yzzjo . .@ehzzzze@.    2zy     .eze             okzziX        .;lll:   ..@ehzzzze@.  .=ueo.oejzlztO         szly      1yzzzzd:    ;jlzzzt<         ",
"        %zzu7-o.  .  ..o*7wkz%      kzz1    9zzl7    <zzzlzlzzj$   .hll@     zzz           . 4zlz#.  . .     gzz6    <zzzlzlzzj$ . ylz=%hzlzzlzt   .    @lzz2     %zzy7-X .    ..o=6rjz%        ",
"        ojz$  .           %hj@.     ezzg= >yzzlz@   :zzzjw7azzzs  .%zzg      zzz             yzze     o=     6zzu   :zzzjw7azzzs   yzz4kzzjyfzlz@  .    5zzh      ojz%  .          .%kj@        ",
"         %zj&. .         oaz>       @zzzzzlzlzze    fzle    =zzz:  =zzy      zzz           . zzz:    &jzao   :zzy   fzze    =zzz:  yzzhzz7X. fzz:       ezz0    .  %zj%            oal:         ",
"          1za%        . oaz1        .1zzzzzjjzz2  .:zza      ezz8  7zz7     %zzz           . zzz%    ezzz1   =zza  :zza      ezz6 .yzzzz1    0zz7       kzz%    .   1za&          oaz1          ",
"           1zj@        oaz1    ..     @0yy4@zzz@   7zz7      7zz7  6zz7     2lzz             zzz@    kzzze.  1zzy. 6zz7      7zz7  yzzz4     7zz7   .  =zzf      .   1zh@.    .  oaz1           ",
"            5z7        7z7                 =zzf    7lz0      0zz7  7zz7  .  fzzz             kzz:  .5zzzljo  rzze  7lz0      0zz7  yzzf      7zz7      1lz0  .        4z7        7z7            ",
"            =z7       .4z:             .   7zzy.   :zzfo    %jzz%  3zze    ezzzz%            ezzt  %jzzyzlw +zzz1 .;zlfO    %jzz$  yzzq      0zz7   .  oey@.         .=z7.       4z:   .        ",
"        .   8z;.    .  =z8              .. ezz0     hzzd1-=7klza   &zzl7=:uzzdzl=           .=lzzt0hzzf=lzzpklzhX   hzzd1-=7klza   uzz1.     ylz:         .           8z:     .  -z7   .        ",
"           .6z- . 12o .=zw. .          .   yzz7     :zlzzzzzzzj%    azzzzzzzp2zz4             uzzzzzzz=.uzzzzzz1    ,zlzzzzzzzj%   ezz=      yzz=     %fk2           .7z-   21X  =zw            ",
"            yz*o1dzzk7o zu                 elz4      =gzzzzzzy#    .%azzzzzyO@zz4          . .Xyzzlzj>  oyzzzz7      =glzzzzzy#    7zl;      alzo     ezzh            yz*o1flzj7O zu            ",
"           .tzejzj72fzjrzt                 o41.        %477>@        .>771@   %=    .         . @58:o     ;71@  .      %477>@      o42      .@7=      ezzg           .ylejzj81dzjezy   .        ",
"         .  ezzf4o   1azz0                        .                  .               .         .        .           .                                 owe%  .         ezzf4O   1azz9            ",
"            o<%     .  @-                                                                                                                                             o1&   .    #=             ",
"                           .                                                                                                                                                                    ",
"                                                                                                                                                                       .                        ",
"        .              . .                                                                                                                                        . .                 .         ",
"        .                   . .                                                                                                                                  .     ..    .   . .            ",
"              .                                                                                                                                                             .                   ",
"                            .                                                                                                                                                    .              ",
"                                                                                                                                                                                    .           ",
"                                                                                                                                                                                                ",
"                                                                                                                                                                                                ",
"                                                                                                                                                                                                ",
"                                                                                                                                                                                                ",
"                                                                                                                                                                                                ",
"                                                                                                                                                                                                ",
"                                                                                                                                                                                                ",
"                                                                                                                                                                                                ",
"                                                                                                                                                                                                ",
"                                                                                                                                                                                                ",
"                                                                                                                                                                                                ",
"                                                                                                                                                                                                ",
"                                                                                                                                                                                                ",
"                                                                                                                                                                                                ",
"                                                                                                                                                                                                ",
"                                                                                                                                                                                                "
};
